<svg width="576" height="538" viewBox="0 0 576 538" fill="none" xmlns="http://www.w3.org/2000/svg">
<g clip-path="url(#clip0)">
<path d="M165 70L583 0V538H165V70Z" fill="white"/>
<path d="M199.133 70.755L579.133 19V509H199.133V70.755Z" fill="url(#paint0_linear)"/>
<path d="M180.603 162.835L185.037 243.698L228.793 242.165L227.556 161.19L180.603 162.835Z" fill="#FDE3C2"/>
<path d="M228.41 241.175L237.484 240.857L239.621 161.476L227.23 160.198L228.41 241.175Z" fill="#E9C3AF"/>
<path d="M185.111 243.725L229.067 242.185L228.892 237.19L185.111 243.725Z" fill="#E9C3AF"/>
<path d="M202.538 197.157C195.193 201.596 190.021 211.176 190.986 218.553C191.95 225.931 198.687 228.313 206.033 223.872C213.379 219.43 218.553 209.85 217.586 202.475C216.933 197.48 213.634 194.776 209.292 194.928C206.889 195.087 204.565 195.854 202.539 197.157" fill="url(#paint1_linear)"/>
<path d="M211.335 197.854C208.132 201.952 205.181 206.242 202.498 210.698C202.217 210.488 201.942 210.269 201.665 210.056C200.621 209.237 199.523 208.488 198.424 207.74C196.229 206.201 193.926 204.822 191.532 203.614C192.955 205.991 194.534 208.27 196.258 210.438C197.096 211.509 197.934 212.585 198.826 213.593C199.711 214.61 200.557 215.673 201.485 216.633L203.315 218.523L205.19 216.216C209.018 211.514 212.508 206.545 215.631 201.347C218.929 196.078 221.671 190.481 223.815 184.646C219.192 188.586 215.008 193.015 211.335 197.854Z" fill="url(#paint2_linear)"/>
<path d="M278.536 239.378L235.217 240.896L230.801 160.032L277.282 158.404L278.536 239.378Z" fill="#FDE3C2"/>
<path d="M277.281 158.405L289.121 159.706L287.203 239.076L278.535 239.379L277.281 158.405Z" fill="#E9C3AF"/>
<path d="M235.216 240.896L278.534 239.378L278.419 236.082L235.216 240.896Z" fill="#E9C3AF"/>
<path d="M255.512 195.152C248.166 199.591 242.993 209.172 243.957 216.548C244.925 223.926 251.662 226.308 259.009 221.866C266.355 217.425 271.527 207.845 270.562 200.47C269.907 195.475 266.608 192.771 262.264 192.923C259.861 193.082 257.538 193.849 255.512 195.152Z" fill="url(#paint3_linear)"/>
<path d="M262.304 195.849C259.099 199.947 256.147 204.237 253.464 208.694C253.183 208.484 252.911 208.264 252.635 208.052C251.588 207.236 250.489 206.488 249.391 205.738C247.196 204.199 244.894 202.819 242.502 201.609C243.922 203.987 245.5 206.267 247.226 208.433C248.063 209.504 248.901 210.58 249.79 211.588C250.676 212.605 251.52 213.668 252.452 214.629L254.282 216.518L256.157 214.212C259.986 209.509 263.475 204.54 266.599 199.343C269.896 194.072 272.639 188.475 274.785 182.641C270.16 186.58 265.976 191.009 262.304 195.849Z" fill="url(#paint4_linear)"/>
<path d="M320.388 237.597L287.483 238.75L284.483 187.404L319.786 186.167L320.388 237.597Z" fill="#E3DCB1"/>
<path d="M319.787 186.165L328.774 186.94L326.971 237.365L320.389 237.596L319.787 186.165Z" fill="#A69A85"/>
<path d="M287.486 238.75L320.389 237.597L320.315 235.505L287.486 238.75Z" fill="#A69A85"/>
<path d="M302.211 209.65C296.66 212.457 292.725 218.46 293.415 223.06C294.113 227.659 299.173 229.114 304.722 226.31C310.273 223.504 314.209 217.502 313.515 212.899C313.047 209.788 310.574 208.115 307.304 208.23C305.524 208.332 303.787 208.816 302.211 209.65Z" fill="url(#paint5_linear)"/>
<path d="M307.367 210.242C304.909 212.892 302.621 215.696 300.517 218.636C300.3 218.5 300.093 218.358 299.878 218.222C299.078 217.695 298.235 217.211 297.394 216.726C295.694 215.728 293.929 214.842 292.112 214.075C293.209 215.632 294.414 217.109 295.718 218.496C296.356 219.191 296.997 219.887 297.677 220.54C298.355 221.198 299 221.887 299.713 222.506L301.114 223.726L302.562 222.218C305.497 219.181 308.204 215.932 310.661 212.497C313.184 209.112 315.319 205.454 317.026 201.593C313.507 204.123 310.27 207.023 307.367 210.242Z" fill="url(#paint6_linear)"/>
<path d="M358.938 236.608L326.402 237.748L323.416 186.401L358.325 185.178L358.938 236.608Z" fill="#E3DCB1"/>
<path d="M358.325 185.177L367.212 185.954L365.449 236.379L358.938 236.607L358.325 185.177Z" fill="#A69A85"/>
<path d="M326.402 237.747L358.938 236.608L358.864 234.516L326.402 237.747Z" fill="#A69A85"/>
<path d="M341.241 207.644C335.638 210.453 331.658 216.458 332.355 221.057C333.053 225.657 338.168 227.11 343.771 224.304C349.374 221.496 353.356 215.492 352.656 210.89C352.187 207.779 349.689 206.107 346.388 206.222C344.591 206.325 342.836 206.809 341.241 207.644Z" fill="url(#paint7_linear)"/>
<path d="M345.841 209.238C343.45 211.891 341.229 214.692 339.191 217.625C338.986 217.489 338.781 217.346 338.577 217.21C337.798 216.682 336.979 216.198 336.163 215.712C334.512 214.713 332.798 213.826 331.029 213.056C332.093 214.611 333.265 216.089 334.535 217.48C335.16 218.175 335.784 218.873 336.442 219.526C337.099 220.185 337.727 220.874 338.42 221.494L339.781 222.715L341.187 221.21C344.039 218.168 346.663 214.922 349.04 211.497C351.494 208.104 353.564 204.449 355.212 200.599C351.787 203.134 348.646 206.031 345.841 209.238Z" fill="url(#paint8_linear)"/>
<path d="M343.405 185.388L310.289 186.548L307.251 134.307L342.783 133.062L343.405 185.388Z" fill="#E3DCB1"/>
<path d="M342.783 133.061L351.829 133.852L350.033 185.155L343.406 185.387L342.783 133.061Z" fill="#A69A85"/>
<path d="M310.289 186.547L343.406 185.387L343.331 183.259L310.289 186.547Z" fill="#A69A85"/>
<path d="M325.076 156.537C319.474 159.345 315.491 165.35 316.191 169.953C316.892 174.552 322.005 176.008 327.608 173.2C333.211 170.392 337.192 164.388 336.494 159.785C336.024 156.673 333.524 154.999 330.228 155.115C328.429 155.216 326.673 155.701 325.076 156.537Z" fill="url(#paint9_linear)"/>
<path d="M330.368 157.945C327.909 160.631 325.622 163.47 323.521 166.445C323.304 166.306 323.097 166.16 322.882 166.027C322.081 165.493 321.24 165.002 320.398 164.513C318.699 163.499 316.933 162.599 315.114 161.82C316.209 163.395 317.415 164.89 318.722 166.295C319.361 167 320.001 167.706 320.685 168.368C321.36 169.033 322.009 169.733 322.719 170.361L324.118 171.602L325.572 170.077C328.505 166.998 331.21 163.707 333.663 160.233C336.188 156.8 338.321 153.096 340.022 149.19C336.502 151.756 333.266 154.691 330.368 157.945Z" fill="url(#paint10_linear)"/>
<path d="M153.994 451.462C161.185 450.962 168.377 450.924 175.565 450.851C182.756 450.921 189.948 450.951 197.139 451.462C189.948 451.972 182.756 452.003 175.565 452.073C168.377 452 161.185 451.967 153.994 451.462Z" fill="#F0758F"/>
<path d="M147.99 429.662L150.596 450.852L145.941 506.268L153.108 454.924L182.992 453.502L152.551 451.462L152.27 432.512L200.401 430.072L147.99 429.662Z" fill="#FFFCE9"/>
<path d="M174.876 466.827L178.612 463.907L180.676 468.392L185.23 467.707L185.155 472.733L189.475 474.433L187.276 478.847L190.376 482.554L186.554 485.343L187.724 490.198L183.157 490.724L182.131 495.624L177.863 493.764L174.876 497.579L171.887 493.766L167.619 495.626L166.593 490.726L162.026 490.2L163.196 485.345L159.376 482.554L162.476 478.847L160.276 474.435L164.596 472.735L164.519 467.707L169.071 468.394L171.137 463.907L174.876 466.827Z" fill="#FFF8E2"/>
<path d="M148.05 508H205.979L201.096 505.251L197.829 454.212H186.429V504.792L148.053 507.998L148.05 508ZM186.706 451.463H197.506L198.996 432.312L193.179 432.719C193.793 435.735 194.03 438.815 193.885 441.889C193.555 446.32 186.995 446.371 186.716 446.371H186.706V451.462V451.463Z" fill="#F2B39A"/>
<path d="M204.406 451.462C211.597 450.962 218.789 450.924 225.977 450.851C233.168 450.921 240.36 450.951 247.548 451.462C240.36 451.972 233.168 452.003 225.977 452.073C218.789 452 211.597 451.967 204.406 451.462Z" fill="#F0758F"/>
<path d="M198.402 429.662L201.008 450.852L196.353 506.268L203.52 454.924L233.404 453.502L202.963 451.462L202.682 432.512L250.813 430.072L198.402 429.662Z" fill="#FFFCE9"/>
<path d="M225.288 466.827L229.024 463.907L231.088 468.392L235.642 467.707L235.567 472.733L239.887 474.433L237.688 478.847L240.788 482.554L236.966 485.343L238.136 490.198L233.569 490.724L232.54 495.624L228.275 493.764L225.288 497.579L222.299 493.766L218.031 495.626L217.005 490.726L212.438 490.2L213.608 485.345L209.788 482.554L212.888 478.847L210.688 474.435L215.008 472.735L214.931 467.707L219.483 468.394L221.549 463.907L225.288 466.827Z" fill="#FFF8E2"/>
<path d="M198.462 508H256.388L251.507 505.251L248.24 454.212H236.84V504.792L198.464 507.998L198.462 508ZM237.119 451.463H247.919L249.408 432.312L243.588 432.719C244.202 435.735 244.439 438.815 244.294 441.889C243.963 446.32 237.404 446.371 237.125 446.371H237.115V451.462L237.119 451.463Z" fill="#F2B39A"/>
<path d="M254.322 451.462C261.513 450.962 268.705 450.924 275.893 450.851C283.084 450.921 290.273 450.951 297.464 451.462C290.273 451.972 283.084 452.003 275.893 452.073C268.705 452 261.513 451.967 254.322 451.462Z" fill="#F0758F"/>
<path d="M248.317 429.662L250.923 450.852L246.268 506.268L253.435 454.924L283.319 453.502L252.878 451.462L252.597 432.512L300.728 430.072L248.317 429.662Z" fill="#FFFCE9"/>
<path d="M275.203 466.827L278.939 463.907L281.003 468.392L285.557 467.707L285.482 472.733L289.802 474.433L287.603 478.847L290.703 482.554L286.881 485.343L288.051 490.198L283.484 490.724L282.455 495.624L278.19 493.764L275.203 497.579L272.214 493.766L267.946 495.626L266.92 490.726L262.353 490.2L263.523 485.345L259.703 482.554L262.803 478.847L260.603 474.435L264.923 472.735L264.846 467.707L269.398 468.394L271.464 463.907L275.203 466.827Z" fill="#FFF8E2"/>
<path d="M248.377 508H306.303L301.422 505.251L298.155 454.212H286.755V504.792L248.379 507.998L248.377 508ZM287.034 451.463H297.834L299.323 432.312L293.503 432.719C294.117 435.735 294.354 438.815 294.209 441.889C293.878 446.32 287.319 446.371 287.04 446.371H287.03V451.462L287.034 451.463Z" fill="#F2B39A"/>
<path d="M300.346 409.634L303.646 435.923L297.746 504.673L306.835 440.973L344.725 439.203L306.125 436.674L305.776 413.174L366.8 410.141L300.346 409.634Z" fill="#FFFCE9"/>
<path d="M334.432 455.743L339.172 452.118L341.793 457.686L347.562 456.833L347.462 463.065L352.938 465.181L350.155 470.654L354.085 475.256L349.24 478.711L350.725 484.74L344.935 485.393L343.635 491.47L338.227 489.17L334.436 493.9L330.648 489.17L325.236 491.47L323.936 485.393L318.146 484.74L319.631 478.711L314.785 475.256L318.715 470.656L315.925 465.183L321.401 463.067L321.309 456.835L327.075 457.688L329.694 452.118L334.432 455.743Z" fill="#FFF8E2"/>
<path d="M299.538 506.822H372.993L366.799 503.41L362.659 440.09H348.205V502.84L299.538 506.822ZM348.556 436.679H362.249L364.138 412.922L356.764 413.422C357.543 417.161 357.844 420.985 357.658 424.8C357.242 430.3 348.923 430.358 348.569 430.358H348.556V436.674V436.679Z" fill="#F2B39A"/>
<path d="M307.959 436.68C317.075 436.055 326.192 436.012 335.309 435.924C344.425 436.009 353.542 436.049 362.659 436.68C353.542 437.311 344.425 437.351 335.309 437.439C326.192 437.348 317.075 437.308 307.959 436.68Z" fill="#F0758F"/>
<path d="M412 413.724L413.8 509H449.042L450.838 413.724H412Z" fill="url(#paint11_linear)"/>
<path d="M416 483H445V438H416V483Z" fill="#F9C6B2"/>
<path d="M416.43 413.724L417.136 509H449.052L423.735 504.71L424.09 413.724H416.43Z" fill="#F2B39A"/>
<path d="M453.257 413.724L455.063 509H490.486L492.295 413.724H453.257Z" fill="url(#paint12_linear)"/>
<path d="M457 483H486V438H457V483Z" fill="#F9C6B2"/>
<path d="M456.892 413.724L457.598 509H489.514L464.197 504.71L464.552 413.724H456.892Z" fill="#F2B39A"/>
<path d="M493.711 413.724L495.52 509H530.943L532.751 413.724H493.711Z" fill="url(#paint13_linear)"/>
<path d="M498 483H527V438H498V483Z" fill="#F9C6B2"/>
<path d="M498.351 413.724L499.051 509H530.751L505.605 504.71L505.958 413.724H498.351Z" fill="#F2B39A"/>
<path d="M540 413.724L541.8 509H577.042L578.838 413.724H540Z" fill="url(#paint14_linear)"/>
<path d="M544 483H573V438H544V483Z" fill="#F9C6B2"/>
<path d="M544.43 413.724L545.136 509H577.052L551.735 504.71L552.09 413.724H544.43Z" fill="#F2B39A"/>
<path d="M435 317.724L436.8 413H472.042L473.838 317.724H435Z" fill="url(#paint15_linear)"/>
<path d="M439 387H468V342H439V387Z" fill="#F9C6B2"/>
<path d="M439.43 317.724L440.136 413H472.052L446.735 408.71L447.09 317.724H439.43Z" fill="#F2B39A"/>
<path d="M476.257 317.724L478.063 413H513.486L515.295 317.724H476.257Z" fill="url(#paint16_linear)"/>
<path d="M480 387H509V342H480V387Z" fill="#F9C6B2"/>
<path d="M479.892 317.724L480.598 413H512.514L487.197 408.71L487.552 317.724H479.892Z" fill="#F2B39A"/>
<path d="M516.711 317.724L518.52 413H553.943L555.751 317.724H516.711Z" fill="url(#paint17_linear)"/>
<path d="M521 387H550V342H521V387Z" fill="#F9C6B2"/>
<path d="M521.351 317.724L522.051 413H553.751L528.605 408.71L528.958 317.724H521.351Z" fill="#F2B39A"/>
<path d="M377.826 538V253.473L142.226 270.053L140.654 247.429L377.826 230.739V40H400.44V229.148L636.04 212.568L637.611 235.191L400.439 251.881V538H377.826Z" fill="white"/>
<path d="M414.605 177.374C420.821 176.607 427.063 176.251 433.293 175.861C439.532 175.595 445.777 175.297 452.039 175.412C445.823 176.185 439.581 176.538 433.348 176.926C427.107 177.189 420.866 177.487 414.604 177.374" fill="#F0758F"/>
<path d="M408.397 158.632L411.627 176.997L410.122 225.542L413.993 180.432L439.857 177.833L413.35 177.439L412.241 160.922L453.892 156.607L408.397 158.632Z" fill="#FFFCE9"/>
<path d="M433.423 189.825L436.533 187.109L438.536 190.926L442.454 190.12L442.618 194.507L446.439 195.802L444.732 199.75L447.593 202.839L444.404 205.445L445.645 209.627L441.707 210.293L441.037 214.611L437.248 213.183L434.826 216.646L432.055 213.455L428.442 215.271L427.328 211.043L423.342 210.792L424.135 206.503L420.691 204.245L423.212 200.87L421.104 197.13L424.774 195.443L424.479 191.063L428.46 191.455L430.047 187.449L433.423 189.825Z" fill="#FFF8E2"/>
<path d="M412.035 226.958L462.294 224.324L457.931 222.149L452.764 177.78L442.871 178.298L445.183 222.414L412.035 226.955V226.958ZM442.989 175.888L452.358 175.397L452.776 158.624L447.748 159.244C448.424 161.846 448.77 164.522 448.78 167.21C448.696 171.09 443.007 171.433 442.765 171.445L442.756 171.446L442.989 175.887V175.888Z" fill="#F2B39A"/>
<path d="M458.034 175.098C464.251 174.331 470.493 173.975 476.723 173.585C482.965 173.319 489.21 173.021 495.467 173.136C489.253 173.909 483.015 174.262 476.778 174.65C470.538 174.913 464.297 175.211 458.034 175.098Z" fill="#F0758F"/>
<path d="M451.828 156.356L455.057 174.721L453.552 223.266L457.423 178.156L483.288 175.557L456.781 175.163L455.671 158.646L497.322 154.331L451.828 156.356Z" fill="#FFFCE9"/>
<path d="M476.853 187.549L479.963 184.833L481.965 188.65L485.883 187.844L486.047 192.231L489.868 193.526L488.162 197.474L491.022 200.563L487.833 203.169L489.075 207.351L485.136 208.017L484.464 212.335L480.678 210.907L478.256 214.37L475.485 211.179L471.872 212.995L470.758 208.766L466.771 208.516L467.565 204.227L464.121 201.969L466.642 198.594L464.533 194.854L468.204 193.167L467.908 188.787L471.889 189.179L473.477 185.173L476.853 187.549Z" fill="#FFF8E2"/>
<path d="M455.464 224.682L505.721 222.048L501.36 219.873L496.193 175.504L486.3 176.022L488.612 220.138L455.465 224.679L455.464 224.682ZM486.417 173.612L495.786 173.121L496.204 156.348L491.177 156.968C491.854 159.569 492.202 162.245 492.213 164.934C492.129 168.814 486.44 169.156 486.199 169.169L486.19 169.17L486.422 173.61L486.417 173.612Z" fill="#F2B39A"/>
<path d="M501.9 172.799C508.116 172.032 514.358 171.676 520.589 171.286C526.831 171.02 533.07 170.722 539.333 170.838C533.117 171.61 526.881 171.963 520.644 172.351C514.404 172.614 508.163 172.912 501.9 172.799Z" fill="#F0758F"/>
<path d="M495.694 154.057L498.923 172.422L497.418 220.967L501.289 175.857L527.154 173.258L500.647 172.864L499.537 156.347L541.188 152.032L495.694 154.057Z" fill="#FFFCE9"/>
<path d="M520.719 185.25L523.83 182.534L525.832 186.351L529.75 185.545L529.914 189.932L533.735 191.227L532.028 195.175L534.889 198.264L531.7 200.87L532.942 205.052L529.003 205.718L528.331 210.036L524.545 208.608L522.123 212.071L519.352 208.88L515.738 210.696L514.625 206.468L510.638 206.217L511.432 201.928L507.988 199.67L510.509 196.295L508.4 192.555L512.071 190.868L511.775 186.488L515.756 186.88L517.343 182.874L520.719 185.25Z" fill="#FFF8E2"/>
<path d="M499.331 222.383L549.588 219.749L545.227 217.574L540.06 173.205L530.167 173.723L532.479 217.839L499.331 222.38V222.383ZM530.284 171.313L539.653 170.822L540.071 154.049L535.044 154.669C535.721 157.27 536.069 159.946 536.08 162.635C535.996 166.515 530.307 166.857 530.065 166.87L530.056 166.871L530.289 171.312L530.284 171.313Z" fill="#F2B39A"/>
<path d="M539.639 134.704L543.706 157.359L541.704 217.268L546.706 161.599L579.555 158.337L545.899 157.898L544.517 137.528L597.407 132.117L539.639 134.704Z" fill="#FFFCE9"/>
<path d="M571.355 173.151L575.307 169.79L577.834 174.501L582.808 173.498L583.009 178.909L587.864 180.495L585.694 185.368L589.318 189.184L585.265 192.4L586.829 197.562L581.828 198.392L580.968 203.726L576.164 201.975L573.083 206.251L569.573 202.32L564.975 204.564L563.566 199.351L558.505 199.049L559.522 193.751L555.157 190.976L558.363 186.802L555.69 182.181L560.352 180.096L559.989 174.694L565.038 175.171L567.072 170.222L571.355 173.151Z" fill="#FFF8E2"/>
<path d="M543.359 219.053L607.184 215.708L601.647 213.029L595.174 158.293L582.611 158.951L585.463 213.381L543.358 219.051L543.359 219.053ZM582.761 155.971L594.661 155.348L595.225 134.652L588.841 135.424C589.693 138.631 590.128 141.935 590.135 145.254C590.024 150.04 582.798 150.474 582.49 150.49L582.479 150.491L582.766 155.97L582.761 155.971Z" fill="#F2B39A"/>
<path d="M547.48 157.819C555.377 156.862 563.297 156.41 571.214 155.919C579.14 155.576 587.064 155.196 595.015 155.328C587.122 156.292 579.202 156.741 571.282 157.232C563.356 157.568 555.432 157.949 547.48 157.819Z" fill="#F0758F"/>
<path d="M199 70.755L579 19V509H199V70.755Z" fill="url(#paint18_linear)"/>
<path d="M118.31 289.251C119.345 279.251 142.322 273.1 160.235 264.928L230.57 257C246.726 260.679 262.611 265.457 278.116 271.3C298.365 443.932 265.816 514.462 188.75 466.112C140.213 387.04 106.7 336.131 118.31 289.251Z" fill="url(#paint19_linear)"/>
<path d="M204.489 507C185.03 482.562 178.789 445.713 185.766 396.454C183.244 415.025 191.426 433.344 205.997 441.754C220.568 450.164 238.183 446.727 249.55 433.254C260.917 419.781 263.423 399.382 255.75 382.799C244.943 358.177 250.393 338.874 269.809 329C282.171 381.751 289.568 424.561 292 457.431L284.584 459.331C281.865 460.044 279.349 461.379 277.234 463.231L276.119 464.195C274.021 465.048 272.096 466.277 270.44 467.821L266.162 471.771L262.791 474.687C262.621 474.834 262.456 474.982 262.291 475.131C259.81 475.878 257.517 477.146 255.567 478.852L252.748 481.291L249.715 483.391L243.153 487.176C241.54 488.179 240.029 489.337 238.642 490.634L236.487 491.628C234.573 492.618 232.748 493.771 231.032 495.074H231.022L228.128 495.908C225.828 496.579 223.684 497.701 221.822 499.208L221.091 499.771C219.73 500.4 218.291 500.996 216.978 501.751L213.76 503.608C210.407 503.818 207.186 504.996 204.489 507Z" fill="url(#paint20_linear)"/>
<path d="M222.001 244.208C216.243 231.46 212.819 210.914 212.508 209.008C214.157 209.556 216.255 208.59 218.635 206.122C221.548 205.293 222.01 202.457 229.658 198.457C243.225 164.771 215.039 153.694 146 181.999C144.573 186.506 147.251 211.223 149.484 218.012C149.958 219.499 150.599 218.856 151.144 218.212C151.253 218.084 151.357 217.956 151.456 217.844C151.403 217.795 151.356 217.744 151.301 217.696C150.847 217.247 150.545 216.796 151.311 217.022L175.857 219.282C180.687 224.682 185.487 226.824 190.333 225.714L167 252.845C169.361 257.168 170.427 261.231 170.2 265.034C176.385 266.869 182.789 267.867 189.239 268.001C204.051 267.999 214.973 261.066 222.001 244.208ZM152.226 218.431C152.156 217.224 151.854 217.398 151.456 217.846C151.682 218.077 151.939 218.274 152.22 218.433L152.226 218.431Z" fill="url(#paint21_linear)"/>
<path opacity="0.305" d="M225 250.829C200.713 270.128 186.38 274.856 182 265.012C187.053 264.517 191.851 262.555 195.803 259.368C199.756 256.18 202.689 251.907 204.243 247.073C211.688 235.7 213.67 219.928 216.405 221.057C218.192 230.057 223.128 247.076 225 250.829Z" fill="url(#paint22_linear)"/>
<path d="M197.938 290.113C209.543 284.513 219.209 274.719 228.009 261.975C229.115 260.458 229.789 258.67 229.959 256.8C230.24 252.174 229.076 247.01 226.466 241.308C225.288 238.652 223.244 238.291 221.913 240.213C215.752 249.623 202.91 257.944 183.387 265.177C179.922 264.378 176.694 262.777 173.961 260.501C171.229 258.226 169.07 255.34 167.658 252.077C167.015 250.629 165.658 250.635 164.558 252.132C163.031 254.137 161.77 256.332 160.807 258.661C159.995 260.475 159.797 262.504 160.245 264.44C161.959 272.199 166.077 279.952 172.6 287.7C175.169 290.586 177.626 290.761 178.419 288.221L183.339 273.542L190.639 290.292C191.2 291.531 191.92 292 192.846 292C194.126 292 195.795 291.1 197.938 290.113Z" fill="white"/>
<path d="M223.6 212.843C237.668 195.638 240.73 175.742 232.451 161L232.262 161.081C231.315 159.294 230.214 157.594 228.97 156C210.311 162.676 200.6 172.775 201.013 179.971C201.691 191.882 208.461 196.965 209.886 192.261C210.601 190.041 211.733 187.978 213.22 186.182C213.153 186.649 213.08 187.115 213 187.582C219.974 178.3 233 198 212.5 209C210.476 212.037 214.816 214.594 218.879 214.594C219.744 214.645 220.611 214.515 221.423 214.214C222.236 213.912 222.977 213.446 223.6 212.843Z" fill="url(#paint23_linear)"/>
<path d="M168.817 254C177.374 254.019 185.778 251.729 193.143 247.372C193.075 247.579 193.004 247.788 192.93 248C207.325 239.8 216.117 223.962 210.06 204.867C208.847 201.053 206.287 200.948 205.11 205.129C200.935 219.418 190.268 222.755 183 219.206C183.02 219.381 183.048 219.552 183.083 219.72C182.458 219.705 181.834 219.722 181.211 219.771C179.586 219.871 177.942 219.971 177 219H174.5C170.223 214.308 166.969 215.778 156 216.5C154.678 216.567 153.353 216.519 152.04 216.359C149.44 216.059 148.928 215.759 149.003 219.103C149.615 243.689 156 254 168.777 254H168.817Z" fill="url(#paint24_linear)"/>
<path opacity="0.267" d="M217.994 189.086C216.079 188.486 213.634 191.092 212.534 194.91C211.434 198.728 212.092 202.31 214.006 202.91C215.92 203.51 218.366 200.905 219.467 197.086C220.568 193.267 219.909 189.686 217.994 189.086Z" fill="#E63D17"/>
<path d="M159.81 224.417C161.236 223.088 162.772 222.717 163.746 223.917C164.544 224.153 165.394 224.142 166.185 223.885C166.976 223.628 167.671 223.138 168.178 222.479C168.679 221.824 168.964 221.031 168.996 220.207C169.027 219.383 168.803 218.57 168.354 217.879C167.899 217.183 167.243 216.642 166.474 216.326C165.705 216.01 164.858 215.935 164.045 216.111L163.755 214.855L164 215C163.579 213.163 163.198 211.507 162.858 210.032C161.905 201.967 159.619 199.303 156 202.04C156 202.04 156.055 203.152 156.165 205.373C155.878 204.935 155.625 204.476 155.408 204C155.22 207.491 154.067 210.861 152.078 213.736C148.08 219.585 150.084 225 156.093 225C157.353 224.982 158.605 224.786 159.81 224.417Z" fill="url(#paint25_linear)"/>
<path d="M172.5 190C171.837 190 171.201 190.263 170.732 190.732C170.263 191.201 170 191.837 170 192.5C170 193.163 170.263 193.799 170.732 194.268C171.201 194.737 171.837 195 172.5 195C173.163 195 173.799 194.737 174.268 194.268C174.737 193.799 175 193.163 175 192.5C175 191.837 174.737 191.201 174.268 190.732C173.799 190.263 173.163 190 172.5 190Z" fill="black"/>
<path d="M148.5 191C147.837 191 147.201 191.263 146.732 191.732C146.263 192.201 146 192.837 146 193.5C146 194.163 146.263 194.799 146.732 195.268C147.201 195.737 147.837 196 148.5 196C149.163 196 149.799 195.737 150.268 195.268C150.737 194.799 151 194.163 151 193.5C151 192.837 150.737 192.201 150.268 191.732C149.799 191.263 149.163 191 148.5 191Z" fill="black"/>
<path d="M152.145 219.03C149.507 218.795 149.719 219.936 150.585 222.64C153.685 231.403 166.216 231.183 172.657 221.533C173.533 220.291 172.634 219.011 171.06 219.07C164.76 219.426 158.444 219.413 152.145 219.03Z" fill="url(#paint26_linear)"/>
<path d="M173.5 206C175.274 206.003 177.031 205.652 178.667 204.966C180.303 204.28 181.786 203.274 183.027 202.006C185.11 199.907 186.45 197.186 186.845 194.256L209.472 193.24C209.682 193.231 209.888 193.181 210.078 193.091C210.268 193.001 210.439 192.875 210.579 192.718C210.868 192.402 211.019 191.984 211 191.556C210.986 191.142 210.813 190.75 210.516 190.462C210.219 190.173 209.822 190.011 209.408 190.009H209.336L186.909 191.014C186.604 187.884 185.233 184.954 183.027 182.714C181.785 181.447 180.303 180.442 178.667 179.757C177.03 179.072 175.274 178.721 173.5 178.725C171.725 178.722 169.968 179.073 168.332 179.759C166.695 180.445 165.212 181.452 163.971 182.72C161.43 185.285 160.011 188.753 160.024 192.363C160.011 195.973 161.431 199.441 163.971 202.006C165.213 203.274 166.695 204.28 168.332 204.966C169.968 205.652 171.726 206.004 173.5 206ZM173.5 181.967C174.852 181.965 176.191 182.233 177.438 182.757C178.685 183.28 179.814 184.047 180.76 185.013C182.697 186.968 183.778 189.611 183.768 192.362C183.778 195.114 182.696 197.757 180.76 199.712C179.814 200.678 178.685 201.445 177.438 201.968C176.191 202.491 174.852 202.759 173.5 202.757C172.148 202.759 170.808 202.491 169.561 201.968C168.314 201.445 167.184 200.678 166.238 199.712C164.302 197.757 163.22 195.114 163.23 192.362C163.22 189.611 164.302 186.968 166.238 185.013C167.184 184.047 168.314 183.279 169.561 182.756C170.808 182.233 172.148 181.965 173.5 181.967ZM145.872 204.275C147.477 204.257 149.06 203.889 150.509 203.199C151.958 202.508 153.24 201.51 154.266 200.275C156.55 197.585 157.786 194.161 157.744 190.632C157.785 187.103 156.55 183.678 154.266 180.988C153.239 179.755 151.957 178.76 150.507 178.072C149.058 177.383 147.476 177.017 145.872 177C144.267 177.018 142.685 177.384 141.236 178.074C139.786 178.763 138.504 179.76 137.478 180.994C135.194 183.684 133.958 187.109 134 190.638C133.958 194.167 135.194 197.592 137.479 200.281C138.505 201.515 139.787 202.512 141.236 203.202C142.685 203.891 144.267 204.257 145.872 204.275ZM145.872 180.243C147.096 180.256 148.302 180.536 149.407 181.061C150.512 181.587 151.489 182.346 152.272 183.287C154.012 185.337 154.954 187.948 154.922 190.637C154.953 193.326 154.012 195.936 152.272 197.986C151.49 198.927 150.512 199.687 149.407 200.213C148.302 200.739 147.096 201.018 145.872 201.032C144.648 201.018 143.442 200.739 142.337 200.213C141.232 199.687 140.254 198.927 139.472 197.986C137.731 195.936 136.79 193.326 136.821 190.637C136.789 187.947 137.731 185.337 139.472 183.287C140.255 182.346 141.232 181.587 142.337 181.062C143.442 180.536 144.648 180.257 145.872 180.244V180.243Z" fill="black"/>
<path d="M188.124 125.61C223.072 132.307 247.366 153.683 228.774 165.815C180.307 180.693 164.248 166.666 188.124 125.61Z" fill="url(#paint27_linear)"/>
<path d="M200.782 158.692C200.734 143.783 203.002 122.434 171.83 124.2C140.658 125.967 145.796 156.81 145.796 156.81C145.796 156.81 143.027 173.025 171.992 174.279C200.957 175.534 200.83 173.602 200.782 158.692Z" fill="url(#paint28_linear)"/>
<path d="M224.956 162.727C189.08 170.643 146.905 162.934 147.088 154.038C147.102 152.513 145.374 152.329 141.783 153.809C119.57 163.102 111.893 171.571 115.84 176.982C123.973 187.973 155.73 190.596 173.519 186.486C206.718 178.756 221.012 169.559 221.012 169.559C228.705 165.064 232.838 161.019 224.956 162.727Z" fill="url(#paint29_linear)"/>
<path opacity="0.131" d="M231.419 260.443C223.559 271.468 216.868 277.856 208 282C208.716 281.133 208.929 279.66 208.64 277.579C207.228 267.286 210.297 259.854 217.847 255.285C222.385 252.86 226.121 249.169 228.6 244.661C229.6 243.448 230.44 243.904 231.12 246.027C233.161 252.227 233.936 256.955 231.42 260.442" fill="#FF916F"/>
<path d="M45.657 262H134.342C135.316 262.007 136.247 262.399 136.932 263.091C137.617 263.782 138.001 264.716 138 265.69V348.31C138.002 349.284 137.618 350.218 136.932 350.91C136.247 351.601 135.316 351.993 134.342 352H45.657C44.6836 351.993 43.7526 351.601 43.0673 350.909C42.3821 350.218 41.9984 349.283 42 348.31V265.69C41.9984 264.717 42.3821 263.782 43.0673 263.091C43.7526 262.399 44.6836 262.007 45.657 262Z" fill="url(#paint30_linear)"/>
<path d="M170.152 262H132.847C132.358 262.001 131.889 262.196 131.543 262.541C131.197 262.887 131.002 263.356 131 263.845V350.155C131.002 350.644 131.197 351.113 131.543 351.459C131.889 351.804 132.358 351.999 132.847 352H170.152C170.641 351.999 171.11 351.805 171.456 351.459C171.803 351.114 171.998 350.645 172 350.156V263.845C171.998 263.356 171.803 262.887 171.457 262.541C171.11 262.196 170.641 262.001 170.152 262Z" fill="url(#paint31_linear)"/>
<path d="M83.574 262H96.427C96.5758 261.997 96.7196 262.054 96.827 262.157C96.9344 262.26 96.9966 262.401 97 262.55V283.45C96.9966 283.599 96.9344 283.74 96.827 283.843C96.7196 283.946 96.5758 284.003 96.427 284H83.574C83.4253 284.003 83.2815 283.947 83.174 283.844C83.0665 283.741 83.0039 283.6 83 283.451V262.55C83.0037 262.401 83.0661 262.26 83.1736 262.157C83.2812 262.054 83.4251 261.997 83.574 262Z" fill="url(#paint32_linear)"/>
<path opacity="0.274" d="M131 307V350.6C131.066 351.025 131.294 351.407 131.635 351.668C131.977 351.929 132.406 352.048 132.833 352H168C166.709 330.821 137.781 337.66 131 307Z" fill="url(#paint33_linear)"/>
<path d="M140.929 328H161.071C161.582 328.002 162.072 328.205 162.433 328.567C162.795 328.928 162.998 329.418 163 329.929V340.071C162.998 340.582 162.795 341.072 162.433 341.433C162.072 341.795 161.582 341.998 161.071 342H140.929C140.418 341.998 139.928 341.795 139.567 341.433C139.205 341.072 139.002 340.582 139 340.071V329.929C139.002 329.418 139.205 328.928 139.567 328.567C139.928 328.205 140.418 328.002 140.929 328Z" fill="url(#paint34_linear)"/>
<path d="M7.14796 348.828H163.479C165.191 348.836 166.831 349.522 168.039 350.736C169.247 351.949 169.926 353.592 169.927 355.304V500.304C169.926 502.016 169.247 503.659 168.039 504.872C166.83 506.085 165.191 506.771 163.479 506.78H7.14796C5.43559 506.771 3.79625 506.085 2.58794 504.872C1.37962 503.659 0.700537 502.016 0.698975 500.304V355.304C0.700275 353.592 1.37928 351.949 2.58765 350.736C3.79602 349.522 5.43551 348.836 7.14796 348.828Z" fill="url(#paint35_linear)"/>
<path d="M226.756 349H161.244C160.385 349.002 159.562 349.344 158.954 349.95C158.346 350.557 158.003 351.38 158 352.239V503.761C158.003 504.62 158.346 505.443 158.954 506.05C159.562 506.656 160.385 506.998 161.244 507H226.756C227.615 506.998 228.438 506.656 229.046 506.05C229.654 505.443 229.997 504.62 230 503.761V352.239C229.997 351.38 229.654 350.557 229.046 349.95C228.438 349.343 227.615 349.002 226.756 349Z" fill="url(#paint36_linear)"/>
<path opacity="0.274" d="M158 441V504.945C158 506.075 159.2 507 160.676 507H212C210.115 475.937 167.9 485.968 158 441Z" fill="url(#paint37_linear)"/>
<path d="M73.983 348H96.016C96.277 348.001 96.527 348.105 96.7113 348.29C96.8957 348.475 96.9995 348.725 97 348.986V426.014C96.9995 426.275 96.8957 426.525 96.7113 426.71C96.527 426.895 96.277 426.999 96.016 427H73.983C73.7222 426.999 73.4725 426.894 73.2883 426.71C73.1042 426.525 73.0005 426.275 73 426.014V348.986C73.0005 348.725 73.1042 348.475 73.2883 348.29C73.4725 348.106 73.7222 348.001 73.983 348Z" fill="url(#paint38_linear)"/>
<path d="M177.135 458H209.866C211.591 458 213 459.054 213 460.342V472.658C213 473.946 211.591 475 209.866 475H177.135C175.41 475 174 473.946 174 472.658V460.342C174 459.054 175.41 458 177.135 458Z" fill="url(#paint39_linear)"/>
<path d="M186.971 489.127C194.608 486.863 202.515 485.637 210.479 485.483C210.479 485.483 229.626 469.33 266.247 434.718C271.661 429.653 274.418 420.744 272.617 412.348C272.617 412.348 270.339 399.034 265.48 375.257C269.921 364.269 276.688 357.257 288.056 353.977C293.668 352.359 299.574 352.041 305.327 353.048C311.079 354.054 316.527 356.358 321.256 359.785C326.424 390.284 329.008 405.533 329.008 405.534C332.379 428.594 327.176 447.173 313.145 456.448L227.888 508.748C224.994 513.259 220.979 516.942 216.237 519.438C211.494 521.933 206.185 523.157 200.828 522.988C195.472 522.815 190.251 521.256 185.677 518.464C181.103 515.672 177.33 511.741 174.728 507.056C188.214 505.061 196.543 502.091 199.716 498.145C195.994 497.238 192.102 497.31 188.416 498.353C187.238 498.452 186.067 498.101 185.137 497.371C184.208 496.641 183.591 495.585 183.409 494.417C183.225 493.249 183.49 492.055 184.15 491.074C184.81 490.094 185.818 489.399 186.969 489.131" fill="url(#paint40_linear)"/>
<path opacity="0.519" d="M329.384 341C303.667 348.444 290.579 356.084 290.121 363.919C293.227 378.39 298.219 389.623 305.097 397.619C319.029 413.903 320.086 432.908 302.307 445.238C290.111 453.127 283.104 462.563 281.287 473.545C280.827 476.264 279.698 478.827 278 481L322.979 453.05C338.193 442.795 343.773 425.1 339.72 399.963C339.127 399.318 338.707 398.533 338.5 397.682C338.28 397.168 338.145 396.621 338.1 396.063V396.057C337.916 395.715 337.76 395.358 337.634 394.99C337.392 394.495 337.231 393.964 337.156 393.418C336.959 392.92 336.817 392.401 336.735 391.872C336.696 391.729 336.663 391.585 336.635 391.44C336.527 391.168 336.417 390.84 336.335 390.557C336.203 390.216 336.107 389.861 336.049 389.5C336.007 389.4 335.966 389.328 335.916 389.237C335.637 388.898 335.402 388.526 335.216 388.128C334.954 387.808 334.731 387.458 334.552 387.086V387.08C334.395 386.765 334.19 386.502 334.03 386.18C333.978 386.079 333.915 385.983 333.843 385.895C333.588 385.555 333.375 385.186 333.208 384.795C333.089 384.59 332.987 384.376 332.881 384.164L332.568 383.644C331.948 382.616 331.702 381.406 331.872 380.218C332.041 379.03 332.616 377.937 333.498 377.124L333.423 377.024C332.725 376.481 332.177 375.77 331.83 374.956C331.568 374.511 331.374 374.029 331.254 373.526C331.202 373.405 331.154 373.284 331.111 373.162C330.748 372.626 330.49 372.026 330.349 371.394C330.06 370.745 329.915 370.04 329.925 369.329C329.397 368.549 329.092 367.64 329.043 366.699C328.811 366.028 328.707 365.319 328.737 364.61C328.672 364.41 328.613 364.221 328.567 364.018C328.281 363.38 328.137 362.689 328.143 361.99V357.525C327.563 356.665 327.253 355.651 327.253 354.614V353.4L326.93 352.435C326.594 351.628 326.402 350.769 326.364 349.896V346.057C326.365 345.053 326.655 344.07 327.2 343.226C327.745 342.383 328.522 341.714 329.437 341.3L329.384 341Z" fill="url(#paint41_linear)"/>
<path d="M296.13 365.76C264.687 382.943 258.951 379.515 253.559 361.66C236.707 306.217 239.519 276.08 265.659 270.025C294.527 263.339 312.059 289.474 326.043 346.139C328.6 356.173 326.043 360.103 317.93 359.675C311.349 359.5 304.081 361.528 296.125 365.761" fill="url(#paint42_linear)"/>
<path d="M104.966 118.727L98.815 117.567C98.595 117.535 98.3911 117.433 98.2332 117.276C98.0752 117.12 97.9714 116.917 97.937 116.697V114.86C97.937 111.86 100.978 109.399 104.966 108.867V107.079C104.966 106.692 105.372 106.402 105.912 106.402H109.562C110.102 106.402 110.507 106.692 110.507 107.079V108.867C114.495 109.402 117.536 111.863 117.536 114.86V118.919C117.561 119.57 117.395 120.214 117.059 120.772C116.723 121.33 116.231 121.778 115.644 122.06L106.925 126.846C106.589 127.055 106.313 127.347 106.123 127.694C105.934 128.041 105.837 128.432 105.843 128.827V133.418C105.843 134.047 106.588 134.579 107.465 134.579H108.006C108.885 134.579 109.628 134.047 109.628 133.418V129.36C109.628 128.972 110.035 128.78 110.506 128.876L116.657 130.037C116.877 130.069 117.08 130.17 117.238 130.325C117.397 130.481 117.501 130.683 117.536 130.902V133.657C117.536 136.657 114.495 139.167 110.507 139.651V141.486C110.507 141.874 110.107 142.164 109.562 142.164H105.912C105.372 142.164 104.966 141.874 104.966 141.486V139.654C100.978 139.17 97.937 136.654 97.937 133.66V127.136C97.9517 126.527 98.1285 125.933 98.4491 125.415C98.7697 124.897 99.2225 124.474 99.761 124.189L108.615 119.452C108.914 119.28 109.164 119.034 109.342 118.738C109.519 118.442 109.618 118.106 109.629 117.761V115.102C109.629 114.473 108.886 113.941 108.007 113.941H107.466C106.589 113.941 105.844 114.473 105.844 115.102V118.243C105.844 118.63 105.444 118.823 104.966 118.727Z" fill="white"/>
<path d="M200.082 241.271C183 259.9 155.791 262.772 147 236.4C146.5 234.9 143 225.9 146 217.9C156.8 209.029 169.064 210.9 188.5 214.9C188.5 214.9 207.122 190.232 208 189.4C208.878 188.568 211 190.9 211 190.9L191.863 215.87C192.507 216.316 193.004 216.942 193.293 217.671C193.581 218.399 193.647 219.196 193.483 219.962C193.311 228.095 194.986 233.179 198.508 235.212C201.4 237.023 201.678 238.422 200.082 241.271Z" fill="url(#paint43_linear)"/>
<path opacity="0.174" d="M194.822 216.321C195.063 214.374 192.409 212.9 186.862 211.9C187.763 214.879 187.604 218.078 186.413 220.953C185.221 223.828 183.071 226.202 180.327 227.67C167.976 237.266 165.726 247.676 173.579 258.9C186.234 257.718 197.325 251.319 203.67 241.529C204.275 240.729 204.048 239.965 202.99 239.237C196.268 234.079 193.545 226.44 194.822 216.321Z" fill="url(#paint44_linear)"/>
</g>
<defs>
<linearGradient id="paint0_linear" x1="230.293" y1="74.37" x2="611.382" y2="365.508" gradientUnits="userSpaceOnUse">
<stop stop-color="#FFE1A1"/>
<stop offset="1" stop-color="#FEDC93"/>
</linearGradient>
<linearGradient id="paint1_linear" x1="215.317" y1="185.809" x2="176.222" y2="253.628" gradientUnits="userSpaceOnUse">
<stop stop-color="#C47B8A"/>
<stop offset="1" stop-color="#FFCFBC"/>
</linearGradient>
<linearGradient id="paint2_linear" x1="180.502" y1="180.294" x2="244.079" y2="220.669" gradientUnits="userSpaceOnUse">
<stop stop-color="#FFF9E8"/>
<stop offset="1" stop-color="#F2DBCA"/>
</linearGradient>
<linearGradient id="paint3_linear" x1="268.293" y1="183.804" x2="229.2" y2="251.628" gradientUnits="userSpaceOnUse">
<stop stop-color="#C47B8A"/>
<stop offset="1" stop-color="#FFCFBC"/>
</linearGradient>
<linearGradient id="paint4_linear" x1="231.471" y1="178.289" x2="295.048" y2="218.664" gradientUnits="userSpaceOnUse">
<stop stop-color="#FFF9E8"/>
<stop offset="1" stop-color="#F2DBCA"/>
</linearGradient>
<linearGradient id="paint5_linear" x1="310.912" y1="201.795" x2="291.711" y2="249.865" gradientUnits="userSpaceOnUse">
<stop stop-color="#C47B8A"/>
<stop offset="1" stop-color="#FFCFBC"/>
</linearGradient>
<linearGradient id="paint6_linear" x1="283.557" y1="196.357" x2="326.3" y2="234.28" gradientUnits="userSpaceOnUse">
<stop stop-color="#FFF9E8"/>
<stop offset="1" stop-color="#F2DBCA"/>
</linearGradient>
<linearGradient id="paint7_linear" x1="350.031" y1="199.786" x2="330.973" y2="248.001" gradientUnits="userSpaceOnUse">
<stop stop-color="#C47B8A"/>
<stop offset="1" stop-color="#FFCFBC"/>
</linearGradient>
<linearGradient id="paint8_linear" x1="322.703" y1="195.33" x2="365.327" y2="232.047" gradientUnits="userSpaceOnUse">
<stop stop-color="#FFF9E8"/>
<stop offset="1" stop-color="#F2DBCA"/>
</linearGradient>
<linearGradient id="paint9_linear" x1="333.868" y1="148.678" x2="314.806" y2="196.901" gradientUnits="userSpaceOnUse">
<stop stop-color="#C47B8A"/>
<stop offset="1" stop-color="#FFCFBC"/>
</linearGradient>
<linearGradient id="paint10_linear" x1="306.551" y1="143.871" x2="349.801" y2="181.726" gradientUnits="userSpaceOnUse">
<stop stop-color="#FFF9E8"/>
<stop offset="1" stop-color="#F2DBCA"/>
</linearGradient>
<linearGradient id="paint11_linear" x1="432.39" y1="406.959" x2="410.497" y2="512.579" gradientUnits="userSpaceOnUse">
<stop stop-color="#FFF7E2"/>
<stop offset="1" stop-color="#F9DBC6"/>
</linearGradient>
<linearGradient id="paint12_linear" x1="473.752" y1="406.959" x2="451.962" y2="512.624" gradientUnits="userSpaceOnUse">
<stop stop-color="#FFF7E2"/>
<stop offset="1" stop-color="#F9DBC6"/>
</linearGradient>
<linearGradient id="paint13_linear" x1="514.207" y1="406.959" x2="492.418" y2="512.624" gradientUnits="userSpaceOnUse">
<stop stop-color="#FFF7E2"/>
<stop offset="1" stop-color="#F9DBC6"/>
</linearGradient>
<linearGradient id="paint14_linear" x1="560.39" y1="406.959" x2="538.497" y2="512.579" gradientUnits="userSpaceOnUse">
<stop stop-color="#FFF7E2"/>
<stop offset="1" stop-color="#F9DBC6"/>
</linearGradient>
<linearGradient id="paint15_linear" x1="455.39" y1="310.959" x2="433.497" y2="416.579" gradientUnits="userSpaceOnUse">
<stop stop-color="#FFF7E2"/>
<stop offset="1" stop-color="#F9DBC6"/>
</linearGradient>
<linearGradient id="paint16_linear" x1="496.752" y1="310.959" x2="474.962" y2="416.624" gradientUnits="userSpaceOnUse">
<stop stop-color="#FFF7E2"/>
<stop offset="1" stop-color="#F9DBC6"/>
</linearGradient>
<linearGradient id="paint17_linear" x1="537.207" y1="310.959" x2="515.418" y2="416.624" gradientUnits="userSpaceOnUse">
<stop stop-color="#FFF7E2"/>
<stop offset="1" stop-color="#F9DBC6"/>
</linearGradient>
<linearGradient id="paint18_linear" x1="230.16" y1="74.37" x2="611.249" y2="365.508" gradientUnits="userSpaceOnUse">
<stop stop-color="#FCC45C"/>
<stop offset="1" stop-color="#FEDC93"/>
</linearGradient>
<linearGradient id="paint19_linear" x1="247.88" y1="257" x2="126.709" y2="436.625" gradientUnits="userSpaceOnUse">
<stop stop-color="#FFA981"/>
<stop offset="0.428" stop-color="#FF8666"/>
<stop offset="1" stop-color="#FF5C45"/>
</linearGradient>
<linearGradient id="paint20_linear" x1="97.8776" y1="353.92" x2="339.385" y2="405.218" gradientUnits="userSpaceOnUse">
<stop stop-color="#FF5C45"/>
<stop offset="0.572" stop-color="#FF8666"/>
<stop offset="1" stop-color="#FFA981"/>
</linearGradient>
<linearGradient id="paint21_linear" x1="222.746" y1="169.534" x2="141.631" y2="242.833" gradientUnits="userSpaceOnUse">
<stop stop-color="#FFC198"/>
<stop offset="1" stop-color="#FFB380"/>
</linearGradient>
<linearGradient id="paint22_linear" x1="225.817" y1="241.874" x2="188.357" y2="245.316" gradientUnits="userSpaceOnUse">
<stop stop-color="#DC934B"/>
<stop offset="1" stop-color="#DB843C"/>
</linearGradient>
<linearGradient id="paint23_linear" x1="237" y1="158.754" x2="162.627" y2="210.424" gradientUnits="userSpaceOnUse">
<stop stop-color="#005F67"/>
<stop offset="1" stop-color="#003136"/>
</linearGradient>
<linearGradient id="paint24_linear" x1="212" y1="204.444" x2="144.936" y2="296.339" gradientUnits="userSpaceOnUse">
<stop stop-color="#005F67"/>
<stop offset="1" stop-color="#003136"/>
</linearGradient>
<linearGradient id="paint25_linear" x1="167.156" y1="204.168" x2="148.075" y2="218.021" gradientUnits="userSpaceOnUse">
<stop offset="0.022" stop-color="#DE9D71"/>
<stop offset="0.966" stop-color="#E08B52"/>
</linearGradient>
<linearGradient id="paint26_linear" x1="170.309" y1="219.36" x2="164.69" y2="233.012" gradientUnits="userSpaceOnUse">
<stop stop-color="#FFC198"/>
<stop offset="1" stop-color="#FFB380"/>
</linearGradient>
<linearGradient id="paint27_linear" x1="222.38" y1="161.843" x2="123.409" y2="190.133" gradientUnits="userSpaceOnUse">
<stop stop-color="#FFA981"/>
<stop offset="0.428" stop-color="#FF8666"/>
<stop offset="1" stop-color="#FF5C45"/>
</linearGradient>
<linearGradient id="paint28_linear" x1="216.847" y1="137.985" x2="145.713" y2="165.325" gradientUnits="userSpaceOnUse">
<stop stop-color="#FFA981"/>
<stop offset="0.428" stop-color="#FF8666"/>
<stop offset="1" stop-color="#FF5C45"/>
</linearGradient>
<linearGradient id="paint29_linear" x1="204.852" y1="184.685" x2="93.9895" y2="282.548" gradientUnits="userSpaceOnUse">
<stop stop-color="#FFA981"/>
<stop offset="0.428" stop-color="#FF8666"/>
<stop offset="1" stop-color="#FF5C45"/>
</linearGradient>
<linearGradient id="paint30_linear" x1="71.376" y1="262" x2="97.6391" y2="352.954" gradientUnits="userSpaceOnUse">
<stop stop-color="#F7D0AD"/>
<stop offset="1" stop-color="#D38761"/>
</linearGradient>
<linearGradient id="paint31_linear" x1="164.415" y1="274.51" x2="110.444" y2="298.162" gradientUnits="userSpaceOnUse">
<stop stop-color="#F7D0AD"/>
<stop offset="1" stop-color="#E89F7B"/>
</linearGradient>
<linearGradient id="paint32_linear" x1="90" y1="262" x2="90" y2="283.868" gradientUnits="userSpaceOnUse">
<stop stop-color="white"/>
<stop offset="1" stop-color="#FFFEFC"/>
</linearGradient>
<linearGradient id="paint33_linear" x1="163.856" y1="313.572" x2="128.329" y2="340.348" gradientUnits="userSpaceOnUse">
<stop stop-color="#FF9958"/>
<stop offset="1" stop-color="#DC8D48"/>
</linearGradient>
<linearGradient id="paint34_linear" x1="151" y1="328" x2="151" y2="342" gradientUnits="userSpaceOnUse">
<stop stop-color="white"/>
<stop offset="0.994" stop-color="#FFFEFC"/>
</linearGradient>
<linearGradient id="paint35_linear" x1="52.4827" y1="348.828" x2="98.4029" y2="508.563" gradientUnits="userSpaceOnUse">
<stop stop-color="#F7D0AD"/>
<stop offset="1" stop-color="#D38761"/>
</linearGradient>
<linearGradient id="paint36_linear" x1="216.68" y1="370.962" x2="121.91" y2="412.506" gradientUnits="userSpaceOnUse">
<stop stop-color="#F7D0AD"/>
<stop offset="1" stop-color="#E89F7B"/>
</linearGradient>
<linearGradient id="paint37_linear" x1="205.952" y1="450.636" x2="153.925" y2="489.665" gradientUnits="userSpaceOnUse">
<stop stop-color="#FF9958"/>
<stop offset="1" stop-color="#DC8D48"/>
</linearGradient>
<linearGradient id="paint38_linear" x1="85" y1="367.276" x2="85" y2="427" gradientUnits="userSpaceOnUse">
<stop stop-color="#F0F5FF"/>
<stop offset="1" stop-color="#E7F7FF"/>
</linearGradient>
<linearGradient id="paint39_linear" x1="193.5" y1="458" x2="193.5" y2="475" gradientUnits="userSpaceOnUse">
<stop stop-color="white"/>
<stop offset="0.994" stop-color="#FFFEFC"/>
</linearGradient>
<linearGradient id="paint40_linear" x1="311.833" y1="358.612" x2="175.818" y2="489.45" gradientUnits="userSpaceOnUse">
<stop stop-color="#FFC198"/>
<stop offset="1" stop-color="#FFB380"/>
</linearGradient>
<linearGradient id="paint41_linear" x1="334.888" y1="359.48" x2="252.328" y2="393.554" gradientUnits="userSpaceOnUse">
<stop stop-color="#FFC198"/>
<stop offset="1" stop-color="#FFA162"/>
</linearGradient>
<linearGradient id="paint42_linear" x1="284.997" y1="251.181" x2="238.056" y2="370.319" gradientUnits="userSpaceOnUse">
<stop stop-color="#FFA981"/>
<stop offset="0.428" stop-color="#FF8666"/>
<stop offset="1" stop-color="#FF5C45"/>
</linearGradient>
<linearGradient id="paint43_linear" x1="214.111" y1="189.221" x2="150.032" y2="247.786" gradientUnits="userSpaceOnUse">
<stop stop-color="#6BDEC5"/>
<stop offset="1" stop-color="#39B993"/>
</linearGradient>
<linearGradient id="paint44_linear" x1="186.5" y1="211.9" x2="186.5" y2="258.195" gradientUnits="userSpaceOnUse">
<stop stop-color="white"/>
<stop offset="1" stop-color="white"/>
</linearGradient>
<clipPath id="clip0">
<rect width="576" height="538" fill="white"/>
</clipPath>
</defs>
</svg>
