<svg width="135" height="46" viewBox="0 0 135 46" fill="none" xmlns="http://www.w3.org/2000/svg">
<path d="M126.033 0H8.03302C3.61474 0 0.03302 3.58172 0.03302 8V38C0.03302 42.4183 3.61474 46 8.03302 46H126.033C130.451 46 134.033 42.4183 134.033 38V8C134.033 3.58172 130.451 0 126.033 0Z" fill="black"/>
<path d="M67.02 37.609H64.879V27.087C64.879 26.087 64.852 25.002 64.8 23.875H66.683L66.803 25.422H66.845C67.1654 24.9198 67.5998 24.5003 68.1129 24.1977C68.6261 23.8952 69.2034 23.7181 69.7979 23.6808C70.3925 23.6436 70.9874 23.7473 71.5343 23.9835C72.0811 24.2197 72.5645 24.5817 72.945 25.04C73.74 26.0648 74.1438 27.3394 74.084 28.635C74.1613 30.0683 73.6852 31.4766 72.754 32.569C72.3828 32.9827 71.9268 33.3116 71.417 33.5334C70.9073 33.7551 70.3558 33.8645 69.8 33.854C69.2609 33.8958 68.7206 33.7887 68.2381 33.5445C67.7557 33.3002 67.3495 32.9282 67.064 32.469H67.023V37.609H67.02ZM69.4 25.402C68.8728 25.4033 68.3631 25.5918 67.962 25.934C67.5312 26.292 67.2347 26.7855 67.121 27.334C67.0618 27.5496 67.0283 27.7715 67.021 27.995V29.616C67.0046 30.2752 67.2342 30.9168 67.665 31.416C67.8728 31.6547 68.1311 31.8443 68.4211 31.9711C68.7111 32.0979 69.0257 32.1586 69.342 32.149C69.71 32.1626 70.0754 32.0834 70.4047 31.9185C70.7339 31.7537 71.0164 31.5087 71.226 31.206C71.7062 30.4671 71.9423 29.5962 71.901 28.716C71.9334 27.8865 71.7115 27.0669 71.265 26.367C71.0598 26.0629 70.7815 25.8151 70.4557 25.6465C70.1298 25.4779 69.7668 25.3938 69.4 25.402ZM55.934 37.609H53.793V27.087C53.793 26.077 53.766 24.996 53.713 23.875H55.597L55.717 25.422H55.757C56.0888 24.8623 56.5672 24.4037 57.1404 24.0959C57.7137 23.788 58.3601 23.6425 59.01 23.675C59.5572 23.6693 60.0983 23.7893 60.5917 24.0258C61.0852 24.2623 61.5177 24.6089 61.856 25.039C62.6522 26.0632 63.0565 27.3381 62.996 28.634C63.0725 30.0669 62.5973 31.4746 61.668 32.568C61.2964 32.9815 60.8402 33.3102 60.3303 33.5319C59.8205 33.7536 59.2689 33.8631 58.713 33.853C58.1738 33.8946 57.6334 33.7875 57.1508 33.5433C56.6682 33.2991 56.2619 32.9272 55.976 32.468H55.935V37.608L55.934 37.609ZM58.315 25.402C57.788 25.4028 57.2785 25.5914 56.878 25.934C56.447 26.292 56.1502 26.7855 56.036 27.334C55.9766 27.5496 55.943 27.7715 55.936 27.995V29.616C55.9183 30.2756 56.1484 30.9178 56.581 31.416C56.7884 31.6547 57.0463 31.8444 57.336 31.9712C57.6257 32.0979 57.9399 32.1587 58.256 32.149C58.624 32.1626 58.9894 32.0834 59.3187 31.9185C59.6479 31.7537 59.9304 31.5087 60.14 31.206C60.6195 30.4669 60.8552 29.596 60.814 28.716C60.847 27.8867 60.6258 27.0671 60.18 26.367C59.9747 26.0629 59.6964 25.8152 59.3706 25.6466C59.0448 25.478 58.6818 25.3939 58.315 25.402ZM99.404 33.855C98.7704 33.8814 98.1388 33.7673 97.5544 33.521C96.9701 33.2746 96.4475 32.9021 96.024 32.43C95.169 31.4316 94.7197 30.1487 94.765 28.835C94.7118 27.4769 95.1765 26.1494 96.065 25.121C96.5077 24.6394 97.0504 24.2605 97.655 24.0109C98.2596 23.7613 98.9115 23.647 99.565 23.676C100.203 23.6517 100.838 23.7668 101.427 24.013C102.016 24.2593 102.544 24.6309 102.974 25.102C103.818 26.0955 104.258 27.3703 104.205 28.673C104.256 30.0193 103.804 31.3363 102.936 32.367C102.492 32.8579 101.945 33.2454 101.335 33.5021C100.725 33.7589 100.066 33.8786 99.404 33.853V33.855ZM99.486 25.263C99.0821 25.2535 98.6837 25.358 98.3364 25.5644C97.989 25.7707 97.7068 26.0707 97.522 26.43C97.1208 27.1482 96.9214 27.9616 96.945 28.784C96.9226 29.5931 97.1211 30.3931 97.519 31.098C97.7036 31.4534 97.9831 31.7507 98.3265 31.9569C98.6698 32.163 99.0635 32.27 99.464 32.266C99.8632 32.2664 100.255 32.1555 100.594 31.9456C100.934 31.7357 101.208 31.4352 101.386 31.078C101.795 30.3689 102 29.5611 101.98 28.743C102.003 27.933 101.804 27.1322 101.405 26.427C101.226 26.0724 100.952 25.7751 100.613 25.5689C100.273 25.3628 99.883 25.2561 99.486 25.261V25.263ZM81.645 33.833C80.4335 33.8892 79.2312 33.5966 78.181 32.99L78.681 31.183C79.6131 31.7556 80.6871 32.0553 81.781 32.048C82.4544 32.0872 83.1206 31.8918 83.666 31.495C83.885 31.3173 84.0597 31.0913 84.1765 30.8347C84.2933 30.578 84.3489 30.2978 84.339 30.016C84.345 29.7593 84.299 29.504 84.2036 29.2657C84.1082 29.0273 83.9655 28.8107 83.784 28.629C83.2481 28.1569 82.6203 27.8007 81.94 27.583C79.604 26.702 78.423 25.402 78.423 23.702C78.4105 23.1831 78.5147 22.668 78.7279 22.1948C78.9412 21.7216 79.258 21.3023 79.655 20.968C80.5778 20.223 81.7425 19.8436 82.927 19.902C83.9753 19.8664 85.0164 20.0871 85.96 20.545L85.425 22.312C84.6394 21.8898 83.7588 21.6753 82.867 21.689C82.2296 21.6518 81.6011 21.8524 81.103 22.252C80.932 22.4065 80.7959 22.5957 80.7036 22.8069C80.6114 23.0181 80.5652 23.2465 80.568 23.477C80.5633 23.7298 80.616 23.9805 80.7222 24.21C80.8283 24.4395 80.9852 24.6419 81.181 24.802C81.7694 25.2516 82.4261 25.6041 83.126 25.846C84.0876 26.1917 84.9562 26.755 85.664 27.492C86.2139 28.1475 86.5026 28.9828 86.475 29.838C86.492 30.3643 86.3947 30.8881 86.1898 31.3732C85.9849 31.8583 85.6772 32.2932 85.288 32.648C84.2667 33.4885 82.9654 33.9118 81.645 33.833ZM91.787 33.833C91.4196 33.8526 91.0522 33.7929 90.7099 33.6579C90.3676 33.523 90.0583 33.316 89.803 33.051C89.2563 32.2884 89.0028 31.3543 89.089 30.42V25.502H87.685V23.873H89.092V22.086L91.192 21.443V23.873H93.552V25.502H91.195V30.24C91.195 31.44 91.615 32.046 92.444 32.046C92.764 32.053 93.0835 32.0194 93.395 31.946L93.454 33.592C92.9173 33.7684 92.3537 33.8493 91.789 33.831L91.787 33.833ZM116.974 33.815C116.327 33.8491 115.679 33.748 115.073 33.5182C114.467 33.2883 113.915 32.9348 113.453 32.48C112.57 31.5013 112.11 30.2127 112.174 28.896C112.128 27.5694 112.55 26.269 113.366 25.222C113.765 24.7142 114.278 24.3078 114.864 24.0358C115.449 23.7639 116.091 23.6341 116.736 23.657C117.352 23.625 117.966 23.7522 118.518 24.0263C119.071 24.3004 119.544 24.7122 119.891 25.222C120.481 26.1347 120.779 27.2056 120.745 28.292C120.751 28.6217 120.725 28.9513 120.667 29.276H114.24C114.226 29.6897 114.302 30.1015 114.463 30.4829C114.624 30.8644 114.866 31.2063 115.172 31.485C115.768 31.9566 116.513 32.1986 117.272 32.167C118.16 32.1777 119.042 32.021 119.872 31.705L120.208 33.205C119.185 33.6296 118.085 33.8366 116.977 33.813L116.974 33.815ZM116.574 25.161C116.24 25.1572 115.91 25.2358 115.613 25.39C115.317 25.5442 115.063 25.7692 114.874 26.045C114.51 26.5369 114.29 27.1209 114.24 27.731H118.7C118.728 27.1472 118.583 26.5681 118.284 26.066C118.109 25.7738 117.858 25.5349 117.557 25.3751C117.257 25.2152 116.918 25.1405 116.578 25.159L116.574 25.161ZM42.865 33.633H40.645L44.945 20.102H47.606L51.929 33.633H49.645L48.399 29.658H44.056L42.865 33.632V33.633ZM46.178 21.907C46.045 22.502 45.828 23.36 45.545 24.456L44.434 27.99H48.021L46.893 24.456C46.773 24.093 46.558 23.283 46.219 21.907H46.179H46.178ZM108.21 33.632H106.07L106.09 26.948C106.09 25.834 106.063 24.801 106.01 23.875H107.875L107.953 25.742H108.012C108.214 25.1349 108.586 24.5984 109.083 24.196C109.529 23.8592 110.071 23.676 110.63 23.674C110.809 23.673 110.988 23.6863 111.165 23.714V25.782C110.942 25.7413 110.716 25.7213 110.49 25.722C110.15 25.7076 109.812 25.7792 109.507 25.9302C109.202 26.0813 108.94 26.3068 108.745 26.586C108.371 27.1572 108.184 27.8307 108.21 28.513V33.632Z" fill="white"/>
<path d="M93.366 15.364C93.0547 15.3771 92.7443 15.3211 92.4571 15.2C92.17 15.079 91.9131 14.896 91.705 14.664C91.2854 14.1738 91.0648 13.544 91.087 12.899C91.0609 12.2322 91.289 11.5803 91.725 11.075C91.9429 10.8385 92.2098 10.6523 92.507 10.5295C92.8043 10.4067 93.1247 10.3503 93.446 10.364C93.7593 10.3522 94.0714 10.4086 94.3606 10.5295C94.6499 10.6504 94.9093 10.8328 95.121 11.064C95.5335 11.5534 95.7476 12.1796 95.721 12.819C95.7458 13.4803 95.5233 14.127 95.097 14.633C94.8795 14.874 94.6117 15.0644 94.3127 15.1907C94.0136 15.317 93.6904 15.3762 93.366 15.364ZM93.406 11.142C93.2076 11.1375 93.012 11.1889 92.8414 11.2902C92.6707 11.3915 92.532 11.5387 92.441 11.715C92.2435 12.0679 92.1457 12.4678 92.158 12.872C92.1477 13.27 92.2455 13.6633 92.441 14.01C92.5318 14.1844 92.6691 14.3302 92.8376 14.4313C93.0062 14.5325 93.1995 14.585 93.396 14.583C93.5922 14.5835 93.7846 14.5292 93.9516 14.4262C94.1186 14.3232 94.2534 14.1756 94.341 14C94.542 13.6515 94.643 13.2543 94.633 12.852C94.6434 12.4541 94.5456 12.0608 94.35 11.714C94.2615 11.5404 94.1262 11.395 93.9594 11.2942C93.7926 11.1935 93.6009 11.1415 93.406 11.144V11.142ZM84.189 15.364C83.9155 15.3676 83.6449 15.3081 83.3981 15.1901C83.1514 15.0722 82.9351 14.899 82.766 14.684C82.3745 14.1809 82.1746 13.555 82.202 12.918C82.1714 12.237 82.3897 11.568 82.816 11.036C82.995 10.8233 83.2188 10.6528 83.4713 10.5366C83.7239 10.4204 83.999 10.3615 84.277 10.364C84.5378 10.3389 84.8004 10.3865 85.0359 10.5014C85.2713 10.6162 85.4703 10.794 85.611 11.015H85.631V8.26404H86.685V13.964C86.685 14.454 86.697 14.877 86.722 15.256H85.788L85.739 14.487H85.709C85.5711 14.7674 85.353 15.0005 85.0824 15.1567C84.8117 15.3128 84.5008 15.385 84.189 15.364ZM84.516 11.194C84.3341 11.1878 84.1536 11.228 83.9915 11.3109C83.8295 11.3939 83.6913 11.5168 83.59 11.668C83.3541 12.027 83.2363 12.4508 83.253 12.88C83.2349 13.2896 83.348 13.6943 83.576 14.035C83.6779 14.1842 83.8154 14.3055 83.976 14.3879C84.1367 14.4704 84.3155 14.5113 84.496 14.507C84.6559 14.5116 84.8147 14.4783 84.9593 14.4098C85.1038 14.3413 85.2302 14.2396 85.328 14.113C85.5305 13.866 85.637 13.5543 85.628 13.235V12.435C85.63 12.3223 85.6202 12.2097 85.599 12.099C85.5426 11.8492 85.4094 11.6233 85.218 11.453C85.0247 11.2819 84.7742 11.1895 84.516 11.194ZM78.305 15.364C78.1044 15.3717 77.9043 15.337 77.7181 15.262C77.5318 15.187 77.3634 15.0736 77.224 14.929C76.9768 14.6651 76.8435 14.3145 76.853 13.953C76.8429 13.6849 76.9049 13.4189 77.0326 13.1828C77.1603 12.9468 77.349 12.7493 77.579 12.611C78.1869 12.2769 78.8763 12.1196 79.569 12.157H79.621V12.071C79.6367 11.9396 79.6217 11.8064 79.5773 11.6817C79.5328 11.5571 79.46 11.4445 79.3646 11.3527C79.2693 11.2609 79.154 11.1925 79.0277 11.1529C78.9015 11.1132 78.7677 11.1033 78.637 11.124C78.1994 11.1162 77.7695 11.2398 77.403 11.479L77.189 10.779C77.6808 10.4887 78.2452 10.3447 78.816 10.364C80.049 10.364 80.674 11.031 80.674 12.348V14.114C80.6686 14.4962 80.6913 14.8782 80.742 15.257H79.797L79.716 14.704H79.687C79.529 14.9195 79.3201 15.0925 79.0789 15.2077C78.8378 15.3228 78.5719 15.3765 78.305 15.364ZM79.549 12.864C78.459 12.864 77.907 13.189 77.907 13.831C77.8956 13.9294 77.906 14.029 77.9375 14.1228C77.9689 14.2167 78.0207 14.3025 78.089 14.3741C78.1574 14.4456 78.2406 14.5013 78.3329 14.5371C78.4252 14.5729 78.5243 14.5879 78.623 14.581C78.8554 14.5813 79.0814 14.5051 79.266 14.364C79.4559 14.2284 79.5866 14.0251 79.631 13.796C79.6435 13.7345 79.6492 13.6718 79.648 13.609V12.87L79.549 12.864ZM73.287 15.364C72.9758 15.3773 72.6655 15.3214 72.3784 15.2004C72.0914 15.0794 71.8348 14.8962 71.627 14.664C71.2074 14.1738 70.9868 13.544 71.009 12.899C70.9838 12.2323 71.2117 11.5807 71.647 11.075C71.8645 10.8389 72.1309 10.653 72.4276 10.5303C72.7243 10.4077 73.0442 10.3513 73.365 10.365C73.6787 10.3531 73.9913 10.4095 74.2811 10.5304C74.5708 10.6512 74.8308 10.8337 75.043 11.065C75.4555 11.5544 75.6696 12.1806 75.643 12.82C75.6678 13.4813 75.4453 14.128 75.019 14.634C74.8011 14.8748 74.5331 15.0649 74.2339 15.191C73.9347 15.3171 73.6115 15.3762 73.287 15.364ZM73.328 11.142C73.1295 11.1371 72.9337 11.1882 72.763 11.2896C72.5923 11.3909 72.4537 11.5384 72.363 11.715C72.1661 12.0682 72.0684 12.4679 72.08 12.872C72.0702 13.2699 72.168 13.6631 72.363 14.01C72.4538 14.1844 72.5911 14.3302 72.7596 14.4313C72.9282 14.5325 73.1215 14.585 73.318 14.583C73.5139 14.5833 73.7059 14.5288 73.8725 14.4258C74.0392 14.3228 74.1737 14.1754 74.261 14C74.4629 13.6518 74.564 13.2544 74.553 12.852C74.5628 12.4541 74.4651 12.061 74.27 11.714C74.1822 11.5403 74.0473 11.3948 73.8807 11.294C73.7142 11.1932 73.5227 11.1413 73.328 11.144V11.142ZM50.84 15.364C50.5287 15.3771 50.2183 15.3211 49.9311 15.2C49.644 15.079 49.3871 14.896 49.179 14.664C48.7598 14.1736 48.5397 13.5438 48.562 12.899C48.5353 12.2323 48.7631 11.5803 49.199 11.075C49.4164 10.8389 49.6826 10.653 49.9791 10.5302C50.2756 10.4074 50.5954 10.3507 50.916 10.364C51.2294 10.3521 51.5417 10.4085 51.8311 10.5294C52.1206 10.6503 52.3802 10.8327 52.592 11.064C53.0045 11.5534 53.2186 12.1796 53.192 12.819C53.2168 13.4803 52.9943 14.127 52.568 14.633C52.3508 14.8736 52.0836 15.0638 51.785 15.1901C51.4865 15.3164 51.1639 15.3757 50.84 15.364ZM50.88 11.142C50.6816 11.1377 50.4859 11.1893 50.3154 11.291C50.1449 11.3927 50.0065 11.5403 49.916 11.717C49.7193 12.0702 49.6216 12.4699 49.633 12.874C49.6234 13.2719 49.7212 13.665 49.916 14.012C50.0068 14.1864 50.1441 14.3322 50.3126 14.4333C50.4812 14.5345 50.6745 14.587 50.871 14.585C51.0672 14.5855 51.2596 14.5312 51.4266 14.4282C51.5936 14.3252 51.7284 14.1776 51.816 14.002C52.0185 13.654 52.1199 13.2565 52.109 12.854C52.1186 12.4562 52.0209 12.0631 51.826 11.716C51.738 11.5415 51.6025 11.3953 51.4352 11.2941C51.2679 11.1929 51.0755 11.1409 50.88 11.144V11.142ZM107.602 15.355C107.422 15.3648 107.241 15.3355 107.073 15.2693C106.905 15.203 106.753 15.1013 106.628 14.971C106.358 14.5972 106.233 14.138 106.277 13.679V11.264H105.585V10.464H106.277V9.58504L107.308 9.26904V10.464H108.467V11.264H107.309V13.59C107.309 14.179 107.516 14.477 107.923 14.477C108.081 14.4808 108.238 14.4643 108.392 14.428L108.419 15.236C108.156 15.3237 107.879 15.364 107.602 15.355ZM117.936 15.346C117.618 15.3631 117.3 15.3135 117.003 15.2006C116.705 15.0876 116.434 14.9137 116.208 14.69C115.993 14.4523 115.827 14.1745 115.719 13.8725C115.611 13.5705 115.564 13.2503 115.58 12.93C115.557 12.2784 115.765 11.6396 116.165 11.125C116.36 10.876 116.612 10.6766 116.899 10.543C117.185 10.4094 117.5 10.3453 117.816 10.356C118.118 10.3404 118.42 10.403 118.691 10.5377C118.962 10.6724 119.194 10.8747 119.364 11.125C119.656 11.5725 119.803 12.0991 119.785 12.633C119.787 12.7949 119.774 12.9566 119.746 13.116H116.593C116.586 13.3192 116.623 13.5215 116.702 13.7089C116.781 13.8963 116.9 14.0642 117.05 14.201C117.343 14.4331 117.71 14.5523 118.083 14.537C118.519 14.5423 118.952 14.4653 119.36 14.31L119.525 15.05C119.021 15.2578 118.48 15.3586 117.935 15.346H117.936ZM117.743 11.094C117.578 11.0919 117.416 11.1305 117.269 11.2064C117.123 11.2823 116.998 11.3931 116.905 11.529C116.727 11.7714 116.619 12.0583 116.593 12.358H118.784C118.799 12.0713 118.73 11.7865 118.584 11.539C118.497 11.3955 118.373 11.2783 118.225 11.2001C118.077 11.1219 117.91 11.0855 117.743 11.095V11.094ZM43.456 15.316C42.9416 15.3193 42.4274 15.2926 41.916 15.236V8.69704C42.5158 8.60393 43.1221 8.55945 43.729 8.56404C44.6586 8.49859 45.581 8.7682 46.329 9.32404C46.6639 9.63463 46.9261 10.0154 47.0967 10.4391C47.2674 10.8628 47.3422 11.319 47.316 11.775C47.351 12.2757 47.2739 12.778 47.0902 13.2451C46.9064 13.7122 46.6208 14.1324 46.254 14.475C45.4518 15.0807 44.4592 15.3791 43.456 15.316ZM43.816 9.39804C43.5321 9.3929 43.2484 9.41602 42.969 9.46704V14.438C43.2051 14.4639 43.4426 14.4739 43.68 14.468C44.0209 14.4892 44.3626 14.4397 44.6835 14.3227C45.0044 14.2057 45.2977 14.0237 45.545 13.788C46.0166 13.2392 46.2533 12.5269 46.204 11.805C46.2253 11.482 46.1826 11.1579 46.0783 10.8514C45.9739 10.5449 45.81 10.262 45.596 10.019C45.3568 9.8004 45.0757 9.63261 44.7697 9.52587C44.4638 9.41912 44.1393 9.37563 43.816 9.39804ZM56.598 15.258H55.622L54.229 10.464H55.311L55.846 12.743C55.973 13.273 56.082 13.79 56.167 14.281H56.186C56.27 13.854 56.401 13.339 56.577 12.753L57.249 10.464H58.107L58.75 12.703C58.906 13.25 59.033 13.781 59.13 14.281H59.16C59.2393 13.7498 59.3465 13.2231 59.481 12.703L60.056 10.464H61.09L59.607 15.256H58.643L58.029 13.174C57.878 12.674 57.75 12.148 57.648 11.625H57.629C57.5375 12.1495 57.4102 12.667 57.248 13.174L56.596 15.256L56.598 15.258ZM110.98 15.258H109.929V8.26404H110.98V11.153H111C111.145 10.9063 111.353 10.7029 111.604 10.5641C111.854 10.4254 112.137 10.3563 112.423 10.364C112.624 10.3584 112.823 10.3941 113.01 10.469C113.196 10.5438 113.365 10.6561 113.506 10.799C113.697 11.0185 113.842 11.2734 113.934 11.5492C114.026 11.825 114.062 12.1161 114.041 12.406V15.256H112.987V12.532C112.987 11.676 112.666 11.242 112.034 11.242C111.808 11.2367 111.586 11.3076 111.405 11.4432C111.223 11.5788 111.093 11.7714 111.034 11.99C110.999 12.1147 110.983 12.2437 110.985 12.373V15.256L110.98 15.258ZM98.325 15.258H97.272V11.833C97.272 11.415 97.259 10.953 97.234 10.461H98.158L98.207 11.21H98.236C98.3647 10.9733 98.5525 10.7738 98.781 10.631C99.0674 10.4526 99.3986 10.3593 99.736 10.362C99.9392 10.3565 100.141 10.3921 100.33 10.4667C100.519 10.5413 100.691 10.6533 100.836 10.796C101.03 11.0101 101.178 11.2612 101.271 11.5342C101.365 11.8071 101.402 12.0962 101.381 12.384V15.256H100.332V12.511C100.332 11.669 100.011 11.242 99.377 11.242C99.2321 11.2382 99.0882 11.2677 98.9565 11.3282C98.8247 11.3887 98.7086 11.4786 98.617 11.591C98.4241 11.821 98.3204 12.1128 98.325 12.413V15.256V15.258ZM69.448 15.258H68.398V8.26404H69.449V15.256L69.448 15.258ZM63.485 15.258H62.434V11.833C62.434 11.417 62.421 10.968 62.395 10.461H63.316L63.366 11.21H63.395C63.5231 10.9728 63.711 10.7733 63.94 10.631C64.2267 10.4533 64.5577 10.36 64.895 10.362C65.0982 10.3565 65.3003 10.3921 65.4893 10.4667C65.6784 10.5413 65.8504 10.6533 65.995 10.796C66.1884 11.0102 66.3364 11.2613 66.4301 11.5342C66.5237 11.8072 66.5611 12.0963 66.54 12.384V15.256H65.495V12.51C65.495 11.668 65.174 11.241 64.541 11.241C64.396 11.2367 64.252 11.2659 64.1201 11.3265C63.9883 11.387 63.8722 11.4772 63.781 11.59C63.5879 11.82 63.4839 12.1118 63.488 12.412V15.256L63.485 15.258Z" fill="white"/>
<path d="M13.167 31.0711C10.967 27.8211 9.256 21.9131 11.552 17.8911C12.0767 16.9313 12.8423 16.1248 13.7733 15.5507C14.7044 14.9766 15.7688 14.6549 16.862 14.6171C18.547 14.5821 20.109 15.7671 21.145 15.7671C22.16 15.7671 24.093 14.3491 26.085 14.5611C27.0219 14.5923 27.9385 14.843 28.7609 15.293C29.5833 15.743 30.2886 16.3798 30.82 17.1521C29.9722 17.6809 29.2712 18.4149 28.7819 19.2861C28.2925 20.1574 28.0305 21.1378 28.02 22.1371C28.0169 23.2602 28.3436 24.3595 28.9596 25.2986C29.5755 26.2377 30.4537 26.9754 31.485 27.4201C31.0827 28.7442 30.4753 29.997 29.685 31.1331C28.624 32.7391 27.511 34.3101 25.745 34.3331C24.029 34.3741 23.452 33.3121 21.483 33.3121C19.497 33.3121 18.883 34.3061 17.236 34.3741H17.15C15.51 34.3791 14.249 32.6321 13.167 31.0711ZM20.941 14.2601C20.8443 12.7885 21.3319 11.3382 22.298 10.2241C23.2692 9.10224 24.6296 8.39039 26.105 8.23206C26.2202 9.7473 25.7463 11.2486 24.782 12.4231C24.3469 12.9655 23.8025 13.4102 23.1841 13.7283C22.5657 14.0463 21.8873 14.2306 21.193 14.2691C21.1057 14.2697 21.0217 14.2667 20.941 14.2601Z" fill="white"/>
</svg>
