<svg id="Capa_1" enable-background="new 0 0 512 512" height="512" viewBox="0 0 512 512" width="512" xmlns="http://www.w3.org/2000/svg"><g><g><path d="m346.375 170.625h-180.75c-8.284 0-15-6.716-15-15v-20.125c0-36.357 25.92-66.775 60.25-73.749v-16.626c0-12.288 4.851-23.774 13.659-32.344 8.807-8.568 20.469-13.101 32.724-12.763 24.188.663 43.867 21.179 43.867 45.734v16c34.33 6.973 60.25 37.392 60.25 73.749v20.125c0 8.283-6.716 14.999-15 14.999z" fill="#ffe278"/></g><path d="m301.125 61.751v-16c0-24.555-19.679-45.071-43.867-45.734-.421-.012-.839-.003-1.258-.004v170.611h90.375c8.284 0 15-6.716 15-15v-20.124c0-36.357-25.92-66.775-60.25-73.749z" fill="#ffc178"/><g><path d="m391.5 195.88-135.5 45-135.16-45-.34-10.32c0-24.78 20.16-44.94 44.939-44.94h181.121c24.779 0 44.939 20.16 44.939 44.94v10.32z" fill="#72ca76"/></g><path d="m346.561 140.62h-90.561v100.26l135.5-45v-10.32c0-24.78-20.16-44.94-44.939-44.94z" fill="#569984"/><g><path d="m346.561 512h-181.122c-24.779 0-44.939-20.16-44.939-44.94v-241.18h271v241.18c0 24.78-20.16 44.94-44.939 44.94z" fill="#f4f4fb"/></g><g><path d="m195.75 308.875h-75.25v-30h75.25c8.284 0 15 6.716 15 15s-6.716 15-15 15z" fill="#e5e5fe"/></g><g><path d="m195.75 373.75h-75.25v-30h75.25c8.284 0 15 6.716 15 15s-6.716 15-15 15z" fill="#e5e5fe"/></g><g><path d="m195.75 438.625h-75.25v-30h75.25c8.284 0 15 6.716 15 15s-6.716 15-15 15z" fill="#e5e5fe"/></g><path d="m256 512h90.561c24.779 0 44.939-20.16 44.939-44.94v-241.18h-135.5z" fill="#e5e5fe"/><path d="m120.84 195.88h270.66v30h-270.66z" fill="#453d81"/><path d="m256.349 195.88h135.151v30h-135.151z" fill="#2e2654"/></g></svg>