<svg width="111" height="112" viewBox="0 0 111 112" fill="none" xmlns="http://www.w3.org/2000/svg">
<path d="M73.6001 13.1122L58.7613 16.0848L37.5383 58.6534C37.479 58.7719 37.3848 58.8694 37.2683 58.9327C37.1519 58.9961 37.0188 59.0221 36.8871 59.0075C36.5258 58.9681 36.1668 58.9098 35.8117 58.8328C34.93 58.6397 34.0809 58.421 33.2741 58.1836C33.1838 58.157 33.1003 58.111 33.0297 58.0487C32.959 57.9864 32.9029 57.9094 32.8651 57.8231C32.8274 57.7368 32.8091 57.6433 32.8114 57.5492C32.8136 57.455 32.8365 57.3625 32.8784 57.2781L33.6774 55.6621L55.0016 12.9046C55.1638 12.5783 55.3985 12.2933 55.6877 12.0715C55.9769 11.8497 56.313 11.6969 56.6702 11.6248L72.661 8.41775C73.2836 8.29323 73.93 8.42111 74.4583 8.77324C74.9865 9.12538 75.3532 9.67294 75.4778 10.2955C75.6023 10.918 75.4744 11.5645 75.1223 12.0927C74.7701 12.6209 74.2226 12.9877 73.6001 13.1122Z" fill="url(#paint0_linear)"/>
<path d="M55.0006 12.9051L54.4809 13.943L58.7587 16.0863L55.91 11.9182C55.5189 12.1536 55.2033 12.4961 55.0006 12.9051Z" fill="url(#paint1_linear)"/>
<path d="M56.6659 11.6273C56.3991 11.6801 56.1434 11.7785 55.9101 11.9182L58.7587 16.0863L58.5267 11.2504L56.6659 11.6273Z" fill="url(#paint2_linear)"/>
<path d="M61.4132 99.378L35.2613 98.6736C34.8839 98.6566 34.5273 98.4957 34.2649 98.2239C34.0025 97.952 33.8542 97.5899 33.8506 97.2121L33.824 94.8961L62.7657 95.6746L62.7923 97.9906C62.7978 98.1736 62.766 98.3558 62.6988 98.5261C62.6315 98.6964 62.5303 98.8511 62.4012 98.981C62.2722 99.1108 62.118 99.213 61.9481 99.2813C61.7783 99.3495 61.5962 99.3824 61.4132 99.378Z" fill="url(#paint3_linear)"/>
<path d="M61.2305 96.6476L35.2026 96.45C34.2905 96.443 33.4156 96.0875 32.7571 95.4563C32.0986 94.8252 31.7064 93.9661 31.6607 93.0552L28.454 29.069L69.0029 29.3779L64.8229 93.3079C64.7634 94.2179 64.3582 95.0707 63.6903 95.6916C63.0224 96.3125 62.1424 96.6545 61.2305 96.6476Z" fill="url(#paint4_linear)"/>
<path d="M28.7007 34.0003L28.7973 34.1257L66.2082 72.1091L69.0029 29.3778L28.454 29.0689L28.7007 34.0003Z" fill="url(#paint5_linear)"/>
<path d="M35.2026 96.45C34.5825 96.4455 33.9743 96.2792 33.4381 95.9676L66.7965 63.1162L66.3594 69.7771L39.2467 96.4765L35.2026 96.45ZM31.6612 93.056L30.5937 71.7711L68.6817 34.2595L67.1169 58.235L31.6672 93.1484C31.6644 93.1176 31.6631 93.0872 31.6612 93.056ZM30.0706 61.3171L62.5516 29.3278L68.8299 29.3761L46.135 51.7294L30.3685 67.2569L30.0706 61.3171Z" fill="url(#paint6_linear)"/>
<path d="M66.7974 63.1157L66.3608 69.7775L65.1167 71.0027L62.0021 67.838L66.7974 63.1157Z" fill="url(#paint7_linear)"/>
<path d="M68.6821 34.2581L67.1164 58.2342L59.7187 65.519L48.5028 54.1324L68.6821 34.2581Z" fill="url(#paint8_linear)"/>
<path d="M68.9934 32.0773L28.4225 31.7684L31.3828 23.5918C31.5697 23.0749 31.9124 22.6287 32.3635 22.3147C32.8146 22.0007 33.352 21.8343 33.9016 21.8385L63.6654 22.0649C64.2156 22.069 64.7509 22.2437 65.1976 22.5649C65.6443 22.8861 65.9803 23.338 66.1592 23.8583L68.9934 32.0773Z" fill="url(#paint9_linear)"/>
<path d="M69.5773 34.3926L27.8038 34.0747C27.3679 34.0715 26.951 33.8952 26.6451 33.5846C26.3391 33.274 26.169 32.8547 26.1722 32.4187L26.1948 29.4519C26.1983 29.016 26.3748 28.5993 26.6855 28.2935C26.9961 27.9877 27.4155 27.8178 27.8514 27.8211L69.6266 28.138C70.0626 28.1412 70.4794 28.3175 70.7854 28.6281C71.0914 28.9387 71.2615 29.3581 71.2582 29.794L71.2354 32.7644C71.2312 33.2001 71.0542 33.6164 70.7433 33.9216C70.4324 34.2269 70.013 34.3963 69.5773 34.3926Z" fill="url(#paint10_linear)"/>
<path d="M31.475 89.3496L31.6597 93.0534C31.7054 93.9644 32.0977 94.8235 32.7562 95.4546C33.4147 96.0858 34.2896 96.4413 35.2017 96.4483L61.2315 96.6493C62.1436 96.6556 63.0236 96.3129 63.6912 95.6913C64.3587 95.0698 64.7633 94.2164 64.822 93.3062L65.0638 89.6031L31.475 89.3496Z" fill="url(#paint11_linear)"/>
<path d="M95.651 98.513H70.225C69.8992 98.5277 69.5809 98.4127 69.3397 98.1932C69.0985 97.9738 68.9541 97.6677 68.938 97.342V94.513H96.938V97.342C96.9219 97.6677 96.7775 97.9738 96.5363 98.1932C96.2951 98.4127 95.9768 98.5277 95.651 98.513Z" fill="url(#paint12_linear)"/>
<path d="M68.938 94.513V96.665L68.994 96.66L71.033 98.513H95.651C95.9768 98.5277 96.2951 98.4127 96.5363 98.1932C96.7775 97.9738 96.9219 97.6677 96.938 97.342V94.513H68.938Z" fill="url(#paint13_linear)"/>
<path d="M97.125 96.69H69.397C68.8432 96.6921 68.3086 96.4869 67.8985 96.1148C67.4884 95.7426 67.2324 95.2304 67.181 94.679L63.261 50.69H103.261L99.341 94.679C99.2895 95.2304 99.0336 95.7426 98.6235 96.1148C98.2133 96.4869 97.6788 96.6921 97.125 96.69Z" fill="url(#paint14_linear)"/>
<path d="M103.53 51.631H62.5299L65.4589 43.408C65.6461 42.8868 65.9899 42.4362 66.4432 42.118C66.8965 41.7999 67.4371 41.6298 67.9909 41.631H98.0689C98.6229 41.6297 99.1636 41.7998 99.6171 42.1179C100.071 42.4361 100.415 42.8867 100.602 43.408L103.53 51.631Z" fill="url(#paint15_linear)"/>
<path d="M99.6489 89.219L103.149 49.219H63.1489L63.4489 52.647L99.6489 89.219Z" fill="url(#paint16_linear)"/>
<path d="M74.269 61.121C74.1732 60.9889 74.0522 60.877 73.913 60.792L71.337 59.221C71.1382 59.1002 70.91 59.0363 70.6775 59.0363C70.4449 59.0363 70.2167 59.1002 70.018 59.221L67.442 60.793C67.2621 60.9014 67.1133 61.0543 67.0098 61.237C66.9062 61.4197 66.8516 61.626 66.851 61.836V69.718C66.8514 69.9131 66.8988 70.1053 66.9891 70.2783C67.0795 70.4513 67.2101 70.6 67.37 70.712L81.436 84.526C81.5531 84.6849 81.706 84.8139 81.8824 84.9025C82.0588 84.9911 82.2536 85.0369 82.451 85.036H87.601C87.9294 85.0389 88.2455 84.9113 88.4799 84.6812C88.7143 84.4511 88.8478 84.1374 88.851 83.809V75.926C88.85 75.7318 88.8027 75.5406 88.7129 75.3684C88.6232 75.1962 88.4936 75.048 88.335 74.936L74.269 61.121Z" fill="url(#paint17_linear)"/>
<path d="M101.164 83.721L102.784 66.115C102.8 65.9502 102.782 65.7838 102.73 65.6265C102.678 65.4691 102.594 65.3243 102.483 65.2013C102.373 65.0782 102.237 64.9796 102.086 64.9117C101.935 64.8438 101.772 64.8082 101.606 64.807H64.971C64.8054 64.8082 64.6419 64.8438 64.4909 64.9117C64.3398 64.9796 64.2046 65.0782 64.0939 65.2013C63.9831 65.3244 63.8992 65.4692 63.8476 65.6265C63.796 65.7839 63.7777 65.9502 63.794 66.115L65.414 83.721C65.4394 84.0159 65.5739 84.2906 65.7912 84.4915C66.0086 84.6923 66.293 84.8049 66.589 84.807H99.989C100.285 84.8049 100.569 84.6923 100.787 84.4915C101.004 84.2906 101.139 84.0159 101.164 83.721Z" fill="url(#paint18_linear)"/>
<path d="M66.907 68.871C66.9072 69.067 66.9545 69.2601 67.0448 69.4341C67.1351 69.6081 67.2658 69.7579 67.426 69.871L81.493 83.761C81.6099 83.9199 81.7627 84.0489 81.9389 84.1375C82.1151 84.2261 82.3097 84.2719 82.507 84.271H87.657C87.8201 84.2721 87.9818 84.241 88.1329 84.1795C88.284 84.1181 88.4215 84.0275 88.5376 83.9129C88.6536 83.7983 88.746 83.662 88.8094 83.5117C88.8728 83.3614 88.9059 83.2001 88.907 83.037V75.112C88.907 74.9162 88.8601 74.7233 88.7704 74.5494C88.6806 74.3754 88.5505 74.2254 88.391 74.112L78.421 64.271H66.907V68.871Z" fill="url(#paint19_linear)"/>
<path d="M90.73 74.573C90.73 75.9575 90.3194 77.3108 89.5503 78.462C88.7811 79.6131 87.6879 80.5103 86.4088 81.0402C85.1297 81.57 83.7222 81.7086 82.3644 81.4385C81.0065 81.1684 79.7592 80.5017 78.7802 79.5227C77.8013 78.5438 77.1346 77.2965 76.8645 75.9386C76.5944 74.5808 76.733 73.1733 77.2628 71.8942C77.7926 70.6151 78.6898 69.5219 79.841 68.7527C80.9921 67.9835 82.3455 67.573 83.73 67.573C85.5865 67.573 87.367 68.3105 88.6797 69.6233C89.9925 70.936 90.73 72.7165 90.73 74.573Z" fill="url(#paint20_linear)"/>
<path d="M89.789 78.484V75.484C89.7892 75.2918 89.744 75.1022 89.6571 74.9307C89.5702 74.7592 89.4441 74.6106 89.289 74.497L82.615 67.807C81.4547 68.0054 80.3625 68.4912 79.438 69.22C78.5136 69.9488 77.7863 70.8975 77.3226 71.9795C76.8589 73.0615 76.6734 74.2424 76.7831 75.4144C76.8929 76.5865 77.2943 77.7124 77.9509 78.6895C78.6074 79.6667 79.4981 80.4638 80.5418 81.0084C81.5854 81.5529 82.7488 81.8275 83.9258 81.8071C85.1029 81.7866 86.256 81.4718 87.2802 80.8914C88.3043 80.3109 89.1668 79.4833 89.789 78.484Z" fill="url(#paint21_linear)"/>
<path d="M68.697 70.145C68.3597 70.1541 68.0326 70.029 67.7875 69.797C67.5424 69.5651 67.3994 69.2453 67.39 68.908V60.966C67.3918 60.7521 67.4497 60.5424 67.558 60.358C67.6663 60.1735 67.8211 60.0208 68.007 59.915L70.7 58.331C70.9095 58.2089 71.1476 58.1445 71.39 58.1445C71.6325 58.1445 71.8706 58.2089 72.08 58.331L74.773 59.915C74.9588 60.0209 75.1135 60.1737 75.2218 60.3581C75.33 60.5426 75.388 60.7521 75.39 60.966V68.909C75.3803 69.2461 75.2373 69.5656 74.9922 69.7974C74.7472 70.0291 74.4202 70.1541 74.083 70.145H68.697Z" fill="url(#paint22_linear)"/>
<path d="M71.2219 62.439C70.9838 62.4627 70.7458 62.3923 70.5589 62.2428C70.372 62.0932 70.2511 61.8765 70.2219 61.639V53.239C70.2511 53.0014 70.372 52.7847 70.5589 52.6352C70.7458 52.4857 70.9838 52.4152 71.2219 52.439C71.4601 52.4152 71.6981 52.4857 71.885 52.6352C72.0718 52.7847 72.1928 53.0014 72.2219 53.239V61.639C72.1928 61.8765 72.0718 62.0932 71.885 62.2428C71.6981 62.3923 71.4601 62.4627 71.2219 62.439Z" fill="url(#paint23_linear)"/>
<path d="M104.001 54.101H62.283C61.8563 54.1093 61.4438 53.9479 61.1361 53.6522C60.8283 53.3565 60.6506 52.9507 60.642 52.524V49.678C60.6506 49.2513 60.8283 48.8456 61.1361 48.5499C61.4438 48.2541 61.8563 48.0927 62.283 48.101H104.001C104.428 48.0927 104.84 48.2541 105.148 48.5499C105.456 48.8456 105.633 49.2513 105.642 49.678V52.524C105.633 52.9507 105.456 53.3565 105.148 53.6522C104.84 53.9479 104.428 54.1093 104.001 54.101Z" fill="url(#paint24_linear)"/>
<path d="M67.1219 84.22L67.9819 94.145C68.0257 94.7066 68.2786 95.2313 68.6906 95.6155C69.1026 95.9997 69.6436 96.2154 70.2069 96.22H98.0369C98.6001 96.2154 99.1411 95.9997 99.5529 95.6155C99.9647 95.2312 100.217 94.7065 100.261 94.145L101.122 84.22H67.1219Z" fill="url(#paint25_linear)"/>
<path d="M98.0369 96.22C98.6001 96.2154 99.1411 95.9997 99.5529 95.6155C99.9647 95.2312 100.217 94.7065 100.261 94.145L101.122 84.22H67.1219L78.8989 96.22H98.0369Z" fill="url(#paint26_linear)"/>
<defs>
<linearGradient id="paint0_linear" x1="44.1424" y1="21.7949" x2="47.0067" y2="26.2669" gradientUnits="userSpaceOnUse">
<stop stop-color="#FFD459"/>
<stop offset="0.23" stop-color="#FFD355"/>
<stop offset="0.436" stop-color="#FFCF4A"/>
<stop offset="0.634" stop-color="#FFC838"/>
<stop offset="0.825" stop-color="#FFBF1F"/>
<stop offset="1" stop-color="#FFB400"/>
</linearGradient>
<linearGradient id="paint1_linear" x1="57.4121" y1="13.6434" x2="53.5675" y2="16.6602" gradientUnits="userSpaceOnUse">
<stop stop-color="#E58200" stop-opacity="0"/>
<stop offset="0.04" stop-color="#E27F04" stop-opacity="0.039"/>
<stop offset="0.467" stop-color="#C15D2F" stop-opacity="0.467"/>
<stop offset="0.802" stop-color="#AD4949" stop-opacity="0.8"/>
<stop offset="1" stop-color="#A64153"/>
</linearGradient>
<linearGradient id="paint2_linear" x1="58.1425" y1="13.1693" x2="54.5209" y2="15.6429" gradientUnits="userSpaceOnUse">
<stop stop-color="#E58200" stop-opacity="0"/>
<stop offset="0.04" stop-color="#E27F04" stop-opacity="0.039"/>
<stop offset="0.467" stop-color="#C15D2F" stop-opacity="0.467"/>
<stop offset="0.802" stop-color="#AD4949" stop-opacity="0.8"/>
<stop offset="1" stop-color="#A64153"/>
</linearGradient>
<linearGradient id="paint3_linear" x1="34.061" y1="97.9583" x2="51.4547" y2="109.323" gradientUnits="userSpaceOnUse">
<stop stop-color="#F87777"/>
<stop offset="1" stop-color="#EE4242"/>
</linearGradient>
<linearGradient id="paint4_linear" x1="23.9996" y1="26.5906" x2="66.4528" y2="100.122" gradientUnits="userSpaceOnUse">
<stop stop-color="#ACD6FF"/>
<stop offset="1" stop-color="#5BBCFF"/>
</linearGradient>
<linearGradient id="paint5_linear" x1="40.8433" y1="35.5318" x2="73.5534" y2="56.5917" gradientUnits="userSpaceOnUse">
<stop stop-color="#70B6FA"/>
<stop offset="1" stop-color="#5BBCFF" stop-opacity="0"/>
</linearGradient>
<linearGradient id="paint6_linear" x1="32.3313" y1="62.7762" x2="81.6816" y2="76.4112" gradientUnits="userSpaceOnUse">
<stop stop-color="#F8F6FB"/>
<stop offset="1" stop-color="#EFDCFB"/>
</linearGradient>
<linearGradient id="paint7_linear" x1="63.8997" y1="64.9754" x2="17.5055" y2="14.1457" gradientUnits="userSpaceOnUse">
<stop stop-color="#A1B5D8" stop-opacity="0"/>
<stop offset="0.034" stop-color="#9FB3D5" stop-opacity="0.035"/>
<stop offset="0.451" stop-color="#8898AF" stop-opacity="0.451"/>
<stop offset="0.788" stop-color="#798898" stop-opacity="0.788"/>
<stop offset="1" stop-color="#748290"/>
</linearGradient>
<linearGradient id="paint8_linear" x1="71.5898" y1="57.387" x2="27.457" y2="4.81484" gradientUnits="userSpaceOnUse">
<stop stop-color="#A1B5D8" stop-opacity="0"/>
<stop offset="0.034" stop-color="#9FB3D5" stop-opacity="0.035"/>
<stop offset="0.451" stop-color="#8898AF" stop-opacity="0.451"/>
<stop offset="0.788" stop-color="#798898" stop-opacity="0.788"/>
<stop offset="1" stop-color="#748290"/>
</linearGradient>
<linearGradient id="paint9_linear" x1="27.3848" y1="29.9711" x2="53.5192" y2="46.1432" gradientUnits="userSpaceOnUse">
<stop stop-color="#F87777"/>
<stop offset="1" stop-color="#EE4242"/>
</linearGradient>
<linearGradient id="paint10_linear" x1="26.385" y1="33.24" x2="52.4691" y2="50.8357" gradientUnits="userSpaceOnUse">
<stop stop-color="#E76F6F"/>
<stop offset="1" stop-color="#EA3F3F"/>
</linearGradient>
<linearGradient id="paint11_linear" x1="33.0995" y1="91.2419" x2="58.0573" y2="102.689" gradientUnits="userSpaceOnUse">
<stop stop-color="#A9D3FB"/>
<stop offset="1" stop-color="#5BBCFF"/>
</linearGradient>
<linearGradient id="paint12_linear" x1="82.938" y1="97.1778" x2="82.938" y2="98.8023" gradientUnits="userSpaceOnUse">
<stop stop-color="#FFFCF8"/>
<stop offset="0.188" stop-color="#FAF8F6"/>
<stop offset="0.404" stop-color="#ECEEF2"/>
<stop offset="0.635" stop-color="#D5DCEA"/>
<stop offset="0.875" stop-color="#B5C4DF"/>
<stop offset="1" stop-color="#A1B5D8"/>
</linearGradient>
<linearGradient id="paint13_linear" x1="85.514" y1="104.612" x2="85.333" y2="73.5999" gradientUnits="userSpaceOnUse">
<stop stop-color="#A1B5D8" stop-opacity="0"/>
<stop offset="0.034" stop-color="#9FB3D5" stop-opacity="0.035"/>
<stop offset="0.451" stop-color="#8898AF" stop-opacity="0.451"/>
<stop offset="0.788" stop-color="#798898" stop-opacity="0.788"/>
<stop offset="1" stop-color="#748290"/>
</linearGradient>
<linearGradient id="paint14_linear" x1="76.741" y1="73.69" x2="104.181" y2="73.69" gradientUnits="userSpaceOnUse">
<stop stop-color="#FFFCF8"/>
<stop offset="0.188" stop-color="#FAF8F6"/>
<stop offset="0.404" stop-color="#ECEEF2"/>
<stop offset="0.635" stop-color="#D5DCEA"/>
<stop offset="0.875" stop-color="#B5C4DF"/>
<stop offset="1" stop-color="#A1B5D8"/>
</linearGradient>
<linearGradient id="paint15_linear" x1="61.7509" y1="45.891" x2="92.1643" y2="58.9488" gradientUnits="userSpaceOnUse">
<stop stop-color="#D88E46"/>
<stop offset="1" stop-color="#BF6D2A"/>
</linearGradient>
<linearGradient id="paint16_linear" x1="86.8289" y1="66.899" x2="78.1489" y2="27.739" gradientUnits="userSpaceOnUse">
<stop stop-color="#A1B5D8" stop-opacity="0"/>
<stop offset="0.034" stop-color="#9FB3D5" stop-opacity="0.035"/>
<stop offset="0.451" stop-color="#8898AF" stop-opacity="0.451"/>
<stop offset="0.788" stop-color="#798898" stop-opacity="0.788"/>
<stop offset="1" stop-color="#748290"/>
</linearGradient>
<linearGradient id="paint17_linear" x1="77.829" y1="72.7902" x2="62.9718" y2="62.3454" gradientUnits="userSpaceOnUse">
<stop stop-color="#A1B5D8" stop-opacity="0"/>
<stop offset="0.034" stop-color="#9FB3D5" stop-opacity="0.035"/>
<stop offset="0.451" stop-color="#8898AF" stop-opacity="0.451"/>
<stop offset="0.788" stop-color="#798898" stop-opacity="0.788"/>
<stop offset="1" stop-color="#748290"/>
</linearGradient>
<linearGradient id="paint18_linear" x1="67.5713" y1="67.447" x2="81.8173" y2="92.9265" gradientUnits="userSpaceOnUse">
<stop stop-color="#FFC198"/>
<stop offset="1" stop-color="#FFA162"/>
</linearGradient>
<linearGradient id="paint19_linear" x1="78.897" y1="72.971" x2="57.2849" y2="47.155" gradientUnits="userSpaceOnUse">
<stop stop-color="#FF0084" stop-opacity="0"/>
<stop offset="0.074" stop-color="#F4087E" stop-opacity="0.075"/>
<stop offset="0.335" stop-color="#D2216B" stop-opacity="0.333"/>
<stop offset="0.583" stop-color="#BA335E" stop-opacity="0.584"/>
<stop offset="0.811" stop-color="#AB3D56" stop-opacity="0.812"/>
<stop offset="1" stop-color="#A64153"/>
</linearGradient>
<linearGradient id="paint20_linear" x1="101.664" y1="69.533" x2="72.726" y2="79.571" gradientUnits="userSpaceOnUse">
<stop stop-color="#FFA981"/>
<stop offset="0.428" stop-color="#FF8666"/>
<stop offset="1" stop-color="#FF5C45"/>
</linearGradient>
<linearGradient id="paint21_linear" x1="99.9706" y1="69.7672" x2="72.6334" y2="78.5966" gradientUnits="userSpaceOnUse">
<stop stop-color="#FFA981"/>
<stop offset="0.428" stop-color="#FF8666"/>
<stop offset="1" stop-color="#FF5C45"/>
</linearGradient>
<linearGradient id="paint22_linear" x1="68.702" y1="64.145" x2="75.446" y2="64.145" gradientUnits="userSpaceOnUse">
<stop stop-color="#8BE1E2"/>
<stop offset="0.187" stop-color="#87E1E1"/>
<stop offset="0.356" stop-color="#7CE2DD"/>
<stop offset="0.517" stop-color="#6AE2D7"/>
<stop offset="0.674" stop-color="#50E4CE"/>
<stop offset="0.828" stop-color="#2FE5C2"/>
<stop offset="0.977" stop-color="#07E7B4"/>
<stop offset="1" stop-color="#00E7B2"/>
</linearGradient>
<linearGradient id="paint23_linear" x1="70.2219" y1="57.439" x2="72.2219" y2="57.439" gradientUnits="userSpaceOnUse">
<stop stop-color="#45425A"/>
<stop offset="1" stop-color="#2D3251"/>
</linearGradient>
<linearGradient id="paint24_linear" x1="59.787" y1="50.657" x2="84.2403" y2="69.8603" gradientUnits="userSpaceOnUse">
<stop stop-color="#DC934B"/>
<stop offset="1" stop-color="#DB843C"/>
</linearGradient>
<linearGradient id="paint25_linear" x1="84.1219" y1="90.784" x2="84.1219" y2="101.908" gradientUnits="userSpaceOnUse">
<stop stop-color="#A1B5D8" stop-opacity="0"/>
<stop offset="0.034" stop-color="#9FB3D5" stop-opacity="0.035"/>
<stop offset="0.451" stop-color="#8898AF" stop-opacity="0.451"/>
<stop offset="0.788" stop-color="#798898" stop-opacity="0.788"/>
<stop offset="1" stop-color="#748290"/>
</linearGradient>
<linearGradient id="paint26_linear" x1="86.2979" y1="90.304" x2="85.1944" y2="65.449" gradientUnits="userSpaceOnUse">
<stop stop-color="#A1B5D8" stop-opacity="0"/>
<stop offset="0.034" stop-color="#9FB3D5" stop-opacity="0.035"/>
<stop offset="0.451" stop-color="#8898AF" stop-opacity="0.451"/>
<stop offset="0.788" stop-color="#798898" stop-opacity="0.788"/>
<stop offset="1" stop-color="#748290"/>
</linearGradient>
</defs>
</svg>
