<svg width="84" height="74" viewBox="0 0 84 74" fill="none" xmlns="http://www.w3.org/2000/svg">
<path d="M18.499 46.2761V73.5131C18.349 73.5191 18.199 73.5211 18.048 73.5211C17.897 73.5211 17.748 73.5211 17.597 73.5131V46.2761C17.749 46.2681 17.899 46.2681 18.05 46.2681C18.201 46.2681 18.351 46.2681 18.499 46.2761Z" fill="url(#paint0_linear)"/>
<path d="M31.676 59.8939C31.676 60.0449 31.676 60.1939 31.668 60.3449H4.43097C4.42297 60.1949 4.42297 60.0429 4.42297 59.8939C4.42297 59.7449 4.42297 59.5929 4.43097 59.4429H31.668C31.674 59.5929 31.676 59.7429 31.676 59.8939Z" fill="url(#paint1_linear)"/>
<path d="M28.001 50.584L8.73895 69.846C8.51895 69.64 8.30629 69.4274 8.10095 69.208L17.601 59.708L17.863 59.446L25.348 51.961L27.36 49.946C27.58 50.1514 27.7926 50.364 27.998 50.584H28.001Z" fill="url(#paint2_linear)"/>
<path d="M28.001 69.205C27.7956 69.425 27.583 69.6377 27.363 69.843L25.351 67.83L18.501 60.984L8.10095 50.584C8.30629 50.3647 8.51895 50.152 8.73895 49.946L28.001 69.205Z" fill="url(#paint3_linear)"/>
<path d="M4.42395 59.8941C4.42395 57.1991 5.2231 54.5647 6.72035 52.3239C8.21759 50.0831 10.3457 48.3366 12.8355 47.3053C15.3253 46.274 18.0651 46.0041 20.7083 46.5299C23.3514 47.0557 25.7794 48.3534 27.685 50.259C29.5906 52.1647 30.8884 54.5926 31.4141 57.2358C31.9399 59.879 31.6701 62.6187 30.6387 65.1085C29.6074 67.5983 27.8609 69.7264 25.6201 71.2237C23.3794 72.7209 20.7449 73.5201 18.05 73.5201C14.4361 73.5201 10.9703 72.0845 8.41491 69.5291C5.85954 66.9737 4.42395 63.5079 4.42395 59.8941H4.42395Z" fill="url(#paint4_linear)"/>
<path d="M24.179 59.8939C24.179 61.1061 23.8196 62.2911 23.1461 63.299C22.4726 64.3069 21.5154 65.0925 20.3955 65.5564C19.2756 66.0202 18.0432 66.1416 16.8543 65.9051C15.6654 65.6686 14.5733 65.0849 13.7162 64.2277C12.859 63.3706 12.2753 62.2785 12.0388 61.0896C11.8023 59.9007 11.9237 58.6684 12.3876 57.5484C12.8515 56.4285 13.637 55.4713 14.6449 54.7978C15.6528 54.1244 16.8378 53.7649 18.05 53.7649C19.6755 53.7649 21.2345 54.4106 22.3839 55.56C23.5333 56.7094 24.179 58.2684 24.179 59.8939Z" fill="url(#paint5_linear)"/>
<path d="M24.019 61.2841L20.409 57.6721C20.1086 57.3689 19.7514 57.128 19.3576 56.9632C18.9639 56.7985 18.5416 56.7132 18.1148 56.7122C17.688 56.7112 17.2652 56.7945 16.8707 56.9573C16.4762 57.1202 16.1178 57.3594 15.816 57.6611C15.5143 57.9629 15.2751 58.3213 15.1122 58.7158C14.9494 59.1103 14.8661 59.5331 14.8671 59.9599C14.8681 60.3867 14.9534 60.809 15.1181 61.2027C15.2829 61.5964 15.5238 61.9537 15.827 62.2541L19.439 65.8631C20.5536 65.6031 21.5732 65.0365 22.3825 64.2273C23.1919 63.4181 23.7588 62.3986 24.019 61.2841Z" fill="url(#paint6_linear)"/>
<path d="M21.29 59.8951C21.29 60.5361 21.0999 61.1628 20.7437 61.6958C20.3875 62.2288 19.8813 62.6442 19.289 62.8894C18.6968 63.1347 18.045 63.1988 17.4163 63.0737C16.7876 62.9486 16.2101 62.6398 15.7569 62.1864C15.3037 61.7331 14.9951 61.1555 14.8701 60.5267C14.7452 59.898 14.8095 59.2463 15.055 58.6541C15.3004 58.0619 15.716 57.5558 16.2491 57.1998C16.7822 56.8438 17.4089 56.6539 18.05 56.6541C18.9094 56.6543 19.7335 56.9959 20.3411 57.6037C20.9487 58.2114 21.29 59.0357 21.29 59.8951Z" fill="url(#paint7_radial)"/>
<path d="M70.823 46.2761V73.5131C70.673 73.5191 70.523 73.5211 70.372 73.5211C70.221 73.5211 70.072 73.5211 69.921 73.5131V46.2761C70.073 46.2681 70.223 46.2681 70.374 46.2681C70.525 46.2681 70.675 46.2681 70.823 46.2761Z" fill="url(#paint8_linear)"/>
<path d="M83.9999 59.8939C83.9999 60.0449 83.9999 60.1939 83.9919 60.3449H56.7549C56.7469 60.1949 56.7469 60.0429 56.7469 59.8939C56.7469 59.7449 56.7469 59.5929 56.7549 59.4429H83.9919C83.9973 59.5929 83.9999 59.7432 83.9999 59.8939Z" fill="url(#paint9_linear)"/>
<path d="M80.325 50.584L69.925 60.984L63.076 67.83L61.063 69.846C60.843 69.64 60.6304 69.4274 60.425 69.208L69.284 60.346L69.735 59.895L69.925 59.707L70.186 59.446L79.686 49.946C79.906 50.1514 80.1187 50.364 80.324 50.584H80.325Z" fill="url(#paint10_linear)"/>
<path d="M80.325 69.205C80.1197 69.425 79.907 69.6377 79.687 69.843L60.425 50.584C60.6304 50.3647 60.843 50.152 61.063 49.946L63.076 51.959L70.376 59.259L80.325 69.205Z" fill="url(#paint11_linear)"/>
<path d="M56.7469 59.8941C56.7469 57.1991 57.5461 54.5647 59.0433 52.3239C60.5406 50.0831 62.6687 48.3366 65.1585 47.3053C67.6483 46.274 70.3881 46.0041 73.0312 46.5299C75.6744 47.0557 78.1024 48.3534 80.008 50.259C81.9136 52.1647 83.2114 54.5926 83.7371 57.2358C84.2629 59.879 83.9931 62.6187 82.9617 65.1085C81.9304 67.5983 80.1839 69.7264 77.9431 71.2237C75.7024 72.7209 73.0679 73.5201 70.3729 73.5201C66.7592 73.5198 63.2935 72.0841 60.7382 69.5288C58.1829 66.9735 56.7472 63.5078 56.7469 59.8941V59.8941Z" fill="url(#paint12_linear)"/>
<path d="M76.503 59.8939C76.503 61.1061 76.1435 62.2911 75.4701 63.299C74.7966 64.3069 73.8394 65.0925 72.7195 65.5564C71.5995 66.0202 70.3672 66.1416 69.1783 65.9051C67.9894 65.6686 66.8973 65.0849 66.0401 64.2277C65.183 63.3706 64.5993 62.2785 64.3628 61.0896C64.1263 59.9007 64.2477 58.6684 64.7115 57.5484C65.1754 56.4285 65.961 55.4713 66.9689 54.7978C67.9768 54.1244 69.1618 53.7649 70.374 53.7649C71.9995 53.7649 73.5584 54.4106 74.7079 55.56C75.8573 56.7094 76.503 58.2684 76.503 59.8939Z" fill="url(#paint13_linear)"/>
<path d="M76.342 61.2841L72.732 57.6721C72.4316 57.3689 72.0743 57.128 71.6806 56.9632C71.2869 56.7985 70.8646 56.7132 70.4378 56.7122C70.011 56.7112 69.5882 56.7945 69.1937 56.9573C68.7992 57.1202 68.4408 57.3594 68.139 57.6611C67.8373 57.9629 67.5981 58.3213 67.4352 58.7158C67.2724 59.1103 67.1891 59.5331 67.1901 59.9599C67.1911 60.3867 67.2764 60.809 67.4411 61.2027C67.6059 61.5964 67.8468 61.9537 68.15 62.2541L71.762 65.8631C72.8765 65.603 73.8961 65.0363 74.7054 64.2272C75.5148 63.418 76.0816 62.3985 76.342 61.2841Z" fill="url(#paint14_linear)"/>
<path d="M73.614 59.8951C73.614 60.5361 73.4239 61.1627 73.0678 61.6957C72.7116 62.2286 72.2055 62.644 71.6132 62.8893C71.021 63.1346 70.3694 63.1988 69.7407 63.0738C69.112 62.9487 68.5345 62.64 68.0812 62.1868C67.628 61.7335 67.3193 61.156 67.1942 60.5273C67.0692 59.8986 67.1334 59.247 67.3787 58.6548C67.624 58.0626 68.0394 57.5564 68.5724 57.2003C69.1053 56.8441 69.732 56.6541 70.373 56.6541C71.2325 56.6541 72.0569 56.9955 72.6647 57.6033C73.2725 58.2111 73.614 59.0355 73.614 59.8951Z" fill="url(#paint15_radial)"/>
<path d="M50.21 59.774H4.2C3.08609 59.774 2.0178 59.3315 1.23015 58.5438C0.442499 57.7562 0 56.6879 0 55.574L0 49.494C0 49.458 0 49.4223 0 49.387C0 49.381 0 49.375 0 49.369C0 49.335 0 49.301 0 49.269V49.246C0 49.2126 0 49.1793 0 49.146V49.125C0 49.097 0 49.069 0 49.041V49.014C0 48.9846 0 48.9553 0 48.926V48.884C0 48.8586 0 48.8333 0 48.808V48.753V48.713C0 48.678 0 48.643 0 48.613V48.598C0.230222 43.9015 2.25942 39.4738 5.6667 36.2333C9.07399 32.9929 13.5979 31.1883 18.3 31.194H38.847C38.8468 32.4147 38.4567 33.6036 37.7336 34.5871C37.0105 35.5707 35.9922 36.2976 34.827 36.662L33.8 36.981C30.278 38.081 29.642 41.341 29.642 45.031V48.388C29.642 50.0588 30.3057 51.6613 31.4872 52.8427C32.6687 54.0242 34.2711 54.688 35.942 54.688H50.21V24.074C50.207 23.063 50.6037 22.0918 51.3136 21.372C52.0235 20.6522 52.9891 20.242 54 20.231H54.057C56.3946 20.2312 58.6597 21.0424 60.4662 22.526C62.2726 24.0097 63.5084 26.074 63.963 28.367L66.263 40.003H69.2C71.6252 40.0023 74.0001 40.6948 76.045 41.9987C78.0899 43.3027 79.7195 45.1638 80.742 47.363C80.8694 47.6412 80.9065 47.9524 80.8481 48.2529C80.7896 48.5533 80.6385 48.8279 80.416 49.0381C80.1935 49.2482 79.9107 49.3834 79.6074 49.4246C79.3041 49.4659 78.9955 49.4111 78.725 49.268C77.2557 48.5111 75.6807 47.9801 74.053 47.693C73.1893 47.5403 72.3149 47.4564 71.438 47.442H71.156C67.3894 47.437 63.7347 48.722 60.8 51.083C59.4554 53.0159 58.5731 55.2319 58.221 57.56C58.1498 58.0277 57.9524 58.4671 57.65 58.831C57.4099 59.1252 57.1073 59.3622 56.7641 59.5248C56.4209 59.6874 56.0458 59.7715 55.666 59.771L50.21 59.774Z" fill="url(#paint16_linear)"/>
<path d="M51.754 20.7208H44.068C43.5945 20.7208 43.1405 20.5328 42.8058 20.198C42.471 19.8633 42.283 19.4093 42.283 18.9358V17.9058C42.283 17.4324 42.471 16.9784 42.8058 16.6437C43.1405 16.3089 43.5945 16.1208 44.068 16.1208H51.754C52.2274 16.1208 52.6814 16.3089 53.0161 16.6437C53.3509 16.9784 53.539 17.4324 53.539 17.9058V18.9358C53.539 19.4093 53.3509 19.8633 53.0161 20.198C52.6814 20.5328 52.2274 20.7208 51.754 20.7208Z" fill="url(#paint17_linear)"/>
<path d="M62.9239 15.778C62.9239 12.07 61.7309 9.06396 60.2589 9.06396C58.7869 9.06396 57.5959 12.07 57.5959 15.778C57.5959 19.486 58.7889 22.492 60.2589 22.492C61.7289 22.492 62.9239 19.487 62.9239 15.778Z" fill="url(#paint18_linear)"/>
<path d="M59.7601 22.973H55.9431C54.1632 22.973 52.4562 22.2659 51.1977 21.0074C49.9391 19.7488 49.2321 18.0418 49.2321 16.262V15.296C49.2321 13.5161 49.9391 11.8091 51.1977 10.5506C52.4562 9.29201 54.1632 8.58496 55.9431 8.58496H59.7591C59.919 8.58483 60.0775 8.61624 60.2253 8.67741C60.3732 8.73857 60.5075 8.82828 60.6206 8.94141C60.7337 9.05454 60.8234 9.18886 60.8846 9.3367C60.9458 9.48453 60.9772 9.64297 60.9771 9.80296V21.756C60.9771 22.079 60.8487 22.3888 60.6203 22.6172C60.3919 22.8456 60.0821 22.974 59.7591 22.974L59.7601 22.973Z" fill="url(#paint19_linear)"/>
<path d="M18.903 24.5378H36.41C37.3852 24.5378 38.3204 24.9252 39.01 25.6148C39.6996 26.3044 40.087 27.2396 40.087 28.2148V29.9818C40.087 30.3033 39.9593 30.6116 39.732 30.8389C39.5047 31.0661 39.1964 31.1938 38.875 31.1938H16.437C16.1157 31.1936 15.8077 31.0658 15.5806 30.8385C15.3535 30.6112 15.226 30.3031 15.226 29.9818V28.2148C15.226 27.2396 15.6133 26.3044 16.3029 25.6148C16.9925 24.9252 17.9278 24.5378 18.903 24.5378Z" fill="url(#paint20_linear)"/>
<path d="M17.77 50.8349H8.11301C7.62846 50.8349 7.16376 50.6424 6.82113 50.2998C6.4785 49.9572 6.28601 49.4925 6.28601 49.0079C6.28601 48.5234 6.4785 48.0587 6.82113 47.716C7.16376 47.3734 7.62846 47.1809 8.11301 47.1809H17.77C18.2546 47.1809 18.7193 47.3734 19.0619 47.716C19.4045 48.0587 19.597 48.5234 19.597 49.0079C19.597 49.4925 19.4045 49.9572 19.0619 50.2998C18.7193 50.6424 18.2546 50.8349 17.77 50.8349Z" fill="url(#paint21_linear)"/>
<path d="M17.77 55.468H8.11301C7.62846 55.468 7.16376 55.2755 6.82113 54.9328C6.4785 54.5902 6.28601 54.1255 6.28601 53.641C6.28601 53.1564 6.4785 52.6917 6.82113 52.3491C7.16376 52.0065 7.62846 51.814 8.11301 51.814H17.77C18.2546 51.814 18.7193 52.0065 19.0619 52.3491C19.4045 52.6917 19.597 53.1564 19.597 53.641C19.597 54.1255 19.4045 54.5902 19.0619 54.9328C18.7193 55.2755 18.2546 55.468 17.77 55.468Z" fill="url(#paint22_linear)"/>
<path d="M32.31 24.246H10.598C10.4316 24.246 10.2667 24.2132 10.113 24.1493C9.95926 24.0855 9.81963 23.992 9.70211 23.8741C9.58459 23.7562 9.49149 23.6163 9.42816 23.4623C9.36482 23.3084 9.33249 23.1435 9.33301 22.977V1.265C9.33315 1.09866 9.36605 0.933982 9.42986 0.780369C9.49367 0.626756 9.58712 0.487222 9.70488 0.369743C9.82264 0.252264 9.96239 0.159142 10.1162 0.0957C10.2699 0.0322577 10.4347 -0.000261248 10.601 1.58054e-06H32.313C32.6485 1.58054e-06 32.9703 0.133278 33.2075 0.370512C33.4447 0.607745 33.578 0.929503 33.578 1.265V22.978C33.5784 23.1446 33.5459 23.3097 33.4823 23.4637C33.4187 23.6177 33.3253 23.7577 33.2075 23.8755C33.0897 23.9933 32.9497 24.0867 32.7957 24.1503C32.6417 24.2139 32.4766 24.2464 32.31 24.246Z" fill="url(#paint23_linear)"/>
<path d="M17.806 9.02198L30.486 21.701L30.725 21.913C30.8593 22.0319 31.0325 22.0975 31.212 22.0975C31.3914 22.0975 31.5646 22.0319 31.699 21.913C31.8332 21.7939 32.0065 21.7281 32.186 21.7281C32.3654 21.7281 32.5387 21.7939 32.673 21.913C32.7953 22.0213 32.9503 22.0856 33.1133 22.0957C33.2764 22.1059 33.4382 22.0613 33.573 21.969V8.22398L25.354 0.000976562H17.559V8.47198C17.559 8.57589 17.581 8.67863 17.6236 8.77343C17.6661 8.86823 17.7283 8.95293 17.806 9.02198Z" fill="url(#paint24_linear)"/>
<path d="M25.354 0.000976562V8.47298C25.354 8.577 25.3319 8.67985 25.2892 8.77468C25.2464 8.8695 25.184 8.95415 25.106 9.02298L24.865 9.23598C24.7307 9.35478 24.5577 9.42036 24.3785 9.42036C24.1992 9.42036 24.0262 9.35478 23.892 9.23598C23.7577 9.1169 23.5844 9.05115 23.405 9.05115C23.2255 9.05115 23.0522 9.1169 22.918 9.23598C22.7837 9.35505 22.6104 9.42081 22.431 9.42081C22.2515 9.42081 22.0782 9.35505 21.944 9.23598C21.8096 9.1171 21.6364 9.05148 21.457 9.05148C21.2776 9.05148 21.1043 9.1171 20.97 9.23598C20.8357 9.35505 20.6624 9.42081 20.483 9.42081C20.3035 9.42081 20.1302 9.35505 19.996 9.23598C19.8616 9.1171 19.6884 9.05148 19.509 9.05148C19.3296 9.05148 19.1563 9.1171 19.022 9.23598C18.8877 9.35505 18.7144 9.42081 18.535 9.42081C18.3555 9.42081 18.1822 9.35505 18.048 9.23598L17.807 9.02098C17.7291 8.95226 17.6667 8.86778 17.624 8.77313C17.5812 8.67848 17.559 8.57583 17.559 8.47198V0.000976562H25.354Z" fill="url(#paint25_linear)"/>
<path d="M11.295 20.739H16.643V22.281H11.295V20.739Z" fill="url(#paint26_linear)"/>
<path d="M11.295 17.469H19.78V19.011H11.295V17.469Z" fill="url(#paint27_linear)"/>
<defs>
<linearGradient id="paint0_linear" x1="17.597" y1="59.8946" x2="18.499" y2="59.8946" gradientUnits="userSpaceOnUse">
<stop stop-color="#575C55"/>
<stop offset="1" stop-color="#45425A"/>
</linearGradient>
<linearGradient id="paint1_linear" x1="4.42297" y1="59.8939" x2="31.676" y2="59.8939" gradientUnits="userSpaceOnUse">
<stop stop-color="#575C55"/>
<stop offset="1" stop-color="#45425A"/>
</linearGradient>
<linearGradient id="paint2_linear" x1="8.10095" y1="59.896" x2="28.001" y2="59.896" gradientUnits="userSpaceOnUse">
<stop stop-color="#575C55"/>
<stop offset="1" stop-color="#45425A"/>
</linearGradient>
<linearGradient id="paint3_linear" x1="8.10095" y1="59.8945" x2="28.001" y2="59.8945" gradientUnits="userSpaceOnUse">
<stop stop-color="#575C55"/>
<stop offset="1" stop-color="#45425A"/>
</linearGradient>
<linearGradient id="paint4_linear" x1="31.676" y1="55.452" x2="0.445158" y2="75.1007" gradientUnits="userSpaceOnUse">
<stop/>
<stop offset="1" stop-color="#4A4A4A"/>
</linearGradient>
<linearGradient id="paint5_linear" x1="11.3449" y1="53.7649" x2="23.1616" y2="64.6132" gradientUnits="userSpaceOnUse">
<stop stop-color="#6BDEC5"/>
<stop offset="1" stop-color="#39B993"/>
</linearGradient>
<linearGradient id="paint6_linear" x1="14.4369" y1="56.7122" x2="23.2585" y2="64.8117" gradientUnits="userSpaceOnUse">
<stop stop-color="#6BDEC5"/>
<stop offset="1" stop-color="#39B993"/>
</linearGradient>
<radialGradient id="paint7_radial" cx="0" cy="0" r="1" gradientUnits="userSpaceOnUse" gradientTransform="translate(18.049 59.8951) scale(3.241)">
<stop stop-color="#45425A"/>
<stop offset="0.476" stop-color="#424059"/>
<stop offset="0.774" stop-color="#3A3B56"/>
<stop offset="1" stop-color="#2D3251"/>
</radialGradient>
<linearGradient id="paint8_linear" x1="69.921" y1="59.8946" x2="70.823" y2="59.8946" gradientUnits="userSpaceOnUse">
<stop stop-color="#575C55"/>
<stop offset="1" stop-color="#45425A"/>
</linearGradient>
<linearGradient id="paint9_linear" x1="56.7469" y1="59.8939" x2="83.9999" y2="59.8939" gradientUnits="userSpaceOnUse">
<stop stop-color="#575C55"/>
<stop offset="1" stop-color="#45425A"/>
</linearGradient>
<linearGradient id="paint10_linear" x1="60.425" y1="59.896" x2="80.325" y2="59.896" gradientUnits="userSpaceOnUse">
<stop stop-color="#575C55"/>
<stop offset="1" stop-color="#45425A"/>
</linearGradient>
<linearGradient id="paint11_linear" x1="60.425" y1="59.8945" x2="80.325" y2="59.8945" gradientUnits="userSpaceOnUse">
<stop stop-color="#575C55"/>
<stop offset="1" stop-color="#45425A"/>
</linearGradient>
<linearGradient id="paint12_linear" x1="83.999" y1="55.452" x2="52.7682" y2="75.1007" gradientUnits="userSpaceOnUse">
<stop/>
<stop offset="1" stop-color="#4A4A4A"/>
</linearGradient>
<linearGradient id="paint13_linear" x1="63.6689" y1="53.7649" x2="75.4856" y2="64.6132" gradientUnits="userSpaceOnUse">
<stop stop-color="#6BDEC5"/>
<stop offset="1" stop-color="#39B993"/>
</linearGradient>
<linearGradient id="paint14_linear" x1="66.7599" y1="56.7122" x2="75.5815" y2="64.8117" gradientUnits="userSpaceOnUse">
<stop stop-color="#6BDEC5"/>
<stop offset="1" stop-color="#39B993"/>
</linearGradient>
<radialGradient id="paint15_radial" cx="0" cy="0" r="1" gradientUnits="userSpaceOnUse" gradientTransform="translate(70.373 59.8951) scale(3.241)">
<stop stop-color="#45425A"/>
<stop offset="0.476" stop-color="#424059"/>
<stop offset="0.774" stop-color="#3A3B56"/>
<stop offset="1" stop-color="#2D3251"/>
</radialGradient>
<linearGradient id="paint16_linear" x1="78.4488" y1="16.9489" x2="50.9528" y2="80.9906" gradientUnits="userSpaceOnUse">
<stop stop-color="#FFA981"/>
<stop offset="0.066" stop-color="#FFA77F"/>
<stop offset="0.428" stop-color="#FF8666"/>
<stop offset="1" stop-color="#FF5C45"/>
</linearGradient>
<linearGradient id="paint17_linear" x1="53.539" y1="17.671" x2="48.1962" y2="25.8962" gradientUnits="userSpaceOnUse">
<stop/>
<stop offset="1" stop-color="#4A4A4A"/>
</linearGradient>
<linearGradient id="paint18_linear" x1="57.3455" y1="9.06396" x2="65.7018" y2="12.1079" gradientUnits="userSpaceOnUse">
<stop stop-color="#6BDEC5"/>
<stop offset="1" stop-color="#39B993"/>
</linearGradient>
<linearGradient id="paint19_linear" x1="60.9771" y1="8.58496" x2="47.591" y2="16.9109" gradientUnits="userSpaceOnUse">
<stop stop-color="#FFA981"/>
<stop offset="0.428" stop-color="#FF8666"/>
<stop offset="1" stop-color="#FF5C45"/>
</linearGradient>
<linearGradient id="paint20_linear" x1="40.087" y1="26.7809" x2="33.9896" y2="41.1092" gradientUnits="userSpaceOnUse">
<stop/>
<stop offset="1" stop-color="#4A4A4A"/>
</linearGradient>
<linearGradient id="paint21_linear" x1="12.9415" y1="52.3367" x2="12.9415" y2="46.589" gradientUnits="userSpaceOnUse">
<stop stop-color="#E58200" stop-opacity="0"/>
<stop offset="0.241" stop-color="#DA760F" stop-opacity="0.243"/>
<stop offset="0.704" stop-color="#BC5737" stop-opacity="0.706"/>
<stop offset="1" stop-color="#A64153"/>
</linearGradient>
<linearGradient id="paint22_linear" x1="12.9415" y1="56.9698" x2="12.9415" y2="51.222" gradientUnits="userSpaceOnUse">
<stop stop-color="#E58200" stop-opacity="0"/>
<stop offset="0.241" stop-color="#DA760F" stop-opacity="0.243"/>
<stop offset="0.704" stop-color="#BC5737" stop-opacity="0.706"/>
<stop offset="1" stop-color="#A64153"/>
</linearGradient>
<linearGradient id="paint23_linear" x1="11.1514" y1="-5.37424e-07" x2="33.579" y2="24.2451" gradientUnits="userSpaceOnUse">
<stop stop-color="#F7D0AD"/>
<stop offset="1" stop-color="#E89F7B"/>
</linearGradient>
<linearGradient id="paint24_linear" x1="30.226" y1="13.1705" x2="14.9237" y2="5.12014" gradientUnits="userSpaceOnUse">
<stop stop-color="#FFC77E" stop-opacity="0"/>
<stop offset="0.192" stop-color="#DE7B09" stop-opacity="0.11"/>
<stop offset="0.504" stop-color="#FF9A50" stop-opacity="0.502"/>
<stop offset="0.888" stop-color="#FFBC86" stop-opacity="0.886"/>
<stop offset="1" stop-color="#FFECAD"/>
</linearGradient>
<linearGradient id="paint25_linear" x1="17.559" y1="-2.68367" x2="26.863" y2="6.13898" gradientUnits="userSpaceOnUse">
<stop stop-color="#F8F6FB"/>
<stop offset="1" stop-color="#FBF1DC"/>
</linearGradient>
<linearGradient id="paint26_linear" x1="12.6107" y1="21.1985" x2="13.419" y2="23.265" gradientUnits="userSpaceOnUse">
<stop stop-color="#F8F6FB"/>
<stop offset="1" stop-color="#FBE8DC"/>
</linearGradient>
<linearGradient id="paint27_linear" x1="13.3824" y1="17.9285" x2="13.9361" y2="20.1747" gradientUnits="userSpaceOnUse">
<stop stop-color="#F8F6FB"/>
<stop offset="1" stop-color="#FBE8DC"/>
</linearGradient>
</defs>
</svg>
