<svg width="78" height="71" viewBox="0 0 78 71" fill="none" xmlns="http://www.w3.org/2000/svg">
<path d="M9.465 70.621C8.27896 70.5854 7.11894 70.2647 6.08309 69.6859C5.04723 69.1071 4.16602 68.2874 3.514 67.296C1.9666 65.0692 1.15818 62.4123 1.203 59.701C1.1574 56.988 1.96585 54.3294 3.514 52.101C4.16664 51.1106 5.04812 50.2919 6.08392 49.714C7.11973 49.1362 8.27942 48.8161 9.465 48.781C10.6509 48.8168 11.8106 49.1377 12.8463 49.7165C13.8819 50.2952 14.763 51.1148 15.415 52.106C16.9641 54.3339 17.773 56.9928 17.727 59.706C17.773 62.4192 16.9641 65.0781 15.415 67.306C14.7631 68.2972 13.882 69.1169 12.8464 69.6957C11.8107 70.2744 10.6509 70.5952 9.465 70.631V70.621ZM9.465 68.466C10.217 68.466 11.979 65.484 11.979 59.701C11.979 53.918 10.217 50.936 9.465 50.936C8.713 50.936 6.95 53.918 6.95 59.701C6.95 65.484 8.713 68.466 9.465 68.466ZM14.134 59.701C14.1643 62.0782 13.8225 64.4455 13.121 66.717C14.7739 64.7599 15.6463 62.2616 15.571 59.701C15.6473 57.139 14.7748 54.6392 13.121 52.681C13.823 54.9538 14.1648 57.3225 14.134 59.701ZM3.358 59.701C3.28157 62.2606 4.15216 64.7584 5.803 66.716C5.1032 64.4446 4.76309 62.0776 4.795 59.701C4.76306 57.3244 5.10317 54.9575 5.803 52.686C4.15216 54.6436 3.28157 57.1414 3.358 59.701Z" fill="url(#paint0_linear)"/>
<path d="M9.46502 70.62C9.17929 70.62 8.90525 70.5066 8.70312 70.3046C8.50098 70.1027 8.38729 69.8287 8.38702 69.543V47.128H10.542V69.543C10.5418 69.8285 10.4282 70.1023 10.2263 70.3043C10.0244 70.5062 9.75058 70.6197 9.46502 70.62Z" fill="url(#paint1_linear)"/>
<path d="M15.415 52.105C14.2806 50.4272 12.529 49.2659 10.542 48.874V47.128H8.38702V47.662L8.45902 47.703L17.401 56.645C17.0609 55.0103 16.3846 53.4643 15.415 52.105Z" fill="url(#paint2_linear)"/>
<path d="M10.938 47.703H7.99099C7.23857 47.703 6.51697 47.4041 5.98493 46.8721C5.45289 46.34 5.15399 45.6184 5.15399 44.866V41.525H13.775V44.866C13.775 45.6184 13.4761 46.34 12.9441 46.8721C12.412 47.4041 11.6904 47.703 10.938 47.703Z" fill="url(#paint3_linear)"/>
<path d="M5.15399 43.106L9.75399 47.706H10.938C11.3108 47.706 11.68 47.6325 12.0244 47.4898C12.3688 47.347 12.6816 47.1378 12.9451 46.874C13.2086 46.6103 13.4175 46.2972 13.5599 45.9526C13.7023 45.6081 13.7754 45.2388 13.775 44.866V41.525H5.15399V43.106Z" fill="url(#paint4_linear)"/>
<path d="M51.275 43.182H5.44398C4.71975 43.182 4.02516 42.8945 3.51287 42.3826C3.00057 41.8706 2.71251 41.1763 2.71198 40.452V39.082H54.012V40.452C54.0117 40.8111 53.9407 41.1665 53.803 41.4981C53.6652 41.8296 53.4635 42.1308 53.2093 42.3843C52.9551 42.6379 52.6535 42.8388 52.3215 42.9757C51.9896 43.1126 51.634 43.1827 51.275 43.182Z" fill="url(#paint5_linear)"/>
<path d="M6.405 41.812C4.73944 41.812 3.1421 41.1504 1.96437 39.9726C0.786641 38.7949 0.125 37.1976 0.125 35.532V17.111C0.125072 14.6491 0.724681 12.2242 1.872 10.046L3.736 6.51C4.77112 4.54534 6.32309 2.90065 8.22444 1.75339C10.1258 0.606128 12.3043 -0.000141267 14.525 2.46903e-08L24.967 2.46903e-08C25.9313 2.46903e-08 26.8862 0.189932 27.777 0.558953C28.6679 0.927973 29.4774 1.46885 30.1593 2.15071C30.8411 2.83258 31.382 3.64206 31.751 4.53296C32.1201 5.42385 32.31 6.3787 32.31 7.343V9.657C32.3103 10.6397 32.7008 11.5821 33.3958 12.2769C34.0908 12.9717 35.0333 13.362 36.016 13.362H49.594C51.2596 13.362 52.8569 14.0236 54.0346 15.2014C55.2124 16.3791 55.874 17.9764 55.874 19.642V35.532C55.874 37.1976 55.2124 38.7949 54.0346 39.9726C52.8569 41.1504 51.2596 41.812 49.594 41.812H6.405Z" fill="url(#paint6_linear)"/>
<path d="M8.81802 31.323H19.738C20.4047 31.3233 21.044 31.5882 21.5154 32.0596C21.9868 32.531 22.2518 33.1703 22.252 33.837C22.2518 34.5037 21.9868 35.143 21.5154 35.6144C21.044 36.0858 20.4047 36.3507 19.738 36.351H8.81802C8.15134 36.3507 7.51205 36.0858 7.04064 35.6144C6.56923 35.143 6.30428 34.5037 6.30402 33.837V33.837C6.30402 33.1702 6.56888 32.5308 7.04035 32.0593C7.51182 31.5879 8.15126 31.323 8.81802 31.323V31.323Z" fill="url(#paint7_linear)"/>
<path d="M8.81802 24.426H19.738C20.4047 24.4263 21.044 24.6912 21.5154 25.1627C21.9868 25.6341 22.2518 26.2734 22.252 26.94C22.2518 27.6067 21.9868 28.246 21.5154 28.7174C21.044 29.1888 20.4047 29.4538 19.738 29.454H8.81802C8.15134 29.4538 7.51205 29.1888 7.04064 28.7174C6.56923 28.246 6.30428 27.6067 6.30402 26.94V26.94C6.30402 26.2733 6.56888 25.6338 7.04035 25.1624C7.51182 24.6909 8.15126 24.426 8.81802 24.426V24.426Z" fill="url(#paint8_linear)"/>
<path d="M8.81802 17.529H19.738C20.4047 17.5293 21.044 17.7942 21.5154 18.2656C21.9868 18.737 22.2518 19.3763 22.252 20.043C22.2518 20.7097 21.9868 21.349 21.5154 21.8204C21.044 22.2918 20.4047 22.5567 19.738 22.557H8.81802C8.15134 22.5567 7.51205 22.2918 7.04064 21.8204C6.56923 21.349 6.30428 20.7097 6.30402 20.043V20.043C6.30402 19.3762 6.56888 18.7368 7.04035 18.2653C7.51182 17.7939 8.15126 17.529 8.81802 17.529V17.529Z" fill="url(#paint9_linear)"/>
<path d="M38.128 31.505C37.867 31.2162 37.5501 30.9834 37.1963 30.8209C36.8426 30.6584 36.4596 30.5695 36.0704 30.5596C35.6813 30.5498 35.2942 30.6192 34.9327 30.7636C34.5712 30.908 34.2429 31.1244 33.9676 31.3996C33.6924 31.6749 33.476 32.0032 33.3316 32.3647C33.1872 32.7262 33.1178 33.1133 33.1276 33.5024C33.1375 33.8916 33.2264 34.2746 33.3889 34.6283C33.5514 34.9821 33.7842 35.299 34.073 35.56L39.285 40.772C39.5491 41.0493 39.866 41.2709 40.217 41.4239C40.568 41.5769 40.9461 41.6581 41.329 41.6628C41.7119 41.6675 42.0918 41.5955 42.4465 41.4511C42.8011 41.3067 43.1233 41.0929 43.3941 40.8221C43.6649 40.5513 43.8787 40.2291 44.0231 39.8745C44.1675 39.5198 44.2394 39.1399 44.2348 38.757C44.2301 38.3741 44.1489 37.996 43.9959 37.645C43.8429 37.294 43.6213 36.9771 43.344 36.713L38.128 31.505Z" fill="url(#paint10_linear)"/>
<path d="M36.047 36.353C37.6342 36.353 38.921 35.0662 38.921 33.479C38.921 31.8917 37.6342 30.605 36.047 30.605C34.4597 30.605 33.173 31.8917 33.173 33.479C33.173 35.0662 34.4597 36.353 36.047 36.353Z" fill="url(#paint11_radial)"/>
<path d="M45.743 31.505C45.482 31.2162 45.165 30.9834 44.8113 30.8209C44.4576 30.6584 44.0745 30.5695 43.6854 30.5596C43.2963 30.5498 42.9092 30.6192 42.5477 30.7636C42.1862 30.908 41.8578 31.1244 41.5826 31.3996C41.3073 31.6749 41.0909 32.0032 40.9465 32.3647C40.8021 32.7262 40.7328 33.1133 40.7426 33.5024C40.7525 33.8916 40.8414 34.2746 41.0039 34.6283C41.1664 34.9821 41.3991 35.299 41.688 35.56L46.9 40.772C47.1641 41.0493 47.4809 41.2709 47.832 41.4239C48.183 41.5769 48.5611 41.6581 48.944 41.6628C49.3269 41.6675 49.7068 41.5955 50.0615 41.4511C50.4161 41.3067 50.7383 41.0929 51.0091 40.8221C51.2798 40.5513 51.4937 40.2291 51.6381 39.8745C51.7825 39.5198 51.8544 39.1399 51.8498 38.757C51.8451 38.3741 51.7639 37.996 51.6109 37.645C51.4579 37.294 51.2363 36.9771 50.959 36.713L45.743 31.505Z" fill="url(#paint12_linear)"/>
<path d="M43.662 36.353C45.2493 36.353 46.536 35.0662 46.536 33.479C46.536 31.8917 45.2493 30.605 43.662 30.605C42.0748 30.605 40.788 31.8917 40.788 33.479C40.788 35.0662 42.0748 36.353 43.662 36.353Z" fill="url(#paint13_radial)"/>
<path d="M0.598022 13.362C0.89175 12.2106 1.31968 11.0976 1.87302 10.046L3.73602 6.51C4.77106 4.54549 6.32287 2.9009 8.22403 1.75365C10.1252 0.606396 12.3035 4.08828e-05 14.524 6.80983e-08H24.967C25.9314 -0.000131265 26.8864 0.189704 27.7774 0.558666C28.6684 0.927627 29.478 1.46849 30.16 2.15036C30.8419 2.83223 31.3829 3.64177 31.752 4.53272C32.1211 5.42368 32.311 6.37862 32.311 7.343V9.657C32.311 10.6396 32.7014 11.582 33.3962 12.2768C34.091 12.9717 35.0334 13.362 36.016 13.362H0.598022Z" fill="url(#paint14_linear)"/>
<path d="M59.082 24.747H46.92V30.267H59.082V24.747Z" fill="url(#paint15_linear)"/>
<path d="M59.08 24.746H46.919V26.061L51.119 30.261H59.076L59.08 24.746Z" fill="url(#paint16_linear)"/>
<path d="M74.347 68.949H31.653V49.543C31.653 43.8814 33.9021 38.4517 37.9054 34.4484C41.9087 30.445 47.3384 28.196 53 28.196V28.196C58.6616 28.196 64.0913 30.445 68.0946 34.4484C72.098 38.4517 74.347 43.8814 74.347 49.543V68.949Z" fill="url(#paint17_linear)"/>
<path d="M76.217 70.652H29.783C29.5566 70.652 29.3325 70.6074 29.1234 70.5208C28.9143 70.4341 28.7243 70.3071 28.5643 70.147C28.4043 69.9869 28.2774 69.7968 28.1909 69.5877C28.1043 69.3785 28.0599 69.1544 28.06 68.928C28.06 68.471 28.2415 68.0328 28.5647 67.7097C28.8878 67.3865 29.326 67.205 29.783 67.205H76.217C76.674 67.205 77.1122 67.3865 77.4353 67.7097C77.7585 68.0328 77.94 68.471 77.94 68.928C77.9401 69.1544 77.8957 69.3785 77.8091 69.5877C77.7226 69.7968 77.5957 69.9869 77.4357 70.147C77.2757 70.3071 77.0857 70.4341 76.8766 70.5208C76.6675 70.6074 76.4434 70.652 76.217 70.652Z" fill="url(#paint18_linear)"/>
<path d="M53 63.995C61.6963 63.995 68.746 56.9453 68.746 48.249C68.746 39.5527 61.6963 32.503 53 32.503C44.3038 32.503 37.254 39.5527 37.254 48.249C37.254 56.9453 44.3038 63.995 53 63.995Z" fill="url(#paint19_linear)"/>
<path d="M53 62.868C61.0738 62.868 67.619 56.3229 67.619 48.249C67.619 40.1752 61.0738 33.63 53 33.63C44.9261 33.63 38.381 40.1752 38.381 48.249C38.381 56.3229 44.9261 62.868 53 62.868Z" fill="url(#paint20_linear)"/>
<path d="M53 62.868C61.0738 62.868 67.619 56.3229 67.619 48.249C67.619 40.1752 61.0738 33.63 53 33.63C44.9261 33.63 38.381 40.1752 38.381 48.249C38.381 56.3229 44.9261 62.868 53 62.868Z" fill="url(#paint21_linear)"/>
<path d="M53 49.075C53.4562 49.075 53.826 48.7052 53.826 48.249C53.826 47.7928 53.4562 47.423 53 47.423C52.5438 47.423 52.174 47.7928 52.174 48.249C52.174 48.7052 52.5438 49.075 53 49.075Z" fill="url(#paint22_linear)"/>
<path d="M63.501 56.529C61.6474 58.8787 59.0601 60.5397 56.152 61.247L48.077 53.173C47.696 52.792 50.712 49.15 51.422 48.366C51.422 48.327 51.416 48.289 51.416 48.25C51.416 47.9207 51.5187 47.5996 51.7098 47.3315C51.901 47.0633 52.1711 46.8615 52.4824 46.7542C52.7937 46.6468 53.1308 46.6393 53.4465 46.7327C53.7623 46.8261 54.0411 47.0156 54.244 47.275L63.501 56.529Z" fill="url(#paint23_linear)"/>
<path d="M47.184 54.576L45.304 56.456C45.2703 56.4898 45.2302 56.5166 45.1861 56.5349C45.142 56.5532 45.0947 56.5627 45.047 56.5627C44.9992 56.5627 44.952 56.5532 44.9079 56.5349C44.8638 56.5166 44.8237 56.4898 44.79 56.456C44.7562 56.4223 44.7294 56.3822 44.7111 56.3381C44.6928 56.294 44.6833 56.2468 44.6833 56.199C44.6833 56.1513 44.6928 56.104 44.7111 56.0599C44.7294 56.0158 44.7562 55.9757 44.79 55.942L46.674 54.062C46.7077 54.0282 46.7478 54.0014 46.7919 53.9831C46.836 53.9648 46.8832 53.9554 46.931 53.9554C46.9787 53.9554 47.026 53.9648 47.0701 53.9831C47.1142 54.0014 47.1543 54.0282 47.188 54.062C47.2215 54.096 47.248 54.1363 47.266 54.1805C47.284 54.2248 47.293 54.2721 47.2926 54.3199C47.2923 54.3676 47.2825 54.4148 47.2638 54.4588C47.2452 54.5027 47.2181 54.5426 47.184 54.576Z" fill="url(#paint24_linear)"/>
<path d="M61.5 40.62L59.62 42.5C59.5863 42.5338 59.5462 42.5607 59.5021 42.579C59.458 42.5973 59.4107 42.6067 59.363 42.6067C59.3152 42.6067 59.2679 42.5973 59.2238 42.579C59.1797 42.5607 59.1397 42.5338 59.106 42.5C59.0722 42.4663 59.0453 42.4263 59.027 42.3822C59.0087 42.3381 58.9993 42.2908 58.9993 42.243C58.9993 42.1953 59.0087 42.148 59.027 42.1039C59.0453 42.0598 59.0722 42.0197 59.106 41.986L60.99 40.106C61.0237 40.0722 61.0637 40.0454 61.1078 40.0271C61.1519 40.0088 61.1992 39.9994 61.247 39.9994C61.2947 39.9994 61.342 40.0088 61.3861 40.0271C61.4302 40.0454 61.4703 40.0722 61.504 40.106C61.5375 40.14 61.564 40.1803 61.582 40.2245C61.5999 40.2688 61.609 40.3161 61.6086 40.3639C61.6082 40.4116 61.5985 40.4588 61.5798 40.5028C61.5612 40.5467 61.534 40.5866 61.5 40.62Z" fill="url(#paint25_linear)"/>
<path d="M60.697 56.456L58.813 54.576C58.7792 54.5423 58.7524 54.5022 58.7341 54.4581C58.7158 54.414 58.7064 54.3668 58.7064 54.319C58.7064 54.2713 58.7158 54.224 58.7341 54.1799C58.7524 54.1358 58.7792 54.0957 58.813 54.062C58.8467 54.0282 58.8868 54.0014 58.9309 53.9831C58.975 53.9648 59.0223 53.9554 59.07 53.9554C59.1177 53.9554 59.165 53.9648 59.2091 53.9831C59.2532 54.0014 59.2933 54.0282 59.327 54.062L61.207 55.946C61.2408 55.9797 61.2676 56.0198 61.2859 56.0639C61.3042 56.108 61.3136 56.1553 61.3136 56.203C61.3136 56.2508 61.3042 56.298 61.2859 56.3421C61.2676 56.3862 61.2408 56.4263 61.207 56.46C61.1385 56.5265 61.0466 56.5634 60.9512 56.5627C60.8557 56.5619 60.7644 56.5236 60.697 56.456Z" fill="url(#paint26_linear)"/>
<path d="M46.674 42.433L44.79 40.553C44.7562 40.5193 44.7294 40.4792 44.7111 40.4351C44.6928 40.391 44.6833 40.3438 44.6833 40.296C44.6833 40.2483 44.6928 40.201 44.7111 40.1569C44.7294 40.1128 44.7562 40.0727 44.79 40.039C44.8237 40.0052 44.8638 39.9784 44.9079 39.9601C44.952 39.9418 44.9992 39.9324 45.047 39.9324C45.0947 39.9324 45.142 39.9418 45.1861 39.9601C45.2302 39.9784 45.2703 40.0052 45.304 40.039L47.184 41.923C47.2178 41.9567 47.2446 41.9968 47.2629 42.0409C47.2812 42.085 47.2906 42.1323 47.2906 42.18C47.2906 42.2278 47.2812 42.275 47.2629 42.3191C47.2446 42.3632 47.2178 42.4033 47.184 42.437C47.1155 42.5035 47.0236 42.5404 46.9282 42.5397C46.8327 42.5389 46.7414 42.5006 46.674 42.433Z" fill="url(#paint27_linear)"/>
<path d="M53.364 37.001V39.665C53.364 39.7127 53.3546 39.7599 53.3363 39.8039C53.3181 39.848 53.2914 39.888 53.2576 39.9217C53.2239 39.9554 53.1839 39.9821 53.1399 40.0004C53.0958 40.0186 53.0486 40.028 53.001 40.028C52.9532 40.0281 52.9059 40.0188 52.8617 40.0007C52.8176 39.9825 52.7775 39.9558 52.7436 39.922C52.7098 39.8883 52.683 39.8483 52.6647 39.8041C52.6464 39.76 52.637 39.7128 52.637 39.665V37.001C52.637 36.9047 52.6752 36.8124 52.7433 36.7443C52.8114 36.6762 52.9037 36.638 53 36.638C53.0477 36.6379 53.095 36.6472 53.1392 36.6653C53.1833 36.6835 53.2235 36.7102 53.2573 36.744C53.2911 36.7777 53.3179 36.8177 53.3362 36.8619C53.3545 36.906 53.364 36.9532 53.364 37.001Z" fill="url(#paint28_linear)"/>
<path d="M53.364 56.833V59.497C53.364 59.5446 53.3546 59.5918 53.3363 59.6359C53.3181 59.6799 53.2914 59.7199 53.2576 59.7537C53.2239 59.7874 53.1839 59.8141 53.1399 59.8323C53.0958 59.8506 53.0486 59.86 53.001 59.86C52.9532 59.8601 52.9059 59.8508 52.8617 59.8326C52.8176 59.8144 52.7775 59.7877 52.7436 59.754C52.7098 59.7203 52.683 59.6802 52.6647 59.6361C52.6464 59.592 52.637 59.5447 52.637 59.497V56.833C52.637 56.7367 52.6752 56.6444 52.7433 56.5763C52.8114 56.5082 52.9037 56.47 53 56.47C53.0477 56.4698 53.095 56.4791 53.1392 56.4973C53.1833 56.5155 53.2235 56.5422 53.2573 56.5759C53.2911 56.6097 53.3179 56.6497 53.3362 56.6938C53.3545 56.7379 53.364 56.7852 53.364 56.833Z" fill="url(#paint29_linear)"/>
<path d="M64.2479 48.613H61.5839C61.5362 48.613 61.4889 48.6036 61.4448 48.5853C61.4007 48.567 61.3606 48.5401 61.3269 48.5063C61.2932 48.4725 61.2665 48.4324 61.2483 48.3882C61.2301 48.3441 61.2208 48.2967 61.2209 48.249C61.2209 48.1527 61.2592 48.0604 61.3273 47.9923C61.3953 47.9242 61.4877 47.886 61.5839 47.886H64.2479C64.2956 47.886 64.3428 47.8954 64.3869 47.9136C64.4309 47.9319 64.4709 47.9586 64.5046 47.9923C64.5383 48.026 64.5651 48.066 64.5833 48.1101C64.6016 48.1541 64.6109 48.2013 64.6109 48.249C64.6111 48.2967 64.6018 48.3441 64.5836 48.3882C64.5654 48.4324 64.5387 48.4725 64.505 48.5063C64.4713 48.5401 64.4312 48.567 64.3871 48.5853C64.343 48.6036 64.2957 48.613 64.2479 48.613Z" fill="url(#paint30_linear)"/>
<path d="M44.416 48.613H41.752C41.7042 48.613 41.6569 48.6036 41.6128 48.5853C41.5687 48.567 41.5287 48.5401 41.4949 48.5063C41.4612 48.4725 41.4345 48.4324 41.4163 48.3882C41.3981 48.3441 41.3888 48.2967 41.389 48.249C41.389 48.1527 41.4272 48.0604 41.4953 47.9923C41.5634 47.9242 41.6557 47.886 41.752 47.886H44.416C44.4636 47.886 44.5109 47.8954 44.5549 47.9136C44.5989 47.9319 44.639 47.9586 44.6727 47.9923C44.7064 48.026 44.7331 48.066 44.7513 48.1101C44.7696 48.1541 44.779 48.2013 44.779 48.249C44.7791 48.2967 44.7698 48.3441 44.7516 48.3882C44.7335 48.4324 44.7067 48.4725 44.673 48.5063C44.6393 48.5401 44.5992 48.567 44.5551 48.5853C44.511 48.6036 44.4637 48.613 44.416 48.613Z" fill="url(#paint31_linear)"/>
<path d="M51.531 48.245C51.6277 48.1485 51.7425 48.0721 51.8688 48.02C51.995 47.9679 52.1303 47.9412 52.2669 47.9413C52.4035 47.9415 52.5387 47.9686 52.6649 48.0211C52.791 48.0735 52.9055 48.1503 53.002 48.247C53.0985 48.3437 53.1749 48.4585 53.227 48.5848C53.2791 48.711 53.3058 48.8463 53.3056 48.9829C53.3055 49.1195 53.2784 49.2547 53.2259 49.3809C53.1735 49.507 53.0967 49.6215 53 49.718C52.594 50.124 48.483 53.578 48.077 53.172C47.671 52.766 51.125 48.655 51.531 48.245Z" fill="white"/>
<path d="M53 49.834C53.8748 49.834 54.584 49.1248 54.584 48.25C54.584 47.3752 53.8748 46.666 53 46.666C52.1252 46.666 51.416 47.3752 51.416 48.25C51.416 49.1248 52.1252 49.834 53 49.834Z" fill="url(#paint32_linear)"/>
<path d="M66.764 26.126H39.233C38.1349 26.1235 37.0601 25.8097 36.1331 25.221C35.2062 24.6323 34.4652 23.7928 33.996 22.8L31.417 17.3C31.3269 17.1084 31.2755 16.9009 31.2656 16.6894C31.2557 16.4779 31.2875 16.2666 31.3593 16.0674C31.4311 15.8682 31.5414 15.6851 31.6839 15.5286C31.8264 15.372 31.9984 15.2451 32.19 15.155C32.3816 15.0649 32.5891 15.0134 32.8006 15.0035C33.0121 14.9936 33.2234 15.0255 33.4226 15.0972C33.6218 15.169 33.8049 15.2793 33.9614 15.4219C34.118 15.5644 34.2449 15.7364 34.335 15.928L36.914 21.428C37.1219 21.8674 37.4501 22.2389 37.8606 22.4995C38.271 22.76 38.7469 22.8989 39.233 22.9H66.764C67.2507 22.8988 67.727 22.7596 68.1376 22.4985C68.5483 22.2374 68.8765 21.8651 69.084 21.425L71.664 15.928C71.846 15.5408 72.1743 15.2417 72.5767 15.0965C72.9792 14.9514 73.4228 14.972 73.81 15.154C74.1972 15.3359 74.4963 15.6642 74.6415 16.0667C74.7866 16.4691 74.766 16.9128 74.584 17.3L72.005 22.8C71.5356 23.7934 70.7939 24.6333 69.8662 25.222C68.9385 25.8108 67.8628 26.1242 66.764 26.126Z" fill="url(#paint33_linear)"/>
<defs>
<linearGradient id="paint0_linear" x1="1.20117" y1="48.781" x2="23.0312" y2="67.7044" gradientUnits="userSpaceOnUse">
<stop stop-color="#E2EDF2"/>
<stop offset="0.146" stop-color="#D9E5EA"/>
<stop offset="0.382" stop-color="#C2CDD5"/>
<stop offset="0.678" stop-color="#9BA8B3"/>
<stop offset="1" stop-color="#697786"/>
</linearGradient>
<linearGradient id="paint1_linear" x1="8.99042" y1="58.874" x2="12.975" y2="58.874" gradientUnits="userSpaceOnUse">
<stop stop-color="#E2EDF2"/>
<stop offset="0.146" stop-color="#D9E5EA"/>
<stop offset="0.382" stop-color="#C2CDD5"/>
<stop offset="0.678" stop-color="#9BA8B3"/>
<stop offset="1" stop-color="#697786"/>
</linearGradient>
<linearGradient id="paint2_linear" x1="14.3363" y1="52.2386" x2="7.06911" y2="45.7235" gradientUnits="userSpaceOnUse">
<stop stop-color="#E2EDF2" stop-opacity="0"/>
<stop offset="0.197" stop-color="#C5D0D8" stop-opacity="0.196"/>
<stop offset="0.564" stop-color="#93A0AC" stop-opacity="0.565"/>
<stop offset="0.844" stop-color="#758290" stop-opacity="0.843"/>
<stop offset="1" stop-color="#697786"/>
</linearGradient>
<linearGradient id="paint3_linear" x1="8.95585" y1="44.614" x2="13.1715" y2="44.614" gradientUnits="userSpaceOnUse">
<stop stop-color="#654E48"/>
<stop offset="1" stop-color="#503837"/>
</linearGradient>
<linearGradient id="paint4_linear" x1="11.2404" y1="46.4822" x2="9.86714" y2="40.2201" gradientUnits="userSpaceOnUse">
<stop stop-color="#3E2E28" stop-opacity="0"/>
<stop offset="1" stop-color="#503837"/>
</linearGradient>
<linearGradient id="paint5_linear" x1="28.362" y1="44.7236" x2="28.362" y2="41.5543" gradientUnits="userSpaceOnUse">
<stop stop-color="#FFE7A5"/>
<stop offset="0.216" stop-color="#FFE29C"/>
<stop offset="0.577" stop-color="#FFD482"/>
<stop offset="1" stop-color="#FFBF5C"/>
</linearGradient>
<linearGradient id="paint6_linear" x1="27.9995" y1="34.4949" x2="27.9995" y2="44.8225" gradientUnits="userSpaceOnUse">
<stop stop-color="#FF5964"/>
<stop offset="0.242" stop-color="#FF505B"/>
<stop offset="0.643" stop-color="#FF3841"/>
<stop offset="1" stop-color="#FF1D25"/>
</linearGradient>
<linearGradient id="paint7_linear" x1="14.278" y1="34.6113" x2="14.278" y2="30.9912" gradientUnits="userSpaceOnUse">
<stop stop-color="#FF5964"/>
<stop offset="0.242" stop-color="#FF505B"/>
<stop offset="0.643" stop-color="#FF3841"/>
<stop offset="1" stop-color="#FF1D25"/>
</linearGradient>
<linearGradient id="paint8_linear" x1="14.278" y1="27.7143" x2="14.278" y2="24.0942" gradientUnits="userSpaceOnUse">
<stop stop-color="#FF5964"/>
<stop offset="0.242" stop-color="#FF505B"/>
<stop offset="0.643" stop-color="#FF3841"/>
<stop offset="1" stop-color="#FF1D25"/>
</linearGradient>
<linearGradient id="paint9_linear" x1="14.278" y1="20.8173" x2="14.278" y2="17.1971" gradientUnits="userSpaceOnUse">
<stop stop-color="#FF5964"/>
<stop offset="0.242" stop-color="#FF505B"/>
<stop offset="0.643" stop-color="#FF3841"/>
<stop offset="1" stop-color="#FF1D25"/>
</linearGradient>
<linearGradient id="paint10_linear" x1="42.6465" y1="40.0751" x2="36.7946" y2="34.221" gradientUnits="userSpaceOnUse">
<stop stop-color="#FF1D25" stop-opacity="0"/>
<stop offset="1" stop-color="#FF1D25"/>
</linearGradient>
<radialGradient id="paint11_radial" cx="0" cy="0" r="1" gradientUnits="userSpaceOnUse" gradientTransform="translate(35.7941 32.1742) scale(4.21328)">
<stop stop-color="#FFE7A5"/>
<stop offset="0.216" stop-color="#FFE29C"/>
<stop offset="0.577" stop-color="#FFD482"/>
<stop offset="1" stop-color="#FFBF5C"/>
</radialGradient>
<linearGradient id="paint12_linear" x1="50.2615" y1="40.0751" x2="44.4095" y2="34.221" gradientUnits="userSpaceOnUse">
<stop stop-color="#FF1D25" stop-opacity="0"/>
<stop offset="1" stop-color="#FF1D25"/>
</linearGradient>
<radialGradient id="paint13_radial" cx="0" cy="0" r="1" gradientUnits="userSpaceOnUse" gradientTransform="translate(43.4091 32.1742) scale(4.21328)">
<stop stop-color="#FFE7A5"/>
<stop offset="0.216" stop-color="#FFE29C"/>
<stop offset="0.577" stop-color="#FFD482"/>
<stop offset="1" stop-color="#FFBF5C"/>
</radialGradient>
<linearGradient id="paint14_linear" x1="18.307" y1="7.38919" x2="18.307" y2="12.9478" gradientUnits="userSpaceOnUse">
<stop stop-color="#FF5964"/>
<stop offset="0.242" stop-color="#FF505B"/>
<stop offset="0.643" stop-color="#FF3841"/>
<stop offset="1" stop-color="#FF1D25"/>
</linearGradient>
<linearGradient id="paint15_linear" x1="54.4239" y1="27.507" x2="59.1793" y2="27.507" gradientUnits="userSpaceOnUse">
<stop stop-color="#FF5964"/>
<stop offset="0.242" stop-color="#FF505B"/>
<stop offset="0.643" stop-color="#FF3841"/>
<stop offset="1" stop-color="#FF1D25"/>
</linearGradient>
<linearGradient id="paint16_linear" x1="55.456" y1="28.7499" x2="54.3071" y2="21.1373" gradientUnits="userSpaceOnUse">
<stop stop-color="#FF1D25" stop-opacity="0"/>
<stop offset="1" stop-color="#FF1D25"/>
</linearGradient>
<linearGradient id="paint17_linear" x1="20.5953" y1="64.4254" x2="51.0375" y2="28.4195" gradientUnits="userSpaceOnUse">
<stop stop-color="#59A696"/>
<stop offset="1" stop-color="#3FC29B"/>
</linearGradient>
<linearGradient id="paint18_linear" x1="28.06" y1="67.7393" x2="28.2879" y2="72.2186" gradientUnits="userSpaceOnUse">
<stop stop-color="#F87777"/>
<stop offset="1" stop-color="#EE4242"/>
</linearGradient>
<linearGradient id="paint19_linear" x1="35.7739" y1="32.503" x2="66.1322" y2="60.3734" gradientUnits="userSpaceOnUse">
<stop stop-color="#6BDEC5"/>
<stop offset="1" stop-color="#39B993"/>
</linearGradient>
<linearGradient id="paint20_linear" x1="53.6432" y1="48.8922" x2="72.7356" y2="67.9847" gradientUnits="userSpaceOnUse">
<stop stop-color="#E2EDF2"/>
<stop offset="0.146" stop-color="#D9E5EA"/>
<stop offset="0.382" stop-color="#C2CDD5"/>
<stop offset="0.678" stop-color="#9BA8B3"/>
<stop offset="1" stop-color="#697786"/>
</linearGradient>
<linearGradient id="paint21_linear" x1="53" y1="48.249" x2="64.9291" y2="58.1315" gradientUnits="userSpaceOnUse">
<stop stop-color="#F8F6FB"/>
<stop offset="1" stop-color="#EFDCFB"/>
</linearGradient>
<linearGradient id="paint22_linear" x1="53" y1="47.8459" x2="53" y2="50.3107" gradientUnits="userSpaceOnUse">
<stop stop-color="#F18D00"/>
<stop offset="1" stop-color="#ED7103"/>
</linearGradient>
<linearGradient id="paint23_linear" x1="57.72" y1="56.7712" x2="46.9286" y2="44.6379" gradientUnits="userSpaceOnUse">
<stop stop-color="#B7C4C9" stop-opacity="0"/>
<stop offset="1" stop-color="#909698"/>
</linearGradient>
<linearGradient id="paint24_linear" x1="44.9365" y1="54.2995" x2="47.1085" y2="56.2932" gradientUnits="userSpaceOnUse">
<stop stop-color="#FFC198"/>
<stop offset="1" stop-color="#FFA162"/>
</linearGradient>
<linearGradient id="paint25_linear" x1="59.2524" y1="40.3436" x2="61.4244" y2="42.3372" gradientUnits="userSpaceOnUse">
<stop stop-color="#FFC198"/>
<stop offset="1" stop-color="#FFA162"/>
</linearGradient>
<linearGradient id="paint26_linear" x1="58.9593" y1="54.2995" x2="61.1312" y2="56.2915" gradientUnits="userSpaceOnUse">
<stop stop-color="#FFC198"/>
<stop offset="1" stop-color="#FFA162"/>
</linearGradient>
<linearGradient id="paint27_linear" x1="44.9363" y1="40.2765" x2="47.1081" y2="42.2685" gradientUnits="userSpaceOnUse">
<stop stop-color="#FFC198"/>
<stop offset="1" stop-color="#FFA162"/>
</linearGradient>
<linearGradient id="paint28_linear" x1="52.7075" y1="37.0855" x2="53.781" y2="37.2966" gradientUnits="userSpaceOnUse">
<stop stop-color="#FFC198"/>
<stop offset="1" stop-color="#FFA162"/>
</linearGradient>
<linearGradient id="paint29_linear" x1="52.7075" y1="56.9175" x2="53.781" y2="57.1286" gradientUnits="userSpaceOnUse">
<stop stop-color="#FFC198"/>
<stop offset="1" stop-color="#FFA162"/>
</linearGradient>
<linearGradient id="paint30_linear" x1="61.5498" y1="47.982" x2="61.8193" y2="49.1346" gradientUnits="userSpaceOnUse">
<stop stop-color="#FFC198"/>
<stop offset="1" stop-color="#FFA162"/>
</linearGradient>
<linearGradient id="paint31_linear" x1="41.7178" y1="47.982" x2="41.9873" y2="49.1346" gradientUnits="userSpaceOnUse">
<stop stop-color="#FFC198"/>
<stop offset="1" stop-color="#FFA162"/>
</linearGradient>
<linearGradient id="paint32_linear" x1="52.4773" y1="47.7305" x2="54.0961" y2="49.3493" gradientUnits="userSpaceOnUse">
<stop stop-color="#FF5964"/>
<stop offset="0.242" stop-color="#FF505B"/>
<stop offset="0.643" stop-color="#FF3841"/>
<stop offset="1" stop-color="#FF1D25"/>
</linearGradient>
<linearGradient id="paint33_linear" x1="53.0005" y1="22.4213" x2="53.0005" y2="25.4585" gradientUnits="userSpaceOnUse">
<stop stop-color="#FFE7A5"/>
<stop offset="0.216" stop-color="#FFE29C"/>
<stop offset="0.577" stop-color="#FFD482"/>
<stop offset="1" stop-color="#FFBF5C"/>
</linearGradient>
</defs>
</svg>
