<svg width="76" height="76" viewBox="0 0 76 76" fill="none" xmlns="http://www.w3.org/2000/svg">
<path d="M71.814 75.78L3.952 75.77C3.43288 75.7699 2.91888 75.6675 2.43933 75.4687C1.95978 75.2699 1.52408 74.9787 1.1571 74.6115C0.790123 74.2443 0.499057 73.8085 0.300522 73.3288C0.101986 72.8492 -0.000131212 72.3351 1.2653e-07 71.816L0.00800013 3.954C0.00853038 2.90515 0.425556 1.89944 1.16739 1.15798C1.90923 0.416517 2.91515 -1.34039e-07 3.964 0L71.826 0.01C72.8747 0.01 73.8804 0.426581 74.6219 1.1681C75.3634 1.90962 75.78 2.91533 75.78 3.964L75.77 71.828C75.7697 72.3473 75.6672 72.8614 75.4683 73.341C75.2693 73.8206 74.9778 74.2563 74.6105 74.6233C74.2431 74.9903 73.8071 75.2813 73.3273 75.4798C72.8475 75.6782 72.3333 75.7803 71.814 75.78Z" fill="url(#paint0_linear)"/>
<path d="M26.483 28.2039L66.111 67.8399L66.859 68.5029C67.2792 68.8738 67.8205 69.0785 68.381 69.0785C68.9415 69.0785 69.4828 68.8738 69.903 68.5029C70.3232 68.132 70.8645 67.9273 71.425 67.9273C71.9855 67.9273 72.5268 68.132 72.947 68.5029C73.3298 68.8424 73.8153 69.0441 74.326 69.0756C74.8367 69.1071 75.3433 68.9668 75.765 68.6769L75.771 25.7149L50.075 0.00390625H25.711V26.4789C25.7102 26.8047 25.7786 27.127 25.9116 27.4244C26.0447 27.7217 26.2395 27.9875 26.483 28.2039Z" fill="url(#paint1_linear)"/>
<path d="M50.075 0.00390625V26.4789C50.0752 26.8038 50.0062 27.125 49.8728 27.4212C49.7394 27.7174 49.5444 27.9818 49.301 28.1969L48.549 28.8619C48.1295 29.2335 47.5884 29.4386 47.028 29.4386C46.4676 29.4386 45.9265 29.2335 45.507 28.8619C45.0868 28.491 44.5455 28.2863 43.985 28.2863C43.4245 28.2863 42.8832 28.491 42.463 28.8619C42.0428 29.2328 41.5015 29.4375 40.941 29.4375C40.3805 29.4375 39.8392 29.2328 39.419 28.8619C38.9988 28.491 38.4575 28.2863 37.897 28.2863C37.3365 28.2863 36.7952 28.491 36.375 28.8619C35.9548 29.2328 35.4135 29.4375 34.853 29.4375C34.2925 29.4375 33.7512 29.2328 33.331 28.8619C32.9108 28.491 32.3695 28.2863 31.809 28.2863C31.2485 28.2863 30.7072 28.491 30.287 28.8619C29.8668 29.2328 29.3255 29.4375 28.765 29.4375C28.2045 29.4375 27.6632 29.2328 27.243 28.8619L26.495 28.1969C26.2497 27.9827 26.0529 27.7187 25.9178 27.4224C25.7826 27.1262 25.7121 26.8045 25.711 26.4789V0.00390625H50.075Z" fill="url(#paint2_linear)"/>
<path d="M6.13101 64.822H22.847V69.641H6.13101V64.822Z" fill="url(#paint3_linear)"/>
<path d="M6.133 54.6011H32.654V59.4201H6.133V54.6011Z" fill="url(#paint4_linear)"/>
<defs>
<linearGradient id="paint0_linear" x1="5.6835" y1="-1.6797e-06" x2="75.78" y2="75.78" gradientUnits="userSpaceOnUse">
<stop stop-color="#F7D0AD"/>
<stop offset="1" stop-color="#E89F7B"/>
</linearGradient>
<linearGradient id="paint1_linear" x1="65.3085" y1="41.1732" x2="17.4726" y2="16.0081" gradientUnits="userSpaceOnUse">
<stop stop-color="#FFC77E" stop-opacity="0"/>
<stop offset="0.192" stop-color="#DE7B09" stop-opacity="0.11"/>
<stop offset="0.504" stop-color="#FF9A50" stop-opacity="0.502"/>
<stop offset="0.888" stop-color="#FFBC86" stop-opacity="0.886"/>
<stop offset="1" stop-color="#FFECAD"/>
</linearGradient>
<linearGradient id="paint2_linear" x1="25.711" y1="-8.38499" x2="54.7844" y2="19.1914" gradientUnits="userSpaceOnUse">
<stop stop-color="#F8F6FB"/>
<stop offset="1" stop-color="#FBF1DC"/>
</linearGradient>
<linearGradient id="paint3_linear" x1="10.2431" y1="66.2581" x2="12.769" y2="72.7165" gradientUnits="userSpaceOnUse">
<stop stop-color="#F8F6FB"/>
<stop offset="1" stop-color="#FBE8DC"/>
</linearGradient>
<linearGradient id="paint4_linear" x1="12.6572" y1="56.0371" x2="14.3875" y2="63.0568" gradientUnits="userSpaceOnUse">
<stop stop-color="#F8F6FB"/>
<stop offset="1" stop-color="#FBE8DC"/>
</linearGradient>
</defs>
</svg>
