<svg width="60" height="71" viewBox="0 0 60 71" fill="none" xmlns="http://www.w3.org/2000/svg">
<path d="M14.6879 3.66099C14.4713 3.86645 14.2986 4.11375 14.1803 4.38792C14.0621 4.66208 14.0007 4.9574 13.9999 5.25599C14.0057 5.5583 14.0709 5.85652 14.192 6.13358C14.3131 6.41064 14.4877 6.66111 14.7056 6.87065C14.9236 7.08019 15.1808 7.24469 15.4624 7.35474C15.7441 7.46478 16.0446 7.51822 16.3469 7.51199H24.5389C26.7732 7.49835 28.9251 8.3548 30.5389 9.89999L30.9959 10.34C31.4444 10.7641 32.0382 11.0005 32.6554 11.0005C33.2727 11.0005 33.8665 10.7641 34.3149 10.34C34.5321 10.1349 34.705 9.88767 34.8232 9.61341C34.9414 9.33915 35.0024 9.04364 35.0024 8.74499C35.0024 8.44633 34.9414 8.15082 34.8232 7.87656C34.705 7.6023 34.5321 7.35506 34.3149 7.14999L33.8579 6.70999C31.3512 4.3101 28.0092 2.97959 24.5389 2.99999H16.3469C15.7293 2.99757 15.1347 3.23448 14.6879 3.66099Z" fill="url(#paint0_linear)"/>
<path d="M14.9999 10H20.9999V18H14.9999V10Z" fill="url(#paint1_linear)"/>
<path d="M20.9999 10H14.9999V11.363L20.9999 17V10Z" fill="url(#paint2_linear)"/>
<path d="M28 24.1C27.2826 24.0984 26.5953 23.8121 26.089 23.3039C25.5827 22.7957 25.2989 22.1073 25.2999 21.39V17H10.7V21.386C10.701 21.7415 10.632 22.0938 10.4968 22.4226C10.3617 22.7515 10.1631 23.0504 9.91234 23.3025C9.66159 23.5545 9.36364 23.7547 9.0355 23.8915C8.70736 24.0284 8.35548 24.0992 7.99995 24.1C5.8745 24.1042 3.83773 24.9524 2.33753 26.4581C0.837321 27.9637 -0.00349997 30.0035 -4.87642e-05 32.129V35.2L1.51295 47.015L-4.87642e-05 59.37V61.97C-0.00376543 64.0956 0.836939 66.1357 2.33717 67.6416C3.83741 69.1474 5.87432 69.9958 7.99995 70H28C30.1254 69.9958 32.1622 69.1476 33.6624 67.6419C35.1626 66.1363 36.0034 64.0965 36 61.971V59.371L34.212 47.376L36 35.2V32.125C36.0023 30.0002 35.161 27.9614 33.661 26.4567C32.1609 24.9519 30.1247 24.1042 28 24.1Z" fill="url(#paint3_linear)"/>
<path d="M18 68.169C13.1216 68.2682 8.24532 67.886 3.44197 67.028C3.15957 66.9728 2.86673 67.0234 2.61925 67.1702C2.37177 67.317 2.18694 67.5497 2.09997 67.824C2.02431 68.0019 1.98553 68.1933 1.98597 68.3867C1.9864 68.5801 2.02605 68.7713 2.10252 68.9489C2.17898 69.1265 2.29067 69.2868 2.43083 69.42C2.57099 69.5532 2.73671 69.6566 2.91797 69.724C5.69997 70.485 11.461 71 18 71C24.539 71 30.3 70.485 33.078 69.728C33.2601 69.6611 33.4267 69.5578 33.5676 69.4245C33.7085 69.2912 33.8209 69.1306 33.8978 68.9524C33.9747 68.7743 34.0145 68.5824 34.0149 68.3884C34.0153 68.1944 33.9762 68.0024 33.9 67.824C33.8136 67.5497 33.6296 67.3166 33.3827 67.1692C33.1358 67.0217 32.8434 66.97 32.561 67.024C27.7568 67.8835 22.8795 68.267 18 68.169Z" fill="url(#paint4_linear)"/>
<path d="M-6.10352e-05 59.24C4.85194 59.714 11.1349 60 17.9999 60C24.8649 60 31.1479 59.714 35.9999 59.24V35C31.1479 35.474 24.8649 35.76 17.9999 35.76C11.1349 35.76 4.85194 35.474 -6.10352e-05 35V59.24Z" fill="url(#paint5_linear)"/>
<path d="M28.7999 23.275C28.0654 23.2731 27.3615 22.9799 26.8429 22.4596C26.3244 21.9394 26.0334 21.2346 26.0339 20.5V16H11.0869V20.5C11.0858 20.7284 11.0566 20.9558 10.9999 21.177L36.7179 47L36.9999 34.66V31.507C37.0022 30.428 36.7918 29.3592 36.3809 28.3615C35.97 27.3638 35.3666 26.4569 34.6051 25.6924C33.8437 24.928 32.9391 24.321 31.943 23.9063C30.9469 23.4915 29.8789 23.277 28.7999 23.275Z" fill="url(#paint6_linear)"/>
<path d="M25.829 21.943H11.119C10.8348 21.9427 10.5624 21.8296 10.3616 21.6286C10.1608 21.4276 10.048 21.1551 10.048 20.871V17.171C10.0485 16.8872 10.1615 16.6152 10.3623 16.4146C10.5631 16.214 10.8352 16.1012 11.119 16.101H25.829C25.9698 16.1011 26.1091 16.1289 26.2391 16.1829C26.3691 16.2369 26.4872 16.316 26.5867 16.4156C26.6861 16.5153 26.765 16.6335 26.8188 16.7636C26.8725 16.8938 26.9001 17.0332 26.9 17.174V20.874C26.9001 21.0147 26.8725 21.1542 26.8188 21.2843C26.765 21.4144 26.6861 21.5326 26.5867 21.6323C26.4872 21.7319 26.3691 21.811 26.2391 21.865C26.1091 21.919 25.9698 21.9468 25.829 21.947V21.943Z" fill="url(#paint7_linear)"/>
<path d="M23.491 21.943H13.46C13.2213 21.943 12.9924 21.8481 12.8236 21.6793C12.6548 21.5106 12.56 21.2816 12.56 21.043V17.001C12.56 16.7623 12.6548 16.5333 12.8236 16.3646C12.9924 16.1958 13.2213 16.101 13.46 16.101H23.491C23.7297 16.101 23.9586 16.1958 24.1274 16.3646C24.2962 16.5333 24.391 16.7623 24.391 17.001V21.045C24.3905 21.2833 24.2954 21.5117 24.1267 21.6801C23.958 21.8484 23.7293 21.943 23.491 21.943Z" fill="url(#paint8_linear)"/>
<path d="M16.657 21.943H20.287C20.4382 21.9427 20.5832 21.8824 20.6901 21.7754C20.797 21.6683 20.857 21.5232 20.857 21.372V16.672C20.857 16.5207 20.797 16.3756 20.6901 16.2685C20.5832 16.1615 20.4382 16.1012 20.287 16.101H16.657C16.5057 16.1012 16.3607 16.1615 16.2539 16.2685C16.147 16.3756 16.087 16.5207 16.087 16.672V21.372C16.087 21.5232 16.147 21.6683 16.2539 21.7754C16.3607 21.8824 16.5057 21.9427 16.657 21.943Z" fill="url(#paint9_linear)"/>
<path d="M21.3449 11H14.6549C13.6978 11.012 12.7751 10.6434 12.0897 9.97524C11.4043 9.30709 11.0123 8.39409 10.9999 7.43698V3.56298C11.0123 2.60587 11.4043 1.69287 12.0897 1.02471C12.7751 0.356562 13.6978 -0.0120324 14.6549 -2.05383e-05H21.3459C22.3029 -0.0117651 23.2253 0.356948 23.9105 1.02507C24.5957 1.69319 24.9876 2.60605 24.9999 3.56298V7.43698C24.9876 8.39409 24.5956 9.30709 23.9102 9.97524C23.2248 10.6434 22.3021 11.012 21.3449 11Z" fill="url(#paint10_linear)"/>
<path d="M17.3349 54H17.1829C16.055 53.9485 14.9904 53.4636 14.2111 52.6465C13.4319 51.8294 12.998 50.7431 12.9999 49.614C12.9933 49.4693 12.9933 49.3243 12.9999 49.179C13.0343 48.4248 13.2431 47.6889 13.6099 47.029L16.8389 41.212C16.8832 41.1235 16.9598 41.0554 17.0529 41.0219C17.146 40.9884 17.2484 40.992 17.3389 41.032C17.4348 40.9924 17.5418 40.9888 17.6401 41.0219C17.7384 41.055 17.8215 41.1225 17.8739 41.212L21.3389 47.029C21.7581 47.7189 21.9878 48.5071 22.005 49.3141C22.0222 50.1211 21.8262 50.9184 21.4368 51.6255C21.0474 52.3325 20.4784 52.9244 19.7872 53.3413C19.096 53.7582 18.307 53.9854 17.4999 54H17.3349Z" fill="url(#paint11_linear)"/>
<path d="M47.238 30.953H41.736V33.342H47.238V30.953Z" fill="url(#paint12_linear)"/>
<path d="M55.7179 39.312C55.7774 38.4579 55.6607 37.6006 55.3749 36.7935C55.0892 35.9864 54.6405 35.2466 54.0568 34.6202C53.4732 33.9937 52.7669 33.494 51.982 33.152C51.197 32.8099 50.3502 32.633 49.4939 32.632H39.4819C38.6258 32.633 37.779 32.8099 36.9941 33.1519C36.2093 33.4938 35.5031 33.9935 34.9194 34.6198C34.3358 35.2461 33.8871 35.9858 33.6013 36.7928C33.3154 37.5998 33.1986 38.457 33.2579 39.311C33.8009 47.383 29.1879 55.411 29.5699 63.481C29.667 65.3896 30.4945 67.1876 31.8811 68.5027C33.2676 69.8177 35.1069 70.549 37.0179 70.545H51.9579C53.8689 70.549 55.7082 69.8177 57.0948 68.5027C58.4813 67.1876 59.3089 65.3896 59.4059 63.481C59.7869 55.41 55.1749 47.384 55.7179 39.312Z" fill="url(#paint13_linear)"/>
<path d="M53.4559 70.394C53.0842 70.4705 52.707 70.5179 52.3279 70.536C52.2059 70.542 52.0819 70.545 51.9579 70.545H47.8869L36.6349 59.441C36.3619 59.169 36.8189 58.268 37.6559 57.431C37.9172 57.1658 38.2039 56.927 38.5119 56.718C39.0379 56.366 39.4879 56.231 39.6659 56.41L53.4559 70.394Z" fill="url(#paint14_linear)"/>
<path d="M59.1119 65.224C58.9696 65.7096 58.7765 66.1788 58.5359 66.624L39.7379 47.829L37.6559 45.747C36.8189 44.91 36.3619 44.009 36.6349 43.736C36.9079 43.463 37.8089 43.92 38.6459 44.757L40.7289 46.839L59.1119 65.224Z" fill="url(#paint15_linear)"/>
<path d="M59.4059 63.482C59.3782 64.0726 59.2799 64.6578 59.1129 65.225C58.9706 65.7106 58.7775 66.1798 58.5369 66.625C57.8794 67.846 56.8946 68.8596 55.6929 69.552C55.2999 69.7801 54.8865 69.9709 54.4579 70.122L40.2049 55.873C39.0689 54.7369 38.4307 53.1961 38.4307 51.5895C38.4307 49.9829 39.0689 48.4421 40.2049 47.306C40.3705 47.14 40.5461 46.9843 40.7309 46.84C41.8955 45.9179 43.3582 45.456 44.8411 45.5419C46.324 45.6278 47.7236 46.2556 48.7739 47.306L58.9179 57.452C59.0439 58.14 59.1529 58.829 59.2359 59.518C59.4039 60.8322 59.4607 62.1582 59.4059 63.482Z" fill="url(#paint16_linear)"/>
<path d="M59.2359 59.517L45.3299 45.59L44.5089 44.768H44.4869C44.0999 44.768 43.7869 43.808 43.7869 42.625C43.7869 41.442 44.1009 40.483 44.4879 40.483L49.6209 45.607L58.2059 54.183C58.3619 54.825 58.5119 55.469 58.6489 56.111C58.7489 56.559 58.8349 57.011 58.9169 57.455C59.0429 58.139 59.1519 58.829 59.2359 59.517Z" fill="url(#paint17_linear)"/>
<path d="M58.65 56.107L49.31 46.767C49.13 46.588 49.266 46.135 49.621 45.607C49.8294 45.3015 50.0668 45.0169 50.33 44.757C51.167 43.92 52.068 43.463 52.34 43.736L56.705 48.203C57.169 50.195 57.721 52.187 58.205 54.179C58.362 54.821 58.512 55.465 58.65 56.107Z" fill="url(#paint18_linear)"/>
<path d="M55.692 69.546C54.6654 70.138 53.5126 70.477 52.329 70.535L38.512 56.718L33.382 51.589C33.382 51.202 34.342 50.889 35.525 50.889C36.708 50.889 37.669 51.202 37.669 51.589C37.669 51.596 37.669 51.603 37.669 51.611L38.491 52.429L55.692 69.546Z" fill="url(#paint19_linear)"/>
<path d="M44.4879 57.646C47.8337 57.646 50.5459 54.9338 50.5459 51.588C50.5459 48.2423 47.8337 45.53 44.4879 45.53C41.1422 45.53 38.4299 48.2423 38.4299 51.588C38.4299 54.9338 41.1422 57.646 44.4879 57.646Z" fill="url(#paint20_linear)"/>
<path d="M44.488 44.771C44.8746 44.771 45.188 43.8111 45.188 42.627C45.188 41.4429 44.8746 40.483 44.488 40.483C44.1014 40.483 43.788 41.4429 43.788 42.627C43.788 43.8111 44.1014 44.771 44.488 44.771Z" fill="url(#paint21_linear)"/>
<path d="M44.488 62.695C44.8746 62.695 45.188 61.7351 45.188 60.551C45.188 59.3669 44.8746 58.407 44.488 58.407C44.1014 58.407 43.788 59.3669 43.788 60.551C43.788 61.7351 44.1014 62.695 44.488 62.695Z" fill="url(#paint22_linear)"/>
<path d="M51.32 45.747C50.483 46.584 49.583 47.042 49.309 46.768C49.035 46.494 49.493 45.594 50.33 44.757C51.167 43.92 52.068 43.463 52.341 43.736C52.614 44.009 52.157 44.91 51.32 45.747Z" fill="url(#paint23_linear)"/>
<path d="M38.646 58.421C37.809 59.258 36.909 59.716 36.635 59.442C36.361 59.168 36.819 58.268 37.656 57.431C38.493 56.594 39.394 56.137 39.667 56.41C39.94 56.683 39.483 57.584 38.646 58.421Z" fill="url(#paint24_linear)"/>
<path d="M53.4509 52.289C54.635 52.289 55.5949 51.9756 55.5949 51.589C55.5949 51.2024 54.635 50.889 53.4509 50.889C52.2668 50.889 51.3069 51.2024 51.3069 51.589C51.3069 51.9756 52.2668 52.289 53.4509 52.289Z" fill="url(#paint25_linear)"/>
<path d="M35.526 52.289C36.7101 52.289 37.67 51.9756 37.67 51.589C37.67 51.2024 36.7101 50.889 35.526 50.889C34.3419 50.889 33.382 51.2024 33.382 51.589C33.382 51.9756 34.3419 52.289 35.526 52.289Z" fill="url(#paint26_linear)"/>
<path d="M50.3299 58.421C49.4929 57.584 49.0359 56.684 49.3089 56.41C49.5819 56.136 50.4829 56.594 51.3199 57.431C52.1569 58.268 52.6149 59.169 52.3409 59.442C52.0669 59.715 51.1669 59.258 50.3299 58.421Z" fill="url(#paint27_linear)"/>
<path d="M37.6559 45.747C36.8189 44.91 36.3619 44.01 36.6349 43.736C36.9079 43.462 37.8089 43.92 38.6459 44.757C39.4829 45.594 39.9399 46.495 39.6669 46.768C39.3939 47.041 38.4929 46.584 37.6559 45.747Z" fill="url(#paint28_linear)"/>
<path d="M29.554 62.996C29.554 63.158 29.563 63.32 29.57 63.482C29.6673 65.3903 30.4949 67.1881 31.8814 68.503C33.268 69.8178 35.1071 70.549 37.018 70.545H51.954C53.8653 70.5498 55.7052 69.819 57.0924 68.504C58.4796 67.1891 59.3076 65.3908 59.405 63.482C59.413 63.32 59.418 63.158 59.421 62.996H29.554Z" fill="url(#paint29_linear)"/>
<path d="M46.1529 31.927H42.8229C42.4275 31.927 42.0482 31.7699 41.7686 31.4903C41.489 31.2107 41.3319 30.8314 41.3319 30.436V25.491C41.3319 25.0956 41.489 24.7163 41.7686 24.4367C42.0482 24.1571 42.4275 24 42.8229 24H46.1529C46.3487 24 46.5426 24.0386 46.7235 24.1135C46.9044 24.1884 47.0688 24.2983 47.2072 24.4367C47.3457 24.5752 47.4555 24.7395 47.5304 24.9204C47.6053 25.1013 47.6439 25.2952 47.6439 25.491V30.436C47.6439 30.6318 47.6053 30.8257 47.5304 31.0066C47.4555 31.1875 47.3457 31.3518 47.2072 31.4903C47.0688 31.6287 46.9044 31.7386 46.7235 31.8135C46.5426 31.8884 46.3487 31.927 46.1529 31.927Z" fill="url(#paint30_linear)"/>
<defs>
<linearGradient id="paint0_linear" x1="24.5012" y1="4.6079" x2="24.5012" y2="8.00821" gradientUnits="userSpaceOnUse">
<stop stop-color="#F8F6FB"/>
<stop offset="1" stop-color="#EFDCFB"/>
</linearGradient>
<linearGradient id="paint1_linear" x1="16.6799" y1="14" x2="19.2899" y2="14" gradientUnits="userSpaceOnUse">
<stop stop-color="#F8F6FB"/>
<stop offset="1" stop-color="#EFDCFB"/>
</linearGradient>
<linearGradient id="paint2_linear" x1="18.6599" y1="15.579" x2="17.1864" y2="7.5359" gradientUnits="userSpaceOnUse">
<stop stop-color="#EFDCFB" stop-opacity="0"/>
<stop offset="0.486" stop-color="#BAAAD6" stop-opacity="0.486"/>
<stop offset="1" stop-color="#8679B2"/>
</linearGradient>
<linearGradient id="paint3_linear" x1="2.95194" y1="22.989" x2="40.9661" y2="48.4107" gradientUnits="userSpaceOnUse">
<stop stop-color="#ACD6FF"/>
<stop offset="1" stop-color="#5BBCFF"/>
</linearGradient>
<linearGradient id="paint4_linear" x1="4.61233" y1="67.4548" x2="5.38623" y2="73.5605" gradientUnits="userSpaceOnUse">
<stop stop-color="#ACD6FF"/>
<stop offset="1" stop-color="#5BBCFF"/>
</linearGradient>
<linearGradient id="paint5_linear" x1="8.85594" y1="42.45" x2="28.1364" y2="62.9155" gradientUnits="userSpaceOnUse">
<stop stop-color="#F8F6FB"/>
<stop offset="1" stop-color="#EFDCFB"/>
</linearGradient>
<linearGradient id="paint6_linear" x1="26.6779" y1="36.925" x2="14.2552" y2="0.83354" gradientUnits="userSpaceOnUse">
<stop stop-color="#5BBCFF" stop-opacity="0"/>
<stop offset="1" stop-color="#409BDA"/>
</linearGradient>
<linearGradient id="paint7_linear" x1="18.474" y1="16.7148" x2="18.474" y2="25.9164" gradientUnits="userSpaceOnUse">
<stop stop-color="#92F37F"/>
<stop offset="1" stop-color="#4AB272"/>
</linearGradient>
<linearGradient id="paint8_linear" x1="17.6355" y1="15.6745" x2="18.648" y2="32.2964" gradientUnits="userSpaceOnUse">
<stop stop-color="#4AB272" stop-opacity="0"/>
<stop offset="1" stop-color="#009245"/>
</linearGradient>
<linearGradient id="paint9_linear" x1="19.1445" y1="16.3229" x2="14.3889" y2="29.0421" gradientUnits="userSpaceOnUse">
<stop stop-color="#4AB272" stop-opacity="0"/>
<stop offset="1" stop-color="#009245"/>
</linearGradient>
<linearGradient id="paint10_linear" x1="12.1479" y1="1.24276" x2="20.4728" y2="11.6737" gradientUnits="userSpaceOnUse">
<stop stop-color="#ACD6FF"/>
<stop offset="1" stop-color="#5BBCFF"/>
</linearGradient>
<linearGradient id="paint11_linear" x1="13.7338" y1="42.4682" x2="23.1293" y2="48.8797" gradientUnits="userSpaceOnUse">
<stop stop-color="#ACD6FF"/>
<stop offset="1" stop-color="#5BBCFF"/>
</linearGradient>
<linearGradient id="paint12_linear" x1="44.487" y1="34.4792" x2="44.487" y2="30.4513" gradientUnits="userSpaceOnUse">
<stop stop-color="#FEFFB3"/>
<stop offset="0.118" stop-color="#FEFDA7"/>
<stop offset="0.333" stop-color="#FEF785"/>
<stop offset="0.622" stop-color="#FFEE50"/>
<stop offset="0.971" stop-color="#FFE107"/>
<stop offset="1" stop-color="#FFE000"/>
</linearGradient>
<linearGradient id="paint13_linear" x1="31.9977" y1="36.9162" x2="61.8183" y2="60.0428" gradientUnits="userSpaceOnUse">
<stop stop-color="#F7D177"/>
<stop offset="1" stop-color="#FFDF73"/>
</linearGradient>
<linearGradient id="paint14_linear" x1="48.1662" y1="67.9296" x2="33.2262" y2="46.8337" gradientUnits="userSpaceOnUse">
<stop stop-color="#FFE000" stop-opacity="0"/>
<stop offset="1" stop-color="#FFAF00"/>
</linearGradient>
<linearGradient id="paint15_linear" x1="46.6159" y1="53.7165" x2="31.6025" y2="39.2198" gradientUnits="userSpaceOnUse">
<stop stop-color="#FFE000" stop-opacity="0"/>
<stop offset="1" stop-color="#FFAF00"/>
</linearGradient>
<linearGradient id="paint16_linear" x1="58.7543" y1="65.8679" x2="36.4708" y2="49.615" gradientUnits="userSpaceOnUse">
<stop stop-color="#FFE000" stop-opacity="0"/>
<stop offset="1" stop-color="#FFAF00"/>
</linearGradient>
<linearGradient id="paint17_linear" x1="54.0605" y1="52.246" x2="33.4735" y2="38.684" gradientUnits="userSpaceOnUse">
<stop stop-color="#FFE000" stop-opacity="0"/>
<stop offset="1" stop-color="#FFAF00"/>
</linearGradient>
<linearGradient id="paint18_linear" x1="59.5636" y1="53.9905" x2="40.6764" y2="43.1784" gradientUnits="userSpaceOnUse">
<stop stop-color="#FFE000" stop-opacity="0"/>
<stop offset="1" stop-color="#FFAF00"/>
</linearGradient>
<linearGradient id="paint19_linear" x1="43.533" y1="59.5332" x2="30.4503" y2="42.6724" gradientUnits="userSpaceOnUse">
<stop stop-color="#FFE000" stop-opacity="0"/>
<stop offset="1" stop-color="#FFAF00"/>
</linearGradient>
<linearGradient id="paint20_linear" x1="39.5688" y1="46.6689" x2="55.4408" y2="62.5409" gradientUnits="userSpaceOnUse">
<stop stop-color="#FFA981"/>
<stop offset="0.335" stop-color="#FB9459"/>
<stop offset="1" stop-color="#F26500"/>
</linearGradient>
<linearGradient id="paint21_linear" x1="41.2414" y1="44.0334" x2="22.5632" y2="44.8955" gradientUnits="userSpaceOnUse">
<stop stop-color="#FFA981"/>
<stop offset="0.335" stop-color="#FB9459"/>
<stop offset="1" stop-color="#F26500"/>
</linearGradient>
<linearGradient id="paint22_linear" x1="41.24" y1="61.9574" x2="22.5632" y2="62.8195" gradientUnits="userSpaceOnUse">
<stop stop-color="#FFA981"/>
<stop offset="0.335" stop-color="#FB9459"/>
<stop offset="1" stop-color="#F26500"/>
</linearGradient>
<linearGradient id="paint23_linear" x1="52.5668" y1="43.5102" x2="46.9484" y2="49.1286" gradientUnits="userSpaceOnUse">
<stop stop-color="#FFA981"/>
<stop offset="0.335" stop-color="#FB9459"/>
<stop offset="1" stop-color="#F26500"/>
</linearGradient>
<linearGradient id="paint24_linear" x1="39.8927" y1="56.1842" x2="34.2744" y2="61.8026" gradientUnits="userSpaceOnUse">
<stop stop-color="#FFA981"/>
<stop offset="0.335" stop-color="#FB9459"/>
<stop offset="1" stop-color="#F26500"/>
</linearGradient>
<linearGradient id="paint25_linear" x1="55.9123" y1="46.668" x2="55.0456" y2="62.9171" gradientUnits="userSpaceOnUse">
<stop stop-color="#FFA981"/>
<stop offset="0.335" stop-color="#FB9459"/>
<stop offset="1" stop-color="#F26500"/>
</linearGradient>
<linearGradient id="paint26_linear" x1="37.9873" y1="46.668" x2="37.1206" y2="62.9171" gradientUnits="userSpaceOnUse">
<stop stop-color="#FFA981"/>
<stop offset="0.335" stop-color="#FB9459"/>
<stop offset="1" stop-color="#F26500"/>
</linearGradient>
<linearGradient id="paint27_linear" x1="52.5671" y1="59.6678" x2="46.9488" y2="54.0494" gradientUnits="userSpaceOnUse">
<stop stop-color="#FFA981"/>
<stop offset="0.335" stop-color="#FB9459"/>
<stop offset="1" stop-color="#F26500"/>
</linearGradient>
<linearGradient id="paint28_linear" x1="39.8927" y1="46.9938" x2="34.2743" y2="41.3793" gradientUnits="userSpaceOnUse">
<stop stop-color="#FFA981"/>
<stop offset="0.335" stop-color="#FB9459"/>
<stop offset="1" stop-color="#F26500"/>
</linearGradient>
<linearGradient id="paint29_linear" x1="44.4875" y1="67.0951" x2="44.4875" y2="71.4886" gradientUnits="userSpaceOnUse">
<stop stop-color="#FFE000" stop-opacity="0"/>
<stop offset="1" stop-color="#FFAF00"/>
</linearGradient>
<linearGradient id="paint30_linear" x1="43.6105" y1="27.9635" x2="49.3481" y2="27.9635" gradientUnits="userSpaceOnUse">
<stop stop-color="#AFDC00"/>
<stop offset="0.26" stop-color="#96BC00"/>
<stop offset="0.759" stop-color="#698400"/>
<stop offset="1" stop-color="#586E00"/>
</linearGradient>
</defs>
</svg>
