<svg width="753" height="399" viewBox="0 0 753 399" fill="none" xmlns="http://www.w3.org/2000/svg">
<path opacity="0.5" d="M716 58H196V358H716V58Z" fill="url(#paint0_linear)"/>
<path d="M364.735 260.777C348.144 276.709 384.199 263.463 374.621 270.719C374.621 270.719 380.992 276.556 393.314 286.368C410.038 299.455 429.614 303.276 449.828 275.331C468.756 251.996 482.34 221.265 499.566 194.881C506.736 184.087 508.987 170.402 502.486 158.97C499.312 153.386 494.528 148.888 488.758 146.065C482.989 143.242 476.502 142.225 470.145 143.146C457.145 145.033 449.745 154.853 443.625 167.509L412.494 231.126C401.96 252.658 391.088 266.291 364.734 260.776" fill="url(#paint1_linear)"/>
<path opacity="0.377" d="M416.862 298.581C417.985 297.188 419.098 295.717 420.202 294.168C421.878 291.701 423.534 289.243 425.17 286.792C424.863 285.236 424.894 283.633 425.26 282.09C425.626 280.548 426.318 279.101 427.29 277.849L427.702 277.318C428.323 276.516 429.05 275.802 429.864 275.196C430.138 274.425 430.497 273.687 430.935 272.996C431.035 272.775 431.141 272.559 431.254 272.347C431.649 271.381 432.179 270.476 432.827 269.658L433.353 268.979C433.642 268.475 433.966 267.992 434.32 267.532C434.384 267.416 434.449 267.303 434.52 267.192C434.739 266.692 435.003 266.226 435.262 265.746C435.536 265.239 435.848 264.755 436.196 264.296L436.35 264.025C436.613 263.267 436.958 262.539 437.378 261.855L437.803 261.137C438.178 260.531 438.59 259.95 439.038 259.396C440.022 258.121 441.274 257.078 442.704 256.338C442.823 256.174 442.942 256.013 443.066 255.857C443.413 255.39 443.687 254.897 444.052 254.429L446.352 251.462C446.819 250.734 447.323 250.03 447.863 249.354C448.168 248.712 448.525 248.097 448.93 247.514C449.232 246.914 449.588 246.342 449.993 245.806L450.114 245.606C450.488 244.726 450.974 243.899 451.559 243.143C451.927 242.451 452.334 241.843 452.767 241.172C452.936 240.913 453.114 240.662 453.301 240.42L453.541 240.111C454.361 239.05 455.368 238.148 456.511 237.448C459.41 232.607 462.223 227.819 464.95 223.084L443.466 221.596C424.637 235.836 413.375 249.844 413.339 264.218C412.839 278.345 407.829 289.849 400.886 297.473L416.862 298.581Z" fill="url(#paint2_linear)"/>
<path d="M475.437 144.458C467.266 148.379 462.082 154.325 459.887 162.297C450.44 199.027 439.435 257.702 426.872 338.323C425.704 345.023 425.316 357.245 431.091 357.678C453.231 359.339 475.371 357.124 498.065 357.678C523.598 358.301 550.499 357.5 572.999 358C579.21 358.138 574.406 355.147 574.528 349.539C575.879 231.408 576.542 173.439 576.542 173.439C579.858 159.985 574.276 150.902 559.795 146.189C516.662 153.325 488.542 152.748 475.437 144.458Z" fill="url(#paint3_linear)"/>
<path opacity="0.401" d="M532.47 377.23C537.911 372.13 540.054 366.154 538.84 359.479C537.832 354.816 535.804 350.434 532.9 346.649C529.543 342.132 525.661 338.032 521.334 334.433C512.167 326.75 501.898 320.487 490.87 315.854C497.628 302.354 501.635 294.654 502.78 292.985C499.461 291.985 496.068 290.863 492.694 289.652C497.316 288.265 501.594 285.919 505.25 282.769C508.675 279.752 511.507 276.124 513.602 272.069C515.709 267.984 517.256 263.635 518.202 259.137C519.197 254.465 519.727 249.706 519.782 244.93C519.906 235.589 518.574 226.285 515.834 217.354C514.234 212.104 514.746 206.106 517.318 200.008C519.755 194.372 523.43 189.357 528.07 185.334C532.43 181.554 537.795 179.123 543.511 178.334C549.227 177.546 555.049 178.435 560.27 180.893C560.27 180.912 567.908 211.417 583.97 275.6C583.176 279.397 581.544 282.968 579.194 286.054C576.787 289.125 573.78 291.673 570.356 293.544C566.473 295.656 562.296 297.176 557.964 298.054C552.884 299.097 547.709 299.602 542.524 299.561C536.351 299.523 530.192 298.993 524.103 297.977C517.16 296.827 510.296 295.236 503.555 293.214C521.204 302.348 536.477 309.383 548.95 314.124C554.46 316.259 560.082 318.092 565.792 319.613C570.021 320.768 574.356 321.498 578.73 321.791C578.73 321.8 578.701 323.807 578.644 327.81C578.577 332.525 578.47 340.012 578.321 350.27C577.951 354.822 573.874 359.236 565.859 363.763C558.506 367.915 547.896 372.194 532.47 377.23ZM502.78 292.982L503.553 293.213L503.081 292.969C503.13 292.781 503.143 292.669 503.117 292.637C503.115 292.634 503.112 292.631 503.108 292.63C503.105 292.628 503.101 292.627 503.097 292.627C503.049 292.626 502.942 292.746 502.78 292.982Z" fill="url(#paint4_linear)"/>
<path d="M548.628 143.809C552.496 143.589 556.352 144.411 559.794 146.189C529.788 188.168 474.183 185.683 475.436 144.458C478.082 142.769 479.276 142.445 481.362 142.429C483.815 144.965 488.74 146.974 492.429 147.546C493.316 147.756 494.219 147.893 495.129 147.957L515.781 149.39C516.952 149.475 518.13 149.429 519.291 149.252C519.983 149.188 520.644 149.072 521.326 148.952C523.853 148.507 526.242 147.48 528.303 145.952C528.475 146.002 528.644 146.052 528.818 146.094C530.478 146.75 532.235 147.132 534.018 147.223L537.324 147.452C541.401 147.599 545.4 146.311 548.624 143.812" fill="white"/>
<path d="M494.375 130.053L535.505 133.061C533.866 140.065 538.241 143.647 548.629 143.808C524.704 177.281 480.363 175.301 481.364 142.428C488.502 142.238 492.839 138.113 494.375 130.053Z" fill="url(#paint5_linear)"/>
<path opacity="0.291" d="M538.064 134.838C525.677 134.379 513.33 133.154 501.094 131.17C505.122 137.392 511.216 141.994 518.303 144.167C525.39 146.339 533.015 145.943 539.839 143.048C538.214 140.641 537.579 137.701 538.064 134.838Z" fill="url(#paint6_linear)"/>
<path d="M503.91 46.061C560.48 36.2183 580.12 51.683 562.83 92.455C556.546 138.922 516.138 144.067 493.486 129.871C476.718 119.364 470.956 97.83 489.294 76.855C491.731 73.867 492.077 72.17 492.648 67.32C494.233 55.4707 497.987 48.3843 503.91 46.061Z" fill="url(#paint7_linear)"/>
<path d="M553.21 89.002C555.267 87.5615 557.01 85.7174 558.332 83.5821C559.654 81.4467 560.527 79.0647 560.899 76.581C561.057 75.5701 561.134 74.5482 561.128 73.525C561.163 70.5589 560.439 67.6332 559.025 65.0255C557.611 62.4178 555.554 60.2146 553.05 58.625C550.474 59.6183 548.286 59.374 546.486 57.892C545.748 57.2644 545.117 56.5215 544.617 55.692C535.585 57.6533 530.297 56.2943 528.752 51.615C516.784 56.385 506.328 54.968 496.374 49.777C464.613 33.573 475.636 -6.24 506.543 9.426C510.458 -3.724 527.843 -3.287 547.794 16.1C556.079 5.032 571.964 12.2 575.815 36.849C577.182 37.5425 578.506 38.3186 579.779 39.173L579.82 39.201H579.827C580.184 39.4417 580.532 39.6863 580.872 39.935L580.88 39.941L580.939 39.985L580.976 40.013L581.009 40.038C581.122 40.1213 581.233 40.205 581.344 40.289C584.201 42.4055 586.607 45.07 588.423 48.127C594.544 58.705 591.034 72.304 576.061 83.244C565.287 91.171 557.225 93.944 553.228 93.944C549.657 93.945 549.329 91.731 553.21 89.002Z" fill="url(#paint8_linear)"/>
<path d="M533.42 74.3989C534.066 74.5205 534.661 74.8309 535.13 75.2908C535.6 75.7507 535.922 76.3395 536.057 76.9827C536.191 77.6258 536.132 78.2945 535.887 78.9041C535.642 79.5136 535.221 80.0367 534.678 80.4072C534.136 80.7777 533.495 80.9789 532.838 80.9854C532.181 80.9919 531.537 80.8034 530.987 80.4437C530.437 80.0839 530.006 79.5692 529.749 78.9646C529.491 78.36 529.419 77.6926 529.541 77.0469C529.622 76.6182 529.786 76.2096 530.024 75.8445C530.263 75.4793 530.571 75.1648 530.932 74.9189C531.292 74.6729 531.697 74.5004 532.124 74.4112C532.551 74.322 532.991 74.3178 533.42 74.3989Z" fill="#00545B"/>
<path d="M504.655 64.2771C505.301 64.3988 505.896 64.7093 506.365 65.1693C506.834 65.6293 507.156 66.2181 507.291 66.8613C507.425 67.5044 507.366 68.173 507.121 68.7825C506.875 69.392 506.455 69.915 505.912 70.2854C505.369 70.6558 504.729 70.8569 504.072 70.8633C503.415 70.8698 502.771 70.6812 502.221 70.3215C501.671 69.9618 501.24 69.4471 500.983 68.8426C500.725 68.238 500.653 67.5707 500.775 66.9251C500.938 66.0594 501.439 65.2942 502.167 64.7976C502.894 64.301 503.789 64.1138 504.655 64.2771Z" fill="#00545B"/>
<path d="M546.702 72.622C548.002 74.5511 550.014 74.47 550.264 72.656C550.775 66.5067 546.606 61.9 537.756 58.836C536.79 58.4494 535.719 58.418 534.732 58.7477C533.745 59.0773 532.907 59.7465 532.368 60.636C532.105 61.0755 531.937 61.5653 531.875 62.0737C531.813 62.5822 531.858 63.098 532.008 63.5878C532.158 64.0776 532.409 64.5305 532.745 64.917C533.081 65.3036 533.495 65.6154 533.959 65.832C541.6 69.07 545.848 71.3334 546.702 72.622Z" fill="url(#paint9_linear)"/>
<path d="M500.259 54.3609C498.215 54.9909 496.828 53.7699 497.69 52.3259C500.874 47.6299 506.517 46.7426 514.619 49.6639C515.533 49.9456 516.318 50.5421 516.834 51.3477C517.35 52.1533 517.564 53.1157 517.437 54.0639C517.372 54.5306 517.21 54.9784 516.961 55.3783C516.712 55.7782 516.382 56.1213 515.991 56.3854C515.601 56.6494 515.16 56.8284 514.696 56.9109C514.232 56.9933 513.756 56.9773 513.299 56.8639C505.96 54.7679 501.614 53.9336 500.259 54.3609Z" fill="url(#paint10_linear)"/>
<path d="M515.366 73.677C519.638 70.05 522.321 72.188 520.35 77.704C520.35 77.704 519.242 80.904 517.026 87.304C517.63 87.377 518.204 87.6049 518.694 87.9657C519.184 88.3265 519.571 88.8079 519.82 89.363C520.083 89.8889 520.192 90.4781 520.134 91.063C520.077 91.648 519.856 92.205 519.497 92.67C519.128 93.0997 518.636 93.4047 518.087 93.5433C517.538 93.6819 516.959 93.6472 516.431 93.444C515.887 93.0457 515.241 92.8123 514.568 92.7717C513.896 92.7311 513.225 92.885 512.638 93.215C511.545 93.6848 510.344 93.8423 509.167 93.67C507.991 93.4977 506.885 93.0023 505.973 92.239C504.988 91.4744 504.207 90.4783 503.7 89.3393C503.193 88.2002 502.975 86.9536 503.066 85.71C503.142 84.5647 503.562 83.4691 504.273 82.5675C504.983 81.6659 505.95 81.0005 507.046 80.659L515.366 73.678" fill="url(#paint11_linear)"/>
<path d="M522.898 102.227C524.489 101.486 525.628 102.844 524.124 104.446C511.597 119.297 494.918 115.607 495.996 97.7839C496.116 95.0959 497.395 94.4399 498.011 96.2579C499.343 100.299 502.762 103.227 507.467 104.358C512.704 105.415 518.144 104.664 522.898 102.227Z" fill="white"/>
<path d="M558.422 90.594C543.642 105.453 550.854 116.777 569.676 108.363C587.556 100.193 573.069 76.243 558.422 90.594Z" fill="url(#paint12_linear)"/>
<path d="M562.279 96.068C554.1 104.294 558.09 110.562 568.507 105.904C578.407 101.384 570.388 88.123 562.279 96.068Z" fill="#F89B71"/>
<path d="M451.453 268.407C463.879 282.919 470.09 290.175 470.087 290.176C470.087 290.176 492.408 289.334 537.048 287.653C543.029 288.582 548.981 300.751 554.902 324.159L470.646 314.518C459.99 313.718 452.637 309.944 448.586 303.197L432.282 285.381C431.276 285.216 430.246 285.281 429.27 285.573C428.293 285.865 427.396 286.376 426.647 287.066C425.897 287.757 425.315 288.609 424.944 289.558C424.572 290.507 424.422 291.528 424.505 292.544C424.63 293.987 423.167 294.974 421.847 295.407C420.527 295.84 418.795 295.907 418.013 294.666C410.165 279.842 408.234 270.104 412.892 267.068C422.523 261.33 429.278 258.841 433.155 259.601C441.964 261.435 448.064 264.37 451.455 268.407" fill="url(#paint13_linear)"/>
<path d="M435.321 286.542C432.185 281.855 428.102 283.143 430.944 286.474L447.361 304.084C453.14 311.271 462.17 315.398 474.451 316.465L564.857 326.671C565.793 318.064 563.235 306.733 555.148 303.724C539.558 301.75 526.511 308.531 511.312 311.484C496.551 314.216 478.827 314.384 472.112 307.659C466.407 301.973 460.453 298.635 454.249 297.645C445.136 295.404 438.826 291.703 435.321 286.542Z" fill="url(#paint14_linear)"/>
<path d="M537.308 285.389C534.017 308.166 553.46 313.5 550.366 325.119C550.366 325.119 558.977 325.798 574.722 325.948C595.952 325.974 605.49 313.448 605.349 280.594C605.913 249.833 604.89 219.062 602.286 188.406C601.304 175.481 594.672 163.306 582.519 158.294C576.582 155.845 570.044 155.244 563.76 156.569C557.476 157.895 551.738 161.085 547.296 165.723C538.196 175.218 538.406 187.511 541.355 201.26L555.903 270.581C558.516 283.03 551.903 284.106 537.303 285.386" fill="url(#paint15_linear)"/>
<path opacity="0.324" d="M580.727 337.962C575.916 341.393 576.203 343.201 580.667 343.283C600.735 343.158 610.706 325.467 611.508 297.428C611.529 293.798 611.538 290.194 611.535 286.616C610.175 285.252 609.124 283.612 608.451 281.807C607.778 280.002 607.5 278.074 607.635 276.152L607.69 275.336C607.776 274.108 608.028 272.897 608.439 271.736C608.196 270.772 608.06 269.783 608.033 268.789C607.986 268.499 607.947 268.208 607.916 267.92C607.664 266.676 607.587 265.403 607.688 264.137L607.758 263.096C607.711 262.391 607.711 261.684 607.758 260.979C607.746 260.822 607.737 260.664 607.729 260.505C607.612 259.851 607.563 259.2 607.501 258.544C607.435 257.843 607.422 257.139 607.462 256.436L607.435 256.058C607.19 255.113 607.046 254.145 607.006 253.17L606.949 252.158C606.919 251.295 606.944 250.431 607.025 249.571C607.157 247.618 607.713 245.717 608.654 244C608.662 243.753 608.674 243.511 608.695 243.268C608.73 242.562 608.672 241.879 608.724 241.158L609.038 236.606C609.017 235.555 609.051 234.503 609.138 233.455C609.014 232.601 608.958 231.737 608.97 230.874C608.87 230.063 608.843 229.245 608.89 228.43L608.878 228.146C608.66 227.005 608.59 225.839 608.671 224.68C608.571 223.733 608.571 222.84 608.56 221.874C608.554 221.496 608.566 221.123 608.589 220.753L608.622 220.279C608.732 218.653 609.136 217.061 609.814 215.579C609.324 205.834 608.729 196.318 608.029 187.033C606.529 172.033 601.14 160.544 591.539 154.888C586.808 152.845 585.716 154.054 588.261 158.515C594.69 169.924 597.599 180.779 592.653 191.024C577.884 226.287 572.74 254.319 584.387 271.841C601.087 298.86 596.192 327.273 580.727 337.962Z" fill="url(#paint16_linear)"/>
<path d="M337.156 284.425C343.012 283.792 351.622 287.713 356.292 293.136L365.561 303.904C370.233 309.327 369.261 314.281 363.407 314.914C357.553 315.547 348.946 311.626 344.274 306.202L335.002 295.435C330.333 290.012 331.301 285.058 337.156 284.425Z" fill="url(#paint17_linear)"/>
<path d="M312.739 259.58C312.161 259.636 311.611 259.858 311.157 260.22C310.703 260.583 310.363 261.069 310.18 261.62C309.997 262.171 309.978 262.764 310.125 263.326C310.272 263.888 310.579 264.395 311.009 264.786L366.886 315.599H416.916C417.446 315.599 417.955 315.388 418.33 315.013C418.705 314.638 418.916 314.129 418.916 313.599V303.705C418.916 303.439 418.863 303.175 418.76 302.929C418.657 302.684 418.506 302.461 418.316 302.275L371.759 256.74C370.926 255.926 369.926 255.303 368.827 254.916C367.729 254.528 366.559 254.385 365.4 254.497L312.739 259.58Z" fill="url(#paint18_linear)"/>
<path d="M321.712 266.251C321.13 266.304 320.577 266.525 320.119 266.888C319.661 267.251 319.32 267.74 319.136 268.294C318.952 268.849 318.934 269.445 319.084 270.009C319.234 270.574 319.545 271.082 319.98 271.472L367.98 314.534C368.347 314.863 368.823 315.045 369.316 315.045H413.916C414.316 315.045 414.707 314.925 415.038 314.701C415.369 314.477 415.625 314.158 415.774 313.787C415.922 313.415 415.956 313.008 415.87 312.617C415.785 312.227 415.584 311.871 415.294 311.595L364.878 263.693C364.465 263.3 363.973 263.001 363.434 262.814C362.896 262.627 362.324 262.557 361.756 262.609L321.712 266.251Z" fill="url(#paint19_linear)"/>
<path d="M338.873 289.966C345.847 289.412 357.008 294.266 363.68 300.766L371.133 308.023C377.803 314.515 377.557 320.281 370.583 320.836C363.609 321.391 352.446 316.53 345.773 310.038L338.319 302.779C331.649 296.286 331.895 290.523 338.873 289.966Z" fill="url(#paint20_linear)"/>
<path d="M253 136H369V33H253V136Z" fill="url(#paint21_linear)"/>
<path d="M369 30.1631L359.1 30.8801L252.384 30.6191C252.384 30.6191 247.509 98.7441 226.792 129.485L349.092 130.922L369 30.1631Z" fill="url(#paint22_linear)"/>
<path d="M266.647 48.941L263.208 69.61L283.829 70.361L286.729 49.974L266.647 48.941Z" fill="url(#paint23_linear)"/>
<path d="M262.65 74.389L257.531 95.058L278.501 95.7L282.501 74.872L262.65 74.389Z" fill="url(#paint24_linear)"/>
<path d="M256.279 100.662L250.979 121.331L273.042 121.973L277.451 101.541L256.279 100.662Z" fill="url(#paint25_linear)"/>
<path d="M292.875 50.1791L289.734 69.7881L309.221 70.4471L311.221 50.8471L292.875 50.1791Z" fill="url(#paint26_linear)"/>
<path d="M287.958 75.494L284.558 95.483L303.484 95.565L307.023 75.894L287.958 75.494Z" fill="url(#paint27_linear)"/>
<path d="M283.801 101.842L280.045 121.222L299.479 121.881L302.488 101.762L283.801 101.842Z" fill="url(#paint28_linear)"/>
<path d="M316.881 50.408L314.701 69.788L334.188 70.447L335.563 50.328L316.881 50.408Z" fill="url(#paint29_linear)"/>
<path d="M312.767 75.856L309.01 95.236L328.444 95.895L331.454 75.776L312.767 75.856Z" fill="url(#paint30_linear)"/>
<path d="M307.558 102.129L303.958 121.509L321.991 122.168L324.903 102.049L307.558 102.129Z" fill="url(#paint31_linear)"/>
<path d="M273.452 33.001C274.185 32.9943 274.904 33.2055 275.517 33.608C276.13 34.0104 276.609 34.5859 276.894 35.2614C277.18 35.9368 277.258 36.6818 277.119 37.4018C276.98 38.1217 276.63 38.7842 276.114 39.305C275.598 39.8259 274.939 40.1817 274.22 40.3272C273.502 40.4728 272.756 40.4015 272.078 40.1225C271.4 39.8435 270.82 39.3693 270.412 38.7601C270.004 38.1509 269.786 37.4342 269.786 36.701C269.784 36.2173 269.877 35.7379 270.06 35.2901C270.243 34.8424 270.512 34.4351 270.852 34.0915C271.193 33.7479 271.598 33.4747 272.044 33.2876C272.49 33.1005 272.968 33.0031 273.452 33.001Z" fill="url(#paint32_linear)"/>
<path d="M297.809 33.3151C298.542 33.3084 299.261 33.5196 299.874 33.9221C300.487 34.3245 300.966 34.9 301.251 35.5755C301.537 36.2509 301.615 36.9959 301.476 37.7159C301.337 38.4358 300.987 39.0983 300.471 39.6191C299.955 40.14 299.296 40.4958 298.577 40.6413C297.859 40.7869 297.113 40.7156 296.435 40.4366C295.757 40.1576 295.177 39.6834 294.769 39.0742C294.361 38.465 294.143 37.7483 294.143 37.0151C294.14 36.5314 294.233 36.0519 294.416 35.6041C294.599 35.1562 294.869 34.7489 295.209 34.4052C295.55 34.0616 295.954 33.7885 296.401 33.6014C296.847 33.4144 297.325 33.3171 297.809 33.3151Z" fill="url(#paint33_linear)"/>
<path d="M322.955 33.1331C323.688 33.1264 324.407 33.3376 325.02 33.7401C325.633 34.1425 326.112 34.718 326.397 35.3934C326.683 36.0689 326.761 36.8139 326.622 37.5339C326.483 38.2538 326.133 38.9163 325.617 39.4371C325.101 39.958 324.442 40.3138 323.723 40.4593C323.005 40.6049 322.259 40.5336 321.581 40.2546C320.903 39.9756 320.323 39.5014 319.915 38.8922C319.507 38.283 319.289 37.5663 319.289 36.8331C319.286 36.3494 319.379 35.8699 319.562 35.4221C319.745 34.9742 320.015 34.5669 320.355 34.2232C320.696 33.8796 321.1 33.6065 321.547 33.4194C321.993 33.2323 322.471 33.1351 322.955 33.1331Z" fill="url(#paint34_linear)"/>
<path d="M347.542 33.095C348.275 33.0883 348.994 33.2995 349.607 33.702C350.22 34.1044 350.699 34.6799 350.985 35.3554C351.27 36.0308 351.348 36.7758 351.209 37.4958C351.07 38.2157 350.72 38.8782 350.204 39.399C349.688 39.9199 349.029 40.2757 348.31 40.4212C347.592 40.5668 346.846 40.4955 346.168 40.2165C345.49 39.9375 344.91 39.4633 344.502 38.8541C344.094 38.2449 343.876 37.5282 343.876 36.795C343.874 36.3113 343.966 35.8318 344.149 35.384C344.332 34.9362 344.602 34.5288 344.942 34.1852C345.283 33.8415 345.687 33.5684 346.134 33.3813C346.58 33.1943 347.058 33.097 347.542 33.095Z" fill="url(#paint35_linear)"/>
<path d="M276.46 30.92L272.046 30.836C272.046 30.836 271.428 27.813 268.478 28.284C268.012 28.3395 267.562 28.4879 267.155 28.7206C266.748 28.9533 266.391 29.2655 266.107 29.6387C265.823 30.0118 265.617 30.4382 265.501 30.8927C265.384 31.3471 265.361 31.8203 265.431 32.284C265.631 34.028 268.087 36.746 271.682 33.971C272.373 33.8713 273.077 34.0048 273.683 34.3506C274.29 34.6964 274.763 35.2347 275.029 35.88C275.601 37.094 274.681 37.735 273.524 38.88C269.865 42.491 260.024 39.571 260.494 32.063C261.072 22.873 268.228 22.552 271.027 23.474C274.257 24.537 276.771 27.921 276.46 30.92Z" fill="url(#paint36_linear)"/>
<path d="M301.541 31.276L297.127 31.192C297.127 31.192 296.508 28.169 293.559 28.64C293.093 28.6954 292.643 28.8439 292.236 29.0766C291.829 29.3093 291.472 29.6215 291.188 29.9946C290.904 30.3677 290.698 30.7942 290.582 31.2486C290.465 31.7031 290.442 32.1762 290.512 32.64C290.712 34.384 293.168 37.102 296.763 34.327C297.454 34.2272 298.158 34.3608 298.764 34.7066C299.371 35.0524 299.844 35.5906 300.11 36.236C300.682 37.45 299.762 38.091 298.604 39.236C294.947 42.846 285.103 39.927 285.575 32.419C286.153 23.229 293.309 22.908 296.108 23.83C299.338 24.893 301.851 28.277 301.541 31.276Z" fill="url(#paint37_linear)"/>
<path d="M326.281 31.127L321.867 31.043C321.867 31.043 321.249 28.02 318.299 28.491C317.833 28.5465 317.384 28.6951 316.976 28.9279C316.569 29.1606 316.213 29.4728 315.929 29.8459C315.645 30.2191 315.439 30.6455 315.322 31.0998C315.206 31.5542 315.183 32.0273 315.253 32.491C315.453 34.236 317.909 36.953 321.503 34.179C322.194 34.079 322.898 34.2125 323.505 34.5583C324.111 34.9041 324.585 35.4424 324.851 36.088C325.423 37.302 324.502 37.943 323.345 39.088C319.686 42.699 309.845 39.78 310.315 32.272C310.893 23.08 318.05 22.76 320.848 23.68C324.078 24.743 326.592 28.127 326.281 31.127Z" fill="url(#paint38_linear)"/>
<path d="M350.816 30.9521L346.402 30.8681C346.402 30.8681 345.784 27.8451 342.834 28.3161C342.368 28.3715 341.918 28.52 341.511 28.7527C341.104 28.9854 340.747 29.2976 340.463 29.6707C340.179 30.0438 339.973 30.4703 339.857 30.9247C339.74 31.3792 339.717 31.8523 339.787 32.3161C339.987 34.0611 342.443 36.7781 346.038 34.0041C346.729 33.9043 347.433 34.0379 348.039 34.3837C348.646 34.7295 349.119 35.2677 349.385 35.9131C349.957 37.1271 349.037 37.7681 347.88 38.9131C344.221 42.5241 334.38 39.6051 334.85 32.0971C335.428 22.9051 342.585 22.5851 345.383 23.5051C348.613 24.5681 351.127 27.9521 350.816 30.9521Z" fill="url(#paint39_linear)"/>
<path d="M402 122.5C402 128.928 400.094 135.211 396.523 140.556C392.952 145.901 387.876 150.066 381.937 152.526C375.999 154.986 369.464 155.63 363.16 154.376C356.855 153.121 351.064 150.026 346.519 145.481C341.974 140.936 338.879 135.145 337.624 128.84C336.37 122.536 337.014 116.001 339.474 110.063C341.934 104.124 346.099 99.0484 351.444 95.4772C356.789 91.9061 363.072 90 369.5 90C378.12 90 386.386 93.4241 392.481 99.519C398.576 105.614 402 113.88 402 122.5Z" fill="url(#paint40_linear)"/>
<path d="M397 123C397 128.34 395.416 133.56 392.45 138C389.483 142.441 385.266 145.901 380.332 147.945C375.399 149.988 369.97 150.523 364.733 149.481C359.495 148.439 354.684 145.868 350.908 142.092C347.132 138.316 344.561 133.505 343.519 128.267C342.477 123.03 343.012 117.601 345.055 112.668C347.099 107.734 350.559 103.517 355 100.55C359.44 97.5835 364.66 96 370 96C377.161 96 384.028 98.8446 389.092 103.908C394.155 108.972 397 115.839 397 123Z" fill="url(#paint41_linear)"/>
<path d="M369.402 105.92C368.985 105.898 368.594 105.712 368.314 105.403C368.034 105.094 367.888 104.686 367.908 104.269V101.651C367.888 101.234 368.034 100.826 368.314 100.517C368.594 100.208 368.985 100.022 369.402 100C369.819 100.022 370.209 100.208 370.489 100.517C370.769 100.827 370.915 101.234 370.895 101.651V104.269C370.915 104.686 370.769 105.093 370.489 105.403C370.209 105.712 369.819 105.898 369.402 105.92Z" fill="url(#paint42_linear)"/>
<path d="M369.402 145.877C368.985 145.855 368.594 145.669 368.314 145.36C368.034 145.051 367.888 144.643 367.908 144.226V141.608C367.888 141.191 368.034 140.784 368.314 140.474C368.594 140.165 368.985 139.979 369.402 139.957C369.819 139.979 370.209 140.165 370.489 140.474C370.769 140.784 370.915 141.191 370.895 141.608V144.226C370.915 144.643 370.769 145.05 370.489 145.36C370.209 145.669 369.819 145.855 369.402 145.877Z" fill="url(#paint43_linear)"/>
<path d="M385.829 122.938C385.855 122.522 386.045 122.132 386.357 121.855C386.668 121.578 387.077 121.435 387.494 121.458H390.137C390.554 121.435 390.963 121.577 391.275 121.855C391.587 122.132 391.777 122.521 391.803 122.938C391.777 123.355 391.587 123.744 391.275 124.021C390.963 124.299 390.554 124.441 390.137 124.418H387.494C387.077 124.441 386.668 124.298 386.357 124.021C386.045 123.744 385.855 123.355 385.829 122.938V122.938Z" fill="url(#paint44_linear)"/>
<path d="M347 122.938C347.026 122.521 347.216 122.132 347.528 121.855C347.84 121.577 348.249 121.435 348.666 121.458H351.308C351.725 121.435 352.134 121.577 352.446 121.855C352.758 122.132 352.948 122.521 352.974 122.938C352.948 123.355 352.758 123.744 352.446 124.021C352.134 124.299 351.725 124.441 351.308 124.418H348.666C348.249 124.441 347.84 124.299 347.528 124.021C347.216 123.744 347.026 123.355 347 122.938Z" fill="url(#paint45_linear)"/>
<path opacity="0.481" d="M369.539 107.89C369.456 107.713 369.314 107.569 369.138 107.483C368.962 107.398 368.762 107.375 368.571 107.419C368.38 107.463 368.21 107.572 368.09 107.726C367.969 107.88 367.905 108.071 367.908 108.267V122.745C367.908 122.975 367.998 123.196 368.159 123.36L368.559 123.76L385.293 140.699C388.292 137.872 390.533 134.337 391.808 130.418L369.539 107.89Z" fill="url(#paint46_linear)"/>
<path d="M375.99 130.337C375.758 130.338 375.535 130.248 375.369 130.087L368.169 123.087C368.088 123.009 368.024 122.916 367.98 122.813C367.936 122.71 367.913 122.599 367.912 122.487V108.252C367.915 108.023 368.009 107.805 368.173 107.645C368.337 107.485 368.558 107.397 368.787 107.399C368.901 107.397 369.014 107.418 369.119 107.46C369.225 107.502 369.322 107.564 369.403 107.643C369.485 107.723 369.55 107.817 369.595 107.922C369.64 108.026 369.664 108.138 369.666 108.252V122.129L376.608 128.88C376.689 128.958 376.754 129.052 376.798 129.156C376.842 129.259 376.865 129.371 376.865 129.484C376.865 129.596 376.842 129.708 376.798 129.812C376.754 129.915 376.689 130.009 376.608 130.087C376.441 130.248 376.218 130.338 375.986 130.337H375.99Z" fill="url(#paint47_linear)" stroke="#F8C866" stroke-miterlimit="10"/>
<path d="M371.641 122.938C371.645 123.382 371.517 123.817 371.273 124.188C371.03 124.559 370.681 124.849 370.272 125.022C369.863 125.194 369.412 125.242 368.976 125.157C368.541 125.073 368.14 124.862 367.824 124.549C367.509 124.237 367.294 123.838 367.206 123.402C367.118 122.967 367.161 122.516 367.33 122.106C367.499 121.695 367.786 121.344 368.154 121.097C368.523 120.85 368.957 120.718 369.401 120.718C369.694 120.717 369.984 120.773 370.255 120.884C370.526 120.995 370.773 121.158 370.981 121.364C371.189 121.57 371.354 121.815 371.467 122.085C371.581 122.355 371.64 122.645 371.641 122.938Z" fill="url(#paint48_linear)"/>
<path d="M737.85 365.477L688.789 376.804C688.31 376.908 687.809 376.817 687.397 376.552C686.984 376.287 686.694 375.868 686.59 375.389L679.335 343.962C679.218 343.486 679.296 342.983 679.55 342.564C679.804 342.144 680.214 341.843 680.691 341.727L729.752 330.4C730.231 330.296 730.732 330.387 731.144 330.652C731.557 330.917 731.847 331.335 731.951 331.815L739.206 363.242C739.323 363.718 739.245 364.221 738.991 364.64C738.737 365.059 738.327 365.361 737.85 365.477Z" fill="url(#paint49_linear)"/>
<path d="M680.063 346.177L732.679 334.03L734.478 341.825L681.862 353.972L680.063 346.177Z" fill="url(#paint50_linear)"/>
<path d="M685.175 369.766L686.31 374.684C686.407 375.176 686.695 375.609 687.11 375.888C687.526 376.168 688.035 376.271 688.527 376.176L737.588 364.849C738.072 364.72 738.485 364.403 738.736 363.97C738.986 363.536 739.055 363.021 738.926 362.537L737.791 357.618L685.175 369.766Z" fill="url(#paint51_linear)"/>
<path d="M689.999 358.7L701.692 356L702.142 357.949L690.449 360.648L689.999 358.7Z" fill="url(#paint52_linear)"/>
<path d="M691.999 363.7L703.692 361.001L704.142 362.949L692.449 365.649L691.999 363.7Z" fill="url(#paint53_linear)"/>
<path d="M726.867 359.167C730.634 358.297 732.983 354.539 732.113 350.772C731.244 347.005 727.485 344.656 723.718 345.526C719.951 346.396 717.602 350.154 718.472 353.921C719.342 357.688 723.1 360.037 726.867 359.167Z" fill="url(#paint54_linear)"/>
<path d="M727.851 353.924C727.955 354.158 727.996 354.408 727.975 354.674C727.951 354.936 727.856 355.188 727.69 355.432C727.529 355.673 727.294 355.874 726.986 356.034L727.25 356.626L726.855 356.802L726.592 356.21C726.131 356.368 725.707 356.387 725.321 356.267C724.933 356.143 724.652 355.891 724.478 355.513L725.186 355.198C725.297 355.394 725.452 355.538 725.651 355.63C725.854 355.721 726.087 355.731 726.348 355.662L725.534 353.834C725.171 353.897 724.87 353.929 724.631 353.93C724.392 353.931 724.161 353.871 723.937 353.749C723.713 353.626 723.532 353.409 723.393 353.098C723.218 352.703 723.209 352.316 723.366 351.936C723.529 351.554 723.833 351.247 724.278 351.013L724.008 350.407L724.403 350.231L724.673 350.838C725.102 350.687 725.495 350.673 725.853 350.794C726.208 350.91 726.488 351.145 726.692 351.498L725.983 351.813C725.882 351.654 725.739 351.534 725.551 351.454C725.362 351.369 725.152 351.351 724.923 351.401L725.717 353.184C726.076 353.123 726.374 353.093 726.613 353.091C726.855 353.083 727.085 353.141 727.304 353.266C727.527 353.388 727.71 353.607 727.851 353.924ZM724.057 352.758C724.163 352.997 724.315 353.148 724.513 353.212C724.71 353.276 724.964 353.288 725.274 353.25L724.522 351.562C724.28 351.699 724.114 351.872 724.026 352.08C723.936 352.284 723.946 352.51 724.057 352.758ZM726.745 355.493C726.996 355.347 727.158 355.161 727.232 354.935C727.312 354.707 727.302 354.481 727.202 354.257C727.096 354.018 726.941 353.868 726.739 353.806C726.534 353.74 726.28 353.727 725.978 353.768L726.745 355.493Z" fill="white"/>
<path d="M643.5 155C650.956 155 657 148.956 657 141.5C657 134.044 650.956 128 643.5 128C636.044 128 630 134.044 630 141.5C630 148.956 636.044 155 643.5 155Z" fill="white"/>
<path d="M645.768 155.822C642.936 156.27 640.034 155.868 637.43 154.667C634.826 153.467 632.637 151.521 631.138 149.076C629.64 146.631 628.901 143.796 629.013 140.931C629.126 138.066 630.085 135.298 631.77 132.978C632.869 131.386 634.274 130.03 635.904 128.99C637.534 127.949 639.356 127.246 641.263 126.92C643.169 126.594 645.121 126.653 647.004 127.093C648.887 127.533 650.664 128.345 652.228 129.482C653.793 130.618 655.114 132.057 656.115 133.712C657.115 135.367 657.774 137.205 658.053 139.119C658.333 141.033 658.226 142.983 657.74 144.855C657.255 146.727 656.399 148.482 655.225 150.019C654.111 151.563 652.701 152.872 651.078 153.868C649.455 154.864 647.65 155.528 645.768 155.822ZM640.585 144.923C640.284 144.968 640.012 145.129 639.827 145.372L639.358 145.981C639.26 146.109 639.191 146.257 639.156 146.414C639.121 146.572 639.121 146.735 639.157 146.892C639.192 147.049 639.261 147.197 639.36 147.324C639.459 147.452 639.584 147.556 639.727 147.63C640.753 148.159 641.91 148.381 643.059 148.268L643.178 149.021C643.234 149.322 643.406 149.589 643.658 149.763C643.91 149.938 644.221 150.005 644.522 149.95L645.292 149.828C645.595 149.787 645.87 149.627 646.056 149.384C646.241 149.14 646.323 148.833 646.283 148.529L646.161 147.761C647.193 147.518 648.097 146.898 648.694 146.022C649.291 145.146 649.539 144.077 649.387 143.028C649.213 142.172 648.77 141.393 648.123 140.805C647.477 140.217 646.66 139.85 645.79 139.757L641.653 139.262C641.399 139.236 641.163 139.121 640.986 138.938C640.808 138.755 640.702 138.515 640.684 138.261C640.68 137.978 640.78 137.704 640.966 137.491C641.152 137.278 641.41 137.141 641.69 137.107L644.021 136.738C644.581 136.649 645.154 136.729 645.667 136.969C645.9 137.08 646.16 137.117 646.415 137.077C646.716 137.031 646.988 136.87 647.172 136.627L647.64 136.012C647.738 135.885 647.806 135.738 647.841 135.581C647.876 135.425 647.876 135.263 647.842 135.106C647.807 134.949 647.739 134.802 647.642 134.675C647.545 134.547 647.421 134.443 647.279 134.368C646.249 133.843 645.091 133.624 643.941 133.736L643.821 132.979C643.766 132.678 643.593 132.41 643.341 132.236C643.089 132.062 642.778 131.994 642.477 132.049L641.707 132.171C641.404 132.212 641.129 132.372 640.943 132.616C640.757 132.86 640.676 133.167 640.716 133.471L640.838 134.235C639.805 134.478 638.902 135.098 638.304 135.974C637.707 136.851 637.46 137.919 637.611 138.968C637.786 139.824 638.229 140.603 638.875 141.191C639.522 141.779 640.339 142.145 641.208 142.238L645.348 142.743C645.507 142.761 645.661 142.814 645.797 142.897C645.934 142.98 646.051 143.092 646.14 143.225C646.226 143.351 646.282 143.494 646.306 143.644C646.33 143.794 646.32 143.947 646.278 144.093C646.207 144.304 646.078 144.492 645.906 144.634C645.734 144.776 645.526 144.867 645.304 144.897L642.982 145.264C642.425 145.355 641.853 145.274 641.343 145.032C641.107 144.921 640.843 144.883 640.585 144.923Z" fill="url(#paint55_linear)"/>
<path d="M201.551 276.76C212.187 275.075 219.445 265.086 217.76 254.449C216.075 243.812 206.087 236.555 195.45 238.24C184.813 239.925 177.555 249.913 179.24 260.55C180.925 271.187 190.914 278.444 201.551 276.76Z" fill="white"/>
<path d="M205.028 277.594C200.391 279.099 195.375 278.955 190.832 277.185C186.289 275.415 182.498 272.128 180.101 267.883C177.704 263.637 176.848 258.693 177.68 253.889C178.511 249.085 180.978 244.716 184.663 241.522C188.9 237.852 194.422 236.016 200.013 236.418C205.605 236.819 210.807 239.425 214.477 243.663C218.147 247.9 219.983 253.422 219.582 259.013C219.18 264.605 216.574 269.808 212.337 273.477C210.202 275.328 207.717 276.728 205.028 277.594ZM195.085 263.09C194.662 263.224 194.308 263.518 194.098 263.909L193.561 264.893C193.448 265.099 193.382 265.328 193.368 265.563C193.354 265.797 193.391 266.032 193.478 266.251C193.564 266.469 193.698 266.666 193.869 266.827C194.041 266.988 194.245 267.109 194.469 267.182C196.067 267.709 197.782 267.764 199.411 267.341L199.754 268.397C199.902 268.818 200.212 269.162 200.614 269.355C201.016 269.549 201.478 269.574 201.899 269.427L202.98 269.076C203.407 268.948 203.766 268.655 203.977 268.263C204.189 267.87 204.236 267.409 204.109 266.982L203.76 265.909C205.191 265.325 206.35 264.225 207.01 262.828C207.67 261.431 207.782 259.837 207.325 258.361C206.9 257.177 206.1 256.164 205.047 255.476C203.967 254.771 202.693 254.421 201.404 254.476L195.332 254.693C194.961 254.713 194.595 254.602 194.299 254.379C194.002 254.156 193.795 253.834 193.712 253.473C193.642 253.067 193.725 252.65 193.944 252.302C194.164 251.954 194.504 251.699 194.9 251.587L198.166 250.526C198.951 250.27 199.795 250.255 200.588 250.483C200.948 250.589 201.332 250.584 201.689 250.468C202.112 250.335 202.466 250.041 202.676 249.65L203.21 248.658C203.322 248.453 203.388 248.225 203.402 247.992C203.417 247.759 203.38 247.525 203.295 247.307C203.209 247.09 203.077 246.893 202.908 246.732C202.738 246.571 202.536 246.449 202.314 246.375C200.712 245.851 198.994 245.797 197.362 246.219L197.019 245.163C196.871 244.742 196.562 244.398 196.16 244.204C195.758 244.011 195.296 243.985 194.875 244.132L193.794 244.483C193.366 244.612 193.008 244.905 192.796 245.297C192.584 245.69 192.536 246.151 192.664 246.578L193.012 247.652C191.582 248.236 190.423 249.335 189.763 250.732C189.103 252.129 188.991 253.723 189.448 255.199C189.873 256.383 190.673 257.396 191.726 258.084C192.807 258.789 194.081 259.138 195.37 259.084L201.443 258.867C201.676 258.856 201.908 258.896 202.124 258.984C202.34 259.073 202.534 259.207 202.693 259.377C202.843 259.539 202.956 259.732 203.024 259.943C203.091 260.154 203.111 260.377 203.082 260.596C203.029 260.916 202.886 261.216 202.671 261.459C202.456 261.703 202.176 261.882 201.865 261.974L198.607 263.033C197.825 263.291 196.983 263.305 196.193 263.073C195.831 262.968 195.445 262.974 195.085 263.09Z" fill="url(#paint56_linear)"/>
<defs>
<linearGradient id="paint0_linear" x1="238.64" y1="91.9" x2="449.551" y2="452.036" gradientUnits="userSpaceOnUse">
<stop stop-color="#FFE1A1"/>
<stop offset="1" stop-color="#FEDC93"/>
</linearGradient>
<linearGradient id="paint1_linear" x1="406.304" y1="288.373" x2="512.236" y2="169.094" gradientUnits="userSpaceOnUse">
<stop stop-color="#59A696"/>
<stop offset="1" stop-color="#39B993"/>
</linearGradient>
<linearGradient id="paint2_linear" x1="470.78" y1="208.585" x2="300.154" y2="365.915" gradientUnits="userSpaceOnUse">
<stop stop-color="#6BDEC5"/>
<stop offset="1" stop-color="#39B993"/>
</linearGradient>
<linearGradient id="paint3_linear" x1="569.147" y1="109.387" x2="357.957" y2="284.719" gradientUnits="userSpaceOnUse">
<stop stop-color="#6BDEC5"/>
<stop offset="1" stop-color="#39B993"/>
</linearGradient>
<linearGradient id="paint4_linear" x1="576.243" y1="166.503" x2="529.663" y2="177.833" gradientUnits="userSpaceOnUse">
<stop stop-color="#6BDEC5"/>
<stop offset="0.62" stop-color="#6ADDC4"/>
<stop offset="1" stop-color="#39B993"/>
</linearGradient>
<linearGradient id="paint5_linear" x1="514.988" y1="130.053" x2="514.988" y2="168.014" gradientUnits="userSpaceOnUse">
<stop stop-color="#FFB584"/>
<stop offset="1" stop-color="#FFB686"/>
</linearGradient>
<linearGradient id="paint6_linear" x1="500.358" y1="137.296" x2="531.887" y2="146.192" gradientUnits="userSpaceOnUse">
<stop stop-color="#DC934B"/>
<stop offset="1" stop-color="#DB843C"/>
</linearGradient>
<linearGradient id="paint7_linear" x1="523.433" y1="43.1899" x2="523.433" y2="136.843" gradientUnits="userSpaceOnUse">
<stop stop-color="#FFBB8D"/>
<stop offset="1" stop-color="#FFBA8C"/>
</linearGradient>
<linearGradient id="paint8_linear" x1="534.292" y1="0.415039" x2="534.292" y2="93.944" gradientUnits="userSpaceOnUse">
<stop stop-color="#0A717A"/>
<stop offset="1" stop-color="#00545B"/>
</linearGradient>
<linearGradient id="paint9_linear" x1="541.077" y1="58.5214" x2="541.077" y2="74.0427" gradientUnits="userSpaceOnUse">
<stop stop-color="#033B40"/>
<stop offset="1" stop-color="#00545B"/>
</linearGradient>
<linearGradient id="paint10_linear" x1="507.451" y1="47.9834" x2="507.451" y2="56.9627" gradientUnits="userSpaceOnUse">
<stop stop-color="#033B40"/>
<stop offset="1" stop-color="#00545B"/>
</linearGradient>
<linearGradient id="paint11_linear" x1="525.445" y1="66.747" x2="507.847" y2="90.6612" gradientUnits="userSpaceOnUse">
<stop stop-color="#E08E58" stop-opacity="0.322"/>
<stop offset="1" stop-color="#E0925E"/>
</linearGradient>
<linearGradient id="paint12_linear" x1="553.732" y1="87.012" x2="573.586" y2="109.916" gradientUnits="userSpaceOnUse">
<stop stop-color="#FFC198"/>
<stop offset="1" stop-color="#FFB380"/>
</linearGradient>
<linearGradient id="paint13_linear" x1="427.299" y1="261.797" x2="464.399" y2="349.35" gradientUnits="userSpaceOnUse">
<stop stop-color="#FFC198"/>
<stop offset="1" stop-color="#FFB380"/>
</linearGradient>
<linearGradient id="paint14_linear" x1="443.086" y1="289.185" x2="465.536" y2="353.576" gradientUnits="userSpaceOnUse">
<stop stop-color="#FFC198"/>
<stop offset="1" stop-color="#FFA162"/>
</linearGradient>
<linearGradient id="paint15_linear" x1="519.172" y1="307.071" x2="617.152" y2="262.518" gradientUnits="userSpaceOnUse">
<stop stop-color="#59A696"/>
<stop offset="1" stop-color="#39B993"/>
</linearGradient>
<linearGradient id="paint16_linear" x1="634.597" y1="153.926" x2="542.898" y2="160.88" gradientUnits="userSpaceOnUse">
<stop stop-color="#6BDEC5"/>
<stop offset="1" stop-color="#39B993"/>
</linearGradient>
<linearGradient id="paint17_linear" x1="336.313" y1="285.46" x2="360.126" y2="315.422" gradientUnits="userSpaceOnUse">
<stop stop-color="#FFC198"/>
<stop offset="1" stop-color="#FFB380"/>
</linearGradient>
<linearGradient id="paint18_linear" x1="431.329" y1="48.5448" x2="414.195" y2="257.449" gradientUnits="userSpaceOnUse">
<stop stop-color="#F87777"/>
<stop offset="1" stop-color="#EE4242"/>
</linearGradient>
<linearGradient id="paint19_linear" x1="449.358" y1="346.622" x2="401.404" y2="207.399" gradientUnits="userSpaceOnUse">
<stop stop-color="#FFA981"/>
<stop offset="0.428" stop-color="#FF8666"/>
<stop offset="1" stop-color="#FF5C45"/>
</linearGradient>
<linearGradient id="paint20_linear" x1="338.447" y1="291.037" x2="361.54" y2="324.536" gradientUnits="userSpaceOnUse">
<stop stop-color="#FFC198"/>
<stop offset="1" stop-color="#FFB380"/>
</linearGradient>
<linearGradient id="paint21_linear" x1="253" y1="48.965" x2="314.456" y2="142.991" gradientUnits="userSpaceOnUse">
<stop stop-color="#F87777"/>
<stop offset="1" stop-color="#EE4242"/>
</linearGradient>
<linearGradient id="paint22_linear" x1="240.586" y1="43.4633" x2="329.96" y2="155.355" gradientUnits="userSpaceOnUse">
<stop stop-color="#FFA162"/>
<stop offset="0.323" stop-color="#EF9B63"/>
<stop offset="0.636" stop-color="#F0A675"/>
<stop offset="1" stop-color="#FFC198"/>
</linearGradient>
<linearGradient id="paint23_linear" x1="274.969" y1="53.9105" x2="274.969" y2="70.361" gradientUnits="userSpaceOnUse">
<stop stop-color="#F4F6FA"/>
<stop offset="1" stop-color="white"/>
</linearGradient>
<linearGradient id="paint24_linear" x1="270.016" y1="79.3332" x2="270.016" y2="95.7" gradientUnits="userSpaceOnUse">
<stop stop-color="#F4F6FA"/>
<stop offset="1" stop-color="white"/>
</linearGradient>
<linearGradient id="paint25_linear" x1="264.215" y1="105.606" x2="264.215" y2="121.973" gradientUnits="userSpaceOnUse">
<stop stop-color="#F4F6FA"/>
<stop offset="1" stop-color="white"/>
</linearGradient>
<linearGradient id="paint26_linear" x1="300.478" y1="54.8813" x2="300.478" y2="70.4471" gradientUnits="userSpaceOnUse">
<stop stop-color="#F4F6FA"/>
<stop offset="1" stop-color="white"/>
</linearGradient>
<linearGradient id="paint27_linear" x1="284.558" y1="78.605" x2="296.563" y2="96.8594" gradientUnits="userSpaceOnUse">
<stop stop-color="#F87777"/>
<stop offset="1" stop-color="#EE4242"/>
</linearGradient>
<linearGradient id="paint28_linear" x1="291.266" y1="106.43" x2="291.266" y2="121.881" gradientUnits="userSpaceOnUse">
<stop stop-color="#F4F6FA"/>
<stop offset="1" stop-color="white"/>
</linearGradient>
<linearGradient id="paint29_linear" x1="325.132" y1="54.9956" x2="325.132" y2="70.447" gradientUnits="userSpaceOnUse">
<stop stop-color="#F4F6FA"/>
<stop offset="1" stop-color="white"/>
</linearGradient>
<linearGradient id="paint30_linear" x1="320.232" y1="80.4436" x2="320.232" y2="95.895" gradientUnits="userSpaceOnUse">
<stop stop-color="#F4F6FA"/>
<stop offset="1" stop-color="white"/>
</linearGradient>
<linearGradient id="paint31_linear" x1="314.431" y1="106.717" x2="314.431" y2="122.168" gradientUnits="userSpaceOnUse">
<stop stop-color="#F4F6FA"/>
<stop offset="1" stop-color="white"/>
</linearGradient>
<linearGradient id="paint32_linear" x1="271.606" y1="35.2061" x2="277.068" y2="39.2317" gradientUnits="userSpaceOnUse">
<stop stop-color="#F8F6FB"/>
<stop offset="1" stop-color="#EFDCFB"/>
</linearGradient>
<linearGradient id="paint33_linear" x1="295.963" y1="35.5201" x2="301.425" y2="39.5458" gradientUnits="userSpaceOnUse">
<stop stop-color="#F8F6FB"/>
<stop offset="1" stop-color="#EFDCFB"/>
</linearGradient>
<linearGradient id="paint34_linear" x1="321.109" y1="35.3381" x2="326.571" y2="39.3638" gradientUnits="userSpaceOnUse">
<stop stop-color="#F8F6FB"/>
<stop offset="1" stop-color="#EFDCFB"/>
</linearGradient>
<linearGradient id="paint35_linear" x1="345.696" y1="35.3" x2="351.158" y2="39.3257" gradientUnits="userSpaceOnUse">
<stop stop-color="#F8F6FB"/>
<stop offset="1" stop-color="#EFDCFB"/>
</linearGradient>
<linearGradient id="paint36_linear" x1="288.989" y1="25.5484" x2="255.383" y2="36.3389" gradientUnits="userSpaceOnUse">
<stop stop-color="#FFA981"/>
<stop offset="0.428" stop-color="#FF8666"/>
<stop offset="1" stop-color="#FF5C45"/>
</linearGradient>
<linearGradient id="paint37_linear" x1="314.069" y1="25.9043" x2="280.464" y2="36.695" gradientUnits="userSpaceOnUse">
<stop stop-color="#FFA981"/>
<stop offset="0.428" stop-color="#FF8666"/>
<stop offset="1" stop-color="#FF5C45"/>
</linearGradient>
<linearGradient id="paint38_linear" x1="338.81" y1="25.7554" x2="305.203" y2="36.5453" gradientUnits="userSpaceOnUse">
<stop stop-color="#FFA981"/>
<stop offset="0.428" stop-color="#FF8666"/>
<stop offset="1" stop-color="#FF5C45"/>
</linearGradient>
<linearGradient id="paint39_linear" x1="363.345" y1="25.5805" x2="329.738" y2="36.3704" gradientUnits="userSpaceOnUse">
<stop stop-color="#FFA981"/>
<stop offset="0.428" stop-color="#FF8666"/>
<stop offset="1" stop-color="#FF5C45"/>
</linearGradient>
<linearGradient id="paint40_linear" x1="337" y1="113.985" x2="394.655" y2="147.98" gradientUnits="userSpaceOnUse">
<stop stop-color="#F87777"/>
<stop offset="1" stop-color="#EE4242"/>
</linearGradient>
<linearGradient id="paint41_linear" x1="370" y1="108.528" x2="370" y2="150" gradientUnits="userSpaceOnUse">
<stop stop-color="#F4F6FA"/>
<stop offset="1" stop-color="white"/>
</linearGradient>
<linearGradient id="paint42_linear" x1="373.232" y1="100.829" x2="366.513" y2="102.006" gradientUnits="userSpaceOnUse">
<stop stop-color="#FFA981"/>
<stop offset="0.428" stop-color="#FF8666"/>
<stop offset="1" stop-color="#FF5C45"/>
</linearGradient>
<linearGradient id="paint43_linear" x1="373.232" y1="140.786" x2="366.513" y2="141.963" gradientUnits="userSpaceOnUse">
<stop stop-color="#FFA981"/>
<stop offset="0.428" stop-color="#FF8666"/>
<stop offset="1" stop-color="#FF5C45"/>
</linearGradient>
<linearGradient id="paint44_linear" x1="396.469" y1="121.871" x2="387.175" y2="128.366" gradientUnits="userSpaceOnUse">
<stop stop-color="#FFA981"/>
<stop offset="0.428" stop-color="#FF8666"/>
<stop offset="1" stop-color="#FF5C45"/>
</linearGradient>
<linearGradient id="paint45_linear" x1="357.64" y1="121.871" x2="348.346" y2="128.366" gradientUnits="userSpaceOnUse">
<stop stop-color="#FFA981"/>
<stop offset="0.428" stop-color="#FF8666"/>
<stop offset="1" stop-color="#FF5C45"/>
</linearGradient>
<linearGradient id="paint46_linear" x1="379.404" y1="124.048" x2="338.415" y2="123.997" gradientUnits="userSpaceOnUse">
<stop stop-color="#A1B5D8" stop-opacity="0"/>
<stop offset="0.034" stop-color="#9FB3D5" stop-opacity="0.035"/>
<stop offset="0.451" stop-color="#8898AF" stop-opacity="0.451"/>
<stop offset="0.788" stop-color="#798898" stop-opacity="0.788"/>
<stop offset="1" stop-color="#748290"/>
</linearGradient>
<linearGradient id="paint47_linear" x1="368.646" y1="109.991" x2="381.116" y2="114.78" gradientUnits="userSpaceOnUse">
<stop stop-color="#FFD77A"/>
<stop offset="1" stop-color="#FFDA5E"/>
</linearGradient>
<linearGradient id="paint48_linear" x1="375.14" y1="121.345" x2="365.88" y2="124.557" gradientUnits="userSpaceOnUse">
<stop stop-color="#FFA981"/>
<stop offset="0.428" stop-color="#FF8666"/>
<stop offset="1" stop-color="#FF5C45"/>
</linearGradient>
<linearGradient id="paint49_linear" x1="731.529" y1="329.99" x2="710.363" y2="386.034" gradientUnits="userSpaceOnUse">
<stop stop-color="#FFA981"/>
<stop offset="0.428" stop-color="#FF8666"/>
<stop offset="1" stop-color="#FF5C45"/>
</linearGradient>
<linearGradient id="paint50_linear" x1="706.788" y1="341.912" x2="708.17" y2="347.898" gradientUnits="userSpaceOnUse">
<stop stop-color="#F4F6FA"/>
<stop offset="1" stop-color="white"/>
</linearGradient>
<linearGradient id="paint51_linear" x1="749.158" y1="352.595" x2="751.017" y2="369.099" gradientUnits="userSpaceOnUse">
<stop stop-color="#FFA981"/>
<stop offset="0.428" stop-color="#FF8666"/>
<stop offset="1" stop-color="#FF5C45"/>
</linearGradient>
<linearGradient id="paint52_linear" x1="695.95" y1="357.802" x2="696.295" y2="359.299" gradientUnits="userSpaceOnUse">
<stop stop-color="#F4F6FA"/>
<stop offset="1" stop-color="white"/>
</linearGradient>
<linearGradient id="paint53_linear" x1="697.95" y1="362.802" x2="698.296" y2="364.299" gradientUnits="userSpaceOnUse">
<stop stop-color="#F4F6FA"/>
<stop offset="1" stop-color="white"/>
</linearGradient>
<linearGradient id="paint54_linear" x1="716.164" y1="360.043" x2="723.822" y2="345.976" gradientUnits="userSpaceOnUse">
<stop stop-color="#39B993"/>
<stop offset="1" stop-color="#56CEB0"/>
</linearGradient>
<linearGradient id="paint55_linear" x1="625.515" y1="129.413" x2="657.415" y2="150.565" gradientUnits="userSpaceOnUse">
<stop stop-color="#6BDEC5"/>
<stop offset="1" stop-color="#39B993"/>
</linearGradient>
<linearGradient id="paint56_linear" x1="169.986" y1="244.54" x2="220.293" y2="267.523" gradientUnits="userSpaceOnUse">
<stop stop-color="#6BDEC5"/>
<stop offset="1" stop-color="#39B993"/>
</linearGradient>
</defs>
</svg>
