<svg width="510" height="510" viewBox="0 0 510 510" fill="none" xmlns="http://www.w3.org/2000/svg">
<path d="M456.392 446.898L433.335 422.824C430.283 419.772 428.927 415.703 428.927 411.635V198.019H254.644H80.699V411.296C80.699 415.365 79.004 419.434 76.291 422.485L53.234 446.559C48.826 451.306 46.792 457.748 49.165 463.852C51.878 471.312 59.337 475.72 67.136 474.702L113.589 467.921C113.589 467.921 118.675 467.921 127.152 467.921C159.364 476.398 204.8 481.823 254.982 481.823C305.164 481.823 350.601 476.398 382.812 467.921C391.289 467.921 396.375 467.921 396.375 467.921L442.828 474.702C450.288 475.719 458.086 471.311 460.799 463.852C462.495 458.087 460.8 451.306 456.392 446.898Z" fill="#F7CFA2"/>
<path d="M437.404 198.019H71.883C62.05 198.019 54.251 190.22 54.251 180.387C54.251 170.554 62.05 162.755 71.883 162.755H437.064C446.897 162.755 454.696 170.554 454.696 180.387C454.697 190.22 446.898 198.019 437.404 198.019Z" fill="#F0BA7A"/>
<path d="M99.348 223.11V412.652C99.348 412.652 54.59 454.358 68.153 459.105C81.716 463.852 113.928 445.542 134.272 450.289C154.616 455.036 262.442 480.127 342.124 459.783C342.124 459.783 155.634 474.363 131.56 418.077C107.147 362.13 99.348 223.11 99.348 223.11Z" fill="#F0BA7A"/>
<path d="M415.364 163.094L273.632 21.362C263.121 10.851 246.167 10.851 235.656 21.362L93.923 163.094H415.364Z" fill="white"/>
</svg>
