<svg width="91" height="91" viewBox="0 0 91 91" fill="none" xmlns="http://www.w3.org/2000/svg">
<path d="M52.7239 27.1199C54.6457 33.5085 57.9476 63.2458 51.5086 65.0047C45.0696 66.7636 31.3366 39.869 29.4162 33.4777C28.9541 31.9731 28.8002 30.3907 28.9637 28.8253C29.1273 27.2598 29.6048 25.7434 30.3679 24.3667C31.1309 22.9901 32.1638 21.7815 33.4047 20.8132C34.6456 19.8449 36.0691 19.1369 37.5899 18.7314C40.7078 17.8984 44.0271 18.3072 46.8497 19.8717C49.6723 21.4362 51.778 24.0345 52.7239 27.1199Z" fill="url(#paint0_linear)"/>
<path d="M51.9417 31.901C51.8946 31.9865 51.8309 32.0618 51.7545 32.1225C51.678 32.1832 51.5903 32.2281 51.4964 32.2547L44.1345 34.3496C43.9444 34.4034 43.7408 34.3798 43.568 34.284C43.3952 34.1883 43.2674 34.0281 43.2122 33.8384C43.185 33.7447 43.1766 33.6464 43.1875 33.5494C43.1984 33.4524 43.2283 33.3585 43.2757 33.2731C43.323 33.1877 43.3868 33.1125 43.4633 33.0518C43.5398 32.9912 43.6275 32.9463 43.7215 32.9197L51.0838 30.8239C51.2739 30.7701 51.4775 30.7937 51.6503 30.8894C51.8231 30.9852 51.951 31.1454 52.0061 31.335C52.0334 31.4289 52.0417 31.5273 52.0307 31.6245C52.0196 31.7217 51.9894 31.8157 51.9417 31.901Z" fill="#FF5D00"/>
<path d="M52.7194 37.3821C52.6723 37.4676 52.6086 37.5428 52.5322 37.6035C52.4557 37.6642 52.368 37.7092 52.2741 37.7358L45.3945 39.6931C45.2044 39.7469 45.0008 39.7233 44.828 39.6276C44.6553 39.5318 44.5274 39.3716 44.4722 39.1819C44.445 39.0882 44.4366 38.9899 44.4475 38.8929C44.4584 38.7959 44.4883 38.702 44.5357 38.6166C44.583 38.5312 44.6468 38.456 44.7233 38.3954C44.7998 38.3347 44.8875 38.2898 44.9815 38.2632L51.8611 36.3058C52.0511 36.2521 52.2547 36.2756 52.4275 36.3714C52.6003 36.4671 52.7282 36.6273 52.7833 36.817C52.8105 36.9107 52.8189 37.009 52.808 37.106C52.797 37.203 52.7669 37.2968 52.7194 37.3821Z" fill="#FF5D00"/>
<path d="M53.246 42.9345C53.1989 43.0199 53.1352 43.0952 53.0588 43.1559C52.9823 43.2166 52.8946 43.2616 52.8007 43.2881L46.5648 45.0624C46.3747 45.1161 46.1711 45.0926 45.9983 44.9968C45.8255 44.9011 45.6977 44.7409 45.6425 44.5512C45.6153 44.4574 45.6069 44.3592 45.6178 44.2622C45.6287 44.1652 45.6586 44.0712 45.706 43.9859C45.7533 43.9005 45.8171 43.8253 45.8936 43.7646C45.9701 43.704 46.0578 43.659 46.1518 43.6324L52.3877 41.8582C52.5777 41.8044 52.7814 41.828 52.9541 41.9238C53.1269 42.0195 53.2548 42.1797 53.3099 42.3694C53.3371 42.4631 53.3455 42.5613 53.3345 42.6583C53.3235 42.7553 53.2935 42.8492 53.246 42.9345Z" fill="#FF5D00"/>
<path d="M53.5437 48.5533C53.4965 48.6387 53.4329 48.714 53.3564 48.7747C53.28 48.8354 53.1923 48.8803 53.0983 48.9069L47.6548 50.4547C47.4648 50.5084 47.2611 50.4848 47.0884 50.3891C46.9156 50.2933 46.7877 50.1331 46.7326 49.9435C46.7053 49.8497 46.6969 49.7515 46.7078 49.6545C46.7187 49.5574 46.7487 49.4635 46.796 49.3781C46.8434 49.2927 46.9071 49.2175 46.9836 49.1569C47.0601 49.0962 47.1479 49.0513 47.2418 49.0247L52.6831 47.4769C52.8732 47.4231 53.0768 47.4467 53.2496 47.5424C53.4223 47.6382 53.5502 47.7984 53.6053 47.9881C53.6329 48.0817 53.6417 48.1798 53.6311 48.2768C53.6205 48.3738 53.5908 48.4678 53.5437 48.5533Z" fill="#FF5D00"/>
<path d="M53.5432 54.2538C53.496 54.3393 53.4324 54.4145 53.3559 54.4753C53.2795 54.536 53.1918 54.5809 53.0978 54.6075L48.6384 55.876C48.4483 55.9297 48.2447 55.9062 48.0719 55.8104C47.8992 55.7147 47.7713 55.5545 47.7161 55.3648C47.6889 55.271 47.6805 55.1728 47.6914 55.0758C47.7023 54.9788 47.7322 54.8848 47.7796 54.7994C47.8269 54.7141 47.8907 54.6389 47.9672 54.5782C48.0437 54.5176 48.1314 54.4726 48.2254 54.446L52.6822 53.1761C52.8723 53.1223 53.0759 53.1459 53.2487 53.2416C53.4214 53.3374 53.5493 53.4976 53.6044 53.6873C53.6322 53.7811 53.6411 53.8794 53.6306 53.9767C53.6201 54.0739 53.5904 54.1681 53.5432 54.2538Z" fill="#FF5D00"/>
<path d="M53.0395 60.0987C52.9924 60.1841 52.9287 60.2594 52.8523 60.3201C52.7758 60.3808 52.6881 60.4257 52.5942 60.4523L49.4452 61.348C49.2551 61.4017 49.0515 61.3782 48.8787 61.2824C48.7059 61.1866 48.5781 61.0265 48.5229 60.8368C48.4957 60.743 48.4873 60.6448 48.4982 60.5478C48.5091 60.4507 48.539 60.3568 48.5864 60.2714C48.6337 60.186 48.6975 60.1109 48.774 60.0502C48.8505 59.9895 48.9382 59.9446 49.0322 59.918L52.1803 59.0219C52.3704 58.9681 52.574 58.9917 52.7467 59.0874C52.9195 59.1832 53.0474 59.3434 53.1025 59.5331C53.13 59.6268 53.1385 59.7251 53.1277 59.8222C53.1169 59.9193 53.0869 60.0132 53.0395 60.0987Z" fill="#FF5D00"/>
<path d="M35.1184 35.6958C35.4401 35.1154 35.2284 34.383 34.6456 34.06C34.0628 33.737 33.3296 33.9456 33.0079 34.526C32.6862 35.1064 32.8979 35.8387 33.4807 36.1618C34.0635 36.4848 34.7967 36.2762 35.1184 35.6958Z" fill="#FF5D00"/>
<path d="M36.7488 34.788C36.9097 34.4977 36.804 34.1315 36.5128 33.97C36.2215 33.8086 35.8549 33.913 35.694 34.2034C35.5331 34.4937 35.6388 34.8599 35.93 35.0213C36.2213 35.1828 36.5879 35.0783 36.7488 34.788Z" fill="#FF5D00"/>
<path d="M38.9604 44.9483C39.1213 44.658 39.0156 44.2918 38.7243 44.1303C38.433 43.9689 38.0665 44.0733 37.9056 44.3636C37.7446 44.6539 37.8503 45.0202 38.1416 45.1816C38.4329 45.3431 38.7994 45.2386 38.9604 44.9483Z" fill="#FF5D00"/>
<path d="M43.1778 45.4867C43.3387 45.1964 43.233 44.8302 42.9417 44.6687C42.6505 44.5073 42.2839 44.6117 42.123 44.902C41.9621 45.1923 42.0677 45.5586 42.359 45.72C42.6503 45.8815 43.0169 45.777 43.1778 45.4867Z" fill="#FF5D00"/>
<path d="M41.3305 42.6636C41.4915 42.3733 41.3858 42.007 41.0945 41.8456C40.8032 41.6841 40.4367 41.7886 40.2757 42.0789C40.1148 42.3692 40.2205 42.7354 40.5118 42.8969C40.8031 43.0583 41.1696 42.9539 41.3305 42.6636Z" fill="#FF5D00"/>
<path d="M36.6916 19.4607C34.7406 20.0888 32.9682 21.1744 31.5223 22.6269L52.5223 34.2669C52.3248 32.0512 51.988 29.8501 51.5141 27.6766C51.1423 26.1268 50.4522 24.6712 49.4875 23.4024C48.5229 22.1336 47.3049 21.0794 45.9109 20.3067C44.5169 19.5341 42.9773 19.0598 41.3902 18.9142C39.803 18.7685 38.2029 18.9547 36.6916 19.4607Z" fill="url(#paint1_linear)"/>
<path d="M35.9909 17.877C35.2407 16.8355 34.235 16.0048 33.0705 15.4649C31.906 14.9251 30.6221 14.6943 29.3425 14.7948C28.1682 14.9006 27.0438 15.3199 26.0869 16.0088C22.0655 18.8744 25.2802 23.366 28.885 21.7987C32.4897 20.2315 39.1857 22.2661 39.1857 22.2661L35.9909 17.877Z" fill="url(#paint2_linear)"/>
<path d="M39.8686 19.053C39.9831 18.0649 40.408 17.1384 41.0822 16.407C41.7565 15.6756 42.6453 15.1768 43.621 14.9825C44.4938 14.8032 45.3967 14.8333 46.2557 15.0703C50.213 16.1131 49.5511 20.1385 46.3759 19.9239C43.2006 19.7092 39.4501 22.5465 39.4501 22.5465L39.8686 19.053Z" fill="url(#paint3_linear)"/>
<path d="M38.5084 9.12328C39.3549 11.4901 41.1978 22.7054 38.8422 23.6039C36.4866 24.5024 30.8234 14.7417 29.9764 12.3758C29.5735 11.2286 29.6335 9.96952 30.1438 8.86589C30.6541 7.76225 31.5744 6.90096 32.7094 6.4649C33.264 6.24964 33.8561 6.14785 34.4507 6.16557C35.0452 6.18328 35.6302 6.32013 36.171 6.56802C36.7117 6.81591 37.1972 7.16979 37.5987 7.60871C38.0002 8.04762 38.3095 8.56265 38.5084 9.12328Z" fill="url(#paint4_linear)"/>
<path d="M39.2812 14.2997C39.2812 14.2997 37.8817 7.83341 42.5893 6.73218C47.2968 5.63095 50.2581 11.3844 46.9164 13.9176C43.5747 16.4507 41.2671 22.8571 41.2671 22.8571L39.2812 14.2997Z" fill="url(#paint5_linear)"/>
<path d="M19.792 48C19.7936 47.4657 19.9538 46.9439 20.2521 46.5006C20.5505 46.0574 20.9736 45.7126 21.468 45.51L24.708 44.168C24.8897 44.0936 25.0452 43.9669 25.1549 43.804C25.2646 43.6411 25.3234 43.4494 25.324 43.253H25.3C23.7119 43.2543 22.1625 42.7627 20.8657 41.8459C19.5689 40.9292 18.5886 39.6326 18.06 38.135C18.0104 37.9891 17.9918 37.8344 18.0053 37.6809C18.0188 37.5273 18.0642 37.3783 18.1385 37.2432C18.2128 37.1082 18.3145 36.9902 18.437 36.8966C18.5595 36.8031 18.7002 36.7361 18.85 36.7C19.1269 36.6338 19.4185 36.673 19.668 36.8099C19.9176 36.9469 20.1072 37.1719 20.2 37.441C20.5776 38.4968 21.2738 39.4093 22.1924 40.0524C23.111 40.6955 24.2067 41.0375 25.328 41.031V38.289C25.332 37.7118 25.4515 37.1413 25.6796 36.6111C25.9076 36.0809 26.2396 35.6018 26.6559 35.202C27.0722 34.8022 27.5643 34.4899 28.1033 34.2834C28.6423 34.077 29.2172 33.9806 29.794 34C30.926 34.0428 31.9972 34.5233 32.7818 35.3404C33.5664 36.1574 34.0031 37.2472 34 38.38V38.47C33.9947 39.5248 33.6026 40.5411 32.898 41.3261C32.1933 42.1111 31.2252 42.6103 30.177 42.729L27.571 43.037V43.253C27.5717 43.4493 27.6306 43.641 27.7403 43.8039C27.8499 43.9668 28.0054 44.0935 28.187 44.168L31.428 45.51C31.9216 45.7133 32.344 46.0583 32.6416 46.5015C32.9392 46.9447 33.0987 47.4662 33.1 48H19.792Z" fill="url(#paint6_linear)"/>
<path d="M9.91002 81.862C15.3224 81.862 19.71 74.6475 19.71 65.748C19.71 56.8485 15.3224 49.634 9.91002 49.634C4.49763 49.634 0.110016 56.8485 0.110016 65.748C0.110016 74.6475 4.49763 81.862 9.91002 81.862Z" fill="url(#paint7_linear)"/>
<path d="M43.14 81.862C48.5524 81.862 52.94 74.6475 52.94 65.748C52.94 56.8485 48.5524 49.634 43.14 49.634C37.7276 49.634 33.34 56.8485 33.34 65.748C33.34 74.6475 37.7276 81.862 43.14 81.862Z" fill="url(#paint8_linear)"/>
<path d="M42.368 49.684C37.317 50.331 33.34 57.276 33.34 65.749C33.34 74.649 37.728 81.863 43.14 81.863C48.552 81.863 52.94 74.648 52.94 65.749C52.9476 63.5408 52.6645 61.3412 52.098 59.207L42.368 49.684Z" fill="url(#paint9_radial)"/>
<path d="M17.038 83.289C23.502 83.289 28.742 75.1115 28.742 65.024C28.742 54.9365 23.502 46.759 17.038 46.759C10.5741 46.759 5.33401 54.9365 5.33401 65.024C5.33401 75.1115 10.5741 83.289 17.038 83.289Z" fill="url(#paint10_linear)"/>
<path d="M36.013 83.289C42.477 83.289 47.717 75.1115 47.717 65.024C47.717 54.9365 42.477 46.759 36.013 46.759C29.5491 46.759 24.309 54.9365 24.309 65.024C24.309 75.1115 29.5491 83.289 36.013 83.289Z" fill="url(#paint11_linear)"/>
<path d="M32.931 47.4C27.963 49.511 24.309 56.6 24.309 65.024C24.309 75.111 29.549 83.289 36.009 83.289C42.469 83.289 47.709 75.111 47.709 65.024C47.7083 63.9057 47.6415 62.7884 47.509 61.678L32.931 47.4Z" fill="url(#paint12_radial)"/>
<path d="M39.53 63.865C39.53 75.073 33.708 84.16 26.53 84.16C19.352 84.16 13.521 75.073 13.521 63.865C13.521 52.657 19.343 45.165 26.521 45.165C33.699 45.165 39.53 52.656 39.53 63.865Z" fill="url(#paint13_linear)"/>
<g opacity="0.37">
<path opacity="0.37" d="M22.687 73.144C23.9407 73.144 24.957 72.1491 24.957 70.922C24.957 69.6948 23.9407 68.7 22.687 68.7C21.4333 68.7 20.417 69.6948 20.417 70.922C20.417 72.1491 21.4333 73.144 22.687 73.144Z" fill="url(#paint14_linear)"/>
<path opacity="0.37" d="M23.305 78.5669C24.002 78.5669 24.567 78.014 24.567 77.3319C24.567 76.6499 24.002 76.0969 23.305 76.0969C22.608 76.0969 22.043 76.6499 22.043 77.3319C22.043 78.014 22.608 78.5669 23.305 78.5669Z" fill="url(#paint15_linear)"/>
<path opacity="0.37" d="M20.338 76.4009C21.2802 76.4009 22.044 75.6537 22.044 74.7319C22.044 73.8102 21.2802 73.0629 20.338 73.0629C19.3958 73.0629 18.632 73.8102 18.632 74.7319C18.632 75.6537 19.3958 76.4009 20.338 76.4009Z" fill="url(#paint16_linear)"/>
</g>
<path d="M31.376 46.394C30.2917 45.813 29.0807 45.509 27.8505 45.509C26.6204 45.509 25.4093 45.813 24.325 46.394C19.545 48.953 16.171 55.331 16.171 63.864C16.171 74.374 21.291 83.019 27.851 84.055C34.411 83.019 39.531 74.375 39.531 63.864C39.53 55.331 36.156 48.953 31.376 46.394Z" fill="url(#paint17_linear)"/>
<path d="M32.229 47C34.729 50.333 36.289 55.154 36.289 60.957C36.289 72.339 30.305 81.565 22.923 81.565C21.1797 81.5511 19.4749 81.0514 18 80.122C20.329 83.164 23.342 85 26.634 85C34.016 85 40 75.773 40 64.392C40 56.09 36.817 49.8 32.229 47Z" fill="url(#paint18_linear)"/>
<path d="M31.9 39C31.8854 39.4592 31.7017 39.8969 31.3843 40.229C31.0669 40.5612 30.6381 40.7645 30.18 40.8L28 41.04V43L30.432 42.73C31.3816 42.6566 32.2708 42.2355 32.9292 41.5472C33.5876 40.8589 33.9688 39.9519 34 39H31.9Z" fill="url(#paint19_linear)"/>
<path d="M20.1 37.822C20.0302 37.5489 19.8565 37.3138 19.6159 37.1668C19.3753 37.0198 19.0869 36.9726 18.812 37.035C18.662 37.0853 18.5235 37.1647 18.4043 37.2688C18.2851 37.3728 18.1877 37.4994 18.1176 37.6412C18.0476 37.783 18.0062 37.9373 17.996 38.0952C17.9858 38.253 18.0068 38.4113 18.058 38.561C18.4806 40.0865 19.3797 41.4371 20.624 42.4155C21.8684 43.394 23.3929 43.9492 24.975 44H25V41.638C23.8828 41.6085 22.8044 41.2222 21.9227 40.5355C21.041 39.8489 20.4022 38.8979 20.1 37.822Z" fill="url(#paint20_linear)"/>
<path d="M84.448 60.713C83.7735 60.5578 83.1364 60.2706 82.5734 59.8679C82.0105 59.4653 81.5328 58.9552 81.168 58.367L79.408 55.542L71.208 60.617L70.184 58.976L78.384 53.901L75.114 47.433L75.884 46.933L80.032 52.881L82.932 51.081C83.5185 50.7155 84.1712 50.4691 84.8529 50.3559C85.5346 50.2427 86.2319 50.2649 86.9051 50.4212C87.5782 50.5774 88.214 50.8648 88.7761 51.2668C89.3381 51.6687 89.8156 52.1775 90.181 52.764C90.5465 53.3505 90.7929 54.0032 90.9061 54.6849C91.0193 55.3666 90.9971 56.0639 90.8408 56.737C90.6846 57.4102 90.3972 58.0459 89.9952 58.608C89.5933 59.1701 89.0845 59.6475 88.498 60.013L88.432 60.054C87.5992 60.5723 86.638 60.8473 85.657 60.848C85.2502 60.8493 84.8445 60.804 84.448 60.713Z" fill="url(#paint21_linear)"/>
<path d="M41.459 84.845C45.1035 84.845 48.058 81.9594 48.058 78.4C48.058 74.8405 45.1035 71.955 41.459 71.955C37.8145 71.955 34.86 74.8405 34.86 78.4C34.86 81.9594 37.8145 84.845 41.459 84.845Z" fill="url(#paint22_linear)"/>
<path d="M41.459 83.7769C44.5005 83.7769 46.966 81.3691 46.966 78.3989C46.966 75.4287 44.5005 73.0209 41.459 73.0209C38.4176 73.0209 35.952 75.4287 35.952 78.3989C35.952 81.3691 38.4176 83.7769 41.459 83.7769Z" fill="url(#paint23_linear)"/>
<path d="M48.059 78.2849C47.4538 79.1019 46.6663 79.7662 45.759 80.2249C44.2121 81.018 42.4168 81.1765 40.7548 80.6667C39.0928 80.1569 37.6952 79.019 36.859 77.4949C36.3841 76.6116 36.127 75.6277 36.109 74.6249C35.3924 75.5878 34.9647 76.7348 34.8762 77.9317C34.7877 79.1287 35.0418 80.3262 35.609 81.3839C36.4455 82.9077 37.8433 84.0451 39.5053 84.5546C41.1672 85.064 42.9623 84.9052 44.509 84.1119C45.5884 83.5722 46.4939 82.7394 47.1217 81.7088C47.7496 80.6782 48.0744 79.4916 48.059 78.2849Z" fill="url(#paint24_linear)"/>
<path d="M46.134 73.55C49.7785 73.55 52.733 70.6644 52.733 67.105C52.733 63.5455 49.7785 60.66 46.134 60.66C42.4895 60.66 39.535 63.5455 39.535 67.105C39.535 70.6644 42.4895 73.55 46.134 73.55Z" fill="url(#paint25_linear)"/>
<path d="M46.134 72.482C49.1754 72.482 51.641 70.0741 51.641 67.104C51.641 64.1338 49.1754 61.726 46.134 61.726C43.0926 61.726 40.627 64.1338 40.627 67.104C40.627 70.0741 43.0926 72.482 46.134 72.482Z" fill="url(#paint26_linear)"/>
<path d="M52.734 66.99C52.1288 67.8069 51.3413 68.4712 50.434 68.93C48.887 69.723 47.0918 69.8815 45.4298 69.3717C43.7678 68.8619 42.3702 67.7241 41.534 66.2C41.0591 65.3166 40.802 64.3327 40.784 63.33C40.0674 64.2928 39.6397 65.4398 39.5512 66.6368C39.4626 67.8337 39.7168 69.0312 40.284 70.089C41.1205 71.6127 42.5183 72.7502 44.1802 73.2596C45.8422 73.769 47.6373 73.6102 49.184 72.817C50.2634 72.2773 51.1689 71.4444 51.7967 70.4138C52.4246 69.3832 52.7494 68.1966 52.734 66.99Z" fill="url(#paint27_linear)"/>
<path d="M51.161 82.948C54.8055 82.948 57.76 80.0625 57.76 76.503C57.76 72.9435 54.8055 70.058 51.161 70.058C47.5165 70.058 44.562 72.9435 44.562 76.503C44.562 80.0625 47.5165 82.948 51.161 82.948Z" fill="url(#paint28_linear)"/>
<path d="M51.161 81.882C54.2025 81.882 56.668 79.4737 56.668 76.503C56.668 73.5322 54.2025 71.124 51.161 71.124C48.1196 71.124 45.654 73.5322 45.654 76.503C45.654 79.4737 48.1196 81.882 51.161 81.882Z" fill="url(#paint29_linear)"/>
<path d="M57.761 76.387C57.1558 77.2039 56.3683 77.8682 55.461 78.327C53.9141 79.1201 52.1188 79.2786 50.4568 78.7688C48.7948 78.259 47.3972 77.1211 46.561 75.597C46.0861 74.7137 45.829 73.7297 45.811 72.727C45.0944 73.6898 44.6667 74.8368 44.5782 76.0338C44.4896 77.2308 44.7438 78.4282 45.311 79.486C46.1475 81.0097 47.5453 82.1472 49.2072 82.6566C50.8692 83.166 52.6643 83.0072 54.211 82.214C55.2904 81.6743 56.1959 80.8414 56.8237 79.8109C57.4516 78.7803 57.7764 77.5937 57.761 76.387Z" fill="url(#paint30_linear)"/>
<path d="M51.755 64.178C55.3995 64.178 58.354 61.2924 58.354 57.733C58.354 54.1735 55.3995 51.288 51.755 51.288C48.1105 51.288 45.156 54.1735 45.156 57.733C45.156 61.2924 48.1105 64.178 51.755 64.178Z" fill="url(#paint31_linear)"/>
<path d="M51.755 63.1099C54.7964 63.1099 57.262 60.7021 57.262 57.7319C57.262 54.7618 54.7964 52.3539 51.755 52.3539C48.7136 52.3539 46.248 54.7618 46.248 57.7319C46.248 60.7021 48.7136 63.1099 51.755 63.1099Z" fill="url(#paint32_linear)"/>
<path d="M58.355 57.617C57.7498 58.4339 56.9623 59.0982 56.055 59.557C54.508 60.3501 52.7128 60.5085 51.0508 59.9988C49.3888 59.489 47.9912 58.3511 47.155 56.827C46.6801 55.9436 46.423 54.9597 46.405 53.957C45.6884 54.9198 45.2607 56.0668 45.1722 57.2638C45.0836 58.4607 45.3378 59.6582 45.905 60.716C46.7415 62.2397 48.1393 63.3772 49.8012 63.8866C51.4632 64.396 53.2583 64.2372 54.805 63.444C55.8844 62.9044 56.79 62.0715 57.4179 61.0409C58.0458 60.0103 58.3705 58.8237 58.355 57.617Z" fill="url(#paint33_linear)"/>
<path d="M74.093 82.735C77.7375 82.735 80.692 79.8494 80.692 76.29C80.692 72.7305 77.7375 69.845 74.093 69.845C70.4485 69.845 67.494 72.7305 67.494 76.29C67.494 79.8494 70.4485 82.735 74.093 82.735Z" fill="url(#paint34_linear)"/>
<path d="M74.093 81.6669C77.1344 81.6669 79.6 79.2591 79.6 76.2889C79.6 73.3188 77.1344 70.9109 74.093 70.9109C71.0516 70.9109 68.586 73.3188 68.586 76.2889C68.586 79.2591 71.0516 81.6669 74.093 81.6669Z" fill="url(#paint35_linear)"/>
<path d="M80.693 76.175C80.0878 76.9919 79.3003 77.6562 78.393 78.115C76.8461 78.908 75.0508 79.0665 73.3888 78.5567C71.7268 78.0469 70.3292 76.909 69.493 75.385C69.0181 74.5016 68.761 73.5177 68.743 72.515C68.0264 73.4778 67.5988 74.6248 67.5102 75.8217C67.4217 77.0187 67.6758 78.2162 68.243 79.274C69.0795 80.7977 70.4773 81.9352 72.1393 82.4446C73.8012 82.954 75.5963 82.7952 77.143 82.002C78.2224 81.4623 79.1279 80.6294 79.7557 79.5988C80.3836 78.5682 80.7084 77.3816 80.693 76.175Z" fill="url(#paint36_linear)"/>
<path d="M57.829 73.477C61.4735 73.477 64.428 70.5915 64.428 67.032C64.428 63.4725 61.4735 60.587 57.829 60.587C54.1845 60.587 51.23 63.4725 51.23 67.032C51.23 70.5915 54.1845 73.477 57.829 73.477Z" fill="url(#paint37_linear)"/>
<path d="M57.828 72.411C60.8694 72.411 63.335 70.0027 63.335 67.032C63.335 64.0612 60.8694 61.653 57.828 61.653C54.7866 61.653 52.321 64.0612 52.321 67.032C52.321 70.0027 54.7866 72.411 57.828 72.411Z" fill="url(#paint38_linear)"/>
<path d="M64.429 66.917C63.8238 67.7339 63.0363 68.3982 62.129 68.857C60.5821 69.65 58.7868 69.8085 57.1248 69.2987C55.4628 68.7889 54.0652 67.6511 53.229 66.127C52.7541 65.2436 52.497 64.2597 52.479 63.257C51.7624 64.2198 51.3347 65.3668 51.2462 66.5638C51.1576 67.7607 51.4118 68.9582 51.979 70.016C52.8155 71.5397 54.2133 72.6772 55.8752 73.1866C57.5372 73.696 59.3323 73.5372 60.879 72.744C61.9584 72.2043 62.8639 71.3714 63.4917 70.3408C64.1196 69.3103 64.4444 68.1236 64.429 66.917Z" fill="url(#paint39_linear)"/>
<path d="M62.131 83.932C65.7755 83.932 68.73 81.0465 68.73 77.487C68.73 73.9275 65.7755 71.042 62.131 71.042C58.4865 71.042 55.532 73.9275 55.532 77.487C55.532 81.0465 58.4865 83.932 62.131 83.932Z" fill="url(#paint40_linear)"/>
<path d="M62.13 82.864C65.1714 82.864 67.637 80.4562 67.637 77.486C67.637 74.5158 65.1714 72.108 62.13 72.108C59.0886 72.108 56.623 74.5158 56.623 77.486C56.623 80.4562 59.0886 82.864 62.13 82.864Z" fill="url(#paint41_linear)"/>
<path d="M68.731 77.372C68.1258 78.1889 67.3383 78.8532 66.431 79.312C64.8841 80.1051 63.0888 80.2636 61.4268 79.7538C59.7648 79.244 58.3672 78.1061 57.531 76.582C57.0561 75.6986 56.799 74.7147 56.781 73.712C56.0644 74.6748 55.6367 75.8218 55.5482 77.0188C55.4597 78.2157 55.7138 79.4132 56.281 80.471C57.1175 81.9947 58.5153 83.1322 60.1772 83.6416C61.8392 84.151 63.6343 83.9922 65.181 83.199C66.2604 82.6593 67.1659 81.8264 67.7937 80.7958C68.4216 79.7653 68.7464 78.5787 68.731 77.372Z" fill="url(#paint42_linear)"/>
<path d="M74.347 70.427C77.9915 70.427 80.946 67.5415 80.946 63.982C80.946 60.4225 77.9915 57.537 74.347 57.537C70.7025 57.537 67.748 60.4225 67.748 63.982C67.748 67.5415 70.7025 70.427 74.347 70.427Z" fill="url(#paint43_linear)"/>
<path d="M74.346 69.359C77.3874 69.359 79.853 66.9512 79.853 63.981C79.853 61.0108 77.3874 58.603 74.346 58.603C71.3046 58.603 68.839 61.0108 68.839 63.981C68.839 66.9512 71.3046 69.359 74.346 69.359Z" fill="url(#paint44_linear)"/>
<path d="M80.946 63.867C80.3408 64.6839 79.5533 65.3482 78.646 65.807C77.099 66.6001 75.3038 66.7585 73.6418 66.2488C71.9798 65.739 70.5822 64.6011 69.746 63.077C69.2711 62.1936 69.014 61.2097 68.996 60.207C68.2794 61.1698 67.8517 62.3168 67.7632 63.5138C67.6746 64.7107 67.9288 65.9082 68.496 66.966C69.3325 68.4897 70.7303 69.6272 72.3922 70.1366C74.0542 70.646 75.8493 70.4872 77.396 69.694C78.4754 69.1543 79.3809 68.3214 80.0087 67.2908C80.6366 66.2603 80.9614 65.0736 80.946 63.867Z" fill="url(#paint45_linear)"/>
<path d="M68.847 60.147C72.4915 60.147 75.446 57.2614 75.446 53.702C75.446 50.1425 72.4915 47.257 68.847 47.257C65.2025 47.257 62.248 50.1425 62.248 53.702C62.248 57.2614 65.2025 60.147 68.847 60.147Z" fill="url(#paint46_linear)"/>
<path d="M71.398 58.469C70.1066 59.1322 68.6075 59.2653 67.2195 58.84C65.8315 58.4148 64.6642 57.4647 63.966 56.192C63.6327 55.5645 63.4286 54.8765 63.3657 54.1688C63.3028 53.4611 63.3823 52.7479 63.5996 52.0714C63.8169 51.3949 64.1675 50.7689 64.6308 50.2302C65.0941 49.6915 65.6606 49.2511 66.297 48.935C67.5882 48.2717 69.0873 48.1384 70.4752 48.5635C71.8632 48.9886 73.0306 49.9384 73.729 51.211C74.0624 51.8385 74.2666 52.5266 74.3296 53.2344C74.3927 53.9422 74.3132 54.6555 74.0959 55.3321C73.8786 56.0087 73.5279 56.6349 73.0645 57.1737C72.6011 57.7125 72.0345 58.1529 71.398 58.469Z" fill="url(#paint47_linear)"/>
<path d="M75.447 53.5869C74.8418 54.4039 74.0542 55.0682 73.147 55.5269C71.6 56.32 69.8047 56.4785 68.1428 55.9687C66.4808 55.4589 65.0832 54.321 64.247 52.7969C63.7721 51.9136 63.515 50.9297 63.497 49.9269C62.7803 50.8898 62.3527 52.0368 62.2642 53.2337C62.1756 54.4307 62.4298 55.6282 62.997 56.6859C63.8335 58.2097 65.2313 59.3471 66.8932 59.8566C68.5552 60.366 70.3503 60.2072 71.897 59.4139C72.9764 58.8743 73.8819 58.0414 74.5097 57.0108C75.1376 55.9802 75.4624 54.7936 75.447 53.5869Z" fill="url(#paint48_linear)"/>
<path d="M58.799 55.282C62.4435 55.282 65.398 52.3964 65.398 48.837C65.398 45.2775 62.4435 42.392 58.799 42.392C55.1545 42.392 52.2 45.2775 52.2 48.837C52.2 52.3964 55.1545 55.282 58.799 55.282Z" fill="url(#paint49_linear)"/>
<path d="M61.349 53.604C60.0577 54.2672 58.5585 54.4003 57.1705 53.975C55.7825 53.5498 54.6152 52.5997 53.917 51.327C53.5838 50.6995 53.3796 50.0115 53.3167 49.3038C53.2538 48.5961 53.3333 47.8829 53.5506 47.2064C53.7679 46.5299 54.1185 45.9039 54.5818 45.3652C55.0451 44.8265 55.6117 44.3861 56.248 44.07C57.5392 43.4067 59.0383 43.2734 60.4263 43.6985C61.8143 44.1236 62.9816 45.0734 63.68 46.346C64.0135 46.9735 64.2179 47.6616 64.281 48.3694C64.3441 49.0773 64.2646 49.7906 64.0473 50.4673C63.83 51.1439 63.4792 51.7701 63.0158 52.3089C62.5523 52.8476 61.9856 53.288 61.349 53.604Z" fill="url(#paint50_linear)"/>
<path d="M65.399 48.722C64.7938 49.5389 64.0063 50.2032 63.099 50.662C61.5521 51.455 59.7568 51.6135 58.0948 51.1037C56.4328 50.5939 55.0352 49.456 54.199 47.932C53.7241 47.0486 53.467 46.0647 53.449 45.062C52.7324 46.0248 52.3047 47.1718 52.2162 48.3687C52.1276 49.5657 52.3818 50.7632 52.949 51.821C53.7855 53.3447 55.1833 54.4822 56.8452 54.9916C58.5072 55.501 60.3023 55.3422 61.849 54.549C62.9284 54.0093 63.8339 53.1764 64.4617 52.1458C65.0896 51.1152 65.4144 49.9286 65.399 48.722Z" fill="url(#paint51_linear)"/>
<path d="M68.641 74.412C72.2855 74.412 75.24 71.5264 75.24 67.967C75.24 64.4075 72.2855 61.522 68.641 61.522C64.9965 61.522 62.042 64.4075 62.042 67.967C62.042 71.5264 64.9965 74.412 68.641 74.412Z" fill="url(#paint52_linear)"/>
<path d="M71.191 72.734C69.8997 73.3972 68.4005 73.5303 67.0125 73.105C65.6245 72.6798 64.4572 71.7297 63.759 70.457C63.4258 69.8295 63.2217 69.1415 63.1587 68.4338C63.0958 67.7261 63.1753 67.0129 63.3926 66.3364C63.6099 65.66 63.9605 65.0339 64.4238 64.4952C64.8871 63.9565 65.4537 63.5161 66.09 63.2C67.3812 62.5367 68.8803 62.4035 70.2683 62.8285C71.6563 63.2536 72.8236 64.2034 73.522 65.476C73.8554 66.1036 74.0597 66.7916 74.1227 67.4994C74.1857 68.2073 74.1062 68.9205 73.8889 69.5971C73.6716 70.2737 73.3209 70.8999 72.8575 71.4387C72.3941 71.9775 71.8275 72.4179 71.191 72.734Z" fill="url(#paint53_linear)"/>
<path d="M75.24 67.852C74.6348 68.6689 73.8473 69.3332 72.94 69.792C71.3931 70.585 69.5978 70.7435 67.9358 70.2337C66.2738 69.7239 64.8762 68.5861 64.04 67.062C63.5651 66.1786 63.308 65.1947 63.29 64.192C62.5734 65.1548 62.1457 66.3018 62.0572 67.4988C61.9687 68.6957 62.2228 69.8932 62.79 70.951C63.6265 72.4747 65.0243 73.6122 66.6863 74.1216C68.3482 74.631 70.1433 74.4722 71.69 73.679C72.7694 73.1393 73.6749 72.3064 74.3027 71.2758C74.9306 70.2452 75.2554 69.0586 75.24 67.852Z" fill="url(#paint54_linear)"/>
<path d="M63.432 63.9419C67.0765 63.9419 70.031 61.0564 70.031 57.4969C70.031 53.9375 67.0765 51.0519 63.432 51.0519C59.7875 51.0519 56.833 53.9375 56.833 57.4969C56.833 61.0564 59.7875 63.9419 63.432 63.9419Z" fill="url(#paint55_linear)"/>
<path d="M63.432 62.8759C66.4735 62.8759 68.939 60.4677 68.939 57.4969C68.939 54.5262 66.4735 52.1179 63.432 52.1179C60.3906 52.1179 57.925 54.5262 57.925 57.4969C57.925 60.4677 60.3906 62.8759 63.432 62.8759Z" fill="url(#paint56_linear)"/>
<path d="M70.032 57.3819C69.4268 58.1988 68.6393 58.8631 67.732 59.3219C66.185 60.115 64.3898 60.2735 62.7278 59.7637C61.0658 59.2539 59.6682 58.116 58.832 56.5919C58.3571 55.7086 58.1 54.7246 58.082 53.7219C57.3654 54.6847 56.9377 55.8317 56.8492 57.0287C56.7606 58.2257 57.0148 59.4231 57.582 60.4809C58.4185 62.0047 59.8163 63.1421 61.4782 63.6515C63.1402 64.161 64.9353 64.0022 66.482 63.2089C67.5614 62.6692 68.4669 61.8364 69.0947 60.8058C69.7226 59.7752 70.0474 58.5886 70.032 57.3819Z" fill="url(#paint57_linear)"/>
<path d="M79.591 73.452C78.8016 71.9523 77.459 70.8191 75.848 70.293C76.2698 70.1721 76.6784 70.0097 77.068 69.808C77.8289 69.418 78.5048 68.881 79.0568 68.2281C79.6088 67.5752 80.0258 66.8194 80.2838 66.0042C80.5417 65.1891 80.6355 64.331 80.5597 63.4794C80.4839 62.6278 80.2399 61.7997 79.842 61.043C79.2674 59.9595 78.4007 59.0586 77.3402 58.4425C76.2798 57.8263 75.0679 57.5196 73.842 57.557C74.5742 56.58 75.0138 55.4151 75.1097 54.198C75.2057 52.9809 74.954 51.7616 74.384 50.682C73.5687 49.1514 72.1826 48.0042 70.5265 47.4895C68.8705 46.9748 67.0783 47.1342 65.539 47.933C65.394 48.008 65.255 48.089 65.119 48.173C65.0392 47.3355 64.796 46.5218 64.403 45.778C63.587 44.2468 62.1997 43.0995 60.5425 42.5855C58.8853 42.0715 57.0923 42.2323 55.553 43.033C54.0958 43.7803 52.9763 45.0525 52.4204 46.593C51.8645 48.1334 51.9137 49.8274 52.558 51.333C51.1878 51.1281 49.7879 51.3612 48.558 51.999C47.8017 52.3867 47.1292 52.9197 46.5791 53.5676C46.0289 54.2154 45.6119 54.9653 45.3519 55.7745C45.0918 56.5836 44.9938 57.4361 45.0635 58.2832C45.1332 59.1302 45.3692 59.9552 45.758 60.711C44.7872 60.747 43.8364 60.9977 42.974 61.445C42.0305 61.928 41.2203 62.6356 40.6146 63.5055C40.0089 64.3753 39.6264 65.3808 39.5008 66.4332C39.3751 67.4857 39.5102 68.5529 39.894 69.5409C40.2779 70.5289 40.8988 71.4074 41.702 72.099C40.5328 72.0372 39.3683 72.2888 38.329 72.828C37.5681 73.2179 36.892 73.7548 36.34 74.4076C35.7879 75.0605 35.3708 75.8163 35.1127 76.6315C34.8546 77.4466 34.7607 78.3048 34.8365 79.1564C34.9123 80.008 35.1561 80.8362 35.554 81.593C36.3692 83.124 37.7554 84.2716 39.4117 84.7865C41.068 85.3014 42.8605 85.142 44.4 84.343C45.4977 83.7768 46.4114 82.9096 47.034 81.843C48.0272 82.5899 49.2111 83.0413 50.4494 83.1451C51.6878 83.2489 52.9303 83.0011 54.034 82.43C54.8393 82.0144 55.5491 81.4354 56.118 80.73C56.9428 82.2425 58.3275 83.3715 59.9751 83.8747C61.6227 84.378 63.4019 84.2155 64.931 83.422C66.432 82.6493 67.5728 81.3221 68.111 79.722C68.9679 81.1706 70.3468 82.2363 71.9648 82.7001C73.5827 83.1639 75.3168 82.9907 76.811 82.216C77.5719 81.8261 78.248 81.2892 78.8001 80.6363C79.3521 79.9834 79.7692 79.2275 80.0272 78.4124C80.2852 77.5972 80.3789 76.739 80.303 75.8874C80.2271 75.0358 79.9831 74.2077 79.585 73.451L79.591 73.452Z" fill="url(#paint58_linear)"/>
<path d="M79.583 73.218C78.778 71.7246 77.4246 70.602 75.808 70.087C76.2332 69.9671 76.6455 69.8056 77.039 69.605C77.803 69.2272 78.4834 68.7 79.0398 68.0545C79.5963 67.409 80.0176 66.6584 80.2787 65.8471C80.5398 65.0358 80.6354 64.1804 80.5599 63.3315C80.4844 62.4826 80.2392 61.6574 79.839 60.905C79.2497 59.8232 78.371 58.9267 77.3014 58.3157C76.2317 57.7047 75.0132 57.4032 73.782 57.445C74.5197 56.4806 74.9636 55.3239 75.0606 54.1136C75.1577 52.9032 74.9036 51.6906 74.329 50.621C73.4881 49.0954 72.086 47.9572 70.42 47.448C68.7541 46.9387 66.9553 47.0983 65.405 47.893C65.259 47.967 65.119 48.048 64.981 48.131C64.9002 47.2986 64.6548 46.4907 64.259 45.754C63.4686 44.3163 62.1772 43.2192 60.6306 42.6716C59.084 42.124 57.3901 42.164 55.871 42.784C56.0472 43.6953 55.9701 44.6375 55.648 45.508V45.514C55.6239 45.5797 55.6156 45.6501 55.6238 45.7196C55.632 45.7891 55.6564 45.8557 55.695 45.914C55.754 46.004 73.504 73.655 78.195 80.958C79.2654 80.0136 79.9855 78.7354 80.2385 77.3305C80.4915 75.9256 80.2627 74.4765 79.589 73.218H79.583Z" fill="url(#paint59_linear)"/>
<path d="M55.788 45.132V45.126C56.0651 44.3749 56.1612 43.569 56.0686 42.7738C55.976 41.9785 55.6973 41.2163 55.255 40.549C55.2279 40.5073 55.2109 40.4598 55.2054 40.4104C55.1998 40.3609 55.2059 40.3109 55.2231 40.2642C55.2402 40.2175 55.2681 40.1754 55.3043 40.1414C55.3406 40.1073 55.3843 40.0822 55.432 40.068C56.2058 39.8303 56.9147 39.4182 57.5042 38.8634C58.0936 38.3086 58.5479 37.626 58.832 36.868V36.862C58.856 36.7987 58.8935 36.7415 58.9418 36.6941C58.99 36.6467 59.048 36.6104 59.1117 36.5876C59.1754 36.5648 59.2433 36.556 59.3106 36.562C59.378 36.5679 59.4433 36.5884 59.502 36.622C60.7092 37.3189 62.122 37.5718 63.496 37.337C63.5111 37.3332 63.5252 37.326 63.537 37.3159C63.5489 37.3057 63.5582 37.2929 63.5642 37.2786C63.5702 37.2642 63.5728 37.2486 63.5717 37.233C63.5707 37.2175 63.566 37.2024 63.558 37.189L61.405 34.171C61.2754 33.9931 61.1947 33.7843 61.171 33.5655C61.1473 33.3467 61.1815 33.1255 61.27 32.924C61.606 32.182 61.7743 31.3751 61.7631 30.5607C61.7519 29.7463 61.5613 28.9444 61.205 28.212C61.0445 27.8811 60.8523 27.5667 60.631 27.273C60.5912 27.2195 60.5638 27.1578 60.551 27.0923C60.5381 27.0269 60.5401 26.9594 60.5568 26.8948C60.5735 26.8302 60.6045 26.7702 60.6474 26.7192C60.6904 26.6682 60.7442 26.6274 60.805 26.6H60.811C61.5478 26.2675 62.1977 25.7689 62.7097 25.1433C63.2216 24.5177 63.5818 23.782 63.762 22.994C63.7738 22.9451 63.7964 22.8996 63.8283 22.8608C63.8602 22.822 63.9005 22.7909 63.9461 22.7699C63.9917 22.7489 64.0415 22.7386 64.0918 22.7396C64.142 22.7407 64.1913 22.7531 64.236 22.776C64.9688 23.1409 65.7741 23.337 66.5926 23.3498C67.4112 23.3626 68.2222 23.1918 68.966 22.85H68.972C69.0329 22.8211 69.0993 22.8057 69.1667 22.805C69.2341 22.8043 69.3009 22.8182 69.3624 22.8457C69.4239 22.8733 69.4787 22.9139 69.523 22.9647C69.5673 23.0155 69.6001 23.0753 69.619 23.14C69.7118 23.4942 69.8391 23.8385 69.999 24.168C70.3619 24.9094 70.8791 25.5647 71.5158 26.09C72.1525 26.6154 72.8942 26.9986 73.691 27.214C73.9049 27.2737 74.0999 27.3873 74.2575 27.5438C74.415 27.7003 74.5298 27.8945 74.591 28.108L75.615 31.64C75.6201 31.6553 75.6287 31.6691 75.6403 31.6803C75.6518 31.6915 75.6659 31.6998 75.6813 31.7044C75.6967 31.709 75.713 31.7098 75.7288 31.7068C75.7446 31.7038 75.7594 31.697 75.772 31.687C76.5401 31.0506 77.1265 30.2227 77.472 29.287C77.5984 28.9439 77.6909 28.5892 77.748 28.228C77.7603 28.1616 77.787 28.0987 77.8261 28.0437C77.8652 27.9887 77.9159 27.9429 77.9745 27.9095C78.0332 27.876 78.0984 27.8558 78.1657 27.8502C78.233 27.8446 78.3006 27.8537 78.364 27.877H78.37C79.1424 28.1473 79.9656 28.241 80.7789 28.1512C81.5923 28.0613 82.3752 27.7903 83.07 27.358C83.1125 27.3311 83.1605 27.3141 83.2105 27.3084C83.2604 27.3026 83.311 27.3082 83.3585 27.3247C83.406 27.3413 83.4492 27.3683 83.4848 27.4039C83.5203 27.4394 83.5474 27.4825 83.564 27.53C83.8212 28.2966 84.2513 28.9938 84.8209 29.5677C85.3905 30.1416 86.0844 30.5769 86.849 30.84H86.855C86.9187 30.8607 86.9769 30.8956 87.0254 30.9418C87.0738 30.9881 87.1112 31.0447 87.1348 31.1074C87.1585 31.1701 87.1677 31.2373 87.1618 31.304C87.156 31.3708 87.1352 31.4354 87.101 31.493C86.9099 31.806 86.7498 32.1369 86.623 32.481C86.3419 33.2417 86.231 34.0549 86.2982 34.8632C86.3654 35.6714 86.6091 36.4551 87.012 37.159C87.1233 37.3525 87.1818 37.5718 87.1818 37.795C87.1818 38.0182 87.1233 38.2375 87.012 38.431L84.892 42.112C84.8265 42.2276 84.7861 42.3557 84.7735 42.4879C84.7609 42.6202 84.7764 42.7536 84.819 42.8795C84.8616 43.0054 84.9303 43.1208 85.0206 43.2182C85.1109 43.3157 85.2208 43.393 85.343 43.445C86.1403 43.8007 86.8995 44.2363 87.609 44.745C87.6787 44.7947 87.735 44.8609 87.773 44.9377C87.8109 45.0145 87.8293 45.0994 87.8265 45.185C87.8238 45.2706 87.7999 45.3541 87.7571 45.4283C87.7142 45.5024 87.6538 45.5648 87.581 45.61C85.3732 47.0018 82.7996 47.7015 80.191 47.619C79.8217 47.6083 79.455 47.5827 79.091 47.542C78.1013 47.4256 77.0987 47.5842 76.1933 48.0006C75.2879 48.4169 74.5148 49.0748 73.959 49.902C73.759 50.1987 73.5473 50.4897 73.324 50.775C71.7085 52.8048 69.5158 54.2973 67.035 55.056C66.9531 55.0819 66.8662 55.0878 66.7815 55.0732C66.6969 55.0587 66.6169 55.024 66.5484 54.9723C66.4799 54.9205 66.4247 54.853 66.3876 54.7755C66.3505 54.6981 66.3325 54.6129 66.335 54.527C66.3824 53.6717 66.5195 52.8237 66.744 51.997C66.7783 51.8682 66.7852 51.7336 66.7642 51.6019C66.7433 51.4703 66.695 51.3445 66.6224 51.2326C66.5499 51.1208 66.4547 51.0254 66.343 50.9526C66.2313 50.8798 66.1056 50.8312 65.974 50.81L61.705 50.074C61.4821 50.0359 61.2725 49.9418 61.096 49.8005C60.9195 49.6591 60.7819 49.4752 60.696 49.266C60.3848 48.5066 59.9149 47.8225 59.3178 47.2594C58.7208 46.6963 58.0103 46.2673 57.234 46.001C56.8809 45.8775 56.517 45.7874 56.147 45.732C56.0807 45.7224 56.0173 45.6982 55.9615 45.6612C55.9056 45.6241 55.8587 45.5751 55.8242 45.5176C55.7896 45.4602 55.7683 45.3958 55.7617 45.3291C55.7551 45.2624 55.7634 45.1951 55.786 45.132H55.788Z" fill="url(#paint60_linear)"/>
<path d="M56.149 45.731C56.5192 45.7868 56.8834 45.8769 57.237 46C58.0133 46.2663 58.7237 46.6954 59.3208 47.2584C59.9178 47.8215 60.3877 48.5056 60.699 49.265C60.7849 49.4739 60.9225 49.6577 61.0988 49.799C61.2751 49.9403 61.4844 50.0346 61.707 50.073L65.973 50.818C66.1046 50.8391 66.2303 50.8876 66.342 50.9602C66.4537 51.0329 66.549 51.1282 66.6216 51.2399C66.6943 51.3517 66.7427 51.4774 66.7638 51.609C66.7848 51.7406 66.7781 51.8751 66.744 52.004C66.5188 52.8326 66.3817 53.6826 66.335 54.54C66.3325 54.6258 66.3505 54.7111 66.3876 54.7885C66.4248 54.866 66.4799 54.9334 66.5484 54.9852C66.617 55.037 66.6969 55.0717 66.7816 55.0862C66.8662 55.1008 66.9531 55.0949 67.035 55.069C69.5158 54.3098 71.7085 52.8169 73.324 50.787C73.55 50.5023 73.7617 50.2116 73.959 49.915C74.5078 49.0874 75.2767 48.4294 76.179 48.015L83.368 27.34C83.3195 27.3206 83.267 27.3129 83.2149 27.3174C83.1629 27.3219 83.1125 27.3385 83.068 27.366C82.3732 27.7982 81.5903 28.0691 80.7769 28.1589C79.9636 28.2487 79.1404 28.1551 78.368 27.885H78.363C78.2996 27.8617 78.2318 27.8526 78.1645 27.8583C78.0972 27.864 78.0319 27.8843 77.9732 27.9178C77.9145 27.9513 77.8639 27.9973 77.8248 28.0524C77.7858 28.1075 77.7592 28.1705 77.747 28.237C77.5296 29.5895 76.8276 30.8168 75.772 31.69C75.7592 31.6999 75.7442 31.7066 75.7282 31.7094C75.7122 31.7123 75.6958 31.7112 75.6804 31.7063C75.6649 31.7013 75.6509 31.6927 75.6395 31.6812C75.6281 31.6696 75.6197 31.6555 75.615 31.64L74.593 28.107C74.5314 27.8953 74.4172 27.7027 74.261 27.547C74.103 27.388 73.9062 27.2732 73.69 27.214C72.8932 26.9981 72.1517 26.6146 71.515 26.0891C70.8783 25.5637 70.3611 24.9083 69.998 24.167C69.8384 23.8379 69.7115 23.4939 69.619 23.14C69.6002 23.0751 69.5675 23.015 69.5232 22.964C69.4789 22.913 69.424 22.8722 69.3624 22.8444C69.3008 22.8167 69.2339 22.8026 69.1663 22.8032C69.0988 22.8038 69.0321 22.8191 68.971 22.848H68.965C68.2215 23.19 67.4107 23.3611 66.5924 23.3486C65.774 23.3362 64.9688 23.1405 64.236 22.776C64.1912 22.7531 64.1419 22.7407 64.0916 22.7396C64.0413 22.7386 63.9914 22.7489 63.9457 22.7699C63.9 22.7909 63.8597 22.8219 63.8277 22.8608C63.7957 22.8996 63.7729 22.9451 63.761 22.994C63.5805 23.7806 63.2205 24.5148 62.7093 25.1393C62.1981 25.7638 61.5495 26.2616 60.814 26.594H60.808C60.7468 26.6208 60.6923 26.6611 60.6487 26.7119C60.6051 26.7627 60.5735 26.8226 60.5563 26.8872C60.539 26.9518 60.5364 27.0195 60.5489 27.0853C60.5613 27.151 60.5883 27.2131 60.628 27.267C60.8508 27.5623 61.0441 27.8789 61.205 28.212C61.562 28.9441 61.7533 29.7458 61.7654 30.5602C61.7775 31.3746 61.6101 32.1816 61.275 32.924C61.1858 33.1249 61.1508 33.3457 61.1736 33.5643C61.1964 33.783 61.2762 33.9918 61.405 34.17L63.558 37.184C63.5675 37.197 63.5734 37.2121 63.5753 37.2281C63.5772 37.244 63.575 37.2602 63.5689 37.275C63.5627 37.2898 63.5529 37.3029 63.5404 37.3128C63.5278 37.3228 63.5129 37.3294 63.497 37.332C62.1238 37.5666 60.7118 37.314 59.505 36.618C59.4463 36.5844 59.381 36.5639 59.3136 36.558C59.2463 36.552 59.1784 36.5607 59.1147 36.5836C59.051 36.6064 58.9931 36.6427 58.9448 36.6901C58.8965 36.7375 58.859 36.7947 58.835 36.858V36.863C58.5513 37.6218 58.0973 38.3053 57.5078 38.861C56.9184 39.4166 56.2092 39.8295 55.435 40.068C55.3874 40.082 55.3437 40.1071 55.3074 40.141C55.2711 40.175 55.2433 40.2169 55.2261 40.2635C55.2089 40.3102 55.2028 40.3602 55.2084 40.4095C55.2139 40.4589 55.2309 40.5063 55.258 40.548C55.7 41.2156 55.9786 41.978 56.0712 42.7733C56.1638 43.5687 56.0678 44.3746 55.791 45.126V45.131C55.7682 45.1941 55.7597 45.2614 55.7663 45.3282C55.7728 45.395 55.7941 45.4594 55.8287 45.5169C55.8633 45.5744 55.9102 45.6234 55.9662 45.6605C56.0221 45.6975 56.0856 45.7216 56.152 45.731H56.149Z" fill="url(#paint61_linear)"/>
<path d="M73.963 49.91C73.763 50.2067 73.5513 50.4977 73.328 50.783C71.7125 52.8128 69.5198 54.3054 67.039 55.064C66.9571 55.0899 66.8702 55.0958 66.7855 55.0812C66.7009 55.0667 66.6209 55.0321 66.5524 54.9803C66.4839 54.9285 66.4287 54.861 66.3916 54.7836C66.3545 54.7061 66.3365 54.6209 66.339 54.535C66.3864 53.6797 66.5235 52.8317 66.748 52.005C66.7823 51.8762 66.7892 51.7416 66.7682 51.6099C66.7473 51.4783 66.699 51.3525 66.6264 51.2406C66.5539 51.1288 66.4587 51.0334 66.347 50.9606C66.2353 50.8878 66.1096 50.8392 65.978 50.818L61.705 50.071C61.4821 50.0329 61.2726 49.9387 61.0961 49.7974C60.9196 49.656 60.7819 49.4722 60.696 49.263C60.3847 48.5045 59.9152 47.8211 59.3187 47.2586C58.7222 46.6961 58.0125 46.2673 57.237 46.001C56.8839 45.8775 56.52 45.7874 56.15 45.732C56.0836 45.7226 56.0201 45.6985 55.9642 45.6615C55.9082 45.6245 55.8613 45.5754 55.8267 45.5179C55.7921 45.4605 55.7708 45.396 55.7642 45.3292C55.7577 45.2625 55.7662 45.1951 55.789 45.132V45.126C56.0661 44.3749 56.1622 43.569 56.0696 42.7738C55.977 41.9786 55.6983 41.2164 55.256 40.549C55.2295 40.5073 55.2131 40.46 55.2079 40.4109C55.2027 40.3617 55.209 40.3121 55.2263 40.2658C55.2435 40.2195 55.2712 40.1778 55.3073 40.144C55.3433 40.1102 55.3867 40.0852 55.434 40.071C56.2078 39.8333 56.9167 39.4212 57.5062 38.8664C58.0956 38.3116 58.5499 37.629 58.834 36.871V36.865C58.858 36.8018 58.8955 36.7445 58.9438 36.6971C58.992 36.6497 59.05 36.6134 59.1137 36.5906C59.1774 36.5678 59.2453 36.559 59.3126 36.565C59.38 36.5709 59.4453 36.5914 59.504 36.625C60.7112 37.3219 62.124 37.5748 63.498 37.34C63.5131 37.3362 63.5272 37.329 63.539 37.3189C63.5509 37.3087 63.5602 37.2959 63.5662 37.2816C63.5722 37.2672 63.5748 37.2516 63.5737 37.2361C63.5726 37.2205 63.568 37.2054 63.56 37.192L61.405 34.171C61.2754 33.9931 61.1947 33.7843 61.171 33.5655C61.1473 33.3467 61.1815 33.1255 61.27 32.924C61.606 32.182 61.7743 31.3752 61.7631 30.5607C61.7519 29.7463 61.5613 28.9444 61.205 28.212C61.044 27.8804 60.8511 27.5652 60.629 27.271C60.5893 27.2171 60.5623 27.155 60.5499 27.0893C60.5374 27.0236 60.54 26.9559 60.5572 26.8912C60.5745 26.8266 60.6061 26.7667 60.6497 26.7159C60.6933 26.6652 60.7477 26.6249 60.809 26.598H60.815C61.5509 26.2652 62.1998 25.7667 62.711 25.1415C63.2222 24.5163 63.582 23.7813 63.762 22.994C63.773 22.9453 63.7952 22.8998 63.8268 22.8611C63.8584 22.8224 63.8985 22.7916 63.944 22.771L76.183 48.016C75.2813 48.4291 74.5125 49.0853 73.963 49.911V49.91Z" fill="url(#paint62_linear)"/>
<path d="M56.15 45.731C56.5202 45.7868 56.8844 45.8769 57.238 46C58.0142 46.2665 58.7245 46.6958 59.3214 47.2591C59.9182 47.8223 60.3879 48.5065 60.699 49.266C60.785 49.4746 60.9224 49.6581 61.0985 49.7992C61.2746 49.9404 61.4836 50.0345 61.706 50.073L65.972 50.818C66.1036 50.8391 66.2293 50.8876 66.341 50.9602C66.4527 51.0329 66.548 51.1282 66.6206 51.2399C66.6932 51.3517 66.7417 51.4774 66.7628 51.609C66.7838 51.7406 66.7771 51.8751 66.743 52.004C66.5185 52.831 66.3817 53.6793 66.335 54.535C66.3325 54.6208 66.3505 54.7061 66.3876 54.7835C66.4247 54.861 66.4799 54.9284 66.5484 54.9802C66.6169 55.032 66.6969 55.0667 66.7815 55.0812C66.8662 55.0958 66.9531 55.0899 67.035 55.064C69.5179 54.3052 71.7124 52.8115 73.329 50.78C73.555 50.4953 73.7667 50.2046 73.964 49.908C74.5125 49.0801 75.2814 48.422 76.184 48.008L55.222 40.28C55.207 40.3246 55.2024 40.372 55.2087 40.4187C55.2149 40.4653 55.2318 40.5099 55.258 40.549C55.6998 41.2165 55.9783 41.9787 56.0709 42.7738C56.1635 43.569 56.0676 44.3748 55.791 45.126V45.131C55.7682 45.194 55.7597 45.2614 55.7662 45.3282C55.7728 45.395 55.7941 45.4594 55.8287 45.5169C55.8633 45.5744 55.9102 45.6234 55.9662 45.6605C56.0221 45.6975 56.0856 45.7216 56.152 45.731H56.15Z" fill="url(#paint63_linear)"/>
<path d="M73.157 41.778L75.547 35.285C73.7931 34.6596 71.8642 34.745 70.1724 35.5229C68.4805 36.3008 67.1601 37.7095 66.493 39.448L73.157 41.778Z" fill="url(#paint64_linear)"/>
<path d="M70.781 36.878L73.171 30.385C71.4171 29.7596 69.4881 29.845 67.7963 30.6229C66.1045 31.4008 64.784 32.8095 64.117 34.548L70.781 36.878Z" fill="url(#paint65_linear)"/>
<path d="M68.405 31.978L70.795 25.485C69.0411 24.8596 67.1122 24.945 65.4203 25.7229C63.7285 26.5008 62.408 27.9095 61.741 29.648L68.405 31.978Z" fill="url(#paint66_linear)"/>
<path d="M77.656 43.961L84 40.897C83.1347 39.2455 81.66 37.9962 79.8888 37.4141C78.1176 36.832 76.1893 36.9629 74.513 37.779L77.656 43.961Z" fill="url(#paint67_linear)"/>
<path d="M79.09 39.764L85.434 36.7C84.5687 35.0485 83.094 33.7992 81.3228 33.2171C79.5516 32.6349 77.6233 32.7658 75.947 33.582L79.09 39.764Z" fill="url(#paint68_linear)"/>
<path d="M80.672 35.106L85.702 32.68C85.7904 32.6387 85.8696 32.5802 85.9349 32.5078C86.0002 32.4353 86.0503 32.3505 86.0822 32.2584C86.1141 32.1662 86.1271 32.0686 86.1206 31.9713C86.114 31.874 86.088 31.779 86.044 31.692L86.002 31.602C85.3286 30.316 84.1804 29.3433 82.8012 28.8903C81.4221 28.4373 79.9208 28.5398 78.616 29.176L78.523 29.217C78.4346 29.2582 78.3554 29.3168 78.2901 29.3892C78.2248 29.4616 78.1747 29.5464 78.1428 29.6386C78.1109 29.7307 78.0979 29.8284 78.1044 29.9256C78.111 30.0229 78.137 30.1179 78.181 30.205L80.672 35.106Z" fill="url(#paint69_linear)"/>
<path d="M72.183 47.011L65.726 49.837C65.3478 49.0069 65.1399 48.1094 65.1146 47.1976C65.0892 46.2858 65.247 45.3781 65.5785 44.5283C65.9101 43.6785 66.4086 42.9038 67.0447 42.25C67.6809 41.5962 68.4416 41.0767 69.282 40.722L72.183 47.011Z" fill="url(#paint70_linear)"/>
<path d="M67.615 45.036L61.158 47.862C60.7798 47.0319 60.5719 46.1344 60.5466 45.2226C60.5212 44.3108 60.679 43.4031 61.0105 42.5533C61.3421 41.7035 61.8406 40.9288 62.4767 40.2751C63.1129 39.6213 63.8736 39.1017 64.714 38.747L67.615 45.036Z" fill="url(#paint71_linear)"/>
<path d="M62.903 43.12L57.903 45.309C57.7251 45.3878 57.5235 45.3941 57.341 45.3265C57.1585 45.2589 57.0096 45.1227 56.926 44.947L56.885 44.857C56.5964 44.2257 56.4374 43.5429 56.4174 42.849C56.3974 42.1551 56.5169 41.4643 56.7688 40.8174C57.0206 40.1706 57.3998 39.5808 57.8837 39.0831C58.3676 38.5854 58.9465 38.1899 59.586 37.92L59.678 37.883C59.8561 37.8042 60.0579 37.7979 60.2405 37.8655C60.4231 37.9331 60.5722 38.0692 60.656 38.245L62.903 43.12Z" fill="url(#paint72_linear)"/>
<path d="M76.711 47.807C76.3513 47.9262 76.0058 48.0848 75.681 48.28C75.5273 48.1041 75.3132 47.9924 75.081 47.967C74.732 47.927 74.305 47.873 74.146 47.837C73.575 47.711 73.028 47.552 72.49 47.388C72.384 47.356 72.281 47.323 72.177 47.288L71.652 47.488C71.42 47.572 71.189 47.66 70.952 47.739C70.715 47.818 70.486 47.902 70.252 47.979C70.018 48.056 69.782 48.131 69.545 48.205C69.429 48.242 69.309 48.277 69.19 48.312C69.071 48.347 68.953 48.382 68.834 48.412C68.596 48.48 68.356 48.545 68.116 48.612H68.1C68.0443 48.629 67.9842 48.6245 67.9316 48.5996C67.879 48.5746 67.8375 48.5309 67.8154 48.477C67.7933 48.4232 67.792 48.363 67.8119 48.3082C67.8318 48.2535 67.8714 48.2081 67.923 48.181L67.936 48.173C68.154 48.057 68.374 47.942 68.594 47.832C68.704 47.776 68.8147 47.7213 68.926 47.668C69.037 47.613 69.148 47.557 69.259 47.506C69.483 47.401 69.706 47.296 69.931 47.195C70.156 47.094 70.381 46.995 70.606 46.895C70.666 46.867 70.727 46.843 70.789 46.816C70.31 46.649 69.839 46.477 69.38 46.302C68.801 46.084 68.241 45.864 67.695 45.643C67.612 45.675 67.53 45.706 67.446 45.737C67.285 45.792 67.126 45.851 66.964 45.905C66.802 45.959 66.64 46.012 66.476 46.06C66.312 46.108 66.149 46.16 65.983 46.202C65.901 46.227 65.818 46.247 65.735 46.269C65.652 46.291 65.569 46.311 65.485 46.33C65.317 46.371 65.149 46.407 64.979 46.443H64.958C64.9039 46.4556 64.8472 46.4485 64.7978 46.4231C64.7485 46.3977 64.7098 46.3556 64.6886 46.3043C64.6675 46.2529 64.6652 46.1958 64.6824 46.143C64.6995 46.0902 64.7348 46.0452 64.782 46.016L64.8 46.005C64.948 45.915 65.1 45.828 65.245 45.746C65.319 45.703 65.394 45.663 65.47 45.623C65.546 45.583 65.62 45.541 65.697 45.503C65.848 45.426 65.997 45.348 66.154 45.276C66.254 45.226 66.354 45.176 66.454 45.133C65.586 44.772 64.732 44.333 63.981 44.001C63.681 43.868 63.386 43.738 63.106 43.61L63.018 43.644C62.6589 43.7848 62.2877 43.8926 61.909 43.966C61.862 43.975 61.809 43.982 61.764 43.99C61.719 43.998 61.664 44.006 61.618 44.011C61.518 44.026 61.418 44.035 61.318 44.042H61.278C61.2285 44.0462 61.1789 44.0345 61.1365 44.0086C61.0941 43.9827 61.0611 43.9438 61.0424 43.8978C61.0236 43.8518 61.0201 43.801 61.0322 43.7528C61.0444 43.7046 61.0716 43.6616 61.11 43.63C61.1195 43.6211 61.1295 43.6128 61.14 43.605C61.219 43.543 61.297 43.484 61.378 43.428C61.417 43.399 61.459 43.372 61.499 43.344C61.539 43.316 61.579 43.29 61.621 43.265C61.73 43.197 61.842 43.135 61.952 43.075C61.295 42.775 60.73 42.496 60.268 42.275C59.824 42.06 59.882 41.932 60.346 42.101L62.108 42.741C62.063 42.614 62.02 42.486 61.984 42.356C61.959 42.263 61.935 42.171 61.915 42.076C61.895 41.981 61.878 41.886 61.863 41.789C61.863 41.776 61.863 41.761 61.858 41.746C61.8531 41.6967 61.8636 41.6471 61.888 41.604C61.9124 41.5608 61.9496 41.5263 61.9944 41.5052C62.0392 41.484 62.0895 41.4773 62.1383 41.4858C62.1871 41.4944 62.2321 41.5179 62.267 41.553L62.298 41.584C62.366 41.654 62.433 41.727 62.498 41.802C62.563 41.877 62.622 41.95 62.681 42.026C62.9113 42.3282 63.1122 42.6516 63.281 42.992L63.386 43.203L64.197 43.498C64.997 43.784 65.897 44.172 66.804 44.498L66.932 44.542C66.911 44.498 66.89 44.454 66.872 44.408C66.807 44.255 66.739 44.103 66.678 43.947C66.617 43.791 66.556 43.635 66.497 43.478C66.438 43.321 66.383 43.163 66.33 43.002C66.277 42.841 66.23 42.682 66.18 42.519C66.18 42.51 66.174 42.501 66.172 42.492C66.1593 42.4384 66.1655 42.3821 66.1894 42.3325C66.2133 42.2829 66.2535 42.243 66.3034 42.2196C66.3532 42.1961 66.4096 42.1905 66.463 42.2037C66.5165 42.2169 66.5638 42.2481 66.597 42.292L66.615 42.315C66.715 42.451 66.815 42.589 66.915 42.729C67.015 42.869 67.105 43.009 67.195 43.151C67.285 43.293 67.376 43.435 67.461 43.579C67.546 43.723 67.631 43.868 67.714 44.013C67.756 44.085 67.794 44.159 67.834 44.232L67.955 44.453L68.183 44.899L68.236 44.999C68.708 45.163 69.189 45.3297 69.679 45.499C70.195 45.673 70.722 45.849 71.254 46.02L71.241 45.994C71.191 45.884 71.141 45.776 71.089 45.665C70.989 45.445 70.889 45.225 70.795 45.002C70.701 44.779 70.604 44.557 70.513 44.332C70.422 44.107 70.332 43.882 70.245 43.655C70.158 43.428 70.075 43.2 69.994 42.971L69.987 42.949C69.971 42.8942 69.9751 42.8355 69.9986 42.7835C70.0222 42.7315 70.0635 42.6896 70.1152 42.6655C70.1669 42.6413 70.2256 42.6364 70.2806 42.6518C70.3356 42.6671 70.3832 42.7016 70.415 42.749L70.428 42.769C70.5613 42.9737 70.6947 43.179 70.828 43.385C70.958 43.591 71.084 43.798 71.209 44.008C71.334 44.218 71.456 44.427 71.574 44.638C71.692 44.849 71.811 45.061 71.928 45.273C71.987 45.379 72.042 45.486 72.099 45.593L72.268 45.915L72.524 46.415L72.765 46.487C73.292 46.641 73.825 46.782 74.356 46.898C74.615 46.954 74.873 46.998 75.121 47.03L72.687 42.011L72.167 41.805L71.79 41.649C71.664 41.596 71.537 41.549 71.412 41.49C71.162 41.383 70.912 41.277 70.661 41.164C70.41 41.051 70.161 40.941 69.915 40.826C69.669 40.711 69.421 40.592 69.176 40.471C68.931 40.35 68.686 40.227 68.442 40.101L68.418 40.089C68.3664 40.0619 68.3268 40.0166 68.3069 39.9618C68.287 39.9071 68.2883 39.8469 68.3104 39.793C68.3325 39.7391 68.374 39.6954 68.4266 39.6704C68.4792 39.6455 68.5393 39.641 68.595 39.658L68.621 39.665C68.886 39.736 69.15 39.811 69.414 39.888C69.678 39.965 69.939 40.045 70.201 40.127C70.463 40.209 70.723 40.293 70.981 40.382C71.239 40.471 71.498 40.56 71.756 40.649C71.886 40.693 72.013 40.741 72.141 40.788L72.228 40.819C72.061 40.443 71.89 40.064 71.717 39.688L70.797 37.675C70.771 37.617 70.743 37.559 70.717 37.501L70.689 37.489L70.164 37.279L69.903 37.169C69.817 37.131 69.729 37.096 69.644 37.057C69.473 36.995 69.302 36.92 69.133 36.836C68.964 36.752 68.792 36.672 68.623 36.589C68.454 36.506 68.288 36.417 68.123 36.326C67.958 36.235 67.79 36.143 67.623 36.048L67.598 36.036C67.5502 36.0072 67.5143 35.9622 67.4968 35.9092C67.4792 35.8563 67.4812 35.7988 67.5023 35.7471C67.5235 35.6955 67.5623 35.6531 67.612 35.6275C67.6616 35.602 67.7187 35.5951 67.773 35.608C67.7825 35.6107 67.7922 35.6124 67.802 35.613C67.988 35.654 68.174 35.698 68.359 35.745C68.544 35.792 68.727 35.845 68.909 35.892C69.091 35.939 69.272 35.998 69.453 36.055C69.634 36.112 69.812 36.171 69.992 36.23C70.05 36.248 70.106 36.269 70.163 36.29C70.079 36.104 69.995 35.919 69.912 35.737C69.627 35.102 69.351 34.489 69.089 33.908C68.869 33.418 68.662 32.951 68.465 32.508L68.226 32.415C67.8283 32.2632 67.4445 32.0771 67.079 31.859C66.986 31.804 66.895 31.747 66.805 31.686C66.715 31.625 66.626 31.562 66.539 31.497L66.507 31.476C66.4675 31.4446 66.4393 31.4012 66.4266 31.3523C66.4139 31.3035 66.4174 31.2518 66.4365 31.2052C66.4557 31.1585 66.4895 31.1193 66.5329 31.0935C66.5762 31.0676 66.6268 31.0566 66.677 31.062H66.718C66.829 31.073 66.937 31.086 67.044 31.104C67.151 31.122 67.259 31.139 67.364 31.162C67.554 31.201 67.741 31.249 67.926 31.303C67.66 30.71 67.434 30.203 67.262 29.803C67 29.218 67.113 29.165 67.418 29.736C67.618 30.117 67.88 30.608 68.183 31.186C68.257 31.012 68.338 30.841 68.428 30.673C68.451 30.626 68.48 30.58 68.504 30.533C68.528 30.486 68.556 30.441 68.585 30.395C68.639 30.304 68.698 30.213 68.759 30.123L68.78 30.093C68.8093 30.0502 68.8517 30.018 68.9009 30.0012C68.95 29.9845 69.0033 29.9842 69.0526 30.0003C69.102 30.0164 69.1448 30.0481 69.1746 30.0906C69.2044 30.1331 69.2196 30.1841 69.218 30.236C69.218 30.248 69.218 30.26 69.218 30.272C69.218 30.38 69.209 30.486 69.198 30.592C69.198 30.646 69.187 30.698 69.181 30.751C69.175 30.804 69.17 30.857 69.161 30.908C69.1 31.3195 69.0036 31.725 68.873 32.12L68.795 32.36L69.506 33.717C69.8 34.283 70.111 34.88 70.433 35.498L70.711 36.037C70.731 35.983 70.751 35.926 70.773 35.872C70.839 35.699 70.904 35.525 70.973 35.355C71.042 35.185 71.117 35.013 71.191 34.842C71.226 34.757 71.266 34.673 71.305 34.587C71.344 34.501 71.383 34.418 71.424 34.335C71.504 34.167 71.588 33.999 71.672 33.835C71.744 33.697 71.813 33.552 72.066 33.786C72.0912 33.8081 72.1104 33.8361 72.122 33.8676C72.1335 33.899 72.137 33.9329 72.132 33.966C72.132 33.966 72.132 33.973 72.132 33.978C72.104 34.161 72.072 34.345 72.037 34.527C72.022 34.62 72.001 34.71 71.983 34.801C71.965 34.892 71.947 34.984 71.926 35.073C71.885 35.254 71.844 35.434 71.798 35.614C71.752 35.794 71.706 35.971 71.657 36.148C71.608 36.325 71.557 36.503 71.502 36.68C71.447 36.857 71.393 37.033 71.337 37.208L71.328 37.236C71.357 37.293 71.386 37.35 71.416 37.406C71.749 38.057 72.087 38.718 72.427 39.378C72.616 39.748 72.808 40.115 73 40.478C73.054 40.323 73.108 40.168 73.166 40.015C73.258 39.763 73.348 39.515 73.445 39.262C73.542 39.009 73.645 38.762 73.74 38.514C73.789 38.389 73.84 38.265 73.893 38.142C73.946 38.019 73.993 37.894 74.051 37.771C74.156 37.523 74.266 37.278 74.378 37.032L74.385 37.017C74.4097 36.9646 74.4524 36.9229 74.5054 36.8996C74.5584 36.8762 74.618 36.8728 74.6733 36.89C74.7286 36.9072 74.7759 36.9438 74.8063 36.993C74.8368 37.0423 74.8484 37.1009 74.839 37.158V37.174C74.784 37.437 74.726 37.699 74.666 37.96C74.6367 38.0933 74.6053 38.2237 74.572 38.351C74.541 38.481 74.512 38.612 74.472 38.742C74.406 39.001 74.339 39.26 74.272 39.519C74.205 39.778 74.127 40.033 74.053 40.29C73.979 40.547 73.9 40.802 73.822 41.058L73.657 41.579L76.091 46.598C76.226 46.393 76.352 46.169 76.472 45.939C76.716 45.466 76.944 44.976 77.156 44.481C77.19 44.406 77.219 44.329 77.256 44.253L77.021 43.744L76.874 43.412C76.825 43.302 76.774 43.192 76.729 43.08C76.635 42.858 76.538 42.635 76.449 42.41C76.36 42.185 76.268 41.96 76.182 41.735C76.096 41.51 76.011 41.281 75.93 41.052C75.849 40.823 75.771 40.594 75.694 40.363L75.687 40.341C75.6709 40.2854 75.6755 40.2258 75.6998 40.1733C75.7242 40.1208 75.7667 40.0788 75.8196 40.0552C75.8725 40.0316 75.9321 40.0279 75.9875 40.0447C76.0429 40.0616 76.0903 40.0979 76.121 40.147L76.133 40.166C76.264 40.374 76.392 40.581 76.517 40.79C76.642 40.999 76.764 41.209 76.882 41.42C77 41.631 77.12 41.844 77.234 42.058C77.348 42.272 77.461 42.485 77.573 42.701C77.63 42.808 77.684 42.917 77.738 43.024L77.75 43.049C77.95 42.539 78.1453 42.034 78.336 41.534C78.516 41.0587 78.6903 40.592 78.859 40.134L78.81 40.034L78.603 39.579L78.503 39.349C78.47 39.272 78.437 39.196 78.403 39.117C78.341 38.963 78.275 38.808 78.219 38.652C78.163 38.496 78.103 38.338 78.049 38.18C77.995 38.022 77.943 37.862 77.893 37.701C77.843 37.54 77.793 37.378 77.754 37.215C77.754 37.206 77.748 37.197 77.746 37.188C77.735 37.1343 77.7425 37.0785 77.7675 37.0297C77.7924 36.9809 77.8332 36.9421 77.8832 36.9196C77.9331 36.8971 77.9893 36.8924 78.0423 36.9061C78.0954 36.9198 78.1422 36.9511 78.175 36.995C78.18 37.0031 78.1857 37.0108 78.192 37.018C78.292 37.157 78.386 37.297 78.479 37.437C78.572 37.577 78.662 37.721 78.751 37.866C78.84 38.011 78.924 38.154 79.006 38.299C79.088 38.444 79.169 38.592 79.25 38.739C79.273 38.781 79.295 38.823 79.317 38.867C79.333 38.826 79.347 38.783 79.361 38.743C79.682 37.85 79.945 36.926 80.223 36.143C80.323 35.868 80.416 35.602 80.506 35.343L80.406 35.13C80.2436 34.7892 80.1143 34.4336 80.02 34.068C79.997 33.976 79.975 33.881 79.959 33.787C79.943 33.693 79.924 33.596 79.912 33.499C79.912 33.486 79.912 33.471 79.912 33.458C79.9083 33.4086 79.92 33.3592 79.9454 33.3166C79.9708 33.274 80.0087 33.2403 80.054 33.2201C80.0993 33.1998 80.1497 33.1941 80.1984 33.2035C80.2471 33.213 80.2916 33.2373 80.326 33.273C80.3359 33.2828 80.3453 33.2931 80.354 33.304C80.422 33.376 80.487 33.45 80.548 33.526C80.609 33.602 80.668 33.678 80.726 33.754C80.807 33.864 80.881 33.977 80.952 34.091C81.189 33.42 81.395 32.837 81.564 32.362C81.724 31.904 81.864 31.944 81.751 32.413C81.637 32.903 81.497 33.505 81.32 34.19C81.439 34.145 81.558 34.101 81.68 34.062C81.726 34.046 81.773 34.034 81.821 34.021C81.869 34.008 81.914 33.993 81.963 33.981C82.063 33.957 82.156 33.935 82.256 33.916L82.294 33.909C82.3425 33.8994 82.3928 33.9054 82.4378 33.9261C82.4827 33.9468 82.52 33.9812 82.5442 34.0243C82.5685 34.0674 82.5785 34.1171 82.5729 34.1662C82.5673 34.2153 82.5464 34.2615 82.513 34.298C82.5039 34.3069 82.4952 34.3162 82.487 34.326C82.416 34.397 82.345 34.465 82.272 34.526C82.237 34.56 82.2 34.59 82.163 34.626C82.126 34.662 82.089 34.689 82.051 34.718C81.7515 34.9572 81.4305 35.1681 81.092 35.348L81.012 35.391C80.935 35.684 80.851 35.985 80.766 36.299C80.553 37.077 80.357 37.994 80.091 38.877C80.191 38.83 80.291 38.785 80.391 38.741C80.547 38.672 80.705 38.606 80.861 38.541C80.94 38.508 81.021 38.478 81.1 38.441C81.179 38.404 81.26 38.379 81.34 38.35C81.501 38.29 81.664 38.234 81.828 38.181L81.85 38.173C81.9015 38.1558 81.9574 38.157 82.0081 38.1765C82.0589 38.196 82.1012 38.2325 82.1279 38.2798C82.1546 38.3271 82.1641 38.3822 82.1546 38.4357C82.1451 38.4892 82.1173 38.5378 82.076 38.573C82.0708 38.5782 82.0651 38.5828 82.059 38.587C81.924 38.694 81.788 38.797 81.65 38.897C81.581 38.948 81.512 38.997 81.441 39.045C81.37 39.093 81.303 39.145 81.231 39.192C81.09 39.286 80.949 39.38 80.805 39.471C80.661 39.562 80.516 39.651 80.372 39.738C80.228 39.825 80.079 39.91 79.933 39.995L79.703 40.122C79.529 40.673 79.348 41.235 79.154 41.808C79.0007 42.2653 78.838 42.7277 78.666 43.195C78.725 43.165 78.782 43.135 78.841 43.107C79.064 43.001 79.284 42.89 79.508 42.788C79.732 42.686 79.956 42.581 80.18 42.48C80.293 42.429 80.406 42.38 80.52 42.333L80.861 42.187C81.089 42.087 81.32 42 81.549 41.91L81.564 41.905C81.6172 41.8825 81.6768 41.8805 81.7314 41.8991C81.7861 41.9178 81.8319 41.9559 81.8602 42.0063C81.8885 42.0566 81.8973 42.1156 81.8849 42.172C81.8725 42.2283 81.8398 42.2782 81.793 42.312L81.781 42.319C81.581 42.461 81.3773 42.6003 81.17 42.737C81.07 42.806 80.964 42.872 80.861 42.937C80.758 43.002 80.654 43.071 80.55 43.137C80.341 43.269 80.133 43.398 79.923 43.524C79.713 43.65 79.5 43.776 79.288 43.899C79.076 44.022 78.861 44.141 78.647 44.264L78.156 44.531C78.116 44.631 78.076 44.731 78.034 44.831C77.823 45.341 77.601 45.854 77.334 46.361C77.26 46.505 77.034 46.861 76.841 47.147C76.7138 47.3393 76.6658 47.5732 76.707 47.8L76.711 47.807Z" fill="url(#paint73_linear)"/>
<path d="M84.292 60.337L84.749 58.403C84.0532 58.1423 83.4618 57.6612 83.065 57.033L81.249 54.151L79.549 55.191L81.366 58.073C82.044 59.149 83.0803 59.9509 84.292 60.337Z" fill="url(#paint74_linear)"/>
<path d="M76.123 46.933L75.387 47.412L78.5 53.633L80.069 52.652L76.123 46.933Z" fill="url(#paint75_linear)"/>
<path d="M59.4983 56.5743C58.5048 54.3369 56.7542 52.5214 54.5544 51.447C52.3545 50.3727 49.8464 50.1084 47.471 50.7005C46.1461 51.0285 44.788 51.2037 43.4233 51.2226C42.0643 51.2498 40.7067 51.1203 39.3773 50.8365C37.0008 50.3444 34.5275 50.676 32.3645 51.7767C30.2015 52.8774 28.4776 54.6815 27.4764 56.8924C26.3035 59.5838 25.731 62.4986 25.7989 65.4337C25.6732 71.7027 28.0276 77.7678 32.3499 82.3101C33.4258 83.466 34.8291 84.2658 36.372 84.6024C37.9149 84.939 39.5238 84.7963 40.9834 84.1935C41.7751 83.8558 42.6248 83.675 43.4854 83.6611C44.341 83.6448 45.1914 83.7967 45.9884 84.1082C47.4783 84.6554 49.0986 84.7404 50.6376 84.3523C52.1766 83.9641 53.5627 83.1207 54.6149 81.9324C58.9045 77.2846 61.2305 71.1579 61.1062 64.8344C61.1608 61.9983 60.6128 59.1829 59.4983 56.5743Z" fill="url(#paint76_linear)"/>
<path d="M50.0272 72.8452C51.0547 73.2193 52.198 72.6701 52.5807 71.6186C52.9634 70.5672 52.4406 69.4116 51.413 69.0376C50.3854 68.6636 49.2422 69.2128 48.8595 70.2642C48.4768 71.3157 48.9996 72.4712 50.0272 72.8452Z" fill="url(#paint77_linear)"/>
<path d="M50.8861 77.8211C51.457 78.0289 52.0922 77.7236 52.3049 77.1392C52.5176 76.5548 52.2272 75.9127 51.6563 75.7049C51.0855 75.4971 50.4503 75.8024 50.2376 76.3868C50.0249 76.9711 50.3152 77.6133 50.8861 77.8211Z" fill="url(#paint78_linear)"/>
<path d="M48.1517 75.8723C48.9239 76.1534 49.783 75.7409 50.0705 74.9511C50.358 74.1612 49.9651 73.293 49.1928 73.0119C48.4206 72.7308 47.5615 73.1433 47.274 73.9332C46.9865 74.7231 47.3795 75.5913 48.1517 75.8723Z" fill="url(#paint79_linear)"/>
<path d="M59.4992 56.5746C58.9317 55.3074 58.1182 54.1654 57.1059 53.215C56.0936 52.2645 54.9028 51.5245 53.6023 51.0378C54.6159 51.9909 55.4313 53.1346 56.0019 54.4035C57.1164 57.0133 57.664 59.8301 57.6084 62.6673C57.7319 68.9898 55.406 75.1151 51.1171 79.7621C50.065 80.9505 48.6789 81.7939 47.1399 82.182C45.6009 82.5702 43.9806 82.4852 42.4907 81.938C41.6937 81.6265 40.8433 81.4746 39.9877 81.4909C39.1271 81.5047 38.2774 81.6855 37.4857 82.0233C35.8499 82.7295 34.0136 82.8188 32.317 82.2747L32.3512 82.3094C33.4271 83.4651 34.8302 84.2647 36.3729 84.6012C37.9156 84.9377 39.5243 84.7951 40.9838 84.1925C41.7754 83.8548 42.6251 83.674 43.4857 83.6601C44.3413 83.6438 45.1917 83.7957 45.9888 84.1072C47.4787 84.6544 49.0989 84.7394 50.6379 84.3513C52.1769 83.9631 53.5631 83.1197 54.6152 81.9314C58.904 77.2844 61.2299 71.159 61.1064 64.8366C61.1616 61.9999 60.6138 59.1838 59.4992 56.5746Z" fill="url(#paint80_linear)"/>
<path d="M43.0638 54.0757C42.9052 54.0764 42.7482 54.0448 42.6023 53.9828C42.4564 53.9209 42.3247 53.8298 42.2151 53.7153C42.1055 53.6007 42.0204 53.465 41.9651 53.3165C41.9097 53.168 41.8851 53.0097 41.8929 52.8514C41.9049 50.5196 42.8086 48.2808 44.4187 46.594C46.0287 44.9072 48.223 43.9003 50.5517 43.7798C50.7103 43.7791 50.8673 43.8107 51.0132 43.8726C51.1591 43.9346 51.2908 44.0256 51.4004 44.1402C51.51 44.2548 51.5951 44.3905 51.6505 44.539C51.7058 44.6875 51.7304 44.8458 51.7226 45.0041C51.7212 45.3317 51.5944 45.6462 51.3682 45.8832C51.1421 46.1201 50.8337 46.2614 50.5066 46.278C48.832 46.3649 47.2541 47.089 46.0963 48.302C44.9385 49.515 44.2886 51.1249 44.2798 52.8018C44.2784 53.1293 44.1516 53.4439 43.9254 53.6808C43.6992 53.9178 43.3909 54.0591 43.0638 54.0757Z" fill="url(#paint81_linear)"/>
<path d="M43.3799 51.5111C42.0075 51.55 40.6353 51.4271 39.2917 51.1448C39.2257 51.1303 39.1583 51.1196 39.0925 51.1074C38.8543 51.2869 38.6576 51.5157 38.516 51.7782C38.3743 52.0407 38.291 52.3307 38.2718 52.6284C38.2622 54.1605 40.54 55.3461 43.3571 55.2785C46.1741 55.2109 48.4671 53.9075 48.477 52.3745C48.4645 52.0826 48.3859 51.7973 48.247 51.5403C48.108 51.2832 47.9125 51.0611 47.6752 50.8907C47.6073 50.9076 47.5396 50.9212 47.4714 50.939C46.1343 51.2874 44.7613 51.4794 43.3799 51.5111Z" fill="url(#paint82_linear)"/>
<defs>
<linearGradient id="paint0_linear" x1="42.8614" y1="42.3098" x2="52.7008" y2="39.3785" gradientUnits="userSpaceOnUse">
<stop stop-color="#FF931E"/>
<stop offset="0.569" stop-color="#FF760E"/>
<stop offset="1" stop-color="#FF5D00"/>
</linearGradient>
<linearGradient id="paint1_linear" x1="49.8772" y1="30.9167" x2="48.6881" y2="17.6509" gradientUnits="userSpaceOnUse">
<stop stop-color="#FF931E" stop-opacity="0"/>
<stop offset="1" stop-color="#FF5D00"/>
</linearGradient>
<linearGradient id="paint2_linear" x1="30.2253" y1="19.7978" x2="33.9061" y2="16.389" gradientUnits="userSpaceOnUse">
<stop stop-color="#9EB644"/>
<stop offset="1" stop-color="#738611"/>
</linearGradient>
<linearGradient id="paint3_linear" x1="44.8063" y1="18.6753" x2="40.6596" y2="18.0239" gradientUnits="userSpaceOnUse">
<stop stop-color="#9EB644"/>
<stop offset="1" stop-color="#738611"/>
</linearGradient>
<linearGradient id="paint4_linear" x1="35.1542" y1="15.2778" x2="38.677" y2="13.6592" gradientUnits="userSpaceOnUse">
<stop stop-color="#9EB644"/>
<stop offset="1" stop-color="#738611"/>
</linearGradient>
<linearGradient id="paint5_linear" x1="40.0117" y1="13.8891" x2="48.4867" y2="17.8376" gradientUnits="userSpaceOnUse">
<stop stop-color="#9EB644"/>
<stop offset="1" stop-color="#738611"/>
</linearGradient>
<linearGradient id="paint6_linear" x1="20.4009" y1="35.1038" x2="31.6786" y2="51.4954" gradientUnits="userSpaceOnUse">
<stop stop-color="#FFA325"/>
<stop offset="1" stop-color="#5A6313"/>
</linearGradient>
<linearGradient id="paint7_linear" x1="1.61922" y1="63.9432" x2="9.30628" y2="64.5577" gradientUnits="userSpaceOnUse">
<stop stop-color="#FFD945"/>
<stop offset="0.304" stop-color="#FFCD3E"/>
<stop offset="0.856" stop-color="#FFAD2B"/>
<stop offset="1" stop-color="#FFA325"/>
</linearGradient>
<linearGradient id="paint8_linear" x1="41.082" y1="64.9745" x2="51.8754" y2="66.4496" gradientUnits="userSpaceOnUse">
<stop stop-color="#FFD945"/>
<stop offset="0.304" stop-color="#FFCD3E"/>
<stop offset="0.856" stop-color="#FFAD2B"/>
<stop offset="1" stop-color="#FFA325"/>
</linearGradient>
<radialGradient id="paint9_radial" cx="0" cy="0" r="1" gradientUnits="userSpaceOnUse" gradientTransform="translate(41.3565 63.7462) scale(9.09447 14.9311)">
<stop stop-color="#FF7044"/>
<stop offset="0.35" stop-color="#FC7048" stop-opacity="0.651"/>
<stop offset="0.714" stop-color="#F37155" stop-opacity="0.286"/>
<stop offset="1" stop-color="#E87264" stop-opacity="0"/>
</radialGradient>
<linearGradient id="paint10_linear" x1="5.07653" y1="61.7728" x2="19.8458" y2="63.4214" gradientUnits="userSpaceOnUse">
<stop stop-color="#FFD945"/>
<stop offset="0.304" stop-color="#FFCD3E"/>
<stop offset="0.856" stop-color="#FFAD2B"/>
<stop offset="1" stop-color="#FFA325"/>
</linearGradient>
<linearGradient id="paint11_linear" x1="30.7228" y1="63.234" x2="45.8275" y2="65.3455" gradientUnits="userSpaceOnUse">
<stop stop-color="#FFD945"/>
<stop offset="0.304" stop-color="#FFCD3E"/>
<stop offset="0.856" stop-color="#FFAD2B"/>
<stop offset="1" stop-color="#FFA325"/>
</linearGradient>
<radialGradient id="paint12_radial" cx="0" cy="0" r="1" gradientUnits="userSpaceOnUse" gradientTransform="translate(31.2822 63.4423) scale(12.1446 18.6264)">
<stop stop-color="#FF7044"/>
<stop offset="0.343" stop-color="#FB7049" stop-opacity="0.659"/>
<stop offset="0.775" stop-color="#F07159" stop-opacity="0.224"/>
<stop offset="1" stop-color="#E87264" stop-opacity="0"/>
</radialGradient>
<linearGradient id="paint13_linear" x1="13.2869" y1="60.607" x2="35.7044" y2="63.64" gradientUnits="userSpaceOnUse">
<stop stop-color="#FFD945"/>
<stop offset="0.304" stop-color="#FFCD3E"/>
<stop offset="0.856" stop-color="#FFAD2B"/>
<stop offset="1" stop-color="#FFA325"/>
</linearGradient>
<linearGradient id="paint14_linear" x1="21.829" y1="70.082" x2="25.2101" y2="73.5362" gradientUnits="userSpaceOnUse">
<stop stop-color="#E87264" stop-opacity="0"/>
<stop offset="1" stop-color="#FF7044"/>
</linearGradient>
<linearGradient id="paint15_linear" x1="22.616" y1="76.6576" x2="24.1742" y2="78.2499" gradientUnits="userSpaceOnUse">
<stop stop-color="#E87264" stop-opacity="0"/>
<stop offset="1" stop-color="#FF7044"/>
</linearGradient>
<linearGradient id="paint16_linear" x1="19.3554" y1="73.7706" x2="22.4456" y2="76.9293" gradientUnits="userSpaceOnUse">
<stop stop-color="#E87264" stop-opacity="0"/>
<stop offset="1" stop-color="#FF7044"/>
</linearGradient>
<linearGradient id="paint17_linear" x1="26.5662" y1="62.5078" x2="9.57535" y2="53.8599" gradientUnits="userSpaceOnUse">
<stop stop-color="#FFD945" stop-opacity="0"/>
<stop offset="1" stop-color="#FBED21"/>
</linearGradient>
<linearGradient id="paint18_linear" x1="32.63" y1="72.726" x2="50.9021" y2="80.7778" gradientUnits="userSpaceOnUse">
<stop stop-color="#E87264" stop-opacity="0"/>
<stop offset="1" stop-color="#FF7044"/>
</linearGradient>
<linearGradient id="paint19_linear" x1="29.932" y1="41" x2="27.7" y2="41" gradientUnits="userSpaceOnUse">
<stop stop-color="#5A6313" stop-opacity="0"/>
<stop offset="1" stop-color="#544F43"/>
</linearGradient>
<linearGradient id="paint20_linear" x1="23.3815" y1="40.7558" x2="25.7424" y2="41.1419" gradientUnits="userSpaceOnUse">
<stop stop-color="#5A6313" stop-opacity="0"/>
<stop offset="1" stop-color="#544F43"/>
</linearGradient>
<linearGradient id="paint21_linear" x1="84.2194" y1="71.5348" x2="81.9126" y2="50.9094" gradientUnits="userSpaceOnUse">
<stop stop-color="#FFA325"/>
<stop offset="1" stop-color="#5A6313"/>
</linearGradient>
<linearGradient id="paint22_linear" x1="42.4093" y1="75.0099" x2="38.9455" y2="86.3224" gradientUnits="userSpaceOnUse">
<stop stop-color="#C4D143"/>
<stop offset="1" stop-color="#7C8A1A"/>
</linearGradient>
<linearGradient id="paint23_linear" x1="41.0956" y1="79.1303" x2="43.511" y2="71.235" gradientUnits="userSpaceOnUse">
<stop stop-color="#C4D143" stop-opacity="0"/>
<stop offset="1" stop-color="#FFED82"/>
</linearGradient>
<linearGradient id="paint24_linear" x1="38.8587" y1="79.2763" x2="56.9267" y2="91.9552" gradientUnits="userSpaceOnUse">
<stop stop-color="#7C8A1A" stop-opacity="0"/>
<stop offset="0.315" stop-color="#768319" stop-opacity="0.314"/>
<stop offset="0.781" stop-color="#646F15" stop-opacity="0.78"/>
<stop offset="1" stop-color="#5A6313"/>
</linearGradient>
<linearGradient id="paint25_linear" x1="47.0843" y1="63.7149" x2="43.6205" y2="75.0275" gradientUnits="userSpaceOnUse">
<stop stop-color="#C4D143"/>
<stop offset="1" stop-color="#7C8A1A"/>
</linearGradient>
<linearGradient id="paint26_linear" x1="45.7595" y1="67.8354" x2="48.1856" y2="59.9398" gradientUnits="userSpaceOnUse">
<stop stop-color="#C4D143" stop-opacity="0"/>
<stop offset="1" stop-color="#FFED82"/>
</linearGradient>
<linearGradient id="paint27_linear" x1="43.5337" y1="67.9813" x2="61.5879" y2="80.6586" gradientUnits="userSpaceOnUse">
<stop stop-color="#7C8A1A" stop-opacity="0"/>
<stop offset="0.315" stop-color="#768319" stop-opacity="0.314"/>
<stop offset="0.781" stop-color="#646F15" stop-opacity="0.78"/>
<stop offset="1" stop-color="#5A6313"/>
</linearGradient>
<linearGradient id="paint28_linear" x1="52.1113" y1="73.1129" x2="48.6475" y2="84.4255" gradientUnits="userSpaceOnUse">
<stop stop-color="#C4D143"/>
<stop offset="1" stop-color="#7C8A1A"/>
</linearGradient>
<linearGradient id="paint29_linear" x1="50.7865" y1="77.2345" x2="53.2134" y2="69.3377" gradientUnits="userSpaceOnUse">
<stop stop-color="#C4D143" stop-opacity="0"/>
<stop offset="1" stop-color="#FFED82"/>
</linearGradient>
<linearGradient id="paint30_linear" x1="48.5607" y1="77.3784" x2="66.6149" y2="90.0556" gradientUnits="userSpaceOnUse">
<stop stop-color="#7C8A1A" stop-opacity="0"/>
<stop offset="0.315" stop-color="#768319" stop-opacity="0.314"/>
<stop offset="0.781" stop-color="#646F15" stop-opacity="0.78"/>
<stop offset="1" stop-color="#5A6313"/>
</linearGradient>
<linearGradient id="paint31_linear" x1="52.7053" y1="54.3558" x2="49.2415" y2="65.6555" gradientUnits="userSpaceOnUse">
<stop stop-color="#C4D143"/>
<stop offset="1" stop-color="#7C8A1A"/>
</linearGradient>
<linearGradient id="paint32_linear" x1="51.3805" y1="58.4741" x2="53.8066" y2="50.5678" gradientUnits="userSpaceOnUse">
<stop stop-color="#C4D143" stop-opacity="0"/>
<stop offset="1" stop-color="#FFED82"/>
</linearGradient>
<linearGradient id="paint33_linear" x1="49.1547" y1="58.6083" x2="67.2089" y2="71.2856" gradientUnits="userSpaceOnUse">
<stop stop-color="#7C8A1A" stop-opacity="0"/>
<stop offset="0.315" stop-color="#768319" stop-opacity="0.314"/>
<stop offset="0.781" stop-color="#646F15" stop-opacity="0.78"/>
<stop offset="1" stop-color="#5A6313"/>
</linearGradient>
<linearGradient id="paint34_linear" x1="75.0433" y1="72.8999" x2="71.5795" y2="84.2125" gradientUnits="userSpaceOnUse">
<stop stop-color="#C4D143"/>
<stop offset="1" stop-color="#7C8A1A"/>
</linearGradient>
<linearGradient id="paint35_linear" x1="73.7185" y1="77.0204" x2="76.1339" y2="69.1251" gradientUnits="userSpaceOnUse">
<stop stop-color="#C4D143" stop-opacity="0"/>
<stop offset="1" stop-color="#FFED82"/>
</linearGradient>
<linearGradient id="paint36_linear" x1="71.4796" y1="77.1561" x2="89.5432" y2="89.8467" gradientUnits="userSpaceOnUse">
<stop stop-color="#7C8A1A" stop-opacity="0"/>
<stop offset="0.315" stop-color="#768319" stop-opacity="0.314"/>
<stop offset="0.781" stop-color="#646F15" stop-opacity="0.78"/>
<stop offset="1" stop-color="#5A6313"/>
</linearGradient>
<linearGradient id="paint37_linear" x1="58.7793" y1="63.6419" x2="55.3155" y2="74.9545" gradientUnits="userSpaceOnUse">
<stop stop-color="#C4D143"/>
<stop offset="1" stop-color="#7C8A1A"/>
</linearGradient>
<linearGradient id="paint38_linear" x1="57.4535" y1="67.7635" x2="59.8698" y2="59.867" gradientUnits="userSpaceOnUse">
<stop stop-color="#C4D143" stop-opacity="0"/>
<stop offset="1" stop-color="#FFED82"/>
</linearGradient>
<linearGradient id="paint39_linear" x1="55.2287" y1="67.9083" x2="73.2829" y2="80.5856" gradientUnits="userSpaceOnUse">
<stop stop-color="#7C8A1A" stop-opacity="0"/>
<stop offset="0.315" stop-color="#768319" stop-opacity="0.314"/>
<stop offset="0.781" stop-color="#646F15" stop-opacity="0.78"/>
<stop offset="1" stop-color="#5A6313"/>
</linearGradient>
<linearGradient id="paint40_linear" x1="63.0813" y1="74.0969" x2="59.6175" y2="85.4095" gradientUnits="userSpaceOnUse">
<stop stop-color="#C4D143"/>
<stop offset="1" stop-color="#7C8A1A"/>
</linearGradient>
<linearGradient id="paint41_linear" x1="61.7555" y1="78.2174" x2="64.171" y2="70.3221" gradientUnits="userSpaceOnUse">
<stop stop-color="#C4D143" stop-opacity="0"/>
<stop offset="1" stop-color="#FFED82"/>
</linearGradient>
<linearGradient id="paint42_linear" x1="59.5307" y1="78.3531" x2="77.5806" y2="91.0421" gradientUnits="userSpaceOnUse">
<stop stop-color="#7C8A1A" stop-opacity="0"/>
<stop offset="0.315" stop-color="#768319" stop-opacity="0.314"/>
<stop offset="0.781" stop-color="#646F15" stop-opacity="0.78"/>
<stop offset="1" stop-color="#5A6313"/>
</linearGradient>
<linearGradient id="paint43_linear" x1="75.284" y1="60.5919" x2="71.833" y2="71.9042" gradientUnits="userSpaceOnUse">
<stop stop-color="#C4D143"/>
<stop offset="1" stop-color="#7C8A1A"/>
</linearGradient>
<linearGradient id="paint44_linear" x1="73.9715" y1="64.7124" x2="76.3869" y2="56.8171" gradientUnits="userSpaceOnUse">
<stop stop-color="#C4D143" stop-opacity="0"/>
<stop offset="1" stop-color="#FFED82"/>
</linearGradient>
<linearGradient id="paint45_linear" x1="71.7325" y1="64.8583" x2="89.8005" y2="77.5372" gradientUnits="userSpaceOnUse">
<stop stop-color="#7C8A1A" stop-opacity="0"/>
<stop offset="0.315" stop-color="#768319" stop-opacity="0.314"/>
<stop offset="0.781" stop-color="#646F15" stop-opacity="0.78"/>
<stop offset="1" stop-color="#5A6313"/>
</linearGradient>
<linearGradient id="paint46_linear" x1="69.7972" y1="50.3248" x2="66.3335" y2="61.6245" gradientUnits="userSpaceOnUse">
<stop stop-color="#C4D143"/>
<stop offset="1" stop-color="#7C8A1A"/>
</linearGradient>
<linearGradient id="paint47_linear" x1="68.4735" y1="54.4447" x2="70.8942" y2="46.534" gradientUnits="userSpaceOnUse">
<stop stop-color="#C4D143" stop-opacity="0"/>
<stop offset="1" stop-color="#FFED82"/>
</linearGradient>
<linearGradient id="paint48_linear" x1="66.2335" y1="54.5783" x2="84.3014" y2="67.2572" gradientUnits="userSpaceOnUse">
<stop stop-color="#7C8A1A" stop-opacity="0"/>
<stop offset="0.315" stop-color="#768319" stop-opacity="0.314"/>
<stop offset="0.781" stop-color="#646F15" stop-opacity="0.78"/>
<stop offset="1" stop-color="#5A6313"/>
</linearGradient>
<linearGradient id="paint49_linear" x1="59.7493" y1="45.4598" x2="56.2855" y2="56.7595" gradientUnits="userSpaceOnUse">
<stop stop-color="#C4D143"/>
<stop offset="1" stop-color="#7C8A1A"/>
</linearGradient>
<linearGradient id="paint50_linear" x1="58.4247" y1="49.5797" x2="60.8454" y2="41.6797" gradientUnits="userSpaceOnUse">
<stop stop-color="#C4D143" stop-opacity="0"/>
<stop offset="1" stop-color="#FFED82"/>
</linearGradient>
<linearGradient id="paint51_linear" x1="56.1855" y1="49.7133" x2="74.2492" y2="62.404" gradientUnits="userSpaceOnUse">
<stop stop-color="#7C8A1A" stop-opacity="0"/>
<stop offset="0.315" stop-color="#768319" stop-opacity="0.314"/>
<stop offset="0.781" stop-color="#646F15" stop-opacity="0.78"/>
<stop offset="1" stop-color="#5A6313"/>
</linearGradient>
<linearGradient id="paint52_linear" x1="69.5912" y1="64.5769" x2="66.1275" y2="75.8895" gradientUnits="userSpaceOnUse">
<stop stop-color="#C4D143"/>
<stop offset="1" stop-color="#7C8A1A"/>
</linearGradient>
<linearGradient id="paint53_linear" x1="68.2665" y1="68.6989" x2="70.6873" y2="60.799" gradientUnits="userSpaceOnUse">
<stop stop-color="#C4D143" stop-opacity="0"/>
<stop offset="1" stop-color="#FFED82"/>
</linearGradient>
<linearGradient id="paint54_linear" x1="66.0265" y1="68.8433" x2="84.0945" y2="81.5222" gradientUnits="userSpaceOnUse">
<stop stop-color="#7C8A1A" stop-opacity="0"/>
<stop offset="0.315" stop-color="#768319" stop-opacity="0.314"/>
<stop offset="0.781" stop-color="#646F15" stop-opacity="0.78"/>
<stop offset="1" stop-color="#5A6313"/>
</linearGradient>
<linearGradient id="paint55_linear" x1="64.3823" y1="54.1198" x2="60.9185" y2="65.4195" gradientUnits="userSpaceOnUse">
<stop stop-color="#C4D143"/>
<stop offset="1" stop-color="#7C8A1A"/>
</linearGradient>
<linearGradient id="paint56_linear" x1="63.0575" y1="58.2392" x2="65.4738" y2="50.332" gradientUnits="userSpaceOnUse">
<stop stop-color="#C4D143" stop-opacity="0"/>
<stop offset="1" stop-color="#FFED82"/>
</linearGradient>
<linearGradient id="paint57_linear" x1="60.8185" y1="58.3733" x2="78.8865" y2="71.0522" gradientUnits="userSpaceOnUse">
<stop stop-color="#7C8A1A" stop-opacity="0"/>
<stop offset="0.315" stop-color="#768319" stop-opacity="0.314"/>
<stop offset="0.781" stop-color="#646F15" stop-opacity="0.78"/>
<stop offset="1" stop-color="#5A6313"/>
</linearGradient>
<linearGradient id="paint58_linear" x1="58.0643" y1="72.1169" x2="46.0814" y2="44.0757" gradientUnits="userSpaceOnUse">
<stop stop-color="#C4D143" stop-opacity="0"/>
<stop offset="1" stop-color="#FFED82"/>
</linearGradient>
<linearGradient id="paint59_linear" x1="67.3789" y1="62.9765" x2="75.5915" y2="48.2048" gradientUnits="userSpaceOnUse">
<stop stop-color="#5A6313" stop-opacity="0"/>
<stop offset="1" stop-color="#544F43"/>
</linearGradient>
<linearGradient id="paint60_linear" x1="71.7108" y1="23.7421" x2="71.5826" y2="50.0681" gradientUnits="userSpaceOnUse">
<stop stop-color="#FFA325"/>
<stop offset="1" stop-color="#7C8A1A"/>
</linearGradient>
<linearGradient id="paint61_linear" x1="76.4684" y1="38.8844" x2="87.9304" y2="38.8109" gradientUnits="userSpaceOnUse">
<stop stop-color="#7C8A1A" stop-opacity="0"/>
<stop offset="1" stop-color="#5A6313"/>
</linearGradient>
<linearGradient id="paint62_linear" x1="64.9184" y1="38.9947" x2="83.989" y2="38.804" gradientUnits="userSpaceOnUse">
<stop stop-color="#7C8A1A" stop-opacity="0"/>
<stop offset="1" stop-color="#5A6313"/>
</linearGradient>
<linearGradient id="paint63_linear" x1="65.7999" y1="46.4553" x2="65.7894" y2="36.9183" gradientUnits="userSpaceOnUse">
<stop stop-color="#7C8A1A" stop-opacity="0"/>
<stop offset="1" stop-color="#5A6313"/>
</linearGradient>
<linearGradient id="paint64_linear" x1="71.4184" y1="38.0412" x2="72.5946" y2="42.2154" gradientUnits="userSpaceOnUse">
<stop stop-color="#7C8A1A" stop-opacity="0"/>
<stop offset="1" stop-color="#544F43"/>
</linearGradient>
<linearGradient id="paint65_linear" x1="69.0605" y1="33.1688" x2="71.1685" y2="40.6584" gradientUnits="userSpaceOnUse">
<stop stop-color="#7C8A1A" stop-opacity="0"/>
<stop offset="1" stop-color="#544F43"/>
</linearGradient>
<linearGradient id="paint66_linear" x1="66.7569" y1="28.4277" x2="68.7986" y2="35.671" gradientUnits="userSpaceOnUse">
<stop stop-color="#7C8A1A" stop-opacity="0"/>
<stop offset="1" stop-color="#544F43"/>
</linearGradient>
<linearGradient id="paint67_linear" x1="79.1616" y1="39.8938" x2="78.3625" y2="43.9933" gradientUnits="userSpaceOnUse">
<stop stop-color="#7C8A1A" stop-opacity="0"/>
<stop offset="1" stop-color="#544F43"/>
</linearGradient>
<linearGradient id="paint68_linear" x1="80.368" y1="36.0144" x2="79.0079" y2="43.4316" gradientUnits="userSpaceOnUse">
<stop stop-color="#7C8A1A" stop-opacity="0"/>
<stop offset="1" stop-color="#544F43"/>
</linearGradient>
<linearGradient id="paint69_linear" x1="81.888" y1="31.5471" x2="80.2967" y2="38.5676" gradientUnits="userSpaceOnUse">
<stop stop-color="#7C8A1A" stop-opacity="0"/>
<stop offset="1" stop-color="#544F43"/>
</linearGradient>
<linearGradient id="paint70_linear" x1="68.2303" y1="45.5347" x2="71.7717" y2="46.2553" gradientUnits="userSpaceOnUse">
<stop stop-color="#7C8A1A" stop-opacity="0"/>
<stop offset="1" stop-color="#544F43"/>
</linearGradient>
<linearGradient id="paint71_linear" x1="63.8886" y1="43.5962" x2="68.1887" y2="44.3282" gradientUnits="userSpaceOnUse">
<stop stop-color="#7C8A1A" stop-opacity="0"/>
<stop offset="1" stop-color="#544F43"/>
</linearGradient>
<linearGradient id="paint72_linear" x1="59.2115" y1="41.8755" x2="63.3337" y2="44.0081" gradientUnits="userSpaceOnUse">
<stop stop-color="#7C8A1A" stop-opacity="0"/>
<stop offset="1" stop-color="#544F43"/>
</linearGradient>
<linearGradient id="paint73_linear" x1="76.2889" y1="30.1835" x2="71.791" y2="44.9871" gradientUnits="userSpaceOnUse">
<stop stop-color="#FFA325"/>
<stop offset="1" stop-color="#5A6313"/>
</linearGradient>
<linearGradient id="paint74_linear" x1="82.5702" y1="57.4914" x2="80.2209" y2="54.8601" gradientUnits="userSpaceOnUse">
<stop stop-color="#5A6313" stop-opacity="0"/>
<stop offset="1" stop-color="#544F43"/>
</linearGradient>
<linearGradient id="paint75_linear" x1="77.611" y1="50.4572" x2="79.6144" y2="52.0408" gradientUnits="userSpaceOnUse">
<stop stop-color="#5A6313" stop-opacity="0"/>
<stop offset="1" stop-color="#544F43"/>
</linearGradient>
<linearGradient id="paint76_linear" x1="28.2734" y1="43.5363" x2="54.2638" y2="78.9661" gradientUnits="userSpaceOnUse">
<stop stop-color="#FFA325"/>
<stop offset="1" stop-color="#F82814"/>
</linearGradient>
<linearGradient id="paint77_linear" x1="49.9962" y1="70.2209" x2="53.0764" y2="73.1931" gradientUnits="userSpaceOnUse">
<stop stop-color="#F82814" stop-opacity="0"/>
<stop offset="1" stop-color="#C0272D"/>
</linearGradient>
<linearGradient id="paint78_linear" x1="50.6955" y1="76.1964" x2="52.114" y2="77.5633" gradientUnits="userSpaceOnUse">
<stop stop-color="#F82814" stop-opacity="0"/>
<stop offset="1" stop-color="#C0272D"/>
</linearGradient>
<linearGradient id="paint79_linear" x1="47.837" y1="73.6133" x2="50.6542" y2="76.3328" gradientUnits="userSpaceOnUse">
<stop stop-color="#F82814" stop-opacity="0"/>
<stop offset="1" stop-color="#C0272D"/>
</linearGradient>
<linearGradient id="paint80_linear" x1="44.8806" y1="67.698" x2="61.7401" y2="80.0587" gradientUnits="userSpaceOnUse">
<stop stop-color="#F82814" stop-opacity="0"/>
<stop offset="1" stop-color="#C0272D"/>
</linearGradient>
<linearGradient id="paint81_linear" x1="44.5419" y1="45.0992" x2="47.727" y2="47.3463" gradientUnits="userSpaceOnUse">
<stop stop-color="#C7732E"/>
<stop offset="0.241" stop-color="#C2722F"/>
<stop offset="0.528" stop-color="#B36D32"/>
<stop offset="0.839" stop-color="#9B6636"/>
<stop offset="1" stop-color="#8C6239"/>
</linearGradient>
<linearGradient id="paint82_linear" x1="43.401" y1="52.9215" x2="42.4423" y2="57.5501" gradientUnits="userSpaceOnUse">
<stop stop-color="#F82814" stop-opacity="0"/>
<stop offset="1" stop-color="#C0272D"/>
</linearGradient>
</defs>
</svg>
