<svg width="135" height="46" viewBox="0 0 135 46" fill="none" xmlns="http://www.w3.org/2000/svg">
<path d="M126.033 0H8.03302C3.61474 0 0.03302 3.58172 0.03302 8V38C0.03302 42.4183 3.61474 46 8.03302 46H126.033C130.451 46 134.033 42.4183 134.033 38V8C134.033 3.58172 130.451 0 126.033 0Z" fill="black"/>
<path d="M10.886 18.767C10.6762 18.857 10.5018 19.0133 10.3894 19.212C10.2771 19.4107 10.233 19.6408 10.264 19.867V38.435C10.2328 38.6584 10.2743 38.886 10.3824 39.084C10.4904 39.2821 10.6592 39.4402 10.864 39.535L21.046 29.145L10.886 18.767Z" fill="url(#paint0_linear)"/>
<path d="M10.87 39.53C11.0311 39.5737 11.1996 39.5826 11.3644 39.5563C11.5293 39.5299 11.6866 39.4688 11.826 39.377L24.252 32.404L21.052 29.14L10.87 39.53Z" fill="url(#paint1_linear)"/>
<path d="M24.252 32.4039L28.49 30.0269C29.349 29.5429 29.349 28.7559 28.49 28.2739L24.237 25.8879L21.052 29.1379L24.252 32.4039Z" fill="url(#paint2_linear)"/>
<path d="M24.237 25.888L11.825 18.927C11.6878 18.8373 11.5337 18.7768 11.3721 18.7493C11.2106 18.7217 11.0451 18.7278 10.886 18.767L21.052 29.138L24.237 25.888Z" fill="url(#paint3_linear)"/>
<path d="M68.849 39.431C68.5311 39.205 68.2709 38.9072 68.0897 38.5618C67.9085 38.2163 67.8113 37.833 67.806 37.443C67.8222 36.9389 67.9704 36.448 68.2359 36.0192C68.5015 35.5905 68.875 35.239 69.319 35C70.4679 34.4081 71.7397 34.094 73.032 34.083H73.067L73.026 34.029C72.6913 33.6726 72.4964 33.2075 72.477 32.719C72.4791 32.4731 72.5362 32.2309 72.644 32.01L72.674 31.939H72.649H72.614H72.575C72.417 31.953 72.219 31.971 72.046 31.971C71.6231 31.9877 71.2012 31.9187 70.8058 31.7679C70.4103 31.6172 70.0495 31.3879 69.745 31.0939C69.4406 30.7999 69.1988 30.4473 69.0343 30.0574C68.8699 29.6674 68.7861 29.2482 68.788 28.825C68.7975 28.3144 68.9143 27.8116 69.1308 27.3492C69.3474 26.8867 69.6589 26.4751 70.045 26.141C71.0466 25.3648 72.2937 24.9744 73.559 25.041H77.605L76.347 25.77H75.127H75.132C75.5556 26.0827 75.9011 26.4891 76.1416 26.9575C76.382 27.4259 76.5108 27.9435 76.518 28.47C76.5071 29.0447 76.3503 29.6071 76.0624 30.1046C75.7745 30.6021 75.3649 31.0182 74.872 31.314L74.836 31.351C74.6912 31.4655 74.5709 31.608 74.4825 31.77C74.394 31.932 74.3391 32.1102 74.321 32.294C74.3308 32.4645 74.3806 32.6303 74.4664 32.778C74.5523 32.9257 74.6717 33.0511 74.815 33.144L74.831 33.158L75.54 33.717C76.0205 34.017 76.4213 34.4288 76.7083 34.9172C76.9953 35.4056 77.1598 35.9562 77.188 36.522C77.188 38.402 75.414 40.306 72.025 40.306C70.8998 40.3638 69.7859 40.0569 68.849 39.431ZM71.225 34.96C70.7587 35.0764 70.3423 35.3401 70.0377 35.7119C69.7331 36.0838 69.5565 36.5439 69.534 37.024C69.5363 37.3707 69.6232 37.7117 69.7869 38.0173C69.9507 38.323 70.1866 38.584 70.474 38.778C71.22 39.2634 72.0988 39.5042 72.988 39.467C74.767 39.467 75.872 38.638 75.872 37.304C75.872 36.261 75.178 35.71 73.735 34.661C73.5852 34.6421 73.434 34.6347 73.283 34.639C72.5857 34.6526 71.8934 34.7606 71.225 34.96ZM70.947 26.372C70.6392 26.8015 70.4871 27.3233 70.516 27.851C70.516 29.095 71.235 31.417 72.968 31.417C73.4668 31.4043 73.9425 31.204 74.3 30.856C74.6484 30.4504 74.8265 29.9258 74.797 29.392C74.797 27.886 73.916 25.707 72.324 25.707C72.0601 25.7116 71.8002 25.7734 71.5625 25.8882C71.3247 26.003 71.1148 26.1681 70.947 26.372ZM116.44 38.056L116.611 37.122C116.866 37.2212 117.137 37.274 117.411 37.278C118.018 37.278 118.442 37.024 118.821 36.13L119.545 34.456L115.638 24.98H116.746L120.097 33.19L123.424 24.98H124.547L119.777 36.443C119.627 36.9482 119.318 37.3914 118.895 37.7066C118.473 38.0218 117.96 38.192 117.433 38.192C117.098 38.1903 116.764 38.1446 116.44 38.056ZM95.797 37.96H94.805V24.98H95.797V26.458C96.1529 25.9358 96.6298 25.5073 97.187 25.209C97.7441 24.9108 98.3651 24.7516 98.997 24.745C99.5631 24.7293 100.126 24.8412 100.643 25.0723C101.16 25.3034 101.618 25.6478 101.984 26.08C102.777 27.1047 103.18 28.3776 103.122 29.672C103.178 30.967 102.775 32.2402 101.984 33.267C101.619 33.7013 101.161 34.0476 100.644 34.2802C100.127 34.5127 99.5639 34.6255 98.997 34.61C98.3614 34.6012 97.7376 34.4371 97.1799 34.1321C96.6221 33.8271 96.1474 33.3904 95.797 32.86V37.96ZM95.797 27.58V31.735C96.1094 32.2802 96.5479 32.7426 97.0758 33.0834C97.6037 33.4243 98.2056 33.6336 98.831 33.694C99.292 33.7058 99.7491 33.6066 100.164 33.4049C100.578 33.2033 100.939 32.9049 101.214 32.535C101.798 31.696 102.093 30.6895 102.053 29.668C102.093 28.6495 101.799 27.646 101.214 26.811C100.938 26.4433 100.577 26.147 100.163 25.9468C99.7489 25.7466 99.2929 25.6483 98.833 25.66C98.2102 25.7133 97.6092 25.9155 97.0808 26.2496C96.5525 26.5838 96.1122 27.04 95.797 27.58ZM35.397 32.341C34.3564 31.0662 33.7908 29.4696 33.797 27.824C33.7825 26.0039 34.4856 24.2513 35.754 22.946C36.4735 22.2356 37.33 21.6792 38.2714 21.3106C39.2129 20.942 40.2195 20.7689 41.23 20.802C42.1831 20.8034 43.1316 20.9349 44.049 21.193C44.8985 21.4163 45.6989 21.7961 46.409 22.313L46.477 22.362L44.947 23.843L44.303 23.99L44.763 23.243L44.758 23.238C44.2654 22.6816 43.6595 22.237 42.9811 21.9338C42.3026 21.6306 41.5672 21.4759 40.824 21.48C40.1449 21.4703 39.4711 21.6017 38.8454 21.8659C38.2197 22.1302 37.6557 22.5214 37.189 23.015C36.2136 24.1153 35.6924 25.545 35.731 27.015C35.7236 28.7577 36.3457 30.4445 37.483 31.765C38.0794 32.4357 38.813 32.9704 39.6341 33.3327C40.4552 33.695 41.3446 33.8766 42.242 33.865C43.0451 33.8856 43.8425 33.7264 44.576 33.399V30.371L41.797 30.527L43.273 29.72H47.173L46.696 30.189C46.6464 30.2235 46.6046 30.268 46.5732 30.3197C46.5419 30.3713 46.5217 30.429 46.514 30.489C46.494 30.649 46.477 31.201 46.477 31.394V33.68L43.845 34.295H43.839C42.8389 34.483 41.8253 34.5903 40.808 34.616C39.7935 34.665 38.7808 34.4861 37.8444 34.0924C36.9081 33.6987 36.0718 33.1002 35.397 32.341ZM107.81 33.798C107.542 33.5411 107.331 33.2297 107.193 32.8847C107.055 32.5397 106.993 32.1692 107.01 31.798C107.01 31.385 107.118 30.9792 107.322 30.6202C107.526 30.2613 107.82 29.9614 108.175 29.75C109.08 29.1898 110.133 28.9146 111.197 28.96H113.513V27.793C113.527 27.4952 113.474 27.198 113.358 26.9236C113.241 26.6491 113.064 26.4045 112.84 26.208C112.296 25.7943 111.622 25.5892 110.94 25.63C110.293 25.6015 109.655 25.7852 109.122 26.153C108.91 26.3009 108.737 26.4978 108.617 26.7268C108.497 26.9559 108.434 27.2104 108.433 27.469H107.413L107.391 27.419C107.382 27.0521 107.465 26.6888 107.632 26.3622C107.8 26.0356 108.046 25.756 108.349 25.549C109.111 24.9846 110.044 24.6997 110.991 24.742C111.93 24.6988 112.855 24.9814 113.609 25.542C113.94 25.8171 114.202 26.1661 114.374 26.5609C114.545 26.9557 114.622 27.3852 114.597 27.815V32.45C114.595 32.7735 114.614 33.0969 114.654 33.418C114.697 33.733 114.764 34.0442 114.854 34.349H113.711C113.652 34.06 113.6 33.773 113.558 33.496C113.527 33.2529 113.511 33.0081 113.51 32.763C113.119 33.3118 112.603 33.7589 112.003 34.0669C111.404 34.3748 110.74 34.5347 110.066 34.533C109.249 34.5833 108.443 34.3205 107.812 33.798H107.81ZM108.978 30.37C108.721 30.5201 108.506 30.7328 108.353 30.9882C108.201 31.2436 108.115 31.5335 108.104 31.831C108.095 32.0736 108.141 32.3151 108.237 32.538C108.333 32.7609 108.478 32.9597 108.66 33.12C109.09 33.4672 109.633 33.6423 110.185 33.611C110.916 33.6296 111.636 33.4305 112.254 33.039C112.828 32.7079 113.271 32.1892 113.508 31.57V29.77H111.184C110.405 29.7378 109.635 29.9474 108.98 30.37H108.978ZM84.037 33.638C83.4009 33.1357 82.8894 32.4932 82.5425 31.7607C82.1955 31.0282 82.0226 30.2254 82.037 29.415C82.0159 28.7615 82.1384 28.1113 82.3961 27.5103C82.6537 26.9093 83.0401 26.3723 83.528 25.937C84.3599 25.2054 85.4273 24.7976 86.535 24.788C87.2483 24.7794 87.9493 24.974 88.556 25.349C89.2408 25.8127 89.7293 26.5139 89.927 27.317V27.331L85.313 29.231L83.802 29.351C83.9834 30.4715 84.5074 31.5084 85.302 32.319C85.9768 32.9945 86.8913 33.3758 87.846 33.38C88.6395 33.3609 89.4156 33.144 90.104 32.749C90.1234 32.7382 90.1443 32.7305 90.166 32.726C90.166 32.726 90.171 32.726 90.172 32.726C90.173 32.726 90.164 32.748 90.14 32.772L89.201 33.672L88.992 33.794L88.963 33.811C88.835 33.887 88.691 33.972 88.553 34.036C87.9554 34.3007 87.3065 34.4298 86.653 34.414C85.7184 34.4582 84.7964 34.1847 84.037 33.638ZM83.725 28.238C83.725 28.448 83.74 28.66 83.756 28.885V28.925C83.765 29.046 83.774 29.171 83.781 29.295L87.357 27.709C87.735 27.569 87.927 27.448 87.927 27.172C87.8677 26.6972 87.6374 26.2602 87.2792 25.9429C86.9211 25.6256 86.4595 25.4496 85.981 25.448C85.074 25.448 83.725 26.19 83.725 28.235V28.238ZM59.397 32.857C58.6138 31.9744 58.1783 30.837 58.172 29.657C58.1697 29.0215 58.2944 28.392 58.5388 27.8054C58.7831 27.2187 59.1423 26.6869 59.595 26.241C60.575 25.2916 61.8918 24.7701 63.256 24.791C63.8973 24.7811 64.5335 24.9055 65.1239 25.1561C65.7142 25.4066 66.2456 25.7779 66.684 26.246C67.4977 27.1407 67.9484 28.3066 67.948 29.516C67.943 30.7443 67.4823 31.927 66.655 32.835C66.1845 33.3411 65.6112 33.7408 64.9736 34.0073C64.336 34.2738 63.6488 34.4008 62.958 34.38C62.2901 34.3956 61.6266 34.2677 61.0122 34.0049C60.3979 33.7422 59.8471 33.3508 59.397 32.857ZM60.978 26.087C60.6578 26.4037 60.4111 26.787 60.2556 27.2097C60.1 27.6324 60.0394 28.0842 60.078 28.533C60.0888 29.6972 60.354 30.845 60.855 31.896C61.0592 32.4193 61.4075 32.874 61.8595 33.2074C62.3115 33.5409 62.8488 33.7394 63.409 33.78C63.799 33.7791 64.1833 33.6864 64.5308 33.5094C64.8782 33.3323 65.1791 33.076 65.409 32.761C65.8436 32.1052 66.0509 31.3249 65.999 30.54C65.9888 29.4264 65.7449 28.3273 65.283 27.314C65.0883 26.7855 64.7445 26.3248 64.2934 25.9876C63.8422 25.6504 63.303 25.4511 62.741 25.414C62.0905 25.4198 61.4636 25.6586 60.974 26.087H60.978ZM48.947 32.857C48.1642 31.9743 47.7295 30.8368 47.724 29.657C47.7212 29.0208 47.8456 28.3905 48.09 27.8032C48.3344 27.2159 48.6938 26.6833 49.147 26.237C50.1266 25.2876 51.4431 24.7661 52.807 24.787C53.448 24.7774 54.0838 24.9019 54.6738 25.1525C55.2638 25.403 55.7949 25.7741 56.233 26.242C57.0464 27.1369 57.497 28.3027 57.497 29.512C57.4924 30.7402 57.032 31.9229 56.205 32.831C55.7354 33.3377 55.1628 33.7381 54.5257 34.0053C53.8886 34.2725 53.2016 34.4002 52.511 34.38C51.8426 34.3962 51.1784 34.2686 50.5635 34.0059C49.9486 33.7431 49.3974 33.3513 48.947 32.857ZM50.531 26.087C50.2107 26.4036 49.9639 26.7869 49.8084 27.2097C49.6528 27.6324 49.5923 28.0842 49.631 28.533C49.6413 29.6975 49.9072 30.8456 50.41 31.896C50.614 32.4194 50.9622 32.8743 51.4143 33.2077C51.8664 33.5412 52.4037 33.7396 52.964 33.78C53.354 33.7791 53.7383 33.6864 54.0858 33.5094C54.4332 33.3323 54.7341 33.076 54.964 32.761C55.3977 32.1049 55.6046 31.3248 55.553 30.54C55.553 28.867 54.753 25.412 52.294 25.412C51.644 25.4162 51.0176 25.656 50.531 26.087ZM105.469 34.38H104.477V21.396H105.47V34.38H105.469ZM78.092 34.122L78.149 34.046L78.19 33.993L78.213 33.962C78.561 33.505 78.624 33.422 78.624 33.062V32.615L78.615 20.703H77.088L78.559 19.98H81.366C81.1098 20.082 80.89 20.2585 80.7351 20.4866C80.5802 20.7148 80.4973 20.9842 80.497 21.26V32.619C80.497 33.419 80.655 33.519 81.278 33.579C81.438 33.598 81.6 33.612 81.752 33.626H81.786H81.817H81.852C81.993 33.639 82.138 33.652 82.279 33.669L81.553 34.11L78.092 34.122Z" fill="white"/>
<path d="M33.723 10.693C33.7085 10.2533 33.7845 9.8154 33.9464 9.4064C34.1082 8.99739 34.3525 8.62605 34.6639 8.31543C34.9754 8.00482 35.3474 7.76158 35.7569 7.60082C36.1663 7.44006 36.6044 7.36522 37.044 7.38096C37.5453 7.36911 38.0414 7.48441 38.4861 7.7161C38.9308 7.9478 39.3095 8.28834 39.587 8.70596L38.687 9.23396C38.501 8.97111 38.2548 8.75655 37.969 8.60817C37.6832 8.45978 37.366 8.38188 37.044 8.38096C36.7459 8.37956 36.4507 8.43941 36.1766 8.5568C35.9026 8.67418 35.6556 8.84659 35.4509 9.06336C35.2463 9.28012 35.0883 9.53661 34.9868 9.81693C34.8853 10.0972 34.8425 10.3954 34.861 10.693C34.8484 11.3049 35.071 11.8983 35.483 12.351C35.6842 12.5616 35.9267 12.7286 36.1952 12.8415C36.4638 12.9543 36.7527 13.0107 37.044 13.007C37.5976 13.0045 38.1311 12.7997 38.544 12.431V11.442H36.644V10.453H39.644V12.843C39.3207 13.2142 38.921 13.5111 38.4722 13.7134C38.0235 13.9157 37.5363 14.0185 37.044 14.015C36.6037 14.0302 36.165 13.9547 35.7551 13.7931C35.3452 13.6315 34.973 13.3873 34.6615 13.0758C34.35 12.7642 34.106 12.3919 33.9445 11.9819C33.7831 11.572 33.7077 11.1333 33.723 10.693ZM66.123 10.693C66.1155 10.2633 66.1936 9.8364 66.3528 9.43724C66.512 9.03807 66.7491 8.67461 67.0503 8.36808C67.3515 8.06154 67.7107 7.81807 68.107 7.65187C68.5033 7.48567 68.9288 7.40008 69.3585 7.40008C69.7883 7.40008 70.2137 7.48567 70.61 7.65187C71.0063 7.81807 71.3655 8.06154 71.6667 8.36808C71.9679 8.67461 72.2051 9.03807 72.3643 9.43724C72.5235 9.8364 72.6016 10.2633 72.594 10.693C72.6016 11.1226 72.5235 11.5495 72.3643 11.9487C72.2051 12.3478 71.9679 12.7113 71.6667 13.0178C71.3655 13.3244 71.0063 13.5678 70.61 13.734C70.2137 13.9002 69.7883 13.9858 69.3585 13.9858C68.9288 13.9858 68.5033 13.9002 68.107 13.734C67.7107 13.5678 67.3515 13.3244 67.0503 13.0178C66.7491 12.7113 66.512 12.3478 66.3528 11.9487C66.1936 11.5495 66.1155 11.1226 66.123 10.693ZM67.262 10.693C67.2334 10.9855 67.2663 11.2809 67.3587 11.56C67.4511 11.8391 67.6008 12.0958 67.7983 12.3135C67.9958 12.5313 68.2367 12.7053 68.5055 12.8244C68.7743 12.9435 69.065 13.005 69.359 13.005C69.653 13.005 69.9437 12.9435 70.2125 12.8244C70.4813 12.7053 70.7222 12.5313 70.9197 12.3135C71.1172 12.0958 71.267 11.8391 71.3593 11.56C71.4517 11.2809 71.4846 10.9855 71.456 10.693C71.4846 10.4004 71.4517 10.105 71.3593 9.82593C71.267 9.54683 71.1172 9.29015 70.9197 9.0724C70.7222 8.85464 70.4813 8.68062 70.2125 8.56153C69.9437 8.44244 69.653 8.38092 69.359 8.38092C69.065 8.38092 68.7743 8.44244 68.5055 8.56153C68.2367 8.68062 67.9958 8.85464 67.7983 9.0724C67.6008 9.29015 67.4511 9.54683 67.3587 9.82593C67.2663 10.105 67.2334 10.4004 67.262 10.693ZM78.303 13.893L75.003 9.31396V13.89H73.893V7.48596H75.023L78.263 11.922V7.48596H79.373V13.886L78.303 13.893ZM60.622 13.893H59.512V8.48096H57.595V7.48596H62.539V8.48096H60.623V13.889L60.622 13.893ZM56.422 13.893H55.31V7.48596H56.423V13.886L56.422 13.893ZM49.538 13.893H48.423V8.48096H46.508V7.48596H51.451V8.48096H49.535V13.889L49.538 13.893ZM45.356 13.893H41.017V7.48596H45.353V8.48096H42.123V10.127H45.284V11.116H42.123V12.901H45.353V13.889L45.356 13.893Z" fill="white"/>
<defs>
<linearGradient id="paint0_linear" x1="15.6499" y1="18.767" x2="15.6499" y2="39.535" gradientUnits="userSpaceOnUse">
<stop stop-color="#1E79AF"/>
<stop offset="1" stop-color="#63FFD3"/>
</linearGradient>
<linearGradient id="paint1_linear" x1="22.2045" y1="30.6421" x2="14.2277" y2="41.2231" gradientUnits="userSpaceOnUse">
<stop stop-color="#DC4057"/>
<stop offset="1" stop-color="#9E36BB"/>
</linearGradient>
<linearGradient id="paint2_linear" x1="25.0931" y1="25.8879" x2="25.0931" y2="32.2606" gradientUnits="userSpaceOnUse">
<stop stop-color="#FF9676"/>
<stop offset="1" stop-color="#FFD074"/>
</linearGradient>
<linearGradient id="paint3_linear" x1="13.2091" y1="18.7323" x2="21.1764" y2="31.1083" gradientUnits="userSpaceOnUse">
<stop stop-color="#51C6AD"/>
<stop offset="1" stop-color="#D5FFA1"/>
</linearGradient>
</defs>
</svg>
