<svg width="68" height="78" viewBox="0 0 68 78" fill="none" xmlns="http://www.w3.org/2000/svg">
<path d="M25.593 12.4L20.291 7.172H9.70599L4.40599 12.4H25.593Z" fill="#DFEBFA"/>
<path d="M15 77.576H6.244C5.43615 77.5761 4.63619 77.4171 3.8898 77.1081C3.14341 76.799 2.46521 76.346 1.89393 75.7748C1.32266 75.2036 0.869487 74.5255 0.560308 73.7791C0.251129 73.0328 0.0919952 72.2329 0.0919952 71.425L0.0919952 71.176H29.908V71.425C29.908 72.2329 29.7489 73.0328 29.4397 73.7791C29.1305 74.5255 28.6773 75.2036 28.1061 75.7748C27.5348 76.346 26.8566 76.799 26.1102 77.1081C25.3638 77.4171 24.5638 77.5761 23.756 77.576H15ZM0.0919952 49.379V47.058C0.0920007 46.2611 0.365582 45.4884 0.866995 44.869L2.111 43.332C2.61241 42.7126 2.88599 41.9399 2.886 41.143V36.861C2.8859 35.9608 2.53718 35.0957 1.913 34.447L1.065 33.567C0.440876 32.9187 0.0921443 32.0539 0.0919952 31.154L0.0919952 18.11C0.0920398 17.6489 0.183738 17.1923 0.361761 16.7669C0.539784 16.3415 0.800581 15.9557 1.129 15.632L4.723 12.088H25.278L28.872 15.632C29.2004 15.9557 29.4612 16.3415 29.6392 16.7669C29.8173 17.1923 29.909 17.6489 29.909 18.11V31.154C29.9093 32.054 29.5605 32.919 28.936 33.567L28.089 34.447C27.4642 35.0953 27.1151 35.9606 27.115 36.861V41.143C27.115 41.9399 27.3886 42.7126 27.89 43.332L29.134 44.869C29.6354 45.4884 29.909 46.2611 29.909 47.058V49.379H0.0919952Z" fill="url(#paint0_linear)"/>
<path opacity="0.627" d="M29.034 16.5V12H4.5C4.5 12 14.055 22.282 14 22.5L39.5 51L40 30.66V27.507C40.0022 26.428 39.7919 25.3592 39.381 24.3615C38.9701 23.3638 38.3667 22.4569 37.6052 21.6924C36.8437 20.928 35.9391 20.321 34.9431 19.9063C33.947 19.4915 32.879 19.277 31.8 19.275C31.0654 19.2731 30.3616 18.9799 29.843 18.4596C29.3244 17.9394 29.0335 17.2346 29.034 16.5Z" fill="url(#paint1_linear)"/>
<path d="M8.39099 40.61H2.46199C2.15155 40.61 1.85383 40.4867 1.63432 40.2672C1.41481 40.0476 1.29149 39.7499 1.29149 39.4395C1.29149 39.129 1.41481 38.8313 1.63432 38.6118C1.85383 38.3923 2.15155 38.269 2.46199 38.269H27.538C27.8484 38.269 28.1461 38.3923 28.3657 38.6118C28.5852 38.8313 28.7085 39.129 28.7085 39.4395C28.7085 39.7499 28.5852 40.0476 28.3657 40.2672C28.1461 40.4867 27.8484 40.61 27.538 40.61H8.39099Z" fill="url(#paint2_linear)"/>
<path d="M0.0919952 48.995V71.424C0.0919952 71.469 0.0919952 71.514 0.0919952 71.558H29.905C29.905 71.513 29.905 71.469 29.905 71.424V48.995H0.0919952Z" fill="url(#paint3_linear)"/>
<path opacity="0.539" d="M29.908 48.995H25.036C24.324 53.03 20.479 65.483 0.0919952 66.872V71.424C0.0919952 71.469 0.0919952 71.514 0.0919952 71.558H29.905C29.905 71.513 29.905 71.469 29.905 71.424L29.908 48.995Z" fill="#74D579"/>
<path d="M15 34.812C12.8342 34.812 10.7572 33.9516 9.22577 32.4202C7.69434 30.8888 6.834 28.8117 6.834 26.646C6.834 24.4802 7.69434 22.4032 9.22577 20.8717C10.7572 19.3403 12.8342 18.48 15 18.48H15.206C17.3302 18.5324 19.3502 19.4107 20.8373 20.9284C22.3244 22.4461 23.1613 24.4837 23.1704 26.6085C23.1796 28.7333 22.3601 30.7779 20.8861 32.3083C19.4121 33.8387 17.3996 34.7343 15.276 34.805H15.21H15V34.812Z" fill="url(#paint4_linear)"/>
<path d="M12.095 27.752C12.0963 27.2222 12.244 26.703 12.522 26.252L14.76 22.57C14.7839 22.5313 14.8168 22.4989 14.8559 22.4757C14.8951 22.4524 14.9393 22.4391 14.9847 22.4367C15.0301 22.4344 15.0755 22.4431 15.1168 22.4621C15.1582 22.4811 15.1943 22.5099 15.222 22.546L15.238 22.57L17.477 26.248C17.7406 26.6813 17.886 27.1762 17.8986 27.6832C17.9112 28.1903 17.7906 28.6918 17.5489 29.1377C17.3071 29.5835 16.9526 29.9582 16.5208 30.2243C16.089 30.4904 15.595 30.6385 15.088 30.654H14.995C14.614 30.654 14.2367 30.5789 13.8848 30.4331C13.5328 30.2872 13.213 30.0734 12.9437 29.8039C12.6744 29.5344 12.4608 29.2145 12.3152 28.8624C12.1696 28.5103 12.0947 28.133 12.095 27.752Z" fill="url(#paint5_linear)"/>
<path d="M15.25 7.328H9.70799C9.29479 7.328 8.8985 7.16385 8.60632 6.87167C8.31414 6.57949 8.14999 6.18321 8.14999 5.77V1.558C8.14999 1.14479 8.31414 0.74851 8.60632 0.456328C8.8985 0.164146 9.29479 3.20954e-07 9.70799 3.20954e-07H20.291C20.4957 -0.000131055 20.6984 0.0400709 20.8875 0.118309C21.0767 0.196547 21.2485 0.311287 21.3933 0.455974C21.5381 0.600661 21.6529 0.772458 21.7313 0.961548C21.8097 1.15064 21.85 1.35332 21.85 1.558V5.77C21.85 6.18321 21.6858 6.57949 21.3937 6.87167C21.1015 7.16385 20.7052 7.328 20.292 7.328H15.25Z" fill="url(#paint6_linear)"/>
<path d="M54.952 56.747C54.6461 54.0841 53.3017 51.6494 51.211 49.972C49.3664 48.5555 47.0898 47.8185 44.765 47.885C44.4814 47.8885 44.208 47.7792 44.0049 47.5812C43.8019 47.3832 43.6857 47.1126 43.682 46.829C43.682 46.629 43.682 46.429 43.682 46.257C43.777 45.3996 43.6765 44.5319 43.388 43.719C43.0975 44.5315 42.995 45.3992 43.088 46.257C43.0716 47.0143 43.1255 47.7716 43.249 48.519C43.5549 51.1809 44.8985 53.6147 46.988 55.292C49.1312 56.9221 51.8267 57.6496 54.499 57.319C54.5666 57.3122 54.6322 57.2919 54.6919 57.2593C54.7515 57.2267 54.804 57.1825 54.8462 57.1293C54.8885 57.076 54.9196 57.0148 54.9378 56.9494C54.9559 56.8839 54.9608 56.8154 54.952 56.748V56.747Z" fill="url(#paint7_linear)"/>
<path d="M54.955 56.776C54.9597 56.9015 54.9181 57.0243 54.838 57.121L44.334 48.904C43.9026 48.5694 43.6162 48.0818 43.534 47.542L43.524 47.476C43.4018 46.6391 43.3496 45.7935 43.368 44.948C43.368 44.509 43.378 44.093 43.397 43.722C43.6633 44.5388 43.7592 45.4016 43.679 46.257C43.679 46.43 43.679 46.629 43.679 46.829C43.6829 47.1087 43.7961 47.3758 43.9944 47.5731C44.1927 47.7705 44.4603 47.8824 44.74 47.885H44.768C45.5285 47.8736 46.2882 47.9406 47.035 48.085C47.171 48.111 47.308 48.141 47.443 48.172C47.7157 48.2387 47.9847 48.3143 48.25 48.399C48.35 48.432 48.45 48.466 48.55 48.499C48.712 48.556 48.872 48.619 49.031 48.686C49.131 48.73 49.24 48.776 49.343 48.825C50.0075 49.134 50.634 49.5189 51.21 49.972C53.3013 51.6491 54.646 54.0838 54.952 56.747C54.952 56.756 54.952 56.766 54.952 56.776H54.955Z" fill="url(#paint8_linear)"/>
<path d="M47.265 63.155C49.3339 64.7279 51.9357 65.4299 54.515 65.111C54.6444 65.0917 54.7616 65.0239 54.8429 64.9214C54.9242 64.8189 54.9636 64.6894 54.953 64.559C54.6576 61.9875 53.3592 59.6365 51.34 58.017C49.2711 56.4441 46.6693 55.7421 44.09 56.061C43.9601 56.0797 43.8422 56.1471 43.7602 56.2497C43.6783 56.3522 43.6385 56.4822 43.649 56.613C43.9453 59.1849 45.2448 61.536 47.265 63.155Z" fill="url(#paint9_linear)"/>
<path d="M54.953 64.559C54.6576 61.9875 53.3592 59.6365 51.34 58.017C49.2711 56.4441 46.6693 55.7421 44.09 56.061C44.0254 56.0696 43.9632 56.0909 43.9069 56.1237C43.8506 56.1565 43.8014 56.2001 43.762 56.252L54.843 64.921C54.8843 64.8711 54.9152 64.8135 54.9339 64.7515C54.9526 64.6895 54.9588 64.6244 54.952 64.56L54.953 64.559Z" fill="url(#paint10_linear)"/>
<path d="M47.68 70.698C49.6371 72.1857 52.0982 72.8496 54.538 72.548C54.6603 72.5296 54.7711 72.4655 54.8479 72.3686C54.9248 72.2717 54.962 72.1492 54.952 72.026C54.6723 69.5936 53.444 67.3698 51.534 65.838C49.5769 64.3502 47.1158 63.6863 44.676 63.988C44.5531 64.0056 44.4416 64.0694 44.3642 64.1664C44.2867 64.2634 44.2491 64.3863 44.259 64.51C44.5394 66.9428 45.7689 69.1666 47.68 70.698Z" fill="url(#paint11_linear)"/>
<path d="M54.953 72.031C54.6746 69.5968 53.4462 67.371 51.535 65.838C49.5779 64.3502 47.1168 63.6863 44.677 63.988C44.616 63.996 44.5572 64.0161 44.504 64.047C44.4508 64.0779 44.4042 64.119 44.367 64.168L54.849 72.368C54.8875 72.3205 54.9162 72.2657 54.9334 72.207C54.9506 72.1483 54.9559 72.0868 54.949 72.026L54.953 72.031Z" fill="url(#paint12_linear)"/>
<path d="M55.853 56.747C56.1602 54.0833 57.5064 51.6485 59.599 49.972C61.4434 48.5558 63.7196 47.8187 66.044 47.885C66.3276 47.8885 66.601 47.7792 66.8041 47.5812C67.0072 47.3832 67.1233 47.1126 67.127 46.829C67.127 46.629 67.127 46.429 67.127 46.257C67.0336 45.3993 67.1359 44.5315 67.426 43.719C67.7165 44.5315 67.819 45.3992 67.726 46.257C67.7411 47.0145 67.6858 47.7717 67.561 48.519C67.2551 51.1819 65.9107 53.6166 63.82 55.294C61.6771 56.9229 58.9823 57.6496 56.311 57.319C56.2428 57.3128 56.1766 57.293 56.1163 57.2606C56.0561 57.2282 56.0029 57.184 55.9601 57.1306C55.9174 57.0771 55.8858 57.0156 55.8674 56.9497C55.849 56.8838 55.8441 56.8148 55.853 56.747Z" fill="url(#paint13_linear)"/>
<path d="M55.854 56.776C55.8493 56.9015 55.8909 57.0243 55.971 57.121L66.471 48.903C66.9024 48.5684 67.1888 48.0808 67.271 47.541L67.281 47.475C67.4046 46.6399 67.4585 45.796 67.442 44.952C67.442 44.513 67.432 44.097 67.413 43.726C67.1467 44.5429 67.0508 45.4056 67.131 46.261C67.131 46.434 67.131 46.633 67.131 46.833C67.1271 47.1122 67.0143 47.3789 66.8167 47.5761C66.6191 47.7734 66.3522 47.8857 66.073 47.889H66.048C65.2875 47.8776 64.5278 47.9446 63.781 48.089C63.645 48.115 63.508 48.145 63.373 48.176C63.1003 48.2427 62.831 48.3183 62.565 48.403C62.465 48.436 62.365 48.47 62.265 48.503C62.103 48.56 61.943 48.623 61.784 48.69C61.684 48.734 61.575 48.78 61.472 48.829C60.8056 49.1363 60.1771 49.5199 59.599 49.972C57.5066 51.6486 56.1607 54.0834 55.854 56.747C55.854 56.756 55.854 56.766 55.854 56.776Z" fill="url(#paint14_linear)"/>
<path d="M63.545 63.155C61.4761 64.7279 58.8743 65.4299 56.295 65.111C56.1651 65.0923 56.0471 65.0249 55.9652 64.9223C55.8833 64.8198 55.8435 64.6898 55.854 64.559C56.1502 61.9871 57.4497 59.636 59.47 58.017C61.5389 56.4441 64.1407 55.7421 66.72 56.061C66.8487 56.0813 66.9649 56.1494 67.0454 56.2518C67.1259 56.3542 67.1647 56.4832 67.154 56.613C66.8596 59.1839 65.5627 61.5348 63.545 63.155Z" fill="url(#paint15_linear)"/>
<path d="M55.854 64.559C56.1502 61.9871 57.4497 59.636 59.47 58.017C61.5389 56.4441 64.1407 55.7421 66.72 56.061C66.7845 56.0695 66.8467 56.0906 66.903 56.1232C66.9593 56.1558 67.0086 56.1993 67.048 56.251L55.967 64.921C55.9249 64.8713 55.8931 64.8137 55.8737 64.7515C55.8543 64.6893 55.8476 64.6238 55.854 64.559Z" fill="url(#paint16_linear)"/>
<path d="M63.129 70.698C61.1719 72.1857 58.7108 72.8496 56.271 72.548C56.1491 72.5303 56.0383 72.4673 55.961 72.3714C55.8836 72.2755 55.8454 72.1539 55.854 72.031C56.1332 69.5963 57.3627 67.3705 59.275 65.838C61.2321 64.3502 63.6932 63.6863 66.133 63.988C66.2553 64.0063 66.3661 64.0704 66.4429 64.1673C66.5198 64.2642 66.557 64.3867 66.547 64.51C66.2673 66.9424 65.039 69.1661 63.129 70.698Z" fill="url(#paint17_linear)"/>
<path d="M55.854 72.031C56.1332 69.5963 57.3627 67.3705 59.275 65.838C61.2321 64.3502 63.6932 63.6863 66.133 63.988C66.194 63.996 66.2528 64.0161 66.306 64.047C66.3592 64.0779 66.4058 64.119 66.443 64.168L55.961 72.368C55.9218 72.3216 55.8922 72.268 55.8738 72.2102C55.8555 72.1523 55.8487 72.0914 55.854 72.031Z" fill="url(#paint18_linear)"/>
<path d="M55.405 77.07C55.2262 77.0706 55.0544 77.0001 54.9275 76.8741C54.8006 76.7481 54.7288 76.5769 54.728 76.398V50.564C54.728 50.3844 54.7994 50.212 54.9265 50.085C55.0535 49.9579 55.2258 49.8865 55.4055 49.8865C55.5852 49.8865 55.7575 49.9579 55.8846 50.085C56.0116 50.212 56.083 50.3844 56.083 50.564V76.398C56.0826 76.4867 56.0648 76.5744 56.0305 76.6561C55.9962 76.7379 55.9462 76.8121 55.8832 76.8745C55.8202 76.9369 55.7456 76.9862 55.6636 77.0198C55.5815 77.0534 55.4937 77.0704 55.405 77.07Z" fill="url(#paint19_linear)"/>
<path d="M56.287 36.016C55.9626 35.5503 55.8054 34.9885 55.841 34.422C55.841 34.411 55.841 34.402 55.841 34.396C55.85 34.214 55.855 34.029 55.855 33.844C55.855 33.659 55.855 33.474 55.842 33.292C55.842 33.201 55.834 33.111 55.826 33.021C55.818 32.931 55.814 32.844 55.804 32.757C55.775 32.4389 55.7292 32.1224 55.667 31.809C55.6216 31.5828 55.5642 31.3592 55.495 31.139C55.4871 31.1216 55.4743 31.1068 55.4581 31.0964C55.442 31.086 55.4232 31.0805 55.404 31.0805C55.3848 31.0805 55.3661 31.086 55.3499 31.0964C55.3338 31.1068 55.321 31.1216 55.313 31.139C55.2442 31.3595 55.1871 31.5835 55.142 31.81C55.0791 32.1234 55.0327 32.4398 55.003 32.758C54.993 32.845 54.988 32.933 54.981 33.022C54.974 33.111 54.968 33.202 54.965 33.293C54.956 33.475 54.952 33.66 54.952 33.845C54.952 34.03 54.957 34.215 54.966 34.397C54.966 34.403 54.966 34.412 54.966 34.423C55.0016 34.9895 54.8444 35.5513 54.52 36.017C52.7902 38.4827 51.9055 41.4423 51.9984 44.4527C52.0912 47.4632 53.1566 50.3627 55.035 52.717C55.0792 52.7716 55.135 52.8155 55.1983 52.8457C55.2616 52.8759 55.3309 52.8916 55.401 52.8916C55.4712 52.8916 55.5404 52.8759 55.6038 52.8457C55.6671 52.8155 55.7229 52.7716 55.767 52.717C57.7418 50.2498 58.8169 47.1833 58.815 44.023C58.819 41.1571 57.936 38.3601 56.287 36.016Z" fill="url(#paint20_linear)"/>
<path d="M56.287 36.016C55.9628 35.5506 55.8057 34.9891 55.841 34.423C55.841 34.412 55.841 34.403 55.841 34.397C55.85 34.215 55.855 34.03 55.855 33.845C55.855 33.66 55.855 33.475 55.842 33.293C55.842 33.202 55.834 33.112 55.826 33.022C55.818 32.932 55.815 32.844 55.805 32.757C55.7757 32.4388 55.7296 32.1224 55.667 31.809C55.6219 31.5828 55.5648 31.3592 55.496 31.139C55.4895 31.1203 55.4772 31.1043 55.4607 31.0933C55.4443 31.0823 55.4248 31.0769 55.405 31.078V52.893C55.4753 52.8933 55.5447 52.8777 55.6081 52.8474C55.6715 52.8171 55.7272 52.7729 55.771 52.718C55.9817 52.4514 56.1817 52.1797 56.371 51.903C56.425 51.8244 56.4784 51.745 56.531 51.665C57.2095 50.6329 57.7476 49.5151 58.131 48.341C58.173 48.213 58.213 48.084 58.251 47.954C58.287 47.832 58.321 47.71 58.351 47.587C58.3764 47.4924 58.4004 47.397 58.423 47.301C58.5442 46.8092 58.6384 46.3111 58.705 45.809C58.729 45.621 58.7494 45.432 58.766 45.242C58.8007 44.842 58.8184 44.4357 58.819 44.023C58.8219 41.1566 57.9374 38.3596 56.287 36.016Z" fill="url(#paint21_linear)"/>
<path d="M53.608 58.936C51.6293 59.204 49.623 58.7053 48 57.542C49.4209 55.813 50.2866 53.6953 50.484 51.466C50.4918 51.3815 50.4807 51.2962 50.4515 51.2165C50.4222 51.1367 50.3756 51.0645 50.315 51.005C50.255 50.948 50.787 51.394 50.787 51.394C52.6492 53.2582 53.788 55.7237 54 58.35C54.0232 58.4795 53.9953 58.6128 53.9222 58.7221C53.8491 58.8314 53.7365 58.9081 53.608 58.936Z" fill="url(#paint22_linear)"/>
<path d="M46.218 63.935C48.3041 65.5427 50.9406 66.2615 53.554 65.935C53.6856 65.9149 53.8047 65.8459 53.8874 65.7416C53.9701 65.6374 54.0104 65.5057 54 65.373C53.8593 64.2984 53.5629 63.2501 53.12 62.261L49.151 58.275C49.1141 58.2168 49.0651 58.1672 49.0073 58.1298C48.9495 58.0923 48.8842 58.0678 48.816 58.058C46.8056 57.8212 44.7716 58.2206 43 59.2C43.5731 61.0655 44.6944 62.7154 46.218 63.935Z" fill="url(#paint23_linear)"/>
<path d="M47.035 70.188C48.9129 71.6025 51.2665 72.2327 53.6 71.946C53.7181 71.93 53.8256 71.8692 53.9001 71.7761C53.9745 71.683 54.0103 71.5648 54 71.446C53.9807 71.3067 53.9587 71.168 53.934 71.03L48.045 65.236C48.0149 65.1853 47.9737 65.1419 47.9245 65.1092C47.8754 65.0765 47.8195 65.0552 47.761 65.047C46.4892 64.9066 45.2021 65.0617 44 65.5C44.462 67.3568 45.53 69.0065 47.035 70.188Z" fill="url(#paint24_linear)"/>
<path d="M39.368 50.393C39.2021 49.0742 38.7738 47.802 38.1085 46.6513C37.4431 45.5006 36.5542 44.4947 35.494 43.693C33.5601 42.2838 31.2129 41.5567 28.821 41.626C28.5339 41.6357 28.2546 41.5312 28.0444 41.3353C27.8343 41.1394 27.7104 40.8681 27.7 40.581C27.7 40.381 27.7 40.187 27.7 40.015C27.7964 39.1657 27.6905 38.3056 27.391 37.505C27.0925 38.3058 26.9877 39.1659 27.085 40.015C27.0681 40.7633 27.1237 41.5114 27.251 42.249C27.4169 43.5678 27.8452 44.84 28.5105 45.9907C29.1759 47.1414 30.0648 48.1473 31.125 48.949C33.3736 50.5667 36.1479 51.2805 38.898 50.949C38.9664 50.9441 39.0331 50.9253 39.0941 50.894C39.1551 50.8626 39.2091 50.8192 39.2529 50.7664C39.2967 50.7137 39.3294 50.6526 39.349 50.5869C39.3686 50.5212 39.3747 50.4521 39.367 50.384L39.368 50.393Z" fill="url(#paint25_linear)"/>
<path d="M39.374 50.422C39.3787 50.5472 39.3354 50.6696 39.253 50.764L28.374 42.634C27.9338 42.3097 27.6384 41.8257 27.551 41.286L27.541 41.22C27.4128 40.3934 27.3569 39.5573 27.374 38.721C27.374 38.286 27.384 37.875 27.404 37.508C27.6792 38.3136 27.7788 39.1687 27.696 40.016C27.696 40.187 27.696 40.384 27.696 40.582C27.7067 40.8649 27.8275 41.1323 28.0326 41.3274C28.2377 41.5224 28.511 41.6296 28.794 41.626H28.82C29.607 41.6154 30.3931 41.6824 31.167 41.826C31.308 41.852 31.449 41.881 31.59 41.912C31.8727 41.9787 32.1513 42.0537 32.426 42.137C32.526 42.17 32.635 42.204 32.739 42.237C32.906 42.294 33.073 42.356 33.239 42.422C33.348 42.465 33.455 42.511 33.562 42.56C34.2472 42.8625 34.896 43.2416 35.496 43.69C36.5562 44.4917 37.4453 45.4975 38.1106 46.6482C38.7759 47.7989 39.2042 49.0712 39.37 50.39C39.3705 50.3997 39.3705 50.4093 39.37 50.419L39.374 50.422Z" fill="url(#paint26_linear)"/>
<path d="M31.409 56.732C33.5798 58.2956 36.2589 58.9862 38.915 58.667C39.046 58.6512 39.166 58.5857 39.2502 58.4842C39.3345 58.3826 39.3766 58.2527 39.368 58.121C39.2082 56.8472 38.7949 55.6183 38.1526 54.5067C37.5103 53.3952 36.6519 52.4235 35.628 51.649C33.4571 50.0858 30.778 49.3955 28.122 49.715C27.9903 49.7299 27.8693 49.7949 27.7842 49.8965C27.6992 49.9982 27.6565 50.1287 27.665 50.261C27.8248 51.5348 28.2381 52.7637 28.8804 53.8753C29.5227 54.9868 30.3811 55.9585 31.405 56.733L31.409 56.732Z" fill="url(#paint27_linear)"/>
<path d="M39.368 58.121C39.2082 56.8472 38.7949 55.6183 38.1526 54.5067C37.5103 53.3952 36.6519 52.4235 35.628 51.649C33.4571 50.0858 30.778 49.3955 28.122 49.715C27.9885 49.731 27.8665 49.7984 27.782 49.903L39.255 58.479C39.2975 58.4305 39.3295 58.3738 39.3489 58.3123C39.3684 58.2509 39.3749 58.1861 39.368 58.122V58.121Z" fill="url(#paint28_linear)"/>
<path d="M31.839 64.195C33.8923 65.6742 36.4265 66.3277 38.939 66.026C39.0628 66.0109 39.176 65.9491 39.2556 65.8531C39.3352 65.7572 39.3751 65.6344 39.367 65.51C39.2157 64.3049 38.8247 63.1424 38.2171 62.0908C37.6095 61.0392 36.7975 60.1199 35.829 59.387C33.7757 57.9078 31.2415 57.2543 28.729 57.556C28.6043 57.5701 28.4899 57.6317 28.4095 57.728C28.329 57.8243 28.2887 57.9478 28.297 58.073C28.4489 59.2782 28.8406 60.4408 29.4489 61.4922C30.0572 62.5436 30.8699 63.4626 31.839 64.195Z" fill="url(#paint29_linear)"/>
<path d="M39.367 65.509C39.2156 64.3041 38.8245 63.1417 38.2169 62.0903C37.6093 61.0389 36.7974 60.1197 35.829 59.387C33.7757 57.9078 31.2415 57.2543 28.729 57.556C28.6028 57.5715 28.4876 57.6358 28.408 57.735L39.26 65.847C39.3002 65.8011 39.3305 65.7474 39.3489 65.6892C39.3673 65.631 39.3735 65.5697 39.367 65.509Z" fill="url(#paint30_linear)"/>
<path d="M32.861 71.079C34.6361 72.3578 36.8269 72.9228 38.999 72.662C39.1059 72.649 39.2039 72.5955 39.2726 72.5126C39.3414 72.4296 39.3759 72.3235 39.369 72.216C39.2383 71.1742 38.9003 70.1691 38.375 69.26C37.8496 68.351 37.1474 67.5563 36.31 66.923C34.5351 65.6448 32.3447 65.0802 30.173 65.341C30.0644 65.3531 29.9647 65.4069 29.895 65.491C29.8252 65.5751 29.7908 65.683 29.799 65.792C29.9308 66.833 30.2696 67.8371 30.7955 68.7451C31.3214 69.6531 32.0237 70.4466 32.861 71.079Z" fill="url(#paint31_linear)"/>
<path d="M39.369 72.215C39.2383 71.1734 38.9004 70.1686 38.3752 69.2597C37.85 68.3508 37.1481 67.5563 36.311 66.923C34.5358 65.6446 32.345 65.0799 30.173 65.341C30.0642 65.3533 29.9645 65.4074 29.895 65.492L39.276 72.508C39.3109 72.4683 39.3373 72.4217 39.3533 72.3713C39.3693 72.3208 39.3746 72.2676 39.369 72.215Z" fill="url(#paint32_linear)"/>
<path d="M40.299 50.393C40.4649 49.0742 40.8932 47.802 41.5585 46.6513C42.2239 45.5006 43.1128 44.4947 44.173 43.693C46.1072 42.2845 48.4543 41.5581 50.846 41.628C51.133 41.6377 51.4121 41.5333 51.6222 41.3376C51.8323 41.1419 51.9563 40.8709 51.967 40.584C51.967 40.384 51.967 40.19 51.967 40.018C51.8717 39.1673 51.9793 38.3061 52.281 37.505C52.5795 38.3058 52.6843 39.1659 52.587 40.015C52.6039 40.7633 52.5483 41.5114 52.421 42.249C52.255 43.5678 51.8268 44.84 51.1614 45.9907C50.4961 47.1414 49.6072 48.1473 48.547 48.949C46.2984 50.5667 43.5241 51.2805 40.774 50.949C40.7059 50.9448 40.6394 50.9269 40.5783 50.8964C40.5173 50.8659 40.463 50.8235 40.4187 50.7716C40.3744 50.7198 40.341 50.6595 40.3204 50.5945C40.2998 50.5294 40.2926 50.4609 40.299 50.393Z" fill="url(#paint33_linear)"/>
<path d="M40.3 50.422C40.2952 50.5473 40.3385 50.6696 40.421 50.764L51.3 42.634C51.7401 42.3097 52.0356 41.8257 52.123 41.286L52.133 41.22C52.2612 40.3934 52.3171 39.5573 52.3 38.721C52.3 38.286 52.29 37.875 52.27 37.508C51.9947 38.3136 51.8952 39.1687 51.978 40.016C51.978 40.187 51.978 40.384 51.978 40.582C51.9673 40.8643 51.8469 41.1314 51.6425 41.3263C51.438 41.5213 51.1655 41.6288 50.883 41.626H50.85C50.063 41.6154 49.2768 41.6824 48.503 41.826C48.362 41.852 48.221 41.881 48.08 41.912C47.7973 41.9787 47.5186 42.0537 47.244 42.137C47.144 42.17 47.035 42.204 46.931 42.237C46.764 42.294 46.597 42.356 46.431 42.422C46.322 42.465 46.215 42.511 46.108 42.56C44.5434 43.2494 43.1852 44.3342 42.1669 45.7075C41.1486 47.0809 40.5052 48.6956 40.3 50.393C40.3 50.402 40.3 50.412 40.3 50.422Z" fill="url(#paint34_linear)"/>
<path d="M48.263 56.732C46.0922 58.2956 43.4131 58.9862 40.757 58.667C40.6253 58.6521 40.5043 58.5871 40.4192 58.4854C40.3341 58.3838 40.2914 58.2533 40.3 58.121C40.4598 56.8472 40.8731 55.6182 41.5154 54.5067C42.1577 53.3952 43.0161 52.4235 44.04 51.649C46.2119 50.0848 48.8927 49.3944 51.55 49.715C51.6805 49.7315 51.7997 49.7972 51.8833 49.8987C51.9669 50.0002 52.0087 50.1298 52 50.261C51.8402 51.5348 51.4269 52.7637 50.7846 53.8753C50.1423 54.9868 49.2839 55.9585 48.26 56.733L48.263 56.732Z" fill="url(#paint35_linear)"/>
<path d="M40.3 58.121C40.4598 56.8472 40.8731 55.6182 41.5154 54.5067C42.1577 53.3952 43.0161 52.4235 44.04 51.649C46.2119 50.0848 48.8927 49.3944 51.55 49.715C51.6835 49.731 51.8055 49.7984 51.89 49.903L40.417 58.479C40.3737 58.4307 40.3409 58.3739 40.3208 58.3123C40.3007 58.2507 40.2936 58.1855 40.3 58.121Z" fill="url(#paint36_linear)"/>
<path d="M47.832 64.195C45.7787 65.6742 43.2445 66.3277 40.732 66.026C40.6073 66.0119 40.4929 65.9503 40.4124 65.854C40.332 65.7577 40.2917 65.6342 40.3 65.509C40.4519 64.3038 40.8435 63.1412 41.4519 62.0898C42.0602 61.0384 42.8729 60.1194 43.842 59.387C45.8953 57.9078 48.4294 57.2543 50.942 57.556C51.0657 57.5711 51.179 57.6329 51.2586 57.7289C51.3382 57.8248 51.378 57.9476 51.37 58.072C51.2187 59.2771 50.8277 60.4396 50.2201 61.4912C49.6124 62.5428 48.8005 63.4621 47.832 64.195Z" fill="url(#paint37_linear)"/>
<path d="M40.3 65.509C40.4519 64.3038 40.8436 63.1412 41.4519 62.0898C42.0602 61.0384 42.8729 60.1194 43.842 59.387C45.8953 57.9078 48.4294 57.2543 50.942 57.556C51.0681 57.5713 51.1832 57.6351 51.263 57.734L40.411 65.847C40.3701 65.8014 40.3391 65.7478 40.32 65.6897C40.3009 65.6315 40.2941 65.57 40.3 65.509Z" fill="url(#paint38_linear)"/>
<path d="M46.811 71.079C45.0362 72.3575 42.8458 72.9225 40.674 72.662C40.5661 72.6499 40.4671 72.5967 40.3974 72.5134C40.3278 72.4302 40.2929 72.3233 40.3 72.215C40.4311 71.1731 40.7697 70.1681 41.2956 69.2592C41.8215 68.3503 42.5241 67.5559 43.362 66.923C45.1372 65.6446 47.328 65.0799 49.5 65.341C49.6079 65.3541 49.7065 65.4083 49.7755 65.4923C49.8444 65.5763 49.8782 65.6836 49.87 65.792C49.7385 66.8327 49.4002 67.8367 48.8748 68.7447C48.3495 69.6527 47.6478 70.4463 46.811 71.079Z" fill="url(#paint39_linear)"/>
<path d="M40.3 72.215C40.4311 71.1731 40.7697 70.1681 41.2956 69.2592C41.8215 68.3503 42.5241 67.5559 43.362 66.923C45.1372 65.6446 47.328 65.0799 49.5 65.341C49.6084 65.3536 49.7076 65.4077 49.777 65.492L40.4 72.508C40.3637 72.4689 40.3361 72.4226 40.3189 72.3721C40.3017 72.3216 40.2952 72.2681 40.3 72.215Z" fill="url(#paint40_linear)"/>
<path d="M39.835 77C39.6541 77.0043 39.4788 76.9367 39.3476 76.8121C39.2164 76.6875 39.14 76.5159 39.135 76.335V44.277C39.14 44.0961 39.2164 43.9246 39.3476 43.7999C39.4788 43.6753 39.6541 43.6077 39.835 43.612C40.0159 43.6077 40.1912 43.6753 40.3224 43.7999C40.4536 43.9246 40.53 44.0961 40.535 44.277V76.335C40.53 76.5159 40.4536 76.6875 40.3224 76.8121C40.1912 76.9367 40.0159 77.0043 39.835 77Z" fill="url(#paint41_linear)"/>
<path d="M40.748 29.885C40.4136 29.43 40.2503 28.8716 40.287 28.308C40.287 28.297 40.287 28.288 40.287 28.282C40.298 28.1 40.305 27.92 40.305 27.737C40.305 27.554 40.305 27.371 40.291 27.191C40.291 27.101 40.282 27.012 40.275 26.923C40.268 26.834 40.263 26.747 40.252 26.662C40.2203 26.3466 40.1712 26.0331 40.105 25.723C40.0586 25.499 39.9998 25.2776 39.929 25.06C39.922 25.0407 39.9092 25.024 39.8924 25.0123C39.8756 25.0005 39.8555 24.9941 39.835 24.9941C39.8145 24.9941 39.7944 25.0005 39.7776 25.0123C39.7608 25.024 39.748 25.0407 39.741 25.06C39.6699 25.2776 39.6108 25.4989 39.564 25.723C39.4988 26.0328 39.4508 26.346 39.42 26.661C39.41 26.747 39.404 26.834 39.397 26.922C39.39 27.01 39.384 27.1 39.381 27.19C39.371 27.37 39.367 27.553 39.367 27.736C39.367 27.919 39.372 28.102 39.382 28.282C39.382 28.288 39.382 28.296 39.382 28.308C39.4186 28.8716 39.2554 29.43 38.921 29.885C37.1329 32.2953 36.2125 35.2395 36.3094 38.2391C36.4064 41.2386 37.5149 44.1172 39.455 46.407C39.5019 46.4616 39.5601 46.5053 39.6255 46.5354C39.6909 46.5654 39.762 46.5809 39.834 46.5809C39.906 46.5809 39.9771 46.5654 40.0425 46.5354C40.1079 46.5053 40.166 46.4616 40.213 46.407C42.2432 44.0008 43.359 40.9553 43.364 37.807C43.3619 34.9548 42.4442 32.1786 40.746 29.887L40.748 29.885Z" fill="url(#paint42_linear)"/>
<path d="M40.749 29.885C40.4145 29.4304 40.2509 28.8723 40.287 28.309C40.287 28.298 40.287 28.289 40.287 28.283C40.296 28.103 40.302 27.92 40.302 27.737C40.302 27.554 40.302 27.371 40.288 27.191C40.288 27.101 40.279 27.012 40.272 26.923C40.265 26.834 40.261 26.747 40.251 26.661C40.2202 26.3463 40.1721 26.0335 40.107 25.724C40.0603 25.4996 40.0012 25.2779 39.93 25.06C39.9228 25.0413 39.9098 25.0254 39.8929 25.0146C39.8759 25.0038 39.856 24.9987 39.836 25V46.581C39.908 46.5817 39.9793 46.5666 40.0448 46.5367C40.1103 46.5068 40.1684 46.4629 40.215 46.408C40.433 46.1467 40.64 45.8774 40.836 45.6C40.892 45.522 40.947 45.4437 41.001 45.365C41.7001 44.3497 42.2569 43.2434 42.656 42.077C42.6993 41.9504 42.7407 41.8227 42.78 41.694C42.817 41.574 42.853 41.453 42.887 41.331C42.913 41.237 42.938 41.1427 42.962 41.048C43.0847 40.5615 43.1796 40.0684 43.246 39.571C43.2707 39.385 43.2917 39.198 43.309 39.01C43.345 38.61 43.363 38.208 43.363 37.804C43.3617 34.9526 42.4454 32.1769 40.749 29.885Z" fill="url(#paint43_linear)"/>
<defs>
<linearGradient id="paint0_linear" x1="0.419982" y1="12.7429" x2="30.2142" y2="25.9764" gradientUnits="userSpaceOnUse">
<stop stop-color="#FFC8A3"/>
<stop offset="1" stop-color="#F89B5D"/>
</linearGradient>
<linearGradient id="paint1_linear" x1="18.7" y1="18.864" x2="2.83661" y2="0.742087" gradientUnits="userSpaceOnUse">
<stop stop-color="#F35227" stop-opacity="0"/>
<stop offset="1" stop-color="#F35227"/>
</linearGradient>
<linearGradient id="paint2_linear" x1="49.0245" y1="38.269" x2="46.554" y2="27.898" gradientUnits="userSpaceOnUse">
<stop stop-color="#F35227" stop-opacity="0"/>
<stop offset="1" stop-color="#F35227"/>
</linearGradient>
<linearGradient id="paint3_linear" x1="-12.1015" y1="41.1205" x2="33.2074" y2="101.246" gradientUnits="userSpaceOnUse">
<stop stop-color="#92F37F"/>
<stop offset="0.55" stop-color="#50B773"/>
<stop offset="1" stop-color="#4AB272"/>
</linearGradient>
<linearGradient id="paint4_linear" x1="10.8528" y1="23.3469" x2="22.9068" y2="32.2347" gradientUnits="userSpaceOnUse">
<stop stop-color="#F8F6FB"/>
<stop offset="1" stop-color="#EFDCFB"/>
</linearGradient>
<linearGradient id="paint5_linear" x1="22.4329" y1="23.5868" x2="9.7525" y2="26.6937" gradientUnits="userSpaceOnUse">
<stop stop-color="#FFA981"/>
<stop offset="0.428" stop-color="#FF8666"/>
<stop offset="1" stop-color="#FF5C45"/>
</linearGradient>
<linearGradient id="paint6_linear" x1="9.47889" y1="0.967296" x2="14.8117" y2="10.1113" gradientUnits="userSpaceOnUse">
<stop stop-color="#FFC198"/>
<stop offset="1" stop-color="#FFA162"/>
</linearGradient>
<linearGradient id="paint7_linear" x1="42.6977" y1="48.1917" x2="53.8971" y2="52.9501" gradientUnits="userSpaceOnUse">
<stop stop-color="#FFD945"/>
<stop offset="0.304" stop-color="#FFCD3E"/>
<stop offset="0.856" stop-color="#FFAD2B"/>
<stop offset="1" stop-color="#FFA325"/>
</linearGradient>
<linearGradient id="paint8_linear" x1="49.2874" y1="50.3009" x2="46.5312" y2="51.7897" gradientUnits="userSpaceOnUse">
<stop stop-color="#E87264" stop-opacity="0"/>
<stop offset="1" stop-color="#FF7044"/>
</linearGradient>
<linearGradient id="paint9_linear" x1="46.1124" y1="62.1685" x2="51.2108" y2="58.2751" gradientUnits="userSpaceOnUse">
<stop stop-color="#FFD945"/>
<stop offset="0.304" stop-color="#FFCD3E"/>
<stop offset="0.856" stop-color="#FFAD2B"/>
<stop offset="1" stop-color="#FFA325"/>
</linearGradient>
<linearGradient id="paint10_linear" x1="51.2611" y1="58.988" x2="44.6959" y2="67.0913" gradientUnits="userSpaceOnUse">
<stop stop-color="#E87264" stop-opacity="0"/>
<stop offset="1" stop-color="#FF7044"/>
</linearGradient>
<linearGradient id="paint11_linear" x1="46.5892" y1="69.7735" x2="51.409" y2="66.081" gradientUnits="userSpaceOnUse">
<stop stop-color="#FFD945"/>
<stop offset="0.304" stop-color="#FFCD3E"/>
<stop offset="0.856" stop-color="#FFAD2B"/>
<stop offset="1" stop-color="#FFA325"/>
</linearGradient>
<linearGradient id="paint12_linear" x1="50.6974" y1="67.3648" x2="44.4778" y2="75.0312" gradientUnits="userSpaceOnUse">
<stop stop-color="#E87264" stop-opacity="0"/>
<stop offset="1" stop-color="#FF7044"/>
</linearGradient>
<linearGradient id="paint13_linear" x1="68.1166" y1="48.1917" x2="56.9113" y2="52.9562" gradientUnits="userSpaceOnUse">
<stop stop-color="#FFD945"/>
<stop offset="0.304" stop-color="#FFCD3E"/>
<stop offset="0.856" stop-color="#FFAD2B"/>
<stop offset="1" stop-color="#FFA325"/>
</linearGradient>
<linearGradient id="paint14_linear" x1="63.2952" y1="50.678" x2="71.3407" y2="51.615" gradientUnits="userSpaceOnUse">
<stop stop-color="#E87264" stop-opacity="0"/>
<stop offset="1" stop-color="#FF7044"/>
</linearGradient>
<linearGradient id="paint15_linear" x1="64.5786" y1="62.1041" x2="59.4806" y2="58.2124" gradientUnits="userSpaceOnUse">
<stop stop-color="#FFD945"/>
<stop offset="0.304" stop-color="#FFCD3E"/>
<stop offset="0.856" stop-color="#FFAD2B"/>
<stop offset="1" stop-color="#FFA325"/>
</linearGradient>
<linearGradient id="paint16_linear" x1="60.2406" y1="59.5688" x2="66.816" y2="67.6766" gradientUnits="userSpaceOnUse">
<stop stop-color="#E87264" stop-opacity="0"/>
<stop offset="1" stop-color="#FF7044"/>
</linearGradient>
<linearGradient id="paint17_linear" x1="64.0993" y1="69.7039" x2="59.2795" y2="66.0116" gradientUnits="userSpaceOnUse">
<stop stop-color="#FFD945"/>
<stop offset="0.304" stop-color="#FFCD3E"/>
<stop offset="0.856" stop-color="#FFAD2B"/>
<stop offset="1" stop-color="#FFA325"/>
</linearGradient>
<linearGradient id="paint18_linear" x1="59.9932" y1="67.2972" x2="66.2123" y2="74.9664" gradientUnits="userSpaceOnUse">
<stop stop-color="#E87264" stop-opacity="0"/>
<stop offset="1" stop-color="#FF7044"/>
</linearGradient>
<linearGradient id="paint19_linear" x1="55.247" y1="63.4783" x2="57.2795" y2="63.4784" gradientUnits="userSpaceOnUse">
<stop stop-color="#FFA325"/>
<stop offset="0.104" stop-color="#FF9C29"/>
<stop offset="0.681" stop-color="#FF7C3D"/>
<stop offset="1" stop-color="#FF7044"/>
</linearGradient>
<linearGradient id="paint20_linear" x1="51.6233" y1="39.8922" x2="59.0364" y2="40.3003" gradientUnits="userSpaceOnUse">
<stop stop-color="#FFD945"/>
<stop offset="0.304" stop-color="#FFCD3E"/>
<stop offset="0.856" stop-color="#FFAD2B"/>
<stop offset="1" stop-color="#FFA325"/>
</linearGradient>
<linearGradient id="paint21_linear" x1="57.0745" y1="42.4654" x2="44.2838" y2="42.3744" gradientUnits="userSpaceOnUse">
<stop stop-color="#E87264" stop-opacity="0"/>
<stop offset="1" stop-color="#FF7044"/>
</linearGradient>
<linearGradient id="paint22_linear" x1="50.4212" y1="55.1235" x2="48.6285" y2="54.446" gradientUnits="userSpaceOnUse">
<stop stop-color="#E87264" stop-opacity="0"/>
<stop offset="1" stop-color="#FF7044"/>
</linearGradient>
<linearGradient id="paint23_linear" x1="49.744" y1="62.1382" x2="46.8978" y2="59.7713" gradientUnits="userSpaceOnUse">
<stop stop-color="#E87264" stop-opacity="0"/>
<stop offset="1" stop-color="#FF7044"/>
</linearGradient>
<linearGradient id="paint24_linear" x1="49.511" y1="69.2772" x2="46.1507" y2="63.8123" gradientUnits="userSpaceOnUse">
<stop stop-color="#E87264" stop-opacity="0"/>
<stop offset="1" stop-color="#FF7044"/>
</linearGradient>
<linearGradient id="paint25_linear" x1="26.6801" y1="41.9272" x2="38.1055" y2="47.0099" gradientUnits="userSpaceOnUse">
<stop stop-color="#FFD945"/>
<stop offset="0.304" stop-color="#FFCD3E"/>
<stop offset="0.856" stop-color="#FFAD2B"/>
<stop offset="1" stop-color="#FFA325"/>
</linearGradient>
<linearGradient id="paint26_linear" x1="31.6682" y1="44.3879" x2="23.3472" y2="45.4019" gradientUnits="userSpaceOnUse">
<stop stop-color="#E87264" stop-opacity="0"/>
<stop offset="1" stop-color="#FF7044"/>
</linearGradient>
<linearGradient id="paint27_linear" x1="30.2039" y1="55.766" x2="35.301" y2="51.6815" gradientUnits="userSpaceOnUse">
<stop stop-color="#FFD945"/>
<stop offset="0.304" stop-color="#FFCD3E"/>
<stop offset="0.856" stop-color="#FFAD2B"/>
<stop offset="1" stop-color="#FFA325"/>
</linearGradient>
<linearGradient id="paint28_linear" x1="34.7004" y1="53.2455" x2="28.2614" y2="61.5515" gradientUnits="userSpaceOnUse">
<stop stop-color="#E87264" stop-opacity="0"/>
<stop offset="1" stop-color="#FF7044"/>
</linearGradient>
<linearGradient id="paint29_linear" x1="30.6986" y1="63.2812" x2="35.5208" y2="59.4178" gradientUnits="userSpaceOnUse">
<stop stop-color="#FFD945"/>
<stop offset="0.304" stop-color="#FFCD3E"/>
<stop offset="0.856" stop-color="#FFAD2B"/>
<stop offset="1" stop-color="#FFA325"/>
</linearGradient>
<linearGradient id="paint30_linear" x1="34.952" y1="60.8961" x2="28.8605" y2="68.7529" gradientUnits="userSpaceOnUse">
<stop stop-color="#E87264" stop-opacity="0"/>
<stop offset="1" stop-color="#FF7044"/>
</linearGradient>
<linearGradient id="paint31_linear" x1="31.8749" y1="70.2896" x2="36.0432" y2="66.9494" gradientUnits="userSpaceOnUse">
<stop stop-color="#FFD945"/>
<stop offset="0.304" stop-color="#FFCD3E"/>
<stop offset="0.856" stop-color="#FFAD2B"/>
<stop offset="1" stop-color="#FFA325"/>
</linearGradient>
<linearGradient id="paint32_linear" x1="35.5523" y1="68.2282" x2="30.2866" y2="75.0203" gradientUnits="userSpaceOnUse">
<stop stop-color="#E87264" stop-opacity="0"/>
<stop offset="1" stop-color="#FF7044"/>
</linearGradient>
<linearGradient id="paint33_linear" x1="52.992" y1="41.9272" x2="41.5635" y2="47.0133" gradientUnits="userSpaceOnUse">
<stop stop-color="#FFD945"/>
<stop offset="0.304" stop-color="#FFCD3E"/>
<stop offset="0.856" stop-color="#FFAD2B"/>
<stop offset="1" stop-color="#FFA325"/>
</linearGradient>
<linearGradient id="paint34_linear" x1="48.0058" y1="44.3879" x2="56.3268" y2="45.4019" gradientUnits="userSpaceOnUse">
<stop stop-color="#E87264" stop-opacity="0"/>
<stop offset="1" stop-color="#FF7044"/>
</linearGradient>
<linearGradient id="paint35_linear" x1="49.3213" y1="55.693" x2="44.2243" y2="51.6099" gradientUnits="userSpaceOnUse">
<stop stop-color="#FFD945"/>
<stop offset="0.304" stop-color="#FFCD3E"/>
<stop offset="0.856" stop-color="#FFAD2B"/>
<stop offset="1" stop-color="#FFA325"/>
</linearGradient>
<linearGradient id="paint36_linear" x1="44.8303" y1="53.1745" x2="51.2691" y2="61.4826" gradientUnits="userSpaceOnUse">
<stop stop-color="#E87264" stop-opacity="0"/>
<stop offset="1" stop-color="#FF7044"/>
</linearGradient>
<linearGradient id="paint37_linear" x1="48.8355" y1="63.2037" x2="44.0019" y2="59.3386" gradientUnits="userSpaceOnUse">
<stop stop-color="#FFD945"/>
<stop offset="0.304" stop-color="#FFCD3E"/>
<stop offset="0.856" stop-color="#FFAD2B"/>
<stop offset="1" stop-color="#FFA325"/>
</linearGradient>
<linearGradient id="paint38_linear" x1="44.5853" y1="60.8208" x2="50.666" y2="68.6768" gradientUnits="userSpaceOnUse">
<stop stop-color="#E87264" stop-opacity="0"/>
<stop offset="1" stop-color="#FF7044"/>
</linearGradient>
<linearGradient id="paint39_linear" x1="47.66" y1="70.215" x2="43.4819" y2="66.8734" gradientUnits="userSpaceOnUse">
<stop stop-color="#FFD945"/>
<stop offset="0.304" stop-color="#FFCD3E"/>
<stop offset="0.856" stop-color="#FFAD2B"/>
<stop offset="1" stop-color="#FFA325"/>
</linearGradient>
<linearGradient id="paint40_linear" x1="43.9856" y1="68.1559" x2="49.2421" y2="74.9468" gradientUnits="userSpaceOnUse">
<stop stop-color="#E87264" stop-opacity="0"/>
<stop offset="1" stop-color="#FF7044"/>
</linearGradient>
<linearGradient id="paint41_linear" x1="39.6572" y1="60.306" x2="41.9364" y2="60.3061" gradientUnits="userSpaceOnUse">
<stop stop-color="#FFA325"/>
<stop offset="0.104" stop-color="#FF9C29"/>
<stop offset="0.681" stop-color="#FF7C3D"/>
<stop offset="1" stop-color="#FF7044"/>
</linearGradient>
<linearGradient id="paint42_linear" x1="35.9211" y1="33.7152" x2="43.5909" y2="34.1567" gradientUnits="userSpaceOnUse">
<stop stop-color="#FFD945"/>
<stop offset="0.304" stop-color="#FFCD3E"/>
<stop offset="0.856" stop-color="#FFAD2B"/>
<stop offset="1" stop-color="#FFA325"/>
</linearGradient>
<linearGradient id="paint43_linear" x1="41.5607" y1="36.2652" x2="28.3467" y2="36.167" gradientUnits="userSpaceOnUse">
<stop stop-color="#E87264" stop-opacity="0"/>
<stop offset="1" stop-color="#FF7044"/>
</linearGradient>
</defs>
</svg>
