<svg width="84" height="80" viewBox="0 0 84 80" fill="none" xmlns="http://www.w3.org/2000/svg">
<path d="M7.338 8.52887H0C0.109772 10.6449 1.03608 12.6359 2.584 14.0829L8.47 19.8229V9.62887C8.46474 9.33322 8.34277 9.05165 8.1307 8.84558C7.91864 8.63951 7.63368 8.52566 7.338 8.52887Z" fill="url(#paint0_linear)"/>
<path d="M16 8.6389C15.951 6.56542 15.0809 4.59621 13.5808 3.16386C12.0808 1.73152 10.0735 0.953204 8 0.999897C5.93882 0.949487 3.94126 1.71586 2.44272 3.13198C0.944181 4.5481 0.0661487 6.49916 0 8.5599C0.00172107 10.0877 0.461678 11.5798 1.32041 12.8434C2.17914 14.1069 3.39716 15.0839 4.817 15.6479C5.29132 15.8423 5.70131 16.1663 6 16.5829L7.43 18.5939C7.49578 18.6834 7.58169 18.7562 7.6808 18.8063C7.77991 18.8565 7.88942 18.8826 8.0005 18.8826C8.11158 18.8826 8.22109 18.8565 8.3202 18.8063C8.41931 18.7562 8.50522 18.6834 8.571 18.5939L10 16.5829C10.2967 16.1677 10.7042 15.8444 11.176 15.6499C12.5847 15.0915 13.7956 14.1267 14.6546 12.8783C15.5136 11.6298 15.9819 10.1542 16 8.6389Z" fill="url(#paint1_linear)"/>
<path d="M8.47002 19.823C8.42295 19.8231 8.37658 19.8116 8.33505 19.7894C8.29352 19.7672 8.25812 19.7351 8.23202 19.6959L6.81402 17.596C6.4828 17.104 6.01836 16.7166 5.47502 16.479C4.34408 15.9781 3.35209 15.2094 2.58474 14.2393C1.81739 13.2692 1.29776 12.1269 1.07073 10.911C0.843698 9.69516 0.916101 8.44229 1.28168 7.26067C1.64726 6.07904 2.29503 5.00418 3.16902 4.12895C3.86465 3.43267 4.69116 2.88088 5.60094 2.50537C6.51072 2.12986 7.4858 1.93803 8.47002 1.94095C10.2073 1.95445 11.8874 2.56356 13.2297 3.66657C14.572 4.76957 15.4953 6.29969 15.8454 8.00142C16.1954 9.70314 15.9511 11.4735 15.1531 13.0167C14.3552 14.56 13.0519 15.7828 11.461 16.481C10.9191 16.7182 10.456 17.1049 10.126 17.596L8.70802 19.6959C8.68193 19.7351 8.64653 19.7672 8.605 19.7894C8.56347 19.8116 8.5171 19.8231 8.47002 19.823Z" fill="url(#paint2_linear)"/>
<path d="M7.99997 13.236C10.8586 13.236 13.176 11.129 13.176 8.52997C13.176 5.93092 10.8586 3.82397 7.99997 3.82397C5.14135 3.82397 2.82397 5.93092 2.82397 8.52997C2.82397 11.129 5.14135 13.236 7.99997 13.236Z" fill="url(#paint3_linear)"/>
<path d="M15.059 10.4359L10.495 5.96486C10.1274 5.58339 9.68635 5.28037 9.1984 5.07412C8.71045 4.86788 8.18576 4.76267 7.65601 4.76486C6.63516 4.75419 5.65185 5.14932 4.92222 5.86338C4.19259 6.57745 3.77636 7.55202 3.76501 8.57286C3.76542 9.09615 3.87503 9.61361 4.08682 10.0921C4.29862 10.5706 4.60794 10.9997 4.99501 11.3519L9.80501 16.0589C10.054 15.7921 10.3561 15.5805 10.692 15.4379C11.753 14.9927 12.6981 14.3107 13.4551 13.444C14.212 12.5774 14.7606 11.5491 15.059 10.4379V10.4359Z" fill="url(#paint4_linear)"/>
<path d="M8.00001 12.2949C10.3389 12.2949 12.235 10.6092 12.235 8.52989C12.235 6.45054 10.3389 4.76489 8.00001 4.76489C5.66109 4.76489 3.76501 6.45054 3.76501 8.52989C3.76501 10.6092 5.66109 12.2949 8.00001 12.2949Z" fill="url(#paint5_linear)" stroke="#BC2A35" stroke-width="2" stroke-miterlimit="10"/>
<path d="M8 19V32C8 33.0609 8.42143 34.0783 9.17157 34.8284C9.92172 35.5786 10.9391 36 12 36H68.5C69.5609 36 70.5783 36.4214 71.3284 37.1716C72.0786 37.9217 72.5 38.9391 72.5 40V55" stroke="#707070" stroke-width="2" stroke-miterlimit="10"/>
<path d="M61.488 69L18.5 68.994C17.837 68.994 17.2011 68.7306 16.7322 68.2618C16.2634 67.7929 16 67.157 16 66.494L16.005 23.5C16.0066 22.8364 16.2713 22.2005 16.7411 21.7319C17.2109 21.2632 17.8474 21 18.511 21L61.5 21.006C61.8283 21.006 62.1534 21.0707 62.4567 21.1963C62.76 21.3219 63.0356 21.5061 63.2678 21.7382C63.4999 21.9704 63.6841 22.246 63.8097 22.5493C63.9353 22.8526 64 23.1777 64 23.506L63.994 66.5C63.994 66.8288 63.9291 67.1544 63.8031 67.4581C63.6771 67.7618 63.4924 68.0377 63.2596 68.2699C63.0269 68.5021 62.7506 68.6861 62.4466 68.8114C62.1425 68.9367 61.8168 69.0008 61.488 69Z" fill="url(#paint6_linear)"/>
<path d="M33.478 38.96L58.017 64.21L58.48 64.632C58.7371 64.8682 59.0734 64.9993 59.4225 64.9993C59.7716 64.9993 60.108 64.8682 60.365 64.632C60.6218 64.3954 60.9583 64.264 61.3075 64.264C61.6567 64.264 61.9932 64.3954 62.25 64.632C62.4844 64.8491 62.7865 64.9786 63.1053 64.9988C63.4241 65.0191 63.7401 64.9287 64 64.743V37.377L48.086 21H33V37.864C32.9993 38.0698 33.0414 38.2736 33.1237 38.4623C33.206 38.651 33.3267 38.8205 33.478 38.96Z" fill="url(#paint7_linear)"/>
<path d="M49 21V38.09C49.0011 38.2976 48.9594 38.5033 48.8775 38.6941C48.7956 38.8849 48.6753 39.0568 48.524 39.199L48.061 39.628C47.8078 39.8671 47.4727 40.0003 47.1245 40.0003C46.7762 40.0003 46.4412 39.8671 46.188 39.628C45.9347 39.3886 45.5995 39.2552 45.251 39.2552C44.9025 39.2552 44.5672 39.3886 44.314 39.628C44.0607 39.8674 43.7255 40.0008 43.377 40.0008C43.0285 40.0008 42.6932 39.8674 42.44 39.628C42.1865 39.3891 41.8513 39.256 41.503 39.256C41.1546 39.256 40.8195 39.3891 40.566 39.628C40.3127 39.8674 39.9775 40.0008 39.629 40.0008C39.2805 40.0008 38.9452 39.8674 38.692 39.628C38.4385 39.3891 38.1033 39.256 37.755 39.256C37.4066 39.256 37.0715 39.3891 36.818 39.628C36.5647 39.8674 36.2295 40.0008 35.881 40.0008C35.5325 40.0008 35.1972 39.8674 34.944 39.628L34.476 39.2C34.3242 39.0573 34.2036 38.8848 34.1217 38.6933C34.0397 38.5017 33.9983 38.2953 34 38.087V21H49Z" fill="url(#paint8_linear)"/>
<path d="M20 62H31V65H20V62Z" fill="url(#paint9_linear)"/>
<path d="M21 55H38V58H21V55Z" fill="url(#paint10_linear)"/>
<path d="M71.982 63.4758H62C62.1434 66.406 63.4012 69.1706 65.516 71.2038L73.524 79.1908V65.0128C73.5232 64.6046 73.3603 64.2133 73.0712 63.9251C72.782 63.6369 72.3903 63.4753 71.982 63.4758Z" fill="url(#paint11_linear)"/>
<path d="M84 63.7398C83.9649 60.8571 82.7865 58.1063 80.7237 56.0923C78.6609 54.0783 75.8827 52.9659 73 52.9998C70.1344 52.9601 67.3694 54.0556 65.3086 56.0471C63.2478 58.0387 62.0584 60.7645 62 63.6298C61.9896 65.7615 62.6139 67.8481 63.7936 69.6236C64.9733 71.3992 66.6548 72.7834 68.624 73.5998C69.2779 73.8749 69.8408 74.329 70.248 74.9098L72.216 77.7368C72.3048 77.8623 72.4223 77.9646 72.5589 78.0353C72.6954 78.1059 72.8468 78.1428 73.0005 78.1428C73.1542 78.1428 73.3057 78.1059 73.4422 78.0353C73.5787 77.9646 73.6962 77.8623 73.785 77.7368L75.753 74.9098C76.1577 74.3295 76.7183 73.8753 77.37 73.5998C79.3228 72.7911 80.9935 71.4242 82.1729 69.6703C83.3522 67.9163 83.9878 65.8534 84 63.7398Z" fill="url(#paint12_linear)"/>
<path d="M73.524 79.1909C73.4582 79.1906 73.3935 79.1742 73.3356 79.143C73.2777 79.1117 73.2283 79.0667 73.192 79.0119L71.22 76.0589C70.7611 75.3686 70.1148 74.8236 69.357 74.4879C67.4528 73.6375 65.8401 72.2471 64.7186 70.4889C63.5971 68.7307 63.0163 66.682 63.048 64.5969C63.0622 61.7962 64.1754 59.1131 66.148 57.1249C67.1114 56.1477 68.2598 55.3723 69.5263 54.844C70.7927 54.3157 72.1518 54.045 73.524 54.0479C76.3256 54.0756 79.0018 55.2133 80.9657 57.2115C82.9296 59.2097 84.0208 61.9052 84 64.7069C84.0089 66.7743 83.4167 68.7997 82.2955 70.5367C81.1744 72.2738 79.5726 73.6475 77.685 74.4909C76.9293 74.8261 76.2851 75.3701 75.828 76.0589L73.855 79.0119C73.8186 79.0667 73.7693 79.1117 73.7114 79.143C73.6535 79.1742 73.5888 79.1906 73.523 79.1909H73.524Z" fill="url(#paint13_linear)"/>
<path d="M73.523 70.8099C77.5729 70.8099 80.856 67.761 80.856 63.9999C80.856 60.2389 77.5729 57.1899 73.523 57.1899C69.4731 57.1899 66.19 60.2389 66.19 63.9999C66.19 67.761 69.4731 70.8099 73.523 70.8099Z" fill="url(#paint14_linear)"/>
<path d="M82.952 66.1278L76.602 59.9128C76.0911 59.3811 75.4776 58.9585 74.7987 58.6706C74.1197 58.3827 73.3895 58.2355 72.652 58.2378C71.2313 58.2229 69.8629 58.7729 68.8476 59.7668C67.8323 60.7607 67.2533 62.1171 67.238 63.5378C67.2389 64.2657 67.3915 64.9854 67.6863 65.6509C67.9811 66.3165 68.4115 66.9131 68.95 67.4028L75.638 73.9518C75.9845 73.581 76.4049 73.287 76.872 73.0888C78.3493 72.4692 79.6653 71.5198 80.7191 70.3133C81.773 69.1067 82.5368 67.6751 82.952 66.1278Z" fill="url(#paint15_linear)"/>
<path d="M73 68.7138C76.1823 68.7138 78.762 66.3687 78.762 63.4758C78.762 60.5829 76.1823 58.2378 73 58.2378C69.8178 58.2378 67.238 60.5829 67.238 63.4758C67.238 66.3687 69.8178 68.7138 73 68.7138Z" fill="url(#paint16_linear)" stroke="#18866A" stroke-width="2" stroke-miterlimit="10"/>
<defs>
<linearGradient id="paint0_linear" x1="8.2159" y1="20.9071" x2="2.98946" y2="12.4726" gradientUnits="userSpaceOnUse">
<stop stop-color="#FCB37E" stop-opacity="0"/>
<stop offset="1" stop-color="#FF7044"/>
</linearGradient>
<linearGradient id="paint1_linear" x1="1.07279e-07" y1="3.76974" x2="11.4327" y2="17.6643" gradientUnits="userSpaceOnUse">
<stop stop-color="#F87777"/>
<stop offset="1" stop-color="#EE4242"/>
</linearGradient>
<linearGradient id="paint2_linear" x1="0.941284" y1="4.71263" x2="12.4853" y2="17.9203" gradientUnits="userSpaceOnUse">
<stop stop-color="#F87777"/>
<stop offset="1" stop-color="#EE4242"/>
</linearGradient>
<linearGradient id="paint3_linear" x1="2.82397" y1="5.28283" x2="8.49196" y2="13.7519" gradientUnits="userSpaceOnUse">
<stop stop-color="#FF9191"/>
<stop offset="1" stop-color="#EE4242"/>
</linearGradient>
<linearGradient id="paint4_linear" x1="3.76501" y1="6.51525" x2="10.7901" y2="16.0587" gradientUnits="userSpaceOnUse">
<stop stop-color="#D35757"/>
<stop offset="1" stop-color="#EE4242"/>
</linearGradient>
<linearGradient id="paint5_linear" x1="5.84863" y1="7.00883" x2="11.5421" y2="11.7314" gradientUnits="userSpaceOnUse">
<stop stop-color="#F8F6FB"/>
<stop offset="1" stop-color="#DCFBE8"/>
</linearGradient>
<linearGradient id="paint6_linear" x1="19.6" y1="21" x2="64" y2="69" gradientUnits="userSpaceOnUse">
<stop stop-color="#F7D0AD"/>
<stop offset="1" stop-color="#E89F7B"/>
</linearGradient>
<linearGradient id="paint7_linear" x1="57.521" y1="47.225" x2="27.5413" y2="31.8929" gradientUnits="userSpaceOnUse">
<stop stop-color="#FFC77E" stop-opacity="0"/>
<stop offset="0.192" stop-color="#DE7B09" stop-opacity="0.11"/>
<stop offset="0.504" stop-color="#FF9A50" stop-opacity="0.502"/>
<stop offset="0.888" stop-color="#FFBC86" stop-opacity="0.886"/>
<stop offset="1" stop-color="#FFECAD"/>
</linearGradient>
<linearGradient id="paint8_linear" x1="33.9999" y1="15.5848" x2="52.6997" y2="32.5013" gradientUnits="userSpaceOnUse">
<stop stop-color="#F8F6FB"/>
<stop offset="1" stop-color="#FBF1DC"/>
</linearGradient>
<linearGradient id="paint9_linear" x1="22.706" y1="62.894" x2="24.2146" y2="66.9714" gradientUnits="userSpaceOnUse">
<stop stop-color="#F8F6FB"/>
<stop offset="1" stop-color="#FBE8DC"/>
</linearGradient>
<linearGradient id="paint10_linear" x1="25.182" y1="55.894" x2="26.2316" y2="60.2783" gradientUnits="userSpaceOnUse">
<stop stop-color="#F8F6FB"/>
<stop offset="1" stop-color="#FBE8DC"/>
</linearGradient>
<linearGradient id="paint11_linear" x1="73.1783" y1="80.6995" x2="65.8345" y2="69.1109" gradientUnits="userSpaceOnUse">
<stop stop-color="#FCB37E" stop-opacity="0"/>
<stop offset="1" stop-color="#FF7044"/>
</linearGradient>
<linearGradient id="paint12_linear" x1="60.9659" y1="52.9988" x2="84.721" y2="72.0804" gradientUnits="userSpaceOnUse">
<stop stop-color="#6BDEC5"/>
<stop offset="1" stop-color="#39B993"/>
</linearGradient>
<linearGradient id="paint13_linear" x1="62.0619" y1="54.0479" x2="85.5416" y2="72.0116" gradientUnits="userSpaceOnUse">
<stop stop-color="#6BDEC5"/>
<stop offset="1" stop-color="#39B993"/>
</linearGradient>
<linearGradient id="paint14_linear" x1="65.5007" y1="57.1899" x2="78.6775" y2="70.216" gradientUnits="userSpaceOnUse">
<stop stop-color="#6BDEC5"/>
<stop offset="1" stop-color="#39B993"/>
</linearGradient>
<linearGradient id="paint15_linear" x1="66.4995" y1="58.2375" x2="81.648" y2="72.1444" gradientUnits="userSpaceOnUse">
<stop stop-color="#6BDEC5"/>
<stop offset="1" stop-color="#39B993"/>
</linearGradient>
<linearGradient id="paint16_linear" x1="70.0729" y1="61.3596" x2="77.9595" y2="67.7571" gradientUnits="userSpaceOnUse">
<stop stop-color="#F8F6FB"/>
<stop offset="1" stop-color="#DCFBE8"/>
</linearGradient>
</defs>
</svg>
