<svg width="227" height="70" viewBox="0 0 227 70" fill="none" xmlns="http://www.w3.org/2000/svg">
<path d="M85.362 15.666V17.294H78.696V22.464H84.108V24.092H78.696V31H76.694V15.666H85.362ZM89.7819 20.902C90.1339 20.2127 90.6326 19.6773 91.2779 19.296C91.9379 18.9147 92.7373 18.724 93.6759 18.724V20.792H93.1479C90.9039 20.792 89.7819 22.0093 89.7819 24.444V31H87.7799V18.944H89.7819V20.902ZM106.987 24.51C106.987 24.8913 106.965 25.2947 106.921 25.72H97.285C97.3583 26.908 97.7616 27.8393 98.495 28.514C99.243 29.174 100.145 29.504 101.201 29.504C102.066 29.504 102.785 29.306 103.357 28.91C103.944 28.4993 104.354 27.9567 104.589 27.282H106.745C106.422 28.4407 105.777 29.3867 104.809 30.12C103.841 30.8387 102.638 31.198 101.201 31.198C100.057 31.198 99.0303 30.9413 98.121 30.428C97.2263 29.9147 96.5223 29.1887 96.009 28.25C95.4956 27.2967 95.239 26.1967 95.239 24.95C95.239 23.7033 95.4883 22.6107 95.987 21.672C96.4856 20.7333 97.1823 20.0147 98.077 19.516C98.9863 19.0027 100.028 18.746 101.201 18.746C102.345 18.746 103.357 18.9953 104.237 19.494C105.117 19.9927 105.792 20.682 106.261 21.562C106.745 22.4273 106.987 23.41 106.987 24.51ZM104.919 24.092C104.919 23.3293 104.75 22.6767 104.413 22.134C104.076 21.5767 103.614 21.1587 103.027 20.88C102.455 20.5867 101.817 20.44 101.113 20.44C100.101 20.44 99.2356 20.7627 98.517 21.408C97.813 22.0533 97.4096 22.948 97.307 24.092H104.919ZM113.898 31.198C112.974 31.198 112.145 31.044 111.412 30.736C110.678 30.4133 110.099 29.9733 109.674 29.416C109.248 28.844 109.014 28.1913 108.97 27.458H111.038C111.096 28.0593 111.375 28.5507 111.874 28.932C112.387 29.3133 113.054 29.504 113.876 29.504C114.638 29.504 115.24 29.3353 115.68 28.998C116.12 28.6607 116.34 28.2353 116.34 27.722C116.34 27.194 116.105 26.8053 115.636 26.556C115.166 26.292 114.44 26.0353 113.458 25.786C112.563 25.5513 111.83 25.3167 111.258 25.082C110.7 24.8327 110.216 24.4733 109.806 24.004C109.41 23.52 109.212 22.8893 109.212 22.112C109.212 21.496 109.395 20.9313 109.762 20.418C110.128 19.9047 110.649 19.5013 111.324 19.208C111.998 18.9 112.768 18.746 113.634 18.746C114.968 18.746 116.046 19.0833 116.868 19.758C117.689 20.4327 118.129 21.3567 118.188 22.53H116.186C116.142 21.8993 115.885 21.3933 115.416 21.012C114.961 20.6307 114.345 20.44 113.568 20.44C112.849 20.44 112.277 20.594 111.852 20.902C111.426 21.21 111.214 21.6133 111.214 22.112C111.214 22.508 111.338 22.838 111.588 23.102C111.852 23.3513 112.174 23.5567 112.556 23.718C112.952 23.8647 113.494 24.0333 114.184 24.224C115.049 24.4587 115.753 24.6933 116.296 24.928C116.838 25.148 117.3 25.4853 117.682 25.94C118.078 26.3947 118.283 26.9887 118.298 27.722C118.298 28.382 118.114 28.976 117.748 29.504C117.381 30.032 116.86 30.45 116.186 30.758C115.526 31.0513 114.763 31.198 113.898 31.198ZM127.108 18.724C128.017 18.724 128.838 18.922 129.572 19.318C130.305 19.6993 130.877 20.2787 131.288 21.056C131.713 21.8333 131.926 22.7793 131.926 23.894V31H129.946V24.18C129.946 22.9773 129.645 22.0607 129.044 21.43C128.442 20.7847 127.621 20.462 126.58 20.462C125.524 20.462 124.68 20.792 124.05 21.452C123.434 22.112 123.126 23.0727 123.126 24.334V31H121.124V14.72H123.126V20.66C123.522 20.044 124.064 19.5673 124.754 19.23C125.458 18.8927 126.242 18.724 127.108 18.724ZM152.677 20.11C152.252 19.2153 151.636 18.526 150.829 18.042C150.023 17.5433 149.084 17.294 148.013 17.294C146.943 17.294 145.975 17.5433 145.109 18.042C144.259 18.526 143.584 19.23 143.085 20.154C142.601 21.0633 142.359 22.1193 142.359 23.322C142.359 24.5247 142.601 25.5807 143.085 26.49C143.584 27.3993 144.259 28.1033 145.109 28.602C145.975 29.086 146.943 29.328 148.013 29.328C149.509 29.328 150.741 28.8807 151.709 27.986C152.677 27.0913 153.242 25.8813 153.403 24.356H147.287V22.728H155.537V24.268C155.42 25.5293 155.024 26.688 154.349 27.744C153.675 28.7853 152.787 29.614 151.687 30.23C150.587 30.8313 149.363 31.132 148.013 31.132C146.591 31.132 145.293 30.802 144.119 30.142C142.946 29.4673 142.015 28.536 141.325 27.348C140.651 26.16 140.313 24.818 140.313 23.322C140.313 21.826 140.651 20.484 141.325 19.296C142.015 18.0933 142.946 17.162 144.119 16.502C145.293 15.8273 146.591 15.49 148.013 15.49C149.641 15.49 151.079 15.8933 152.325 16.7C153.587 17.5067 154.503 18.6433 155.075 20.11H152.677ZM160.186 20.902C160.538 20.2127 161.037 19.6773 161.682 19.296C162.342 18.9147 163.142 18.724 164.08 18.724V20.792H163.552C161.308 20.792 160.186 22.0093 160.186 24.444V31H158.184V18.944H160.186V20.902ZM171.649 31.198C170.52 31.198 169.493 30.9413 168.569 30.428C167.66 29.9147 166.941 29.1887 166.413 28.25C165.9 27.2967 165.643 26.1967 165.643 24.95C165.643 23.718 165.907 22.6327 166.435 21.694C166.978 20.7407 167.711 20.0147 168.635 19.516C169.559 19.0027 170.593 18.746 171.737 18.746C172.881 18.746 173.915 19.0027 174.839 19.516C175.763 20.0147 176.489 20.7333 177.017 21.672C177.56 22.6107 177.831 23.7033 177.831 24.95C177.831 26.1967 177.553 27.2967 176.995 28.25C176.453 29.1887 175.712 29.9147 174.773 30.428C173.835 30.9413 172.793 31.198 171.649 31.198ZM171.649 29.438C172.368 29.438 173.043 29.2693 173.673 28.932C174.304 28.5947 174.81 28.0887 175.191 27.414C175.587 26.7393 175.785 25.918 175.785 24.95C175.785 23.982 175.595 23.1607 175.213 22.486C174.832 21.8113 174.333 21.3127 173.717 20.99C173.101 20.6527 172.434 20.484 171.715 20.484C170.982 20.484 170.307 20.6527 169.691 20.99C169.09 21.3127 168.606 21.8113 168.239 22.486C167.873 23.1607 167.689 23.982 167.689 24.95C167.689 25.9327 167.865 26.7613 168.217 27.436C168.584 28.1107 169.068 28.6167 169.669 28.954C170.271 29.2767 170.931 29.438 171.649 29.438ZM179.716 24.95C179.716 23.7033 179.965 22.618 180.464 21.694C180.962 20.7553 181.652 20.0293 182.532 19.516C183.426 19.0027 184.446 18.746 185.59 18.746C187.071 18.746 188.288 19.1053 189.242 19.824C190.21 20.5427 190.848 21.54 191.156 22.816H189C188.794 22.0827 188.391 21.5033 187.79 21.078C187.203 20.6527 186.47 20.44 185.59 20.44C184.446 20.44 183.522 20.836 182.818 21.628C182.114 22.4053 181.762 23.5127 181.762 24.95C181.762 26.402 182.114 27.524 182.818 28.316C183.522 29.108 184.446 29.504 185.59 29.504C186.47 29.504 187.203 29.2987 187.79 28.888C188.376 28.4773 188.78 27.8907 189 27.128H191.156C190.833 28.36 190.188 29.35 189.22 30.098C188.252 30.8313 187.042 31.198 185.59 31.198C184.446 31.198 183.426 30.9413 182.532 30.428C181.652 29.9147 180.962 29.1887 180.464 28.25C179.965 27.3113 179.716 26.2113 179.716 24.95ZM204.827 24.51C204.827 24.8913 204.805 25.2947 204.761 25.72H195.125C195.198 26.908 195.601 27.8393 196.335 28.514C197.083 29.174 197.985 29.504 199.041 29.504C199.906 29.504 200.625 29.306 201.197 28.91C201.783 28.4993 202.194 27.9567 202.429 27.282H204.585C204.262 28.4407 203.617 29.3867 202.649 30.12C201.681 30.8387 200.478 31.198 199.041 31.198C197.897 31.198 196.87 30.9413 195.961 30.428C195.066 29.9147 194.362 29.1887 193.849 28.25C193.335 27.2967 193.079 26.1967 193.079 24.95C193.079 23.7033 193.328 22.6107 193.827 21.672C194.325 20.7333 195.022 20.0147 195.917 19.516C196.826 19.0027 197.867 18.746 199.041 18.746C200.185 18.746 201.197 18.9953 202.077 19.494C202.957 19.9927 203.631 20.682 204.101 21.562C204.585 22.4273 204.827 23.41 204.827 24.51ZM202.759 24.092C202.759 23.3293 202.59 22.6767 202.253 22.134C201.915 21.5767 201.453 21.1587 200.867 20.88C200.295 20.5867 199.657 20.44 198.953 20.44C197.941 20.44 197.075 20.7627 196.357 21.408C195.653 22.0533 195.249 22.948 195.147 24.092H202.759ZM209.471 20.902C209.823 20.2127 210.322 19.6773 210.967 19.296C211.627 18.9147 212.427 18.724 213.365 18.724V20.792H212.837C210.593 20.792 209.471 22.0093 209.471 24.444V31H207.469V18.944H209.471V20.902ZM226.06 18.944L218.8 36.676H216.732L219.108 30.868L214.246 18.944H216.468L220.252 28.712L223.992 18.944H226.06Z" fill="#FF5C45"/>
<path opacity="0.6" d="M79.172 49.098C78.528 49.098 77.9493 48.986 77.436 48.762C76.932 48.5287 76.5353 48.2113 76.246 47.81C75.9567 47.3993 75.8073 46.928 75.798 46.396H77.156C77.2027 46.8533 77.3893 47.2407 77.716 47.558C78.052 47.866 78.5373 48.02 79.172 48.02C79.7787 48.02 80.2547 47.8707 80.6 47.572C80.9547 47.264 81.132 46.872 81.132 46.396C81.132 46.0227 81.0293 45.7193 80.824 45.486C80.6187 45.2527 80.362 45.0753 80.054 44.954C79.746 44.8327 79.3307 44.702 78.808 44.562C78.164 44.394 77.646 44.226 77.254 44.058C76.8713 43.89 76.54 43.6287 76.26 43.274C75.9893 42.91 75.854 42.4247 75.854 41.818C75.854 41.286 75.9893 40.8147 76.26 40.404C76.5307 39.9933 76.9087 39.676 77.394 39.452C77.8887 39.228 78.4533 39.116 79.088 39.116C80.0027 39.116 80.7493 39.3447 81.328 39.802C81.916 40.2593 82.2473 40.866 82.322 41.622H80.922C80.8753 41.2487 80.6793 40.922 80.334 40.642C79.9887 40.3527 79.5313 40.208 78.962 40.208C78.43 40.208 77.996 40.348 77.66 40.628C77.324 40.8987 77.156 41.2813 77.156 41.776C77.156 42.1307 77.254 42.42 77.45 42.644C77.6553 42.868 77.9027 43.0407 78.192 43.162C78.4907 43.274 78.906 43.4047 79.438 43.554C80.082 43.7313 80.6 43.9087 80.992 44.086C81.384 44.254 81.72 44.52 82 44.884C82.28 45.2387 82.42 45.724 82.42 46.34C82.42 46.816 82.294 47.264 82.042 47.684C81.79 48.104 81.4167 48.4447 80.922 48.706C80.4273 48.9673 79.844 49.098 79.172 49.098ZM85.8488 42.378V46.9C85.8488 47.2733 85.9281 47.5393 86.0868 47.698C86.2455 47.8473 86.5208 47.922 86.9128 47.922H87.8508V49H86.7028C85.9935 49 85.4615 48.8367 85.1068 48.51C84.7521 48.1833 84.5748 47.6467 84.5748 46.9V42.378H83.5808V41.328H84.5748V39.396H85.8488V41.328H87.8508V42.378H85.8488ZM88.9184 45.136C88.9184 44.352 89.0771 43.666 89.3944 43.078C89.7117 42.4807 90.1457 42.0187 90.6964 41.692C91.2564 41.3653 91.8771 41.202 92.5584 41.202C93.2304 41.202 93.8137 41.3467 94.3084 41.636C94.8031 41.9253 95.1717 42.2893 95.4144 42.728V41.328H96.7024V49H95.4144V47.572C95.1624 48.02 94.7844 48.3933 94.2804 48.692C93.7857 48.9813 93.2071 49.126 92.5444 49.126C91.8631 49.126 91.2471 48.958 90.6964 48.622C90.1457 48.286 89.7117 47.8147 89.3944 47.208C89.0771 46.6013 88.9184 45.9107 88.9184 45.136ZM95.4144 45.15C95.4144 44.5713 95.2977 44.0673 95.0644 43.638C94.8311 43.2087 94.5137 42.882 94.1124 42.658C93.7204 42.4247 93.2864 42.308 92.8104 42.308C92.3344 42.308 91.9004 42.42 91.5084 42.644C91.1164 42.868 90.8037 43.1947 90.5704 43.624C90.3371 44.0533 90.2204 44.5573 90.2204 45.136C90.2204 45.724 90.3371 46.2373 90.5704 46.676C90.8037 47.1053 91.1164 47.4367 91.5084 47.67C91.9004 47.894 92.3344 48.006 92.8104 48.006C93.2864 48.006 93.7204 47.894 94.1124 47.67C94.5137 47.4367 94.8311 47.1053 95.0644 46.676C95.2977 46.2373 95.4144 45.7287 95.4144 45.15ZM105.463 41.328L100.843 52.612H99.5273L101.039 48.916L97.9453 41.328H99.3593L101.767 47.544L104.147 41.328H105.463ZM117.994 39.242V49H116.72V44.576H111.75V49H110.476V39.242H111.75V43.526H116.72V39.242H117.994ZM123.516 49.126C122.797 49.126 122.144 48.9627 121.556 48.636C120.977 48.3093 120.52 47.8473 120.184 47.25C119.857 46.6433 119.694 45.9433 119.694 45.15C119.694 44.366 119.862 43.6753 120.198 43.078C120.543 42.4713 121.01 42.0093 121.598 41.692C122.186 41.3653 122.844 41.202 123.572 41.202C124.3 41.202 124.958 41.3653 125.546 41.692C126.134 42.0093 126.596 42.4667 126.932 43.064C127.277 43.6613 127.45 44.3567 127.45 45.15C127.45 45.9433 127.272 46.6433 126.918 47.25C126.572 47.8473 126.101 48.3093 125.504 48.636C124.906 48.9627 124.244 49.126 123.516 49.126ZM123.516 48.006C123.973 48.006 124.402 47.8987 124.804 47.684C125.205 47.4693 125.527 47.1473 125.77 46.718C126.022 46.2887 126.148 45.766 126.148 45.15C126.148 44.534 126.026 44.0113 125.784 43.582C125.541 43.1527 125.224 42.8353 124.832 42.63C124.44 42.4153 124.015 42.308 123.558 42.308C123.091 42.308 122.662 42.4153 122.27 42.63C121.887 42.8353 121.579 43.1527 121.346 43.582C121.112 44.0113 120.996 44.534 120.996 45.15C120.996 45.7753 121.108 46.3027 121.332 46.732C121.565 47.1613 121.873 47.4833 122.256 47.698C122.638 47.9033 123.058 48.006 123.516 48.006ZM138.351 41.188C138.948 41.188 139.48 41.314 139.947 41.566C140.414 41.8087 140.782 42.1773 141.053 42.672C141.324 43.1667 141.459 43.7687 141.459 44.478V49H140.199V44.66C140.199 43.8947 140.008 43.3113 139.625 42.91C139.252 42.4993 138.743 42.294 138.099 42.294C137.436 42.294 136.909 42.5087 136.517 42.938C136.125 43.358 135.929 43.9693 135.929 44.772V49H134.669V44.66C134.669 43.8947 134.478 43.3113 134.095 42.91C133.722 42.4993 133.213 42.294 132.569 42.294C131.906 42.294 131.379 42.5087 130.987 42.938C130.595 43.358 130.399 43.9693 130.399 44.772V49H129.125V41.328H130.399V42.434C130.651 42.0327 130.987 41.7247 131.407 41.51C131.836 41.2953 132.308 41.188 132.821 41.188C133.465 41.188 134.034 41.3327 134.529 41.622C135.024 41.9113 135.392 42.336 135.635 42.896C135.85 42.3547 136.204 41.9347 136.699 41.636C137.194 41.3373 137.744 41.188 138.351 41.188ZM150.549 44.87C150.549 45.1127 150.535 45.3693 150.507 45.64H144.375C144.421 46.396 144.678 46.9887 145.145 47.418C145.621 47.838 146.195 48.048 146.867 48.048C147.417 48.048 147.875 47.922 148.239 47.67C148.612 47.4087 148.873 47.0633 149.023 46.634H150.395C150.189 47.3713 149.779 47.9733 149.163 48.44C148.547 48.8973 147.781 49.126 146.867 49.126C146.139 49.126 145.485 48.9627 144.907 48.636C144.337 48.3093 143.889 47.8473 143.563 47.25C143.236 46.6433 143.073 45.9433 143.073 45.15C143.073 44.3567 143.231 43.6613 143.549 43.064C143.866 42.4667 144.309 42.0093 144.879 41.692C145.457 41.3653 146.12 41.202 146.867 41.202C147.595 41.202 148.239 41.3607 148.799 41.678C149.359 41.9953 149.788 42.434 150.087 42.994C150.395 43.5447 150.549 44.17 150.549 44.87ZM149.233 44.604C149.233 44.1187 149.125 43.7033 148.911 43.358C148.696 43.0033 148.402 42.7373 148.029 42.56C147.665 42.3733 147.259 42.28 146.811 42.28C146.167 42.28 145.616 42.4853 145.159 42.896C144.711 43.3067 144.454 43.876 144.389 44.604H149.233ZM153.546 47.236L151.978 51.002H151.124L152.146 47.236H153.546ZM161.832 49.098C161.188 49.098 160.609 48.986 160.096 48.762C159.592 48.5287 159.195 48.2113 158.906 47.81C158.617 47.3993 158.467 46.928 158.458 46.396H159.816C159.863 46.8533 160.049 47.2407 160.376 47.558C160.712 47.866 161.197 48.02 161.832 48.02C162.439 48.02 162.915 47.8707 163.26 47.572C163.615 47.264 163.792 46.872 163.792 46.396C163.792 46.0227 163.689 45.7193 163.484 45.486C163.279 45.2527 163.022 45.0753 162.714 44.954C162.406 44.8327 161.991 44.702 161.468 44.562C160.824 44.394 160.306 44.226 159.914 44.058C159.531 43.89 159.2 43.6287 158.92 43.274C158.649 42.91 158.514 42.4247 158.514 41.818C158.514 41.286 158.649 40.8147 158.92 40.404C159.191 39.9933 159.569 39.676 160.054 39.452C160.549 39.228 161.113 39.116 161.748 39.116C162.663 39.116 163.409 39.3447 163.988 39.802C164.576 40.2593 164.907 40.866 164.982 41.622H163.582C163.535 41.2487 163.339 40.922 162.994 40.642C162.649 40.3527 162.191 40.208 161.622 40.208C161.09 40.208 160.656 40.348 160.32 40.628C159.984 40.8987 159.816 41.2813 159.816 41.776C159.816 42.1307 159.914 42.42 160.11 42.644C160.315 42.868 160.563 43.0407 160.852 43.162C161.151 43.274 161.566 43.4047 162.098 43.554C162.742 43.7313 163.26 43.9087 163.652 44.086C164.044 44.254 164.38 44.52 164.66 44.884C164.94 45.2387 165.08 45.724 165.08 46.34C165.08 46.816 164.954 47.264 164.702 47.684C164.45 48.104 164.077 48.4447 163.582 48.706C163.087 48.9673 162.504 49.098 161.832 49.098ZM168.509 42.378V46.9C168.509 47.2733 168.588 47.5393 168.747 47.698C168.906 47.8473 169.181 47.922 169.573 47.922H170.511V49H169.363C168.654 49 168.122 48.8367 167.767 48.51C167.412 48.1833 167.235 47.6467 167.235 46.9V42.378H166.241V41.328H167.235V39.396H168.509V41.328H170.511V42.378H168.509ZM171.579 45.136C171.579 44.352 171.737 43.666 172.055 43.078C172.372 42.4807 172.806 42.0187 173.357 41.692C173.917 41.3653 174.537 41.202 175.219 41.202C175.891 41.202 176.474 41.3467 176.969 41.636C177.463 41.9253 177.832 42.2893 178.075 42.728V41.328H179.363V49H178.075V47.572C177.823 48.02 177.445 48.3933 176.941 48.692C176.446 48.9813 175.867 49.126 175.205 49.126C174.523 49.126 173.907 48.958 173.357 48.622C172.806 48.286 172.372 47.8147 172.055 47.208C171.737 46.6013 171.579 45.9107 171.579 45.136ZM178.075 45.15C178.075 44.5713 177.958 44.0673 177.725 43.638C177.491 43.2087 177.174 42.882 176.773 42.658C176.381 42.4247 175.947 42.308 175.471 42.308C174.995 42.308 174.561 42.42 174.169 42.644C173.777 42.868 173.464 43.1947 173.231 43.624C172.997 44.0533 172.881 44.5573 172.881 45.136C172.881 45.724 172.997 46.2373 173.231 46.676C173.464 47.1053 173.777 47.4367 174.169 47.67C174.561 47.894 174.995 48.006 175.471 48.006C175.947 48.006 176.381 47.894 176.773 47.67C177.174 47.4367 177.491 47.1053 177.725 46.676C177.958 46.2373 178.075 45.7287 178.075 45.15ZM188.124 41.328L183.504 52.612H182.188L183.7 48.916L180.606 41.328H182.02L184.428 47.544L186.808 41.328H188.124ZM196.231 49.098C195.587 49.098 195.008 48.986 194.495 48.762C193.991 48.5287 193.594 48.2113 193.305 47.81C193.015 47.3993 192.866 46.928 192.857 46.396H194.215C194.261 46.8533 194.448 47.2407 194.775 47.558C195.111 47.866 195.596 48.02 196.231 48.02C196.837 48.02 197.313 47.8707 197.659 47.572C198.013 47.264 198.191 46.872 198.191 46.396C198.191 46.0227 198.088 45.7193 197.883 45.486C197.677 45.2527 197.421 45.0753 197.113 44.954C196.805 44.8327 196.389 44.702 195.867 44.562C195.223 44.394 194.705 44.226 194.313 44.058C193.93 43.89 193.599 43.6287 193.319 43.274C193.048 42.91 192.913 42.4247 192.913 41.818C192.913 41.286 193.048 40.8147 193.319 40.404C193.589 39.9933 193.967 39.676 194.453 39.452C194.947 39.228 195.512 39.116 196.147 39.116C197.061 39.116 197.808 39.3447 198.387 39.802C198.975 40.2593 199.306 40.866 199.381 41.622H197.981C197.934 41.2487 197.738 40.922 197.393 40.642C197.047 40.3527 196.59 40.208 196.021 40.208C195.489 40.208 195.055 40.348 194.719 40.628C194.383 40.8987 194.215 41.2813 194.215 41.776C194.215 42.1307 194.313 42.42 194.509 42.644C194.714 42.868 194.961 43.0407 195.251 43.162C195.549 43.274 195.965 43.4047 196.497 43.554C197.141 43.7313 197.659 43.9087 198.051 44.086C198.443 44.254 198.779 44.52 199.059 44.884C199.339 45.2387 199.479 45.724 199.479 46.34C199.479 46.816 199.353 47.264 199.101 47.684C198.849 48.104 198.475 48.4447 197.981 48.706C197.486 48.9673 196.903 49.098 196.231 49.098ZM200.877 45.136C200.877 44.352 201.036 43.666 201.353 43.078C201.671 42.4807 202.105 42.0187 202.655 41.692C203.215 41.3653 203.836 41.202 204.517 41.202C205.189 41.202 205.773 41.3467 206.267 41.636C206.762 41.9253 207.131 42.2893 207.373 42.728V41.328H208.661V49H207.373V47.572C207.121 48.02 206.743 48.3933 206.239 48.692C205.745 48.9813 205.166 49.126 204.503 49.126C203.822 49.126 203.206 48.958 202.655 48.622C202.105 48.286 201.671 47.8147 201.353 47.208C201.036 46.6013 200.877 45.9107 200.877 45.136ZM207.373 45.15C207.373 44.5713 207.257 44.0673 207.023 43.638C206.79 43.2087 206.473 42.882 206.071 42.658C205.679 42.4247 205.245 42.308 204.769 42.308C204.293 42.308 203.859 42.42 203.467 42.644C203.075 42.868 202.763 43.1947 202.529 43.624C202.296 44.0533 202.179 44.5573 202.179 45.136C202.179 45.724 202.296 46.2373 202.529 46.676C202.763 47.1053 203.075 47.4367 203.467 47.67C203.859 47.894 204.293 48.006 204.769 48.006C205.245 48.006 205.679 47.894 206.071 47.67C206.473 47.4367 206.79 47.1053 207.023 46.676C207.257 46.2373 207.373 45.7287 207.373 45.15ZM213.936 42.378H212.326V49H211.052V42.378H210.058V41.328H211.052V40.782C211.052 39.9233 211.272 39.298 211.71 38.906C212.158 38.5047 212.872 38.304 213.852 38.304V39.368C213.292 39.368 212.896 39.48 212.662 39.704C212.438 39.9187 212.326 40.278 212.326 40.782V41.328H213.936V42.378ZM222.422 44.87C222.422 45.1127 222.408 45.3693 222.38 45.64H216.248C216.294 46.396 216.551 46.9887 217.018 47.418C217.494 47.838 218.068 48.048 218.74 48.048C219.29 48.048 219.748 47.922 220.112 47.67C220.485 47.4087 220.746 47.0633 220.896 46.634H222.268C222.062 47.3713 221.652 47.9733 221.036 48.44C220.42 48.8973 219.654 49.126 218.74 49.126C218.012 49.126 217.358 48.9627 216.78 48.636C216.21 48.3093 215.762 47.8473 215.436 47.25C215.109 46.6433 214.946 45.9433 214.946 45.15C214.946 44.3567 215.104 43.6613 215.422 43.064C215.739 42.4667 216.182 42.0093 216.752 41.692C217.33 41.3653 217.993 41.202 218.74 41.202C219.468 41.202 220.112 41.3607 220.672 41.678C221.232 41.9953 221.661 42.434 221.96 42.994C222.268 43.5447 222.422 44.17 222.422 44.87ZM221.106 44.604C221.106 44.1187 220.998 43.7033 220.784 43.358C220.569 43.0033 220.275 42.7373 219.902 42.56C219.538 42.3733 219.132 42.28 218.684 42.28C218.04 42.28 217.489 42.4853 217.032 42.896C216.584 43.3067 216.327 43.876 216.262 44.604H221.106Z" fill="#020313"/>
<g filter="url(#filter0_d)">
<path d="M55 4H26C19.3726 4 14 9.37258 14 16V44C14 50.6274 19.3726 56 26 56H55C61.6274 56 67 50.6274 67 44V16C67 9.37258 61.6274 4 55 4Z" fill="white"/>
</g>
<path d="M12.251 25C11.655 24.9899 11.0794 25.2167 10.6505 25.6307C10.2217 26.0447 9.97478 26.612 9.964 27.208V44H17.248L20.964 34.5L17.248 25H12.248H12.251Z" fill="url(#paint0_linear)"/>
<path d="M55.164 12.143C54.2818 11.6052 53.3013 11.2485 52.2798 11.0936C51.2582 10.9388 50.2161 10.9889 49.2141 11.2411C48.2121 11.4932 47.2704 11.9424 46.4439 12.5624C45.6174 13.1823 44.9225 13.9607 44.4 14.852L31.964 35.788L45.402 44L57.838 23.064C58.9129 21.2565 59.235 19.0992 58.7348 17.0566C58.2347 15.0139 56.9524 13.2494 55.164 12.143Z" fill="url(#paint1_linear)"/>
<path d="M55.018 11.8831C54.4625 11.5447 53.8664 11.278 53.244 11.0891C54.8013 12.2514 55.8723 13.9499 56.2499 15.8561C56.6275 17.7624 56.2847 19.7409 55.288 21.409L43.118 41.781L45.378 43.154L57.656 22.6031C58.7166 20.8289 59.0345 18.7079 58.5406 16.7008C58.0467 14.6937 56.7808 12.9624 55.018 11.8831Z" fill="url(#paint2_linear)"/>
<path d="M51.707 21.804L47.87 19.473C47.646 19.3372 47.3973 19.247 47.1382 19.2079C46.8792 19.1687 46.615 19.1813 46.3608 19.2449C46.1067 19.3085 45.8676 19.4219 45.6576 19.5784C45.4475 19.735 45.2706 19.9317 45.137 20.157C44.8641 20.6132 44.7822 21.1587 44.9092 21.6749C45.0361 22.1912 45.3616 22.6364 45.815 22.914L49.651 25.245C49.875 25.3809 50.1237 25.471 50.3828 25.5102C50.6418 25.5494 50.906 25.5368 51.1602 25.4732C51.4143 25.4096 51.6534 25.2962 51.8634 25.1396C52.0735 24.9831 52.2504 24.7864 52.384 24.561C52.657 24.105 52.739 23.5596 52.6123 23.0434C52.4855 22.5272 52.1602 22.0818 51.707 21.804Z" fill="url(#paint3_linear)"/>
<path d="M46.839 29.9511L43.002 27.6201C42.778 27.4842 42.5293 27.3941 42.2702 27.3549C42.0112 27.3157 41.747 27.3283 41.4928 27.3919C41.2387 27.4556 40.9996 27.5689 40.7896 27.7255C40.5795 27.882 40.4026 28.0787 40.269 28.3041C39.9961 28.7603 39.9142 29.3057 40.0412 29.822C40.1681 30.3382 40.4936 30.7835 40.947 31.0611L44.783 33.3921C45.007 33.528 45.2557 33.6181 45.5148 33.6572C45.7738 33.6964 46.038 33.6838 46.2922 33.6202C46.5463 33.5566 46.7854 33.4432 46.9954 33.2867C47.2055 33.1301 47.3824 32.9334 47.516 32.7081C47.789 32.252 47.871 31.7066 47.7443 31.1904C47.6175 30.6742 47.2922 30.2288 46.839 29.9511Z" fill="url(#paint4_linear)"/>
<path d="M33.756 25H16.964V44H35.964V27.208C35.964 26.6224 35.7314 26.0608 35.3173 25.6467C34.9032 25.2326 34.3416 25 33.756 25V25Z" fill="url(#paint5_linear)"/>
<path d="M29.639 29H22.289C21.9375 29.0003 21.6005 29.1401 21.352 29.3887C21.1036 29.6374 20.964 29.9745 20.964 30.326V31.674C20.964 32.0255 21.1036 32.3626 21.352 32.6113C21.6005 32.8599 21.9375 32.9997 22.289 33H29.639C29.9905 32.9997 30.3275 32.8599 30.576 32.6113C30.8244 32.3626 30.964 32.0255 30.964 31.674V30.326C30.964 29.9745 30.8244 29.6374 30.576 29.3887C30.3275 29.1401 29.9905 29.0003 29.639 29V29Z" fill="url(#paint6_linear)"/>
<path d="M10.925 43.45L5.964 37V65.75C5.9657 66.3098 6.07766 66.8638 6.29347 67.3804C6.50928 67.897 6.82472 68.3659 7.22179 68.7606C7.61885 69.1552 8.08976 69.4678 8.60762 69.6805C9.12549 69.8931 9.68017 70.0017 10.24 70H21.928L25.964 53.5L21.928 37L10.925 43.45Z" fill="url(#paint7_linear)"/>
<path d="M6.005 37L1.131 47.492C1.00608 47.7605 0.950791 48.0562 0.970225 48.3518C0.98966 48.6473 1.08319 48.9332 1.2422 49.1831C1.40121 49.4329 1.62058 49.6387 1.88007 49.7815C2.13956 49.9243 2.43082 49.9994 2.727 50H13.611C14.3024 49.9998 14.9793 49.8021 15.562 49.43C16.1447 49.058 16.6089 48.5271 16.9 47.9L21.964 37H6.005Z" fill="url(#paint8_linear)"/>
<path d="M21.964 37V70H48.692C49.2516 70.0014 49.8059 69.8927 50.3235 69.6799C50.841 69.4671 51.3115 69.1544 51.7082 68.7598C52.1049 68.3651 52.42 67.8962 52.6355 67.3798C52.8509 66.8634 52.9626 66.3096 52.964 65.75V37L38.605 40.929L21.964 37Z" fill="url(#paint9_linear)"/>
<path d="M57.798 47.492L52.931 37H21.964L27.02 47.9C27.3099 48.5267 27.7731 49.0574 28.3548 49.4295C28.9365 49.8016 29.6125 49.9995 30.303 50H56.203C56.4991 49.9993 56.7902 49.924 57.0496 49.7812C57.3089 49.6383 57.5282 49.4325 57.6871 49.1826C57.846 48.9328 57.9394 48.647 57.9588 48.3515C57.9782 48.0561 57.9229 47.7605 57.798 47.492Z" fill="url(#paint10_linear)"/>
<defs>
<filter id="filter0_d" x="5" y="0" width="71" height="70" filterUnits="userSpaceOnUse" color-interpolation-filters="sRGB">
<feFlood flood-opacity="0" result="BackgroundImageFix"/>
<feColorMatrix in="SourceAlpha" type="matrix" values="0 0 0 0 0 0 0 0 0 0 0 0 0 0 0 0 0 0 127 0"/>
<feOffset dy="5"/>
<feGaussianBlur stdDeviation="4.5"/>
<feColorMatrix type="matrix" values="0 0 0 0 0 0 0 0 0 0 0 0 0 0 0 0 0 0 0.059 0"/>
<feBlend mode="normal" in2="BackgroundImageFix" result="effect1_dropShadow"/>
<feBlend mode="normal" in="SourceGraphic" in2="effect1_dropShadow" result="shape"/>
</filter>
<linearGradient id="paint0_linear" x1="10.866" y1="27.1467" x2="24.1389" y2="34.7079" gradientUnits="userSpaceOnUse">
<stop stop-color="#FFE1A1"/>
<stop offset="0.993" stop-color="#FEDC93"/>
</linearGradient>
<linearGradient id="paint1_linear" x1="55.7249" y1="9.61998" x2="19.8203" y2="32.2744" gradientUnits="userSpaceOnUse">
<stop stop-color="#FFA981"/>
<stop offset="0.428" stop-color="#FF8666"/>
<stop offset="1" stop-color="#FF5C45"/>
</linearGradient>
<linearGradient id="paint2_linear" x1="54.5425" y1="9.64612" x2="30.6043" y2="20.0187" gradientUnits="userSpaceOnUse">
<stop stop-color="#FF5C45"/>
<stop offset="0.572" stop-color="#FF8666"/>
<stop offset="1" stop-color="#FFA981"/>
</linearGradient>
<linearGradient id="paint3_linear" x1="45.492" y1="19.9028" x2="50.5522" y2="26.0375" gradientUnits="userSpaceOnUse">
<stop stop-color="#FFD77A"/>
<stop offset="1" stop-color="#FFDA5E"/>
</linearGradient>
<linearGradient id="paint4_linear" x1="40.624" y1="28.0498" x2="45.6842" y2="34.1845" gradientUnits="userSpaceOnUse">
<stop stop-color="#FFD77A"/>
<stop offset="1" stop-color="#FFDA5E"/>
</linearGradient>
<linearGradient id="paint5_linear" x1="35.964" y1="25" x2="16.964" y2="42.309" gradientUnits="userSpaceOnUse">
<stop stop-color="#6BDEC5"/>
<stop offset="1" stop-color="#39B993"/>
</linearGradient>
<linearGradient id="paint6_linear" x1="23.424" y1="30.192" x2="26.015" y2="34.9667" gradientUnits="userSpaceOnUse">
<stop stop-color="#F8F6FB"/>
<stop offset="1" stop-color="#EFDCFB"/>
</linearGradient>
<linearGradient id="paint7_linear" x1="5.084" y1="69.142" x2="32.6535" y2="49.524" gradientUnits="userSpaceOnUse">
<stop stop-color="#FFA162"/>
<stop offset="0.291" stop-color="#FFA365"/>
<stop offset="1" stop-color="#FFC198"/>
</linearGradient>
<linearGradient id="paint8_linear" x1="21.964" y1="33.815" x2="12.2581" y2="54.645" gradientUnits="userSpaceOnUse">
<stop stop-color="#F99E61"/>
<stop offset="1" stop-color="#D78650"/>
</linearGradient>
<linearGradient id="paint9_linear" x1="24.971" y1="41.356" x2="52.2594" y2="64.8672" gradientUnits="userSpaceOnUse">
<stop stop-color="#FFC198"/>
<stop offset="1" stop-color="#FFA162"/>
</linearGradient>
<linearGradient id="paint10_linear" x1="25.4559" y1="38.716" x2="32.5952" y2="56.8342" gradientUnits="userSpaceOnUse">
<stop stop-color="#F99E61"/>
<stop offset="1" stop-color="#D78650"/>
</linearGradient>
</defs>
</svg>
