<svg width="512" height="512" viewBox="0 0 512 512" fill="none" xmlns="http://www.w3.org/2000/svg">
<path d="M73.181 122.943C73.181 107.679 90.572 96.157 98.124 82.717C105.309 69.932 104.783 50.112 117.518 39.859C129.131 30.509 150.304 33.395 165.536 26.834C179.542 20.801 190.527 3.625 206.821 0.478996C222.008 -2.453 239.445 9.04 256 9.04C272.554 9.04 289.99 -2.453 305.175 0.478996C321.47 3.625 332.455 20.801 346.461 26.834C361.695 33.396 382.869 30.51 394.483 39.861C407.218 50.114 406.692 69.934 413.877 82.719C421.429 96.158 438.819 107.68 438.819 122.943H73.181Z" fill="#FFFDF4"/>
<path d="M413.876 82.719C406.692 69.934 407.217 50.114 394.482 39.861C386.457 33.4 373.867 32.781 361.827 30.85C366.407 40.956 367.677 53.233 372.669 62.115C373.853 64.221 375.278 66.28 376.84 68.314C387.524 82.224 377.662 102.339 360.123 102.339H82.663C77.443 108.748 73.181 115.387 73.181 122.943L256 162.499L438.819 122.942C438.819 107.68 421.428 96.157 413.876 82.719Z" fill="#FFF9D0"/>
<path d="M362.345 62.071C362.345 66.338 358.886 69.797 354.619 69.797C350.352 69.797 346.893 66.338 346.893 62.071C346.893 57.804 350.352 54.345 354.619 54.345C358.886 54.345 362.345 57.804 362.345 62.071ZM152.17 83.53C147.903 83.53 144.444 86.989 144.444 91.256C144.444 95.523 147.903 98.982 152.17 98.982C156.437 98.982 159.896 95.523 159.896 91.256C159.896 86.989 156.437 83.53 152.17 83.53ZM186.202 53.745C181.935 53.745 178.476 57.204 178.476 61.471C178.476 65.738 181.935 69.197 186.202 69.197C190.469 69.197 193.928 65.738 193.928 61.471C193.928 57.204 190.469 53.745 186.202 53.745ZM240.305 83.53C236.038 83.53 232.579 86.989 232.579 91.256C232.579 95.523 236.038 98.982 240.305 98.982C244.572 98.982 248.031 95.523 248.031 91.256C248.031 86.989 244.572 83.53 240.305 83.53ZM297.462 35.717C293.195 35.717 289.736 39.176 289.736 43.443C289.736 47.71 293.195 51.169 297.462 51.169C301.729 51.169 305.188 47.71 305.188 43.443C305.188 39.176 301.729 35.717 297.462 35.717ZM377.743 83.014C373.476 83.014 370.017 86.473 370.017 90.74C370.017 95.007 373.476 98.466 377.743 98.466C382.01 98.466 385.469 95.007 385.469 90.74C385.469 86.473 382.01 83.014 377.743 83.014Z" fill="#FFF9D0"/>
<path d="M385.47 90.741C385.47 87.676 383.685 85.028 381.099 83.779C380.433 89.025 377.812 93.926 373.779 97.373C374.938 98.067 376.294 98.467 377.743 98.467C382.01 98.467 385.47 95.008 385.47 90.741V90.741Z" fill="#FFF9C1"/>
<path d="M454.666 405.014V181.452H57.334V405.014C57.334 421.671 50.422 437.759 37.797 448.626C22.659 461.656 13.072 480.955 13.066 502.493C13.065 507.737 17.308 512 22.552 512H489.446C494.69 512 498.934 507.737 498.932 502.493C498.926 480.954 489.339 461.655 474.201 448.626C461.578 437.759 454.666 421.671 454.666 405.014V405.014Z" fill="#E27D47"/>
<path d="M474.202 448.626C461.578 437.759 454.665 421.671 454.665 405.014V202.056L413.458 185.733V384.514C413.458 401.141 420.393 417.175 432.995 428.022C433.226 428.221 433.456 428.421 433.685 428.623C458.44 450.488 442.842 491.396 409.813 491.396H13.932C13.364 495.012 13.068 498.718 13.067 502.493C13.065 507.737 17.309 512 22.553 512H489.447C494.691 512 498.935 507.737 498.933 502.493C498.927 480.954 489.34 461.655 474.202 448.626V448.626Z" fill="#DD6938"/>
<path d="M457.667 202.056H54.333C45.717 202.056 38.733 195.072 38.733 186.456V138.543C38.733 129.927 45.717 122.943 54.333 122.943H457.667C466.283 122.943 473.267 129.927 473.267 138.543V186.456C473.267 195.071 466.282 202.056 457.667 202.056Z" fill="#EAAA89"/>
<path d="M457.667 122.943H432.06V134.829C432.06 160.578 411.186 181.452 385.437 181.452H38.733V186.456C38.733 195.071 45.717 202.056 54.333 202.056H457.667C466.283 202.056 473.267 195.072 473.267 186.456V138.543C473.267 129.927 466.282 122.943 457.667 122.943V122.943Z" fill="#E4936B"/>
<path d="M149.901 272.601H107.105C102.837 272.601 99.379 269.142 99.379 264.875C99.379 260.608 102.838 257.149 107.105 257.149H149.901C154.169 257.149 157.627 260.608 157.627 264.875C157.628 269.142 154.169 272.601 149.901 272.601Z" fill="#DD6938"/>
<path d="M128.504 422.387H107.106C102.838 422.387 99.38 418.928 99.38 414.661C99.38 410.394 102.839 406.935 107.106 406.935H128.504C132.772 406.935 136.23 410.394 136.23 414.661C136.23 418.928 132.772 422.387 128.504 422.387Z" fill="#DD6938"/>
<path d="M404.894 397.423H376.363C372.095 397.423 368.637 393.964 368.637 389.697C368.637 385.43 372.096 381.971 376.363 381.971H404.894C409.162 381.971 412.62 385.43 412.62 389.697C412.621 393.963 409.162 397.423 404.894 397.423Z" fill="#DD6938"/>
<path d="M253.325 358.302H161.492C157.224 358.302 153.766 354.843 153.766 350.576C153.766 346.309 157.225 342.85 161.492 342.85H253.325C257.593 342.85 261.051 346.309 261.051 350.576C261.051 354.843 257.593 358.302 253.325 358.302Z" fill="#DD6938"/>
<path d="M387.062 447.351H257.782C253.514 447.351 250.056 443.892 250.056 439.625C250.056 435.358 253.515 431.899 257.782 431.899H387.062C391.33 431.899 394.788 435.358 394.788 439.625C394.789 443.892 391.33 447.351 387.062 447.351Z" fill="#DD6938"/>
<path d="M345.158 302.023H281.856C277.588 302.023 274.13 298.564 274.13 294.297C274.13 290.03 277.589 286.571 281.856 286.571H345.158C349.426 286.571 352.884 290.03 352.884 294.297C352.884 298.564 349.426 302.023 345.158 302.023Z" fill="#DD6938"/>
<path d="M397.811 261.038H383.447C379.179 261.038 375.721 257.579 375.721 253.312C375.721 249.045 379.18 245.586 383.447 245.586H397.811C402.079 245.586 405.537 249.045 405.537 253.312C405.537 257.579 402.078 261.038 397.811 261.038Z" fill="#DD6938"/>
<path d="M91.556 130.815V194.176C91.556 198.61 94.048 202.049 96.192 202.049C96.287 202.049 96.382 202.051 96.476 202.055H77.283C76.52 199.593 76.103 196.94 76.103 194.176V130.815C76.103 128.054 76.519 125.403 77.281 122.942H96.17C94.031 122.967 91.556 126.397 91.556 130.815V130.815ZM420.444 130.815V194.176C420.444 198.61 417.952 202.049 415.808 202.049C415.713 202.049 415.618 202.051 415.524 202.055H434.716C435.479 199.593 435.896 196.94 435.896 194.176V130.815C435.896 128.054 435.48 125.403 434.718 122.942H415.83C417.969 122.967 420.444 126.397 420.444 130.815Z" fill="#FFD0BE"/>
<path d="M91.556 194.177V181.452H76.104V194.177C76.104 196.941 76.52 199.594 77.284 202.056H96.476C96.382 202.053 96.287 202.05 96.192 202.05C94.048 202.05 91.556 198.611 91.556 194.177Z" fill="#FFC3AC"/>
<path d="M435.896 130.815C435.896 128.054 435.48 125.403 434.718 122.942H432.059V134.829C432.059 146.631 427.673 157.408 420.443 165.622V194.177C420.443 198.611 417.951 202.05 415.807 202.05C415.712 202.05 415.617 202.052 415.523 202.056H434.715C435.478 199.594 435.895 196.941 435.895 194.177V130.815H435.896Z" fill="#FFC3AC"/>
</svg>
