<svg height="512" viewBox="0 0 58 58" width="512" xmlns="http://www.w3.org/2000/svg"><g id="Page-1" fill="none" fill-rule="evenodd"><g id="008---Coffee-and-Beans" fill-rule="nonzero"><path id="Shape" d="m14.98 8 .91-7.13c.0626778-.49853749.4875415-.8719026.99-.87l35.12-.00000724-6 47.00000724h-18.13z" fill="#cb8252"/><path id="Shape" d="m57.88 40.17c.0725492.4781438-.2106199.9388219-.67 1.09l-3.21 1.07-2 .67-6 4 6-47z" fill="#a56a43"/><path id="Shape" d="m54 29v13.33l-2 .67v-14c0-.5522847.4477153-1 1-1s1 .4477153 1 1z" fill="#805333"/><g fill="#a56a43"><path id="Shape" d="m50.98 9h-1.98c-.5522847 0-1-.44771525-1-1s.4477153-1 1-1h1.98c.5522847 0 1 .44771525 1 1s-.4477153 1-1 1z"/><path id="Shape" d="m45 9h-2c-.5522847 0-1-.44771525-1-1s.4477153-1 1-1h2c.5522847 0 1 .44771525 1 1s-.4477153 1-1 1z"/><path id="Shape" d="m39 9h-2c-.5522847 0-1-.44771525-1-1s.4477153-1 1-1h2c.5522847 0 1 .44771525 1 1s-.4477153 1-1 1z"/><path id="Shape" d="m33 9h-2c-.5522847 0-1-.44771525-1-1s.4477153-1 1-1h2c.5522847 0 1 .44771525 1 1s-.4477153 1-1 1z"/></g><path id="Shape" d="m25.64 50-.49 6.16c-.0835941 1.0416439-.9550126 1.8433489-2 1.84h-16.3c-1.04498742.0033489-1.91640594-.7983561-2-1.84l-.49-6.16 10.64-2z" fill="#3b97d3"/><path id="Shape" d="m28 20-.63 8-12.37 2-12.37-2-.63-8 13-2z" fill="#3b97d3"/><path id="Shape" d="m27 10v5.58l-24-1.58v-4c.0032948-1.10320187.89679813-1.9967052 2-2h20c1.1032019.0032948 1.9967052.89679813 2 2z" fill="#3f5c6c"/><path id="Shape" d="m29.29 29.08-.15 1.92-1.27 16-.16 2.08c-.041797.5208219-.4775063.9216745-1 .92h-23.42c-.52249371.0016745-.95820297-.3991781-1-.92l-1.58-20c-.02237575-.2787824.07301764-.5541957.26303378-.7594132.19001613-.2052174.45728869-.3214833.73696622-.3205868h26.58c.2796775-.0008965.5469501.1153694.7369662.3205868.1900162.2052175.2854096.4806308.2630338.7594132z" fill="#e4c05c"/><path id="Shape" d="m21.22 34.18c-1.83 1.75-3.22.42-5.05 2.25-1.87 1.87-.47 3.27-2.34 5.14-1.83 1.83-3.22.5-5.05 2.25-1.54-2.43-.75-6.25 2.02-9.02 3.09-3.09 7.48-3.72 9.8-1.4.2341872.2368835.4420631.4984047.62.78z" fill="#a56a43"/><path id="Shape" d="m19.2 43.2c-3.09 3.09-7.48 3.72-9.8 1.4-.23418724-.2368835-.44206307-.4984047-.62-.78 1.83-1.75 3.22-.42 5.05-2.25 1.87-1.87.47-3.27 2.34-5.14 1.83-1.83 3.22-.5 5.05-2.25 1.54 2.43.75 6.25-2.02 9.02z" fill="#805333"/><path id="Shape" d="m41.84 18.14-1.72 12c-.0697393.4932322-.4918619.8599245-.99.86h-9.99l.15-1.92c.0223758-.2787824-.0730176-.5541957-.2630338-.7594132-.1900161-.2052174-.4572887-.3214833-.7369662-.3205868h-.92l.63-8c1.1032019-.0032948 1.9967052-.8967981 2-2v-1h10.85c.2896143.0000439.5649854.1256449.7548816.3443133.1898963.2186685.2756644.5089246.2351184.7956867z" fill="#f9c795"/><path id="Shape" d="m30 15.87v2.13c-.0032948 1.1032019-.8967981 1.9967052-2 2h-26c-1.10320187-.0032948-1.9967052-.8967981-2-2v-3.86c.00141057-.5538661.23244097-1.0823473.63804163-1.459518.40560066-.3771708.94944925-.5692545 1.50195837-.530482l.86.06 24 1.58 1.14.08c1.0495509.073646 1.8625807.9478716 1.86 2z" fill="#547580"/></g></g></svg>