<svg width="24" height="24" viewBox="0 0 24 24" fill="none" xmlns="http://www.w3.org/2000/svg">
<path d="M12 0C9.62663 0 7.30655 0.703788 5.33316 2.02236C3.35977 3.34094 1.8217 5.21509 0.913451 7.4078C0.00519943 9.60051 -0.232441 12.0133 0.230582 14.3411C0.693605 16.6689 1.83649 18.8071 3.51472 20.4853C5.19295 22.1635 7.33115 23.3064 9.65892 23.7694C11.9867 24.2324 14.3995 23.9948 16.5922 23.0866C18.7849 22.1783 20.6591 20.6402 21.9776 18.6668C23.2962 16.6935 24 14.3734 24 12C24 8.8174 22.7357 5.76515 20.4853 3.51472C18.2348 1.26428 15.1826 0 12 0V0Z" fill="url(#paint0_linear)"/>
<path d="M21.4 4.24699C21.0835 4.04447 20.7049 3.96187 20.3328 4.01415C19.9607 4.06642 19.6195 4.2501 19.371 4.53199L12.034 13.492L9.591 10.738C9.33242 10.4652 8.98488 10.2937 8.61102 10.2544C8.23717 10.2152 7.8616 10.3108 7.552 10.524C7.40581 10.6183 7.28186 10.7432 7.18874 10.8902C7.09563 11.0371 7.03557 11.2025 7.01274 11.375C6.98991 11.5474 7.00485 11.7228 7.05653 11.8889C7.1082 12.055 7.19537 12.2079 7.312 12.337L12.126 17.768L21.721 6.05299C21.8327 5.91872 21.9138 5.76167 21.9586 5.59283C22.0033 5.42398 22.0107 5.24739 21.9801 5.07541C21.9495 4.90343 21.8818 4.74019 21.7816 4.59711C21.6814 4.45402 21.5512 4.33453 21.4 4.24699Z" fill="white"/>
<defs>
<linearGradient id="paint0_linear" x1="42.744" y1="3.36" x2="-6.864" y2="20.568" gradientUnits="userSpaceOnUse">
<stop stop-color="#FFA981"/>
<stop offset="0.428" stop-color="#FF8666"/>
<stop offset="1" stop-color="#FF5C45"/>
</linearGradient>
</defs>
</svg>
